<svg width="262" height="263" viewBox="0 0 262 263" fill="none" xmlns="http://www.w3.org/2000/svg">
<path d="M72.9076 186.49C72.9065 183.129 75.6662 180.422 79.0266 180.489L179.835 182.487C183.067 182.551 185.667 185.164 185.716 188.396L185.94 203.305L78.96 204.166C75.6283 204.193 72.9128 201.5 72.9117 198.168L72.9076 186.49Z" fill="#FAFFDB"/>
<line y1="-0.05" x2="108.486" y2="-0.05" transform="matrix(0.999999 0.00166566 0.000168835 1 78.6477 187.116)" stroke="#E1E5C5" stroke-width="0.1"/>
<line y1="-0.05" x2="108.486" y2="-0.05" transform="matrix(0.999999 0.00166566 0.000168835 1 77.2468 188.298)" stroke="#E1E5C5" stroke-width="0.1"/>
<line y1="-0.05" x2="108.486" y2="-0.05" transform="matrix(0.999999 0.00166566 0.000168835 1 77.1458 189.583)" stroke="#E1E5C5" stroke-width="0.1"/>
<line y1="-0.05" x2="108.486" y2="-0.05" transform="matrix(0.999999 0.00166566 0.000168835 1 77.0447 190.867)" stroke="#E1E5C5" stroke-width="0.1"/>
<line y1="-0.05" x2="108.486" y2="-0.05" transform="matrix(0.999999 0.00166566 0.000168835 1 76.9436 192.151)" stroke="#E1E5C5" stroke-width="0.1"/>
<line y1="-0.05" x2="108.486" y2="-0.05" transform="matrix(0.999999 0.00166566 0.000168835 1 76.8425 193.436)" stroke="#E1E5C5" stroke-width="0.1"/>
<line y1="-0.05" x2="108.486" y2="-0.05" transform="matrix(0.999999 0.00166566 0.000168835 1 76.7415 194.72)" stroke="#E1E5C5" stroke-width="0.1"/>
<line y1="-0.05" x2="108.486" y2="-0.05" transform="matrix(0.999999 0.00166566 0.000168835 1 76.6404 196.005)" stroke="#E1E5C5" stroke-width="0.1"/>
<line y1="-0.05" x2="108.486" y2="-0.05" transform="matrix(0.999999 0.00166566 0.000168835 1 76.5393 197.289)" stroke="#E1E5C5" stroke-width="0.1"/>
<line y1="-0.05" x2="108.486" y2="-0.05" transform="matrix(0.999999 0.00166566 0.000168835 1 76.4382 198.574)" stroke="#E1E5C5" stroke-width="0.1"/>
<line y1="-0.05" x2="108.486" y2="-0.05" transform="matrix(0.999999 0.00166566 0.000168835 1 76.3372 199.858)" stroke="#E1E5C5" stroke-width="0.1"/>
<path d="M184.889 183.56C184.924 182.519 186.191 182.03 186.917 182.778C187.14 183.008 187.26 183.319 187.249 183.639L186.573 203.829C185.41 204.212 184.221 203.321 184.262 202.098L184.889 183.56Z" fill="#FAFFDB"/>
<path d="M72.983 62.512C72.9819 59.1983 75.6672 56.511 78.981 56.5099L181.368 56.4744C184.686 56.4732 187.376 59.1657 187.37 62.484L187.173 185.181L81.5326 185.878C80.1176 185.888 78.7515 186.397 77.6755 187.316L73.0277 191.285L72.983 62.512Z" fill="#00A1FF"/>
<path d="M72.983 62.512C72.9819 59.1983 75.6672 56.511 78.981 56.5099L86.6961 56.5072L86.7106 185.216L78.7238 185.635C75.8547 185.786 73.4951 187.949 73.0965 190.794L73.0277 191.285L72.983 62.512Z" fill="#0071B2"/>
<mask id="mask0_842_9088" style="mask-type:alpha" maskUnits="userSpaceOnUse" x="184" y="182" width="4" height="22">
<path d="M184.953 183.514C184.987 182.502 186.228 182.036 186.92 182.776C187.126 182.997 187.236 183.29 187.226 183.591L186.548 203.812C185.434 204.194 184.282 203.342 184.322 202.165L184.953 183.514Z" fill="#FAFFDB"/>
</mask>
<g mask="url(#mask0_842_9088)">
<line y1="-0.05" x2="108.486" y2="-0.05" transform="matrix(0.431221 -0.902246 0.903036 0.429565 174.846 202.459)" stroke="#E1E5C5" stroke-width="0.1"/>
<line y1="-0.05" x2="108.486" y2="-0.05" transform="matrix(0.431221 -0.902246 0.903036 0.429565 175.311 204.232)" stroke="#E1E5C5" stroke-width="0.1"/>
<line y1="-0.05" x2="108.486" y2="-0.05" transform="matrix(0.431221 -0.902246 0.903036 0.429565 176.428 204.875)" stroke="#E1E5C5" stroke-width="0.1"/>
<line y1="-0.05" x2="108.486" y2="-0.05" transform="matrix(0.431221 -0.902246 0.903036 0.429565 177.544 205.518)" stroke="#E1E5C5" stroke-width="0.1"/>
<line y1="-0.05" x2="108.486" y2="-0.05" transform="matrix(0.431221 -0.902246 0.903036 0.429565 178.66 206.162)" stroke="#E1E5C5" stroke-width="0.1"/>
<line y1="-0.05" x2="108.486" y2="-0.05" transform="matrix(0.431221 -0.902246 0.903036 0.429565 179.777 206.805)" stroke="#E1E5C5" stroke-width="0.1"/>
<line y1="-0.05" x2="108.486" y2="-0.05" transform="matrix(0.431221 -0.902246 0.903036 0.429565 180.893 207.448)" stroke="#E1E5C5" stroke-width="0.1"/>
<line y1="-0.05" x2="108.486" y2="-0.05" transform="matrix(0.431221 -0.902246 0.903036 0.429565 182.01 208.092)" stroke="#E1E5C5" stroke-width="0.1"/>
<line y1="-0.05" x2="108.486" y2="-0.05" transform="matrix(0.431221 -0.902246 0.903036 0.429565 183.126 208.734)" stroke="#E1E5C5" stroke-width="0.1"/>
<line y1="-0.05" x2="108.486" y2="-0.05" transform="matrix(0.431221 -0.902246 0.903036 0.429565 184.242 209.378)" stroke="#E1E5C5" stroke-width="0.1"/>
<line y1="-0.05" x2="108.486" y2="-0.05" transform="matrix(0.431221 -0.902246 0.903036 0.429565 185.359 210.021)" stroke="#E1E5C5" stroke-width="0.1"/>
<line y1="-0.05" x2="108.486" y2="-0.05" transform="matrix(0.431221 -0.902246 0.903036 0.429565 174.745 203.743)" stroke="#E1E5C5" stroke-width="0.1"/>
<line y1="-0.05" x2="108.486" y2="-0.05" transform="matrix(0.431221 -0.902246 0.903036 0.429565 175.21 205.516)" stroke="#E1E5C5" stroke-width="0.1"/>
<line y1="-0.05" x2="108.486" y2="-0.05" transform="matrix(0.431221 -0.902246 0.903036 0.429565 176.326 206.159)" stroke="#E1E5C5" stroke-width="0.1"/>
<line y1="-0.05" x2="108.486" y2="-0.05" transform="matrix(0.431221 -0.902246 0.903036 0.429565 177.443 206.803)" stroke="#E1E5C5" stroke-width="0.1"/>
<line y1="-0.05" x2="108.486" y2="-0.05" transform="matrix(0.431221 -0.902246 0.903036 0.429565 178.559 207.446)" stroke="#E1E5C5" stroke-width="0.1"/>
<line y1="-0.05" x2="108.486" y2="-0.05" transform="matrix(0.431221 -0.902246 0.903036 0.429565 179.676 208.089)" stroke="#E1E5C5" stroke-width="0.1"/>
<line y1="-0.05" x2="108.486" y2="-0.05" transform="matrix(0.431221 -0.902246 0.903036 0.429565 180.792 208.732)" stroke="#E1E5C5" stroke-width="0.1"/>
<line y1="-0.05" x2="108.486" y2="-0.05" transform="matrix(0.431221 -0.902246 0.903036 0.429565 181.908 209.376)" stroke="#E1E5C5" stroke-width="0.1"/>
<line y1="-0.05" x2="108.486" y2="-0.05" transform="matrix(0.431221 -0.902246 0.903036 0.429565 183.025 210.019)" stroke="#E1E5C5" stroke-width="0.1"/>
<line y1="-0.05" x2="108.486" y2="-0.05" transform="matrix(0.431221 -0.902246 0.903036 0.429565 184.141 210.662)" stroke="#E1E5C5" stroke-width="0.1"/>
<line y1="-0.05" x2="108.486" y2="-0.05" transform="matrix(0.431221 -0.902246 0.903036 0.429565 185.257 211.305)" stroke="#E1E5C5" stroke-width="0.1"/>
<line y1="-0.05" x2="108.486" y2="-0.05" transform="matrix(0.431221 -0.902246 0.903036 0.429565 174.644 205.028)" stroke="#E1E5C5" stroke-width="0.1"/>
<line y1="-0.05" x2="108.486" y2="-0.05" transform="matrix(0.431221 -0.902246 0.903036 0.429565 175.109 206.801)" stroke="#E1E5C5" stroke-width="0.1"/>
<line y1="-0.05" x2="108.486" y2="-0.05" transform="matrix(0.431221 -0.902246 0.903036 0.429565 176.225 207.444)" stroke="#E1E5C5" stroke-width="0.1"/>
<line y1="-0.05" x2="108.486" y2="-0.05" transform="matrix(0.431221 -0.902246 0.903036 0.429565 177.342 208.087)" stroke="#E1E5C5" stroke-width="0.1"/>
<line y1="-0.05" x2="108.486" y2="-0.05" transform="matrix(0.431221 -0.902246 0.903036 0.429565 178.458 208.731)" stroke="#E1E5C5" stroke-width="0.1"/>
<line y1="-0.05" x2="108.486" y2="-0.05" transform="matrix(0.431221 -0.902246 0.903036 0.429565 179.574 209.374)" stroke="#E1E5C5" stroke-width="0.1"/>
<line y1="-0.05" x2="108.486" y2="-0.05" transform="matrix(0.431221 -0.902246 0.903036 0.429565 180.691 210.017)" stroke="#E1E5C5" stroke-width="0.1"/>
<line y1="-0.05" x2="108.486" y2="-0.05" transform="matrix(0.431221 -0.902246 0.903036 0.429565 181.807 210.66)" stroke="#E1E5C5" stroke-width="0.1"/>
<line y1="-0.05" x2="108.486" y2="-0.05" transform="matrix(0.431221 -0.902246 0.903036 0.429565 182.924 211.303)" stroke="#E1E5C5" stroke-width="0.1"/>
<line y1="-0.05" x2="108.486" y2="-0.05" transform="matrix(0.431221 -0.902246 0.903036 0.429565 184.04 211.947)" stroke="#E1E5C5" stroke-width="0.1"/>
<line y1="-0.05" x2="108.486" y2="-0.05" transform="matrix(0.431221 -0.902246 0.903036 0.429565 185.156 212.59)" stroke="#E1E5C5" stroke-width="0.1"/>
</g>
<path d="M184.95 184.154L81.4019 184.19C78.0881 184.191 75.4028 186.879 75.4039 190.192L75.4062 196.797C75.4074 200.111 78.0946 202.796 81.4083 202.795L184.956 202.759" stroke="#2DC0C5" stroke-width="4" stroke-linecap="round"/>
<path d="M89.8167 193.017L105.277 192.836L105.457 208.296L97.9419 203.138L89.9971 208.477L89.8167 193.017Z" fill="#F3A023"/>
</svg>
