<svg width="47" height="45" viewBox="0 0 47 45" fill="none" xmlns="http://www.w3.org/2000/svg">
<path d="M8.93382 0C8.65794 0 8.43429 0.223239 8.43429 0.498619C8.43429 0.773999 8.65794 0.997238 8.93382 0.997238H39.6011C39.877 0.997238 40.1006 0.773999 40.1006 0.498619C40.1006 0.223239 39.877 0 39.6011 0H8.93382Z" fill="url(#paint0_linear_1_10030)"/>
<path fill-rule="evenodd" clip-rule="evenodd" d="M35.998 34.1702C35.4462 34.1702 34.9989 34.6166 34.9989 35.1674V37.7646C34.9989 38.3153 35.4462 38.7618 35.998 38.7618H38.5999C39.1517 38.7618 39.599 38.3153 39.599 37.7646V35.1674C39.599 34.6166 39.1517 34.1702 38.5999 34.1702H35.998ZM38.5999 35.1674H35.998V37.7646H38.5999V35.1674Z" fill="url(#paint1_linear_1_10030)"/>
<path fill-rule="evenodd" clip-rule="evenodd" d="M34.9989 26.7495C34.9989 26.1987 35.4462 25.7522 35.998 25.7522H38.5999C39.1517 25.7522 39.599 26.1987 39.599 26.7495V29.3466C39.599 29.8974 39.1517 30.3439 38.5999 30.3439H35.998C35.4462 30.3439 34.9989 29.8974 34.9989 29.3466V26.7495ZM35.998 26.7495H38.5999V29.3466L35.998 29.3466V26.7495Z" fill="url(#paint2_linear_1_10030)"/>
<path fill-rule="evenodd" clip-rule="evenodd" d="M35.998 17.3343C35.4462 17.3343 34.9989 17.7808 34.9989 18.3315V20.9287C34.9989 21.4795 35.4462 21.9259 35.998 21.9259H38.5999C39.1517 21.9259 39.599 21.4795 39.599 20.9287V18.3315C39.599 17.7808 39.1517 17.3343 38.5999 17.3343H35.998ZM38.5999 18.3315H35.998V20.9287L38.5999 20.9287V18.3315Z" fill="url(#paint3_linear_1_10030)"/>
<path fill-rule="evenodd" clip-rule="evenodd" d="M34.9989 9.91361C34.9989 9.36285 35.4462 8.91637 35.998 8.91637H38.5999C39.1517 8.91637 39.599 9.36285 39.599 9.91361V12.5108C39.599 13.0615 39.1517 13.508 38.5999 13.508H35.998C35.4462 13.508 34.9989 13.0615 34.9989 12.5108V9.91361ZM35.998 9.91361H38.5999V12.5108L35.998 12.5108V9.91361Z" fill="url(#paint4_linear_1_10030)"/>
<path fill-rule="evenodd" clip-rule="evenodd" d="M26.8001 25.7522C26.2483 25.7522 25.801 26.1987 25.801 26.7495V29.3466C25.801 29.8974 26.2483 30.3439 26.8001 30.3439H29.4021C29.9538 30.3439 30.4011 29.8974 30.4011 29.3466V26.7495C30.4011 26.1987 29.9538 25.7522 29.4021 25.7522H26.8001ZM29.4021 26.7495H26.8001V29.3466L29.4021 29.3466L29.4021 26.7495Z" fill="url(#paint5_linear_1_10030)"/>
<path fill-rule="evenodd" clip-rule="evenodd" d="M25.801 18.3315C25.801 17.7808 26.2483 17.3343 26.8001 17.3343H29.4021C29.9538 17.3343 30.4011 17.7808 30.4011 18.3315V20.9287C30.4011 21.4795 29.9538 21.9259 29.4021 21.9259H26.8001C26.2483 21.9259 25.801 21.4795 25.801 20.9287V18.3315ZM26.8001 18.3315H29.4021L29.4021 20.9287L26.8001 20.9287V18.3315Z" fill="url(#paint6_linear_1_10030)"/>
<path fill-rule="evenodd" clip-rule="evenodd" d="M26.8001 8.91637C26.2483 8.91637 25.801 9.36285 25.801 9.91361V12.5108C25.801 13.0615 26.2483 13.508 26.8001 13.508H29.4021C29.9538 13.508 30.4011 13.0615 30.4011 12.5108V9.91361C30.4011 9.36285 29.9538 8.91637 29.4021 8.91637H26.8001ZM29.4021 9.91361H26.8001V12.5108L29.4021 12.5108L29.4021 9.91361Z" fill="url(#paint7_linear_1_10030)"/>
<path fill-rule="evenodd" clip-rule="evenodd" d="M16.5997 26.7495C16.5997 26.1987 17.047 25.7522 17.5988 25.7522H20.2007C20.7525 25.7522 21.1998 26.1987 21.1998 26.7495V29.3466C21.1998 29.8974 20.7525 30.3439 20.2007 30.3439H17.5988C17.047 30.3439 16.5997 29.8974 16.5997 29.3466V26.7495ZM17.5988 26.7495H20.2007L20.2007 29.3466L17.5988 29.3466V26.7495Z" fill="url(#paint8_linear_1_10030)"/>
<path fill-rule="evenodd" clip-rule="evenodd" d="M17.5988 17.3343C17.047 17.3343 16.5997 17.7808 16.5997 18.3315V20.9287C16.5997 21.4795 17.047 21.9259 17.5988 21.9259H20.2007C20.7525 21.9259 21.1998 21.4795 21.1998 20.9287V18.3315C21.1998 17.7808 20.7525 17.3343 20.2007 17.3343H17.5988ZM20.2007 18.3315H17.5988V20.9287L20.2007 20.9287L20.2007 18.3315Z" fill="url(#paint9_linear_1_10030)"/>
<path fill-rule="evenodd" clip-rule="evenodd" d="M16.5997 9.91361C16.5997 9.36285 17.047 8.91637 17.5988 8.91637H20.2007C20.7525 8.91637 21.1998 9.36285 21.1998 9.91361V12.5108C21.1998 13.0615 20.7525 13.508 20.2007 13.508H17.5988C17.047 13.508 16.5997 13.0615 16.5997 12.5108V9.91361ZM17.5988 9.91361H20.2007L20.2007 12.5108L17.5988 12.5108V9.91361Z" fill="url(#paint10_linear_1_10030)"/>
<path fill-rule="evenodd" clip-rule="evenodd" d="M8.3975 34.1702C7.84573 34.1702 7.39843 34.6166 7.39843 35.1674V37.7646C7.39843 38.3153 7.84573 38.7618 8.3975 38.7618H10.9994C11.5512 38.7618 11.9985 38.3153 11.9985 37.7646V35.1674C11.9985 34.6166 11.5512 34.1702 10.9994 34.1702H8.3975ZM10.9994 35.1674H8.3975L8.3975 37.7646H10.9994V35.1674Z" fill="url(#paint11_linear_1_10030)"/>
<path fill-rule="evenodd" clip-rule="evenodd" d="M7.39843 26.7495C7.39843 26.1987 7.84573 25.7522 8.3975 25.7522H10.9994C11.5512 25.7522 11.9985 26.1987 11.9985 26.7495V29.3466C11.9985 29.8974 11.5512 30.3439 10.9994 30.3439H8.3975C7.84573 30.3439 7.39843 29.8974 7.39843 29.3466V26.7495ZM8.3975 26.7495H10.9994V29.3466L8.3975 29.3466L8.3975 26.7495Z" fill="url(#paint12_linear_1_10030)"/>
<path fill-rule="evenodd" clip-rule="evenodd" d="M8.3975 17.3343C7.84573 17.3343 7.39843 17.7808 7.39843 18.3315V20.9287C7.39843 21.4795 7.84573 21.9259 8.3975 21.9259H10.9994C11.5512 21.9259 11.9985 21.4795 11.9985 20.9287V18.3315C11.9985 17.7808 11.5512 17.3343 10.9994 17.3343H8.3975ZM10.9994 18.3315H8.3975L8.3975 20.9287L10.9994 20.9287V18.3315Z" fill="url(#paint13_linear_1_10030)"/>
<path fill-rule="evenodd" clip-rule="evenodd" d="M7.39843 9.91361C7.39843 9.36285 7.84573 8.91637 8.3975 8.91637H10.9994C11.5512 8.91637 11.9985 9.36285 11.9985 9.91361V12.5108C11.9985 13.0615 11.5512 13.508 10.9994 13.508H8.3975C7.84573 13.508 7.39843 13.0615 7.39843 12.5108V9.91361ZM8.3975 9.91361H10.9994V12.5108L8.3975 12.5108L8.3975 9.91361Z" fill="url(#paint14_linear_1_10030)"/>
<path fill-rule="evenodd" clip-rule="evenodd" d="M0 4.32456C0 4.04918 0.223651 3.82594 0.499537 3.82594H46.5005C46.7763 3.82594 47 4.04918 47 4.32456C47 4.59994 46.7763 4.82318 46.5005 4.82318H43.9333V42.5069C43.9333 43.8838 42.815 45 41.4356 45H33.1646C31.7852 45 30.6669 43.8838 30.6669 42.5069V35.3994C30.6669 34.5733 29.996 33.9035 29.1683 33.9035H17.8313C17.0037 33.9035 16.3327 34.5733 16.3327 35.3994V42.5069C16.3327 43.8838 15.2145 45 13.835 45H5.56408C4.18465 45 3.06639 43.8838 3.06639 42.5069V4.82318H0.499537C0.223651 4.82318 0 4.59994 0 4.32456ZM4.06547 4.82318H42.9342V42.5069C42.9342 43.333 42.2632 44.0028 41.4356 44.0028H33.1646C32.337 44.0028 31.666 43.333 31.666 42.5069V35.3994C31.666 34.0225 30.5478 32.9063 29.1683 32.9063H17.8313C16.4519 32.9063 15.3336 34.0225 15.3336 35.3994V42.5069C15.3336 43.333 14.6627 44.0028 13.835 44.0028H5.56408C4.73642 44.0028 4.06547 43.333 4.06547 42.5069V4.82318Z" fill="url(#paint15_linear_1_10030)"/>
<defs>
<linearGradient id="paint0_linear_1_10030" x1="4.30754" y1="15.9625" x2="52.0313" y2="40.5201" gradientUnits="userSpaceOnUse">
<stop offset="0.0037645" stop-color="#43CCF8"/>
<stop offset="1" stop-color="#6A30F4"/>
</linearGradient>
<linearGradient id="paint1_linear_1_10030" x1="4.30754" y1="15.9625" x2="52.0313" y2="40.5201" gradientUnits="userSpaceOnUse">
<stop offset="0.0037645" stop-color="#43CCF8"/>
<stop offset="1" stop-color="#6A30F4"/>
</linearGradient>
<linearGradient id="paint2_linear_1_10030" x1="4.30754" y1="15.9625" x2="52.0313" y2="40.5201" gradientUnits="userSpaceOnUse">
<stop offset="0.0037645" stop-color="#43CCF8"/>
<stop offset="1" stop-color="#6A30F4"/>
</linearGradient>
<linearGradient id="paint3_linear_1_10030" x1="4.30754" y1="15.9625" x2="52.0313" y2="40.5201" gradientUnits="userSpaceOnUse">
<stop offset="0.0037645" stop-color="#43CCF8"/>
<stop offset="1" stop-color="#6A30F4"/>
</linearGradient>
<linearGradient id="paint4_linear_1_10030" x1="4.30754" y1="15.9625" x2="52.0313" y2="40.5201" gradientUnits="userSpaceOnUse">
<stop offset="0.0037645" stop-color="#43CCF8"/>
<stop offset="1" stop-color="#6A30F4"/>
</linearGradient>
<linearGradient id="paint5_linear_1_10030" x1="4.30754" y1="15.9625" x2="52.0313" y2="40.5201" gradientUnits="userSpaceOnUse">
<stop offset="0.0037645" stop-color="#43CCF8"/>
<stop offset="1" stop-color="#6A30F4"/>
</linearGradient>
<linearGradient id="paint6_linear_1_10030" x1="4.30754" y1="15.9625" x2="52.0313" y2="40.5201" gradientUnits="userSpaceOnUse">
<stop offset="0.0037645" stop-color="#43CCF8"/>
<stop offset="1" stop-color="#6A30F4"/>
</linearGradient>
<linearGradient id="paint7_linear_1_10030" x1="4.30754" y1="15.9625" x2="52.0313" y2="40.5201" gradientUnits="userSpaceOnUse">
<stop offset="0.0037645" stop-color="#43CCF8"/>
<stop offset="1" stop-color="#6A30F4"/>
</linearGradient>
<linearGradient id="paint8_linear_1_10030" x1="4.30754" y1="15.9625" x2="52.0313" y2="40.5201" gradientUnits="userSpaceOnUse">
<stop offset="0.0037645" stop-color="#43CCF8"/>
<stop offset="1" stop-color="#6A30F4"/>
</linearGradient>
<linearGradient id="paint9_linear_1_10030" x1="4.30754" y1="15.9625" x2="52.0313" y2="40.5201" gradientUnits="userSpaceOnUse">
<stop offset="0.0037645" stop-color="#43CCF8"/>
<stop offset="1" stop-color="#6A30F4"/>
</linearGradient>
<linearGradient id="paint10_linear_1_10030" x1="4.30754" y1="15.9625" x2="52.0313" y2="40.5201" gradientUnits="userSpaceOnUse">
<stop offset="0.0037645" stop-color="#43CCF8"/>
<stop offset="1" stop-color="#6A30F4"/>
</linearGradient>
<linearGradient id="paint11_linear_1_10030" x1="4.30754" y1="15.9625" x2="52.0313" y2="40.5201" gradientUnits="userSpaceOnUse">
<stop offset="0.0037645" stop-color="#43CCF8"/>
<stop offset="1" stop-color="#6A30F4"/>
</linearGradient>
<linearGradient id="paint12_linear_1_10030" x1="4.30754" y1="15.9625" x2="52.0313" y2="40.5201" gradientUnits="userSpaceOnUse">
<stop offset="0.0037645" stop-color="#43CCF8"/>
<stop offset="1" stop-color="#6A30F4"/>
</linearGradient>
<linearGradient id="paint13_linear_1_10030" x1="4.30754" y1="15.9625" x2="52.0313" y2="40.5201" gradientUnits="userSpaceOnUse">
<stop offset="0.0037645" stop-color="#43CCF8"/>
<stop offset="1" stop-color="#6A30F4"/>
</linearGradient>
<linearGradient id="paint14_linear_1_10030" x1="4.30754" y1="15.9625" x2="52.0313" y2="40.5201" gradientUnits="userSpaceOnUse">
<stop offset="0.0037645" stop-color="#43CCF8"/>
<stop offset="1" stop-color="#6A30F4"/>
</linearGradient>
<linearGradient id="paint15_linear_1_10030" x1="4.30754" y1="15.9625" x2="52.0313" y2="40.5201" gradientUnits="userSpaceOnUse">
<stop offset="0.0037645" stop-color="#43CCF8"/>
<stop offset="1" stop-color="#6A30F4"/>
</linearGradient>
</defs>
</svg>
