<svg width="32" height="32" viewBox="0 0 32 32" fill="none" xmlns="http://www.w3.org/2000/svg">
<rect width="32" height="32" rx="16" fill="white"/>
<path d="M8.23842 15.6715L11.6134 16.9386L12.902 21.1017C12.9634 21.3431 13.3316 21.4638 13.5157 21.2828L15.4179 19.7744C15.602 19.5933 15.9088 19.5933 16.0929 19.7744L19.5292 22.2481C19.7747 22.4291 20.0815 22.3085 20.1429 22.0068L22.6588 10.1206C22.7201 9.81891 22.4133 9.57757 22.1065 9.69824L8.17706 15.0078C7.93161 15.0681 7.93161 15.5508 8.23842 15.6715ZM12.7179 16.2749L19.3452 12.2323C19.4679 12.172 19.5906 12.2927 19.4679 12.4134L14.0066 17.4212C13.8225 17.6023 13.6997 17.8436 13.6384 18.0849L13.4543 19.4727C13.4543 19.6537 13.1475 19.6537 13.1475 19.4727L12.4111 16.9989C12.3498 16.6972 12.4725 16.3955 12.7179 16.2749Z" fill="#00A1FF"/>
</svg>
