<svg width="32" height="32" viewBox="0 0 32 32" fill="none" xmlns="http://www.w3.org/2000/svg">
<rect width="32" height="32" rx="16" fill="white"/>
<path fill-rule="evenodd" clip-rule="evenodd" d="M12.331 8H19.6689C22.0571 8 24 9.94287 24 12.331V19.669C24 22.0571 22.0571 24 19.669 24H12.331C9.94287 24 8 22.0571 8 19.669V12.331C8 9.94287 9.94287 8 12.331 8ZM11.6251 16C11.6251 18.4123 13.5876 20.3749 16 20.3749C18.4123 20.3749 20.3749 18.4123 20.3749 16C20.3749 13.5876 18.4123 11.6251 16 11.6251C13.5876 11.6251 11.6251 13.5876 11.6251 16ZM20.8665 12.2C21.4188 12.2 21.8665 11.7523 21.8665 11.2C21.8665 10.6477 21.4188 10.2 20.8665 10.2C20.3143 10.2 19.8665 10.6477 19.8665 11.2C19.8665 11.7523 20.3143 12.2 20.8665 12.2Z" fill="#00A1FF"/>
<path d="M16.0001 12.5631C14.1051 12.5631 12.5632 14.1048 12.5632 16C12.5632 17.895 14.1051 19.4369 16.0001 19.4369C17.8952 19.4369 19.437 17.895 19.437 16C19.437 14.1048 17.8952 12.5631 16.0001 12.5631Z" fill="#00A1FF"/>
</svg>
