<svg width="32" height="32" viewBox="0 0 32 32" fill="none" xmlns="http://www.w3.org/2000/svg">
<rect width="32" height="32" rx="16" fill="white"/>
<path d="M21.2084 17.1688C21.7205 17.6634 22.2326 18.158 22.7446 18.6526C22.9367 18.8999 23.1287 19.1472 23.2567 19.4563C23.4487 19.8272 23.2567 20.3218 22.9367 20.3218H20.6963C20.1202 20.3836 19.6722 20.1363 19.2881 19.7654C18.9681 19.4563 18.712 19.1472 18.392 18.7762C18.264 18.6526 18.1359 18.5289 18.0079 18.4053C17.6879 18.2198 17.4318 18.2816 17.2398 18.5907C17.0478 18.8999 17.0478 19.2708 16.9838 19.6417C16.9838 20.1363 16.7917 20.3218 16.2797 20.3218C15.1275 20.3836 14.1033 20.1982 13.0792 19.6417C12.183 19.1472 11.5429 18.4053 10.9028 17.6634C9.75067 16.1178 8.85453 14.3867 8.08641 12.6557C7.89438 12.2847 8.0224 12.0374 8.47047 12.0374C9.17458 12.0374 9.9427 12.0374 10.6468 12.0374C10.9669 12.0374 11.1589 12.2229 11.2229 12.4702C11.6069 13.4594 12.119 14.3867 12.6951 15.1904C12.8871 15.4377 13.0152 15.6232 13.2712 15.8087C13.5272 15.9942 13.7193 15.9323 13.8473 15.6232C13.9113 15.4377 13.9753 15.2523 13.9753 15.0668C14.0393 14.3867 14.0393 13.7067 13.9113 13.0266C13.8473 12.5939 13.5912 12.3466 13.2072 12.2847C13.0152 12.2229 13.0152 12.1611 13.1432 12.0374C13.3352 11.852 13.4632 11.6665 13.8473 11.6665H16.4077C16.7917 11.7283 16.9198 11.9138 16.9198 12.3466V15.1286C16.9198 15.2523 16.9838 15.7469 17.3038 15.8705C17.4958 15.9323 17.6879 15.7469 17.8159 15.6232C18.392 15.005 18.84 14.2013 19.2241 13.4594C19.4161 13.0884 19.5442 12.7793 19.6722 12.4084C19.8002 12.1611 19.9282 12.0374 20.2483 12.0374H22.6806C22.7446 12.0374 22.8087 12.0374 22.8727 12.0374C23.2567 12.0993 23.3847 12.2847 23.2567 12.6557C23.0647 13.2739 22.6806 13.8303 22.2966 14.3249C21.9125 14.8813 21.4644 15.3759 21.0804 15.9942C20.6963 16.4887 20.6963 16.736 21.2084 17.1688Z" fill="#00A1FF"/>
</svg>
