<svg width="32" height="32" viewBox="0 0 32 32" fill="none" xmlns="http://www.w3.org/2000/svg">
<rect width="32" height="32" rx="16" fill="white"/>
<path d="M16 10.4668C16 10.4668 11 10.4668 9.73333 10.8001C9.06667 11.0001 8.53333 11.5335 8.33333 12.2001C8 13.4668 8 16.0001 8 16.0001C8 16.0001 8 18.6001 8.33333 19.8001C8.53333 20.4668 9.06667 21.0001 9.73333 21.2001C11 21.5335 16 21.5335 16 21.5335C16 21.5335 21 21.5335 22.2667 21.2001C22.9333 21.0001 23.4667 20.4668 23.6667 19.8001C24 18.6001 24 16.0001 24 16.0001C24 16.0001 24 13.4001 23.6667 12.2001C23.4667 11.5335 22.9333 11.0001 22.2667 10.8001C21 10.4668 16 10.4668 16 10.4668ZM14.4 13.6668L18.5333 16.0001L14.4 18.3335V13.6668Z" fill="#00A1FF"/>
</svg>
