<svg width="60" height="60" viewBox="0 0 60 60" fill="none" xmlns="http://www.w3.org/2000/svg">
<path d="M16.2496 25.0002C15.6921 25.0002 15.1571 25.0852 14.6246 25.1627C14.7971 24.5827 14.9746 23.9927 15.2596 23.4627C15.5446 22.6927 15.9896 22.0252 16.4321 21.3527C16.8021 20.6252 17.4546 20.1327 17.9346 19.5102C18.4371 18.9052 19.1221 18.5027 19.6646 18.0002C20.1971 17.4752 20.8946 17.2127 21.4496 16.8427C22.0296 16.5102 22.5346 16.1427 23.0746 15.9677L24.4221 15.4127L25.6071 14.9202L24.3946 10.0752L22.9021 10.4352C22.4246 10.5552 21.8421 10.6952 21.1796 10.8627C20.5021 10.9877 19.7796 11.3302 18.9746 11.6427C18.1796 11.9977 17.2596 12.2377 16.4046 12.8077C15.5446 13.3527 14.5521 13.8077 13.6771 14.5377C12.8296 15.2902 11.8071 15.9427 11.0521 16.9002C10.2271 17.7952 9.41213 18.7352 8.77963 19.8052C8.04713 20.8252 7.54963 21.9452 7.02463 23.0527C6.54963 24.1602 6.16713 25.2927 5.85463 26.3927C5.26213 28.5977 4.99713 30.6927 4.89463 32.4852C4.80963 34.2802 4.85963 35.7727 4.96463 36.8527C5.00213 37.3627 5.07213 37.8577 5.12213 38.2002L5.18463 38.6202L5.24963 38.6052C5.69428 40.6823 6.71789 42.591 8.20204 44.1106C9.68619 45.6303 11.5702 46.6987 13.6362 47.1923C15.7022 47.6858 17.8657 47.5844 19.8765 46.8998C21.8873 46.2151 23.6631 44.9752 24.9986 43.3234C26.3342 41.6716 27.1747 39.6755 27.4232 37.5659C27.6716 35.4564 27.3177 33.3196 26.4025 31.4027C25.4872 29.4859 24.048 27.8674 22.2513 26.7343C20.4545 25.6013 18.3738 25.0001 16.2496 25.0002ZM43.7496 25.0002C43.1921 25.0002 42.6571 25.0852 42.1246 25.1627C42.2971 24.5827 42.4746 23.9927 42.7596 23.4627C43.0446 22.6927 43.4896 22.0252 43.9321 21.3527C44.3021 20.6252 44.9546 20.1327 45.4346 19.5102C45.9371 18.9052 46.6221 18.5027 47.1646 18.0002C47.6971 17.4752 48.3946 17.2127 48.9496 16.8427C49.5296 16.5102 50.0346 16.1427 50.5746 15.9677L51.9221 15.4127L53.1071 14.9202L51.8946 10.0752L50.4021 10.4352C49.9246 10.5552 49.3421 10.6952 48.6796 10.8627C48.0021 10.9877 47.2796 11.3302 46.4746 11.6427C45.6821 12.0002 44.7596 12.2377 43.9046 12.8102C43.0446 13.3552 42.0521 13.8102 41.1771 14.5402C40.3296 15.2927 39.3071 15.9452 38.5521 16.9002C37.7271 17.7952 36.9121 18.7352 36.2796 19.8052C35.5471 20.8252 35.0496 21.9452 34.5246 23.0527C34.0496 24.1602 33.6671 25.2927 33.3546 26.3927C32.7621 28.5977 32.4971 30.6927 32.3946 32.4852C32.3096 34.2802 32.3596 35.7727 32.4646 36.8527C32.5021 37.3627 32.5721 37.8577 32.6221 38.2002L32.6846 38.6202L32.7496 38.6052C33.1943 40.6823 34.2179 42.591 35.702 44.1106C37.1862 45.6303 39.0702 46.6987 41.1362 47.1923C43.2022 47.6858 45.3657 47.5844 47.3765 46.8998C49.3873 46.2151 51.1631 44.9752 52.4986 43.3234C53.8342 41.6716 54.6747 39.6755 54.9232 37.5659C55.1716 35.4564 54.8177 33.3196 53.9025 31.4027C52.9872 29.4859 51.548 27.8674 49.7513 26.7343C47.9545 25.6013 45.8738 25.0001 43.7496 25.0002Z" fill="#2DC0C5"/>
</svg>
