<svg width="47" height="45" viewBox="0 0 47 45" fill="none" xmlns="http://www.w3.org/2000/svg">
<path fill-rule="evenodd" clip-rule="evenodd" d="M11.1629 28.3848C12.7852 28.3848 14.1004 27.0564 14.1004 25.4178C14.1004 23.7791 12.7852 22.4507 11.1629 22.4507C9.54055 22.4507 8.22538 23.7791 8.22538 25.4178C8.22538 27.0564 9.54055 28.3848 11.1629 28.3848ZM11.1629 27.3958C12.2444 27.3958 13.1212 26.5102 13.1212 25.4178C13.1212 24.3253 12.2444 23.4398 11.1629 23.4398C10.0813 23.4398 9.20455 24.3253 9.20455 25.4178C9.20455 26.5102 10.0813 27.3958 11.1629 27.3958Z" fill="url(#paint0_linear_1_10069)"/>
<path fill-rule="evenodd" clip-rule="evenodd" d="M23.5 28.3848C25.1223 28.3848 26.4375 27.0564 26.4375 25.4178C26.4375 23.7791 25.1223 22.4507 23.5 22.4507C21.8777 22.4507 20.5625 23.7791 20.5625 25.4178C20.5625 27.0564 21.8777 28.3848 23.5 28.3848ZM23.5 27.3958C24.5816 27.3958 25.4583 26.5102 25.4583 25.4178C25.4583 24.3253 24.5816 23.4398 23.5 23.4398C22.4184 23.4398 21.5417 24.3253 21.5417 25.4178C21.5417 26.5102 22.4184 27.3958 23.5 27.3958Z" fill="url(#paint1_linear_1_10069)"/>
<path fill-rule="evenodd" clip-rule="evenodd" d="M38.7746 25.4178C38.7746 27.0564 37.4595 28.3848 35.8371 28.3848C34.2148 28.3848 32.8996 27.0564 32.8996 25.4178C32.8996 23.7791 34.2148 22.4507 35.8371 22.4507C37.4595 22.4507 38.7746 23.7791 38.7746 25.4178ZM37.7955 25.4178C37.7955 26.5102 36.9187 27.3958 35.8371 27.3958C34.7556 27.3958 33.8788 26.5102 33.8788 25.4178C33.8788 24.3253 34.7556 23.4398 35.8371 23.4398C36.9187 23.4398 37.7955 24.3253 37.7955 25.4178Z" fill="url(#paint2_linear_1_10069)"/>
<path fill-rule="evenodd" clip-rule="evenodd" d="M38.0892 3.46154H41.125C44.3697 3.46154 47 6.11831 47 9.39561V39.0659C47 42.3432 44.3697 45 41.125 45H5.875C2.63033 45 0 42.3432 0 39.0659V9.39561C0 6.11831 2.63033 3.46154 5.875 3.46154H8.91003V2.86813C8.91003 2.39339 9.04701 1.6923 9.4723 1.09567C9.91557 0.473835 10.6501 0 11.7496 0C12.8492 0 13.5837 0.473835 14.0269 1.09567C14.4522 1.6923 14.5892 2.39339 14.5892 2.86813V3.46154H20.66V2.86813C20.66 2.39339 20.797 1.6923 21.2223 1.09567C21.6656 0.473835 22.4001 0 23.4996 0C24.5992 0 25.3337 0.473835 25.7769 1.09567C26.2022 1.6923 26.3392 2.39339 26.3392 2.86813V3.46154H32.41V2.86813C32.41 2.39339 32.547 1.6923 32.9723 1.09567C33.4156 0.473835 34.1501 0 35.2496 0C36.3492 0 37.0837 0.473835 37.5269 1.09567C37.9522 1.6923 38.0892 2.39339 38.0892 2.86813V3.46154ZM9.8892 2.86813C9.8892 2.55166 9.98722 2.06594 10.2669 1.67356C10.5287 1.30639 10.9692 0.989011 11.7496 0.989011C12.5301 0.989011 12.9706 1.30639 13.2323 1.67356C13.512 2.06594 13.61 2.55166 13.61 2.86813V3.46154H9.8892V2.86813ZM8.91003 4.45055V4.64775C8.91003 5.21195 9.08175 5.91825 9.52788 6.49504C9.98889 7.09108 10.7194 7.51588 11.7496 7.51588C12.02 7.51588 12.2392 7.29448 12.2392 7.02137C12.2392 6.74826 12.02 6.52687 11.7496 6.52687C11.0174 6.52687 10.5728 6.23958 10.2995 5.88616C10.0112 5.5135 9.8892 5.033 9.8892 4.64775V4.45055H20.66V4.64835C20.66 5.21255 20.8317 5.91886 21.2779 6.49565C21.7389 7.09168 22.4694 7.51648 23.4996 7.51648C23.77 7.51648 23.9892 7.29509 23.9892 7.02198C23.9892 6.74887 23.77 6.52747 23.4996 6.52747C22.7674 6.52747 22.3228 6.24019 22.0495 5.88677C21.7612 5.51411 21.6392 5.0336 21.6392 4.64835V4.45091L32.41 4.45055V4.64834C32.41 5.21254 32.5817 5.91885 33.0279 6.49564C33.4889 7.09167 34.2194 7.51647 35.2496 7.51647C35.52 7.51647 35.7392 7.29508 35.7392 7.02197C35.7392 6.74886 35.52 6.52746 35.2496 6.52746C34.5174 6.52746 34.0728 6.24018 33.7995 5.88676C33.5112 5.5141 33.3892 5.03359 33.3892 4.64834V4.45091L41.125 4.45055C43.8289 4.45055 46.0208 6.66453 46.0208 9.39561V11.2747H0.979167V9.39561C0.979167 6.66453 3.17111 4.45055 5.875 4.45055H8.91003ZM33.3892 3.46154H37.11V2.86813C37.11 2.55166 37.012 2.06594 36.7323 1.67356C36.4706 1.30639 36.0301 0.989011 35.2496 0.989011C34.4692 0.989011 34.0287 1.30639 33.7669 1.67356C33.4872 2.06594 33.3892 2.55166 33.3892 2.86813V3.46154ZM25.36 2.86813V3.46154H21.6392V2.86813C21.6392 2.55166 21.7372 2.06594 22.0169 1.67356C22.2787 1.30639 22.7192 0.989011 23.4996 0.989011C24.2801 0.989011 24.7206 1.30639 24.9823 1.67356C25.262 2.06594 25.36 2.55166 25.36 2.86813ZM46.0208 12.2637H0.979167V39.0659C0.979167 41.797 3.17111 44.011 5.875 44.011H41.125C43.8289 44.011 46.0208 41.797 46.0208 39.0659V12.2637Z" fill="url(#paint3_linear_1_10069)"/>
<defs>
<linearGradient id="paint0_linear_1_10069" x1="4.30754" y1="15.9625" x2="52.0313" y2="40.5201" gradientUnits="userSpaceOnUse">
<stop offset="0.0037645" stop-color="#43CCF8"/>
<stop offset="1" stop-color="#6A30F4"/>
</linearGradient>
<linearGradient id="paint1_linear_1_10069" x1="4.30754" y1="15.9625" x2="52.0313" y2="40.5201" gradientUnits="userSpaceOnUse">
<stop offset="0.0037645" stop-color="#43CCF8"/>
<stop offset="1" stop-color="#6A30F4"/>
</linearGradient>
<linearGradient id="paint2_linear_1_10069" x1="4.30754" y1="15.9625" x2="52.0313" y2="40.5201" gradientUnits="userSpaceOnUse">
<stop offset="0.0037645" stop-color="#43CCF8"/>
<stop offset="1" stop-color="#6A30F4"/>
</linearGradient>
<linearGradient id="paint3_linear_1_10069" x1="4.30754" y1="15.9625" x2="52.0313" y2="40.5201" gradientUnits="userSpaceOnUse">
<stop offset="0.0037645" stop-color="#43CCF8"/>
<stop offset="1" stop-color="#6A30F4"/>
</linearGradient>
</defs>
</svg>
