<svg width="80" height="80" viewBox="0 0 80 80" fill="none" xmlns="http://www.w3.org/2000/svg">
<path d="M12.5 12.5V67.5H67.5V12.5H12.5ZM10 7.5H70C70.663 7.5 71.2989 7.76339 71.7678 8.23223C72.2366 8.70107 72.5 9.33696 72.5 10V70C72.5 70.663 72.2366 71.2989 71.7678 71.7678C71.2989 72.2366 70.663 72.5 70 72.5H10C9.33696 72.5 8.70107 72.2366 8.23223 71.7678C7.76339 71.2989 7.5 70.663 7.5 70V10C7.5 9.33696 7.76339 8.70107 8.23223 8.23223C8.70107 7.76339 9.33696 7.5 10 7.5V7.5Z" fill="#2DC0C5"/>
<path d="M29.9997 22.5C33.333 22.5 34.9997 24.1667 34.9997 27.5C34.9997 30.8333 33.333 32.5 29.9997 32.5C26.6663 32.5 24.9997 30.8333 24.9997 27.5C24.9997 24.1667 26.6663 22.5 29.9997 22.5ZM13.47 69.54L9.5 66.5L27.3997 43.44C27.9985 42.6579 28.7454 42.0015 29.5979 41.5081C30.4505 41.0148 31.3918 40.6942 32.3682 40.5646C33.3446 40.4351 34.337 40.4991 35.2887 40.7531C36.2403 41.0072 37.1327 41.4461 37.9147 42.045L38.0597 42.16L47.6597 49.905C48.1762 50.3207 48.8367 50.5142 49.4959 50.443C50.155 50.3717 50.7589 50.0415 51.1747 49.525L68.0497 28.44L71.9497 31.56L55.0897 52.64L55.0697 52.665C54.4514 53.4322 53.6879 54.0701 52.823 54.5421C51.958 55.0141 51.0086 55.3111 50.0288 55.4161C49.0491 55.521 48.0582 55.4319 47.1129 55.1537C46.1677 54.8756 45.2864 54.4139 44.5197 53.795L34.9197 46.055L34.8697 46.015C34.3435 45.6134 33.6796 45.4368 33.0235 45.524C32.3674 45.6112 31.7727 45.955 31.3697 46.48L13.47 69.54Z" fill="#2DC0C5"/>
</svg>
