<svg width="394" height="191" viewBox="0 0 394 191" fill="none" xmlns="http://www.w3.org/2000/svg">
<mask id="mask0_1_4547" style="mask-type:alpha" maskUnits="userSpaceOnUse" x="0" y="0" width="394" height="203">
<rect x="1.5" y="1.5" width="391" height="199.485" stroke="white" stroke-opacity="0.4" stroke-width="3"/>
<rect x="137.543" y="134.012" width="37.683" height="67.4732" stroke="white" stroke-opacity="0.4" stroke-width="2"/>
<rect x="280.461" y="134.012" width="37.683" height="67.4732" stroke="white" stroke-opacity="0.4" stroke-width="2"/>
<rect x="209.234" y="134.012" width="37.683" height="67.4732" stroke="white" stroke-opacity="0.4" stroke-width="2"/>
<rect x="193.697" y="108.594" width="68.7595" height="24.8528" stroke="white" stroke-opacity="0.4" stroke-width="2"/>
<rect x="202.391" y="84.2109" width="15.7518" height="23.7536" stroke="white" stroke-opacity="0.4" stroke-width="2"/>
<rect x="202.391" y="25.0117" width="15.7518" height="39.5938" stroke="white" stroke-opacity="0.4" stroke-width="2"/>
<rect x="272.051" y="84.2109" width="15.7518" height="39.5938" stroke="white" stroke-opacity="0.4" stroke-width="2"/>
<rect x="272.051" y="25.0117" width="15.7518" height="39.5938" stroke="white" stroke-opacity="0.4" stroke-width="2"/>
<rect x="343.291" y="84.2109" width="15.7518" height="39.5938" stroke="white" stroke-opacity="0.4" stroke-width="2"/>
<rect x="343.291" y="25.0117" width="15.7518" height="39.5938" stroke="white" stroke-opacity="0.4" stroke-width="2"/>
<rect x="132.73" y="84.2109" width="15.7518" height="39.5938" stroke="white" stroke-opacity="0.4" stroke-width="2"/>
<rect x="132.73" y="25.0117" width="15.7518" height="39.5938" stroke="white" stroke-opacity="0.4" stroke-width="2"/>
<rect x="63.0703" y="84.2109" width="15.7518" height="39.5938" stroke="white" stroke-opacity="0.4" stroke-width="2"/>
<rect x="63.0703" y="25.0117" width="15.7518" height="39.5938" stroke="white" stroke-opacity="0.4" stroke-width="2"/>
<rect x="238.012" y="84.2109" width="15.7518" height="23.7536" stroke="white" stroke-opacity="0.4" stroke-width="2"/>
<rect x="238.012" y="25.0117" width="15.7518" height="39.5938" stroke="white" stroke-opacity="0.4" stroke-width="2"/>
<rect x="307.672" y="84.2109" width="15.7518" height="39.5938" stroke="white" stroke-opacity="0.4" stroke-width="2"/>
<rect x="307.672" y="25.0117" width="15.7518" height="39.5938" stroke="white" stroke-opacity="0.4" stroke-width="2"/>
<rect x="168.35" y="84.2109" width="15.7518" height="39.5938" stroke="white" stroke-opacity="0.4" stroke-width="2"/>
<rect x="168.35" y="25.0117" width="15.7518" height="39.5938" stroke="white" stroke-opacity="0.4" stroke-width="2"/>
<rect x="98.6914" y="84.2109" width="15.7518" height="39.5938" stroke="white" stroke-opacity="0.4" stroke-width="2"/>
<rect x="98.6914" y="25.0117" width="15.7518" height="39.5938" stroke="white" stroke-opacity="0.4" stroke-width="2"/>
<rect x="29.0312" y="84.2109" width="15.7518" height="39.5938" stroke="white" stroke-opacity="0.4" stroke-width="2"/>
<rect x="29.0312" y="25.0117" width="15.7518" height="39.5938" stroke="white" stroke-opacity="0.4" stroke-width="2"/>
<rect x="25.5781" y="84.2109" width="22.9915" height="39.5938" stroke="white" stroke-opacity="0.4" stroke-width="2"/>
<rect x="25.5781" y="25.0117" width="22.9915" height="39.5938" stroke="white" stroke-opacity="0.4" stroke-width="2"/>
<rect x="59.4492" y="84.2109" width="22.9915" height="39.5938" stroke="white" stroke-opacity="0.4" stroke-width="2"/>
<rect x="59.4492" y="25.0117" width="22.9915" height="39.5938" stroke="white" stroke-opacity="0.4" stroke-width="2"/>
<rect x="95.0723" y="84.2109" width="22.9915" height="39.5938" stroke="white" stroke-opacity="0.4" stroke-width="2"/>
<rect x="95.0723" y="25.0117" width="22.9915" height="39.5938" stroke="white" stroke-opacity="0.4" stroke-width="2"/>
<rect x="95.0723" y="84.2109" width="22.9915" height="39.5938" stroke="white" stroke-opacity="0.4" stroke-width="2"/>
<rect x="95.0723" y="25.0117" width="22.9915" height="39.5938" stroke="white" stroke-opacity="0.4" stroke-width="2"/>
<rect x="129.111" y="84.2109" width="22.9915" height="39.5938" stroke="white" stroke-opacity="0.4" stroke-width="2"/>
<rect x="129.111" y="25.0117" width="22.9915" height="39.5938" stroke="white" stroke-opacity="0.4" stroke-width="2"/>
<rect x="164.73" y="84.2109" width="22.9915" height="39.5938" stroke="white" stroke-opacity="0.4" stroke-width="2"/>
<rect x="164.73" y="25.0117" width="22.9915" height="39.5938" stroke="white" stroke-opacity="0.4" stroke-width="2"/>
<rect x="198.77" y="84.2109" width="22.9915" height="23.7536" stroke="white" stroke-opacity="0.4" stroke-width="2"/>
<rect x="198.77" y="25.0117" width="22.9915" height="39.5938" stroke="white" stroke-opacity="0.4" stroke-width="2"/>
<rect x="234.391" y="84.2109" width="22.9915" height="23.7536" stroke="white" stroke-opacity="0.4" stroke-width="2"/>
<rect x="234.391" y="25.0117" width="22.9915" height="39.5938" stroke="white" stroke-opacity="0.4" stroke-width="2"/>
<rect x="268.43" y="84.2109" width="22.9915" height="39.5938" stroke="white" stroke-opacity="0.4" stroke-width="2"/>
<rect x="268.43" y="25.0117" width="22.9915" height="39.5938" stroke="white" stroke-opacity="0.4" stroke-width="2"/>
<rect x="304.051" y="84.2109" width="22.9915" height="39.5938" stroke="white" stroke-opacity="0.4" stroke-width="2"/>
<rect x="304.051" y="25.0117" width="22.9915" height="39.5938" stroke="white" stroke-opacity="0.4" stroke-width="2"/>
<rect x="339.672" y="84.2109" width="22.9915" height="39.5938" stroke="white" stroke-opacity="0.4" stroke-width="2"/>
<rect x="339.672" y="25.0117" width="22.9915" height="39.5938" stroke="white" stroke-opacity="0.4" stroke-width="2"/>
<rect x="79.3047" y="134.012" width="37.683" height="67.4732" stroke="white" stroke-opacity="0.4" stroke-width="2"/>
<rect x="21.0645" y="134.012" width="37.683" height="67.4732" stroke="white" stroke-opacity="0.4" stroke-width="2"/>
<rect x="29.0312" y="142.75" width="23.7608" height="58.7363" stroke="white" stroke-opacity="0.4" stroke-width="2"/>
<rect x="86.2656" y="142.75" width="23.7608" height="58.7363" stroke="white" stroke-opacity="0.4" stroke-width="2"/>
<rect x="144.504" y="142.75" width="23.7608" height="58.7363" stroke="white" stroke-opacity="0.4" stroke-width="2"/>
<rect x="287.422" y="142.75" width="23.7608" height="58.7363" stroke="white" stroke-opacity="0.4" stroke-width="2"/>
<path d="M216.195 154.63C216.195 148.069 221.514 142.75 228.076 142.75C234.637 142.75 239.956 148.069 239.956 154.63V201.486H216.195V154.63Z" stroke="white" stroke-opacity="0.4" stroke-width="2"/>
<line x1="59.748" y1="133.365" x2="78.3042" y2="133.365" stroke="white" stroke-opacity="0.4"/>
<line x1="1.50977" y1="133.365" x2="20.0659" y2="133.365" stroke="white" stroke-opacity="0.4"/>
<line x1="117.988" y1="133.365" x2="136.544" y2="133.365" stroke="white" stroke-opacity="0.4"/>
<line x1="176.227" y1="133.945" x2="208.235" y2="133.945" stroke="white" stroke-opacity="0.4"/>
<line x1="247.453" y1="133.945" x2="279.461" y2="133.945" stroke="white" stroke-opacity="0.4"/>
<line x1="318.678" y1="133.23" x2="392.21" y2="133.23" stroke="white" stroke-opacity="0.4"/>
<line x1="59.748" y1="139.699" x2="78.3042" y2="139.699" stroke="white" stroke-opacity="0.4"/>
<line x1="1.50977" y1="139.699" x2="20.0659" y2="139.699" stroke="white" stroke-opacity="0.4"/>
<line x1="117.988" y1="139.699" x2="136.544" y2="139.699" stroke="white" stroke-opacity="0.4"/>
<line x1="176.227" y1="140.277" x2="208.235" y2="140.277" stroke="white" stroke-opacity="0.4"/>
<line x1="247.453" y1="140.277" x2="279.461" y2="140.277" stroke="white" stroke-opacity="0.4"/>
<line x1="318.678" y1="139.562" x2="392.21" y2="139.562" stroke="white" stroke-opacity="0.4"/>
<line x1="59.748" y1="146.029" x2="78.3042" y2="146.029" stroke="white" stroke-opacity="0.4"/>
<line x1="1.50977" y1="146.029" x2="20.0659" y2="146.029" stroke="white" stroke-opacity="0.4"/>
<line x1="117.988" y1="146.029" x2="136.544" y2="146.029" stroke="white" stroke-opacity="0.4"/>
<line x1="176.227" y1="146.613" x2="208.235" y2="146.613" stroke="white" stroke-opacity="0.4"/>
<line x1="247.453" y1="146.613" x2="279.461" y2="146.613" stroke="white" stroke-opacity="0.4"/>
<line x1="318.678" y1="145.895" x2="392.21" y2="145.895" stroke="white" stroke-opacity="0.4"/>
<line x1="59.748" y1="152.361" x2="78.3042" y2="152.361" stroke="white" stroke-opacity="0.4"/>
<line x1="1.50977" y1="152.361" x2="20.0659" y2="152.361" stroke="white" stroke-opacity="0.4"/>
<line x1="117.988" y1="152.361" x2="136.544" y2="152.361" stroke="white" stroke-opacity="0.4"/>
<line x1="176.227" y1="152.943" x2="208.235" y2="152.943" stroke="white" stroke-opacity="0.4"/>
<line x1="247.453" y1="152.943" x2="279.461" y2="152.943" stroke="white" stroke-opacity="0.4"/>
<line x1="318.678" y1="152.227" x2="392.21" y2="152.227" stroke="white" stroke-opacity="0.4"/>
<line x1="59.748" y1="158.695" x2="78.3042" y2="158.695" stroke="white" stroke-opacity="0.4"/>
<line x1="1.50977" y1="158.695" x2="20.0659" y2="158.695" stroke="white" stroke-opacity="0.4"/>
<line x1="1.50977" y1="84.5098" x2="24.5774" y2="84.5098" stroke="white" stroke-opacity="0.4"/>
<line x1="363.664" y1="84.5098" x2="392.211" y2="84.5098" stroke="white" stroke-opacity="0.4"/>
<line x1="363.664" y1="25.3105" x2="392.211" y2="25.3105" stroke="white" stroke-opacity="0.4"/>
<line x1="1.50977" y1="25.3105" x2="24.5774" y2="25.3105" stroke="white" stroke-opacity="0.4"/>
<line x1="117.988" y1="158.695" x2="136.544" y2="158.695" stroke="white" stroke-opacity="0.4"/>
<line x1="176.227" y1="159.277" x2="208.235" y2="159.277" stroke="white" stroke-opacity="0.4"/>
<line x1="247.453" y1="159.277" x2="279.461" y2="159.277" stroke="white" stroke-opacity="0.4"/>
<line x1="318.678" y1="158.561" x2="392.21" y2="158.561" stroke="white" stroke-opacity="0.4"/>
<line x1="59.748" y1="165.027" x2="78.3042" y2="165.027" stroke="white" stroke-opacity="0.4"/>
<line x1="1.50977" y1="165.027" x2="20.0659" y2="165.027" stroke="white" stroke-opacity="0.4"/>
<line x1="1.50977" y1="90.8438" x2="24.5774" y2="90.8438" stroke="white" stroke-opacity="0.4"/>
<line x1="363.664" y1="90.8438" x2="392.211" y2="90.8438" stroke="white" stroke-opacity="0.4"/>
<line x1="363.664" y1="31.6426" x2="392.211" y2="31.6426" stroke="white" stroke-opacity="0.4"/>
<line x1="1.50977" y1="31.6426" x2="24.5774" y2="31.6426" stroke="white" stroke-opacity="0.4"/>
<line x1="117.988" y1="165.027" x2="136.544" y2="165.027" stroke="white" stroke-opacity="0.4"/>
<line x1="176.227" y1="165.609" x2="208.235" y2="165.609" stroke="white" stroke-opacity="0.4"/>
<line x1="247.453" y1="165.609" x2="279.461" y2="165.609" stroke="white" stroke-opacity="0.4"/>
<line x1="318.678" y1="164.893" x2="392.21" y2="164.893" stroke="white" stroke-opacity="0.4"/>
<line x1="59.748" y1="171.359" x2="78.3042" y2="171.359" stroke="white" stroke-opacity="0.4"/>
<line x1="1.50977" y1="171.359" x2="20.0659" y2="171.359" stroke="white" stroke-opacity="0.4"/>
<line x1="1.50977" y1="97.1758" x2="24.5774" y2="97.1758" stroke="white" stroke-opacity="0.4"/>
<line x1="363.664" y1="97.1758" x2="392.211" y2="97.1758" stroke="white" stroke-opacity="0.4"/>
<line x1="363.664" y1="37.9746" x2="392.211" y2="37.9746" stroke="white" stroke-opacity="0.4"/>
<line x1="1.50977" y1="37.9746" x2="24.5774" y2="37.9746" stroke="white" stroke-opacity="0.4"/>
<line x1="117.988" y1="171.359" x2="136.544" y2="171.359" stroke="white" stroke-opacity="0.4"/>
<line x1="176.227" y1="171.941" x2="208.235" y2="171.941" stroke="white" stroke-opacity="0.4"/>
<line x1="247.453" y1="171.941" x2="279.461" y2="171.941" stroke="white" stroke-opacity="0.4"/>
<line x1="318.678" y1="171.225" x2="392.21" y2="171.225" stroke="white" stroke-opacity="0.4"/>
<line x1="59.748" y1="177.691" x2="78.3042" y2="177.691" stroke="white" stroke-opacity="0.4"/>
<line x1="1.50977" y1="177.691" x2="20.0659" y2="177.691" stroke="white" stroke-opacity="0.4"/>
<line x1="1.50977" y1="103.508" x2="24.5774" y2="103.508" stroke="white" stroke-opacity="0.4"/>
<line x1="363.664" y1="103.508" x2="392.211" y2="103.508" stroke="white" stroke-opacity="0.4"/>
<line x1="363.664" y1="44.3086" x2="392.211" y2="44.3086" stroke="white" stroke-opacity="0.4"/>
<line x1="1.50977" y1="44.3086" x2="24.5774" y2="44.3086" stroke="white" stroke-opacity="0.4"/>
<line x1="117.988" y1="177.691" x2="136.544" y2="177.691" stroke="white" stroke-opacity="0.4"/>
<line x1="176.227" y1="178.273" x2="208.235" y2="178.273" stroke="white" stroke-opacity="0.4"/>
<line x1="247.453" y1="178.273" x2="279.461" y2="178.273" stroke="white" stroke-opacity="0.4"/>
<line x1="318.678" y1="177.559" x2="392.21" y2="177.559" stroke="white" stroke-opacity="0.4"/>
<line x1="59.748" y1="184.023" x2="78.3042" y2="184.023" stroke="white" stroke-opacity="0.4"/>
<line x1="1.50977" y1="184.023" x2="20.0659" y2="184.023" stroke="white" stroke-opacity="0.4"/>
<line x1="1.50977" y1="109.84" x2="24.5774" y2="109.84" stroke="white" stroke-opacity="0.4"/>
<line x1="363.664" y1="109.84" x2="392.211" y2="109.84" stroke="white" stroke-opacity="0.4"/>
<line x1="363.664" y1="50.6406" x2="392.211" y2="50.6406" stroke="white" stroke-opacity="0.4"/>
<line x1="1.50977" y1="50.6406" x2="24.5774" y2="50.6406" stroke="white" stroke-opacity="0.4"/>
<line x1="117.988" y1="184.023" x2="136.544" y2="184.023" stroke="white" stroke-opacity="0.4"/>
<line x1="176.227" y1="184.605" x2="208.235" y2="184.605" stroke="white" stroke-opacity="0.4"/>
<line x1="247.453" y1="184.605" x2="279.461" y2="184.605" stroke="white" stroke-opacity="0.4"/>
<line x1="318.678" y1="183.889" x2="392.21" y2="183.889" stroke="white" stroke-opacity="0.4"/>
<line x1="59.748" y1="190.359" x2="78.3042" y2="190.359" stroke="white" stroke-opacity="0.4"/>
<line x1="1.50977" y1="190.359" x2="20.0659" y2="190.359" stroke="white" stroke-opacity="0.4"/>
<line x1="1.50977" y1="116.172" x2="24.5774" y2="116.172" stroke="white" stroke-opacity="0.4"/>
<line x1="363.664" y1="116.172" x2="392.211" y2="116.172" stroke="white" stroke-opacity="0.4"/>
<line x1="363.664" y1="56.9727" x2="392.211" y2="56.9727" stroke="white" stroke-opacity="0.4"/>
<line x1="1.50977" y1="56.9727" x2="24.5774" y2="56.9727" stroke="white" stroke-opacity="0.4"/>
<line x1="117.988" y1="190.359" x2="136.544" y2="190.359" stroke="white" stroke-opacity="0.4"/>
<line x1="176.227" y1="190.939" x2="208.235" y2="190.939" stroke="white" stroke-opacity="0.4"/>
<line x1="247.453" y1="190.939" x2="279.461" y2="190.939" stroke="white" stroke-opacity="0.4"/>
<line x1="318.678" y1="190.223" x2="392.21" y2="190.223" stroke="white" stroke-opacity="0.4"/>
<line x1="1.50977" y1="122.508" x2="24.5774" y2="122.508" stroke="white" stroke-opacity="0.4"/>
<line x1="363.664" y1="122.508" x2="392.211" y2="122.508" stroke="white" stroke-opacity="0.4"/>
<line x1="363.664" y1="63.3047" x2="392.211" y2="63.3047" stroke="white" stroke-opacity="0.4"/>
<line x1="1.50977" y1="63.3047" x2="24.5774" y2="63.3047" stroke="white" stroke-opacity="0.4"/>
<line y1="6.24219" x2="394" y2="6.24219" stroke="white" stroke-opacity="0.4" stroke-width="2"/>
<line x1="40.9062" y1="142.611" x2="40.9063" y2="202.228" stroke="white" stroke-opacity="0.4" stroke-width="2"/>
<line x1="98.6914" y1="141.75" x2="98.6914" y2="202.486" stroke="white" stroke-opacity="0.4" stroke-width="2"/>
<line x1="157.162" y1="142.008" x2="157.162" y2="201.328" stroke="white" stroke-opacity="0.4" stroke-width="2"/>
<line x1="300.078" y1="142.008" x2="300.078" y2="201.328" stroke="white" stroke-opacity="0.4" stroke-width="2"/>
</mask>
<g mask="url(#mask0_1_4547)">
<rect x="-29.7539" y="-19.4668" width="441.369" height="238.725" fill="url(#paint0_linear_1_4547)"/>
</g>
<defs>
<linearGradient id="paint0_linear_1_4547" x1="322.96" y1="127.747" x2="-12.6003" y2="123.179" gradientUnits="userSpaceOnUse">
<stop stop-color="white"/>
<stop offset="0.754529" stop-color="white" stop-opacity="0"/>
</linearGradient>
</defs>
</svg>
