<svg width="1158" height="200" viewBox="0 0 1158 200" fill="none" xmlns="http://www.w3.org/2000/svg">
<path d="M364.558 21.6031C421.075 21.6031 434.861 61.3495 434.861 92.1167C434.861 119.847 423.082 161.416 364.558 161.416H287.891V21.6031H364.558ZM341.397 126.449H352.199C364.162 126.449 378.555 122.858 378.555 91.3244C378.555 58.9463 365.166 54.5623 352.199 54.5623H341.397V126.449ZM493.226 56.7543V80.5229H494.018C498.006 67.3445 508.808 54.3774 525.578 54.3774C528.166 54.3774 531.15 54.7735 533.765 55.3545V97.293C530.382 96.3459 526.897 95.8138 523.386 95.7084C508.385 95.7084 496.422 105.295 496.422 123.439V161.389H446.085V56.7543H493.226ZM533.765 122.963H577.288V161.521H533.765V122.963ZM637.211 111.079H638.003L660.188 22.0256H711.501L733.078 111.079H733.87L750.852 22.0256H798.574L765.034 161.389H707.514L684.352 70.3552H683.56L661.587 161.389H602.879L570.316 22.0256H620.441L637.211 111.079ZM928.826 21.6031V54.5623H860.372V74.7392H925.868V106.695H860.372V128.456H930.252V161.416H806.867V21.6031H928.826ZM1026.54 21.6031C1070.25 21.6031 1078.25 45.002 1078.25 57.9691C1078.25 73.9205 1067.27 86.914 1049.89 90.1096V90.9019C1063.86 92.909 1081.45 102.1 1081.45 124.046C1081.45 159.408 1041.49 161.416 1023.72 161.416H942.453V21.6031H1026.54ZM993.186 76.9312H1005.76C1024.11 76.9312 1025.91 67.3445 1025.91 63.3567C1025.91 57.5465 1021.74 49.967 1006.97 49.967H993.186V76.9312ZM993.186 133.025H1006.73C1023.93 133.025 1026.73 123.65 1026.73 118.658C1026.73 104.476 1010.14 104.476 1005.55 104.476H993.186V133.025ZM1088.5 56.3317C1088.5 37.2376 1103.9 21.92 1122.91 21.92C1141.93 21.92 1157.32 37.2376 1157.32 56.3317C1157.32 75.4259 1141.93 90.7434 1122.91 90.7434C1103.9 90.7434 1088.5 75.4259 1088.5 56.3317ZM1122.91 79.6514C1134.98 79.6514 1144.99 69.0875 1144.99 56.3317C1144.99 43.6023 1134.98 33.0384 1122.91 33.0384C1110.81 33.0384 1100.83 43.6023 1100.83 56.3317C1100.83 69.0875 1110.81 79.6514 1122.91 79.6514ZM1126.08 40.9349C1130.31 40.9349 1137.3 41.4103 1137.3 48.8578C1137.41 50.6706 1136.84 52.4583 1135.69 53.8635C1134.53 55.2687 1132.9 56.1879 1131.1 56.4373V56.7014C1133.74 56.9127 1135.69 59.1839 1136.33 61.957L1138.23 70.5929H1126.95L1125.97 63.1982C1125.6 60.7157 1123.78 60.2403 1122.54 60.2403H1120.01V70.5929H1109.31V40.9349H1126.08ZM1119.58 53.8756H1122.17C1123.36 53.8756 1126.61 53.8756 1126.61 50.6272C1126.61 47.5901 1123.62 47.5901 1122.46 47.5901H1119.58V53.8756ZM132.999 39.007L174.092 61.957C175.121 59.1665 175.649 56.216 175.65 53.2418C175.65 35.2304 156.635 20.6259 133.21 20.6259C109.732 20.6259 90.7434 35.2304 90.7434 53.2682C90.7434 56.1997 91.2716 59.0783 92.196 61.7721L132.999 39.007ZM204.384 105.454L237.264 125.261L175.65 200L204.384 105.454ZM206.101 86.3858L202.403 69.9855L265.76 88.6571L226.489 109.679L231.876 92.5921L206.101 86.3858ZM198.732 59.3688L190.36 47.8014L246.534 29.8429L232.537 74.0526L226.779 53.7172L198.732 59.3688ZM183.283 38.8221L171.478 26.3832L186.954 10.5374L170.025 0H214.921L183.283 38.8221ZM61.3759 105.454L28.496 125.261L90.1096 200L61.3759 105.454ZM59.6329 86.3858L63.3302 69.9855L0 88.6571L39.2975 109.679L33.8835 92.5921L59.6329 86.3858ZM67.0276 59.3688L75.3994 47.8014L19.2262 29.8429L33.2233 74.0526L38.9806 53.7172L67.0276 59.3688ZM82.5036 38.8221L94.2823 26.3832L78.8063 10.5374L95.7613 0H50.8121L82.5036 38.8221Z" fill="#73B419"/>
<path d="M116.81 85.1974L124.416 62.6964H141.872L149.901 85.1974H150.165L154.839 64.4659L132.893 51.9741L111.026 64.3866L116.545 85.1974H116.81Z" fill="#73B419"/>
<path d="M192.393 85.8842L169.496 72.8379L161.23 97.8742H140.789L133.025 74.8978H132.76L124.996 97.8742H104.449L96.1832 72.8379L73.286 85.8842C73.286 85.8842 64.9406 115.41 96.7906 139.681C107.935 148.185 116.254 153.704 123.728 156.266L122.355 152.04H143.377L141.951 156.319C149.425 153.836 157.718 148.29 168.81 139.681C200.396 115.173 192.393 85.8842 192.393 85.8842ZM145.754 144.831H119.978L117.179 136.406H148.527L145.754 144.831ZM150.904 129.196H114.828L112.029 120.745H153.703L150.904 129.196ZM156.08 113.562H109.626L106.826 105.11H158.853L156.08 113.562Z" fill="#73B419"/>
</svg>
