<svg width="306" height="100" viewBox="0 0 306 100" fill="none" xmlns="http://www.w3.org/2000/svg">
<path d="M19.1308 93.8092L17.717 94.4613C17.5948 94.2006 17.397 93.9826 17.1493 93.8359C16.9017 93.6892 16.6156 93.6204 16.3283 93.6386C15.1903 93.6386 14.5386 94.6419 14.5386 96.0466C14.5386 97.4512 15.2004 98.4595 16.3384 98.4595C16.6571 98.4671 16.9707 98.3789 17.2388 98.2063C17.5069 98.0337 17.7171 97.7847 17.8424 97.4913L19.1207 98.2538C18.8818 98.7909 18.4853 99.2426 17.9839 99.549C17.4825 99.8554 16.8999 100.002 16.3133 99.9695C14.308 99.9695 12.9895 98.4645 12.9895 96.0466C12.9895 93.7339 14.3782 92.1286 16.3685 92.1286C16.9441 92.0997 17.5152 92.2444 18.0077 92.5441C18.5003 92.8437 18.8915 93.2844 19.1308 93.8092Z" fill="#0071B2"/>
<path d="M28.2751 99.8286H26.6057L26.0091 98.133H23.2318L22.6352 99.8286H21.0059L23.9136 92.2285H25.3875L28.2751 99.8286ZM25.4877 96.6882L24.9864 95.3087C24.836 94.8672 24.6856 94.4107 24.6104 94.1298C24.5352 94.4107 24.3798 94.8672 24.2294 95.3087L23.7281 96.6882H25.4877Z" fill="#0071B2"/>
<path d="M37.8742 99.8292H36.3702V97.04C36.3702 96.6236 36.3702 95.6604 36.3702 95.3644C36.2599 95.6504 36.0343 96.1922 35.8388 96.6236L34.2947 99.9997L32.7556 96.6236C32.5601 96.1922 32.3345 95.6504 32.2242 95.3644C32.2242 95.6604 32.2242 96.6236 32.2242 97.04V99.8292H30.7202V92.2441H32.2342L33.8184 95.6855C34.0139 96.1069 34.2395 96.6888 34.3198 96.9547C34.415 96.6738 34.6356 96.1169 34.8211 95.6855L36.3251 92.2441H37.829L37.8742 99.8292Z" fill="#0071B2"/>
<path d="M47.0691 97.3911C47.0691 98.9864 45.9913 99.8442 44.367 99.8442H40.9128V92.2441H44.4221C45.896 92.2441 46.8335 92.9465 46.8335 94.2508C46.8462 94.551 46.778 94.8491 46.636 95.1139C46.494 95.3787 46.2834 95.6004 46.0264 95.7557C46.3436 95.8929 46.6124 96.122 46.7983 96.4135C46.9841 96.705 47.0785 97.0455 47.0691 97.3911ZM45.2644 94.3812C45.2644 93.8795 44.9937 93.6538 44.3319 93.6538H42.4018V95.0986H44.4071C45.0388 95.0885 45.2644 94.8126 45.2644 94.3712V94.3812ZM45.505 97.4212C45.505 96.7691 45.1591 96.4179 44.4171 96.4179H42.4118V98.3844H44.4171C45.1591 98.3994 45.505 98.0082 45.505 97.4112V97.4212Z" fill="#0071B2"/>
<path d="M55.8588 99.8292H54.1092L52.7556 97.0901H51.2215V99.8292H49.7175V92.2441H53.2569C54.6907 92.2441 55.8738 93.0368 55.8738 94.6521C55.9157 95.1339 55.7954 95.6158 55.5319 96.0213C55.2685 96.4267 54.8771 96.7323 54.42 96.8895L55.8588 99.8292ZM54.2947 94.6722C54.2947 93.9849 53.8836 93.704 53.2068 93.704H51.2015V95.6604H53.2068C53.9136 95.6755 54.2947 95.3494 54.2947 94.6872V94.6722Z" fill="#0071B2"/>
<path d="M60.16 99.8292H58.655V92.2441H60.16V99.8292Z" fill="#0071B2"/>
<path d="M69.4596 96.0417C69.4596 98.7155 67.5295 99.8442 65.5794 99.8442H63.3083V92.2441H65.6746C67.8554 92.2441 69.4596 93.2625 69.4596 96.0417ZM67.9005 96.0417C67.9005 94.4916 67.2388 93.719 65.6295 93.719H64.8274V98.3643H65.5794C67.1786 98.3643 67.9005 97.4313 67.9005 96.0417Z" fill="#0071B2"/>
<path d="M78.0309 96.9002C78.0606 97.3091 78.0022 97.7195 77.8597 98.1038C77.7172 98.4881 77.4939 98.8373 77.205 99.1279C76.916 99.4185 76.5681 99.6436 76.1848 99.788C75.8014 99.9325 75.3916 99.993 74.9829 99.9654C72.9775 99.9654 71.6641 98.4604 71.6641 96.0424C71.6641 93.7298 73.0527 92.1245 75.038 92.1245C75.6594 92.0797 76.2781 92.2419 76.7977 92.5859C77.3173 92.9298 77.7086 93.436 77.9106 94.0257L76.4668 94.6227C76.3659 94.3204 76.1696 94.059 75.9074 93.878C75.6451 93.697 75.3312 93.6063 75.0129 93.6194C73.8749 93.6194 73.2232 94.6227 73.2232 96.0274C73.2232 97.432 73.8849 98.4604 75.028 98.4604C76.0657 98.4604 76.4267 97.9587 76.532 97.3116H75.3288V95.8869H78.051L78.0309 96.9002Z" fill="#0071B2"/>
<path d="M86.1573 99.8292H80.7129V92.2441H85.9869V93.7491H82.2319V95.0634H84.4127V96.5433H82.2319V98.3744H86.1473L86.1573 99.8292Z" fill="#0071B2"/>
<path d="M99.2624 97.3911C99.2624 98.9864 98.1895 99.8442 96.5602 99.8442H93.1111V92.2441H96.5953C98.0692 92.2441 99.0017 92.9465 99.0017 94.2508C99.0154 94.5506 98.9482 94.8486 98.807 95.1134C98.6659 95.3782 98.456 95.6001 98.1996 95.7557C98.5201 95.8904 98.7928 96.1183 98.9823 96.4099C99.1718 96.7015 99.2694 97.0433 99.2624 97.3911ZM97.4626 94.3812C97.4626 93.8795 97.1919 93.6538 96.5301 93.6538H94.6V95.0986H96.6053C97.217 95.0885 97.4426 94.8126 97.4426 94.3712L97.4626 94.3812ZM97.7033 97.4212C97.7033 96.7691 97.3523 96.4179 96.6154 96.4179H94.6101V98.3844H96.6154C97.3323 98.3994 97.6832 98.0082 97.6832 97.4112L97.7033 97.4212Z" fill="#0071B2"/>
<path d="M108.032 99.8292H106.282L104.923 97.0901H103.394V99.8292H101.89V92.2441H105.43C106.859 92.2441 108.042 93.0368 108.042 94.6521C108.084 95.134 107.964 95.6164 107.701 96.022C107.437 96.4276 107.045 96.7331 106.588 96.8895L108.032 99.8292ZM106.473 94.6722C106.473 93.9849 106.056 93.704 105.385 93.704H103.379V95.6604H105.385C106.092 95.6755 106.473 95.3494 106.473 94.6872V94.6722Z" fill="#0071B2"/>
<path d="M116.985 96.0329C116.985 98.486 115.606 99.9659 113.631 99.9659C111.656 99.9659 110.287 98.5111 110.287 96.058C110.287 93.6049 111.666 92.125 113.651 92.125C115.637 92.125 116.985 93.5798 116.985 96.0329ZM115.421 96.0329C115.421 94.4878 114.684 93.6099 113.621 93.6099C112.558 93.6099 111.851 94.4677 111.851 96.0078C111.851 97.5479 112.588 98.4308 113.651 98.4308C114.714 98.4308 115.421 97.5981 115.421 96.058V96.0329Z" fill="#0071B2"/>
<path d="M126.053 99.8286H124.384L123.787 98.133H121.01L120.413 99.8286H118.784L121.691 92.2285H123.165L126.053 99.8286ZM123.266 96.6882L122.764 95.3087C122.614 94.8672 122.463 94.4107 122.388 94.1298C122.313 94.4107 122.158 94.8672 122.007 95.3087L121.506 96.6882H123.266Z" fill="#0071B2"/>
<path d="M134.702 96.0417C134.702 98.7155 132.772 99.8442 130.817 99.8442H128.551V92.2441H130.927C133.098 92.2441 134.702 93.2625 134.702 96.0417ZM133.138 96.0417C133.138 94.4916 132.476 93.719 130.872 93.719H130.07V98.3643H130.817C132.411 98.3643 133.138 97.4313 133.138 96.0417Z" fill="#0071B2"/>
<path d="M143.456 97.3911C143.456 98.9864 142.383 99.8442 140.759 99.8442H137.305V92.2441H140.789C142.263 92.2441 143.201 92.9465 143.201 94.2508C143.213 94.551 143.145 94.8491 143.003 95.1139C142.861 95.3787 142.65 95.6004 142.393 95.7557C142.714 95.8898 142.987 96.1176 143.177 96.4093C143.367 96.701 143.464 97.0432 143.456 97.3911ZM141.656 94.3812C141.656 93.8795 141.386 93.6538 140.724 93.6538H138.794V95.0986H140.799C141.431 95.0885 141.656 94.8126 141.656 94.3712V94.3812ZM141.897 97.4212C141.897 96.7691 141.551 96.4179 140.809 96.4179H138.804V98.3844H140.809C141.551 98.3994 141.877 98.0082 141.877 97.4112L141.897 97.4212Z" fill="#0071B2"/>
<path d="M152.559 99.8286H150.9L150.303 98.133H147.526L146.919 99.8286H145.29L148.197 92.2285H149.676L152.559 99.8286ZM149.772 96.6882L149.27 95.3087C149.115 94.8672 148.965 94.4107 148.889 94.1298C148.814 94.4107 148.659 94.8672 148.508 95.3087L148.007 96.6882H149.772Z" fill="#0071B2"/>
<path d="M161.207 99.8283H159.853L157.061 95.6796C156.881 95.3987 156.63 95.0175 156.53 94.8218C156.53 95.1027 156.53 96.0609 156.53 96.4823V99.8283H155.026V92.2433H156.479L159.172 96.2565C159.357 96.5375 159.603 96.9187 159.703 97.1144C159.703 96.8284 159.703 95.8753 159.703 95.4489V92.2383H161.207V99.8283Z" fill="#0071B2"/>
<path d="M170.396 96.0417C170.396 98.7155 168.466 99.8442 166.515 99.8442H164.244V92.2441H166.621C168.791 92.2441 170.396 93.2625 170.396 96.0417ZM168.837 96.0417C168.837 94.4916 168.175 93.719 166.566 93.719H165.763V98.3643H166.515C168.11 98.3643 168.837 97.4313 168.837 96.0417Z" fill="#0071B2"/>
<path d="M183.386 99.8283H182.027L179.24 95.6796C179.054 95.3987 178.809 95.0175 178.709 94.8218C178.709 95.1027 178.709 96.0609 178.709 96.4823V99.8283H177.205V92.2433H178.658L181.346 96.2565C181.531 96.5375 181.782 96.9187 181.882 97.1144C181.882 96.8284 181.857 95.8753 181.857 95.4489V92.2383H183.361L183.386 99.8283Z" fill="#0071B2"/>
<path d="M191.858 99.8292H186.423V92.2441H191.697V93.7491H187.942V95.0634H190.123V96.5433H187.942V98.3744H191.858V99.8292Z" fill="#0071B2"/>
<path d="M199.956 93.7393H197.775V99.8294H196.271V93.7393H194.09V92.2344H199.971L199.956 93.7393Z" fill="#0071B2"/>
<path d="M210.559 92.2436L208.959 99.8286H207.455L206.548 95.9357C206.443 95.4792 206.332 94.9324 206.287 94.6314C206.257 94.9124 206.147 95.4893 206.042 95.9357L205.074 99.8286H203.655L202.071 92.2285H203.655L204.317 95.9307C204.382 96.2969 204.467 96.8638 204.497 97.1799C204.553 96.8638 204.673 96.2969 204.758 95.9307L205.651 92.2285H206.974L207.876 95.9307C207.962 96.2969 208.082 96.8638 208.132 97.1799C208.167 96.8638 208.252 96.2869 208.318 95.9307L208.979 92.2285L210.559 92.2436Z" fill="#0071B2"/>
<path d="M219.2 96.0329C219.2 98.486 217.822 99.9659 215.846 99.9659C213.871 99.9659 212.508 98.5111 212.508 96.058C212.508 93.6049 213.886 92.125 215.871 92.125C217.857 92.125 219.2 93.5798 219.2 96.0329ZM217.636 96.0329C217.636 94.4878 216.899 93.6099 215.836 93.6099C214.774 93.6099 214.067 94.4677 214.067 96.0078C214.067 97.5479 214.809 98.4308 215.871 98.4308C216.934 98.4308 217.636 97.5981 217.636 96.058V96.0329Z" fill="#0071B2"/>
<path d="M227.97 99.8292H226.22L224.867 97.0901H223.337V99.8292H221.833V92.2441H225.368C226.802 92.2441 227.985 93.0368 227.985 94.6521C228.027 95.1339 227.906 95.6158 227.643 96.0213C227.379 96.4267 226.988 96.7323 226.531 96.8895L227.97 99.8292ZM226.406 94.6722C226.406 93.9849 225.995 93.704 225.323 93.704H223.317V95.6604H225.323C226.025 95.6755 226.406 95.3494 226.406 94.6872V94.6722Z" fill="#0071B2"/>
<path d="M237.262 99.8292H235.443L233.382 96.157L232.164 97.5918V99.8292H230.66V92.2441H232.164V94.4013C232.164 94.6872 232.164 95.3694 232.164 95.6102C232.274 95.4347 232.555 95.1086 232.76 94.8377L234.886 92.2441H236.721L234.495 94.8728L237.262 99.8292Z" fill="#0071B2"/>
<path d="M244.707 97.543C244.707 98.9878 243.795 99.966 241.725 99.966C241.158 99.9922 240.593 99.8803 240.078 99.64C239.564 99.3998 239.116 99.0382 238.772 98.5865L239.87 97.5832C240.108 97.8637 240.406 98.0872 240.741 98.2374C241.077 98.3876 241.442 98.4606 241.81 98.451C242.712 98.451 243.133 98.2002 243.133 97.6283C243.133 97.1267 242.873 96.921 241.444 96.5949C240.015 96.2688 239.068 95.8224 239.068 94.3274C239.068 92.9479 240.281 92.1001 241.78 92.1001C242.301 92.0917 242.817 92.1953 243.295 92.4039C243.772 92.6124 244.199 92.9211 244.547 93.3091L243.449 94.3726C243.233 94.1282 242.967 93.9322 242.67 93.7973C242.373 93.6625 242.051 93.5918 241.725 93.59C240.912 93.59 240.642 93.9412 240.642 94.2773C240.642 94.7789 240.963 94.9043 242.171 95.1853C243.379 95.4662 244.707 95.8926 244.707 97.543Z" fill="#0071B2"/>
<path d="M257.597 96.9002C257.627 97.3091 257.569 97.7195 257.426 98.1038C257.284 98.4881 257.06 98.8373 256.771 99.1279C256.482 99.4185 256.135 99.6436 255.751 99.788C255.368 99.9325 254.958 99.993 254.549 99.9654C252.544 99.9654 251.23 98.4604 251.23 96.0424C251.23 93.7298 252.619 92.1245 254.604 92.1245C255.226 92.0797 255.845 92.2419 256.364 92.5859C256.884 92.9298 257.275 93.436 257.477 94.0257L256.038 94.6227C255.933 94.3234 255.735 94.0652 255.474 93.885C255.213 93.7048 254.901 93.6119 254.584 93.6194C253.441 93.6194 252.79 94.6227 252.79 96.0274C252.79 97.432 253.456 98.4604 254.594 98.4604C255.637 98.4604 255.993 97.9587 256.098 97.3116H254.895V95.8869H257.617L257.597 96.9002Z" fill="#0071B2"/>
<path d="M266.44 99.8292H264.7L263.342 97.0901H261.838V99.8292H260.334V92.2441H263.843C265.277 92.2441 266.46 93.0368 266.46 94.6521C266.503 95.134 266.383 95.6164 266.119 96.022C265.856 96.4276 265.464 96.7331 265.006 96.8895L266.44 99.8292ZM264.876 94.6722C264.876 93.9849 264.465 93.704 263.793 93.704H261.788V95.6604H263.793C264.5 95.6755 264.876 95.3494 264.876 94.6872V94.6722Z" fill="#0071B2"/>
<path d="M275.395 96.0329C275.395 98.486 274.017 99.9659 272.041 99.9659C270.066 99.9659 268.698 98.5111 268.698 96.058C268.698 93.6049 270.076 92.125 272.061 92.125C274.047 92.125 275.395 93.5798 275.395 96.0329ZM273.831 96.0329C273.831 94.4878 273.094 93.6099 272.031 93.6099C270.969 93.6099 270.262 94.4677 270.262 96.0078C270.262 97.5479 270.999 98.4308 272.061 98.4308C273.124 98.4308 273.831 97.5981 273.831 96.058V96.0329Z" fill="#0071B2"/>
<path d="M284.102 96.4881C284.102 98.6904 282.954 99.9646 281.024 99.9646C279.189 99.9646 277.951 98.7255 277.951 96.5082V92.2441H279.455V96.4881C279.455 97.7021 280.042 98.4948 281.009 98.4948C281.977 98.4948 282.568 97.7473 282.568 96.5283V92.2642H284.072L284.102 96.4881Z" fill="#0071B2"/>
<path d="M293.021 94.6521C293.021 96.4129 291.853 97.1604 290.279 97.1604H288.609V99.8292H287.105V92.2441H290.424C291.843 92.2441 293.021 93.0368 293.021 94.6521ZM291.462 94.6872C291.462 94.025 291.026 93.719 290.354 93.719H288.609V95.6755H290.374C291.081 95.6755 291.462 95.3494 291.462 94.6872Z" fill="#0071B2"/>
<path d="M139.609 22.379L129.532 27.0344C127.597 23.3121 124.519 21.14 119.616 21.14C111.474 21.14 106.827 28.2735 106.827 38.3568C106.827 48.129 111.555 55.5736 119.691 55.5736C124.574 55.5736 127.442 53.4767 130.309 48.6708L139.453 54.0987C135.734 61.774 129.221 66.3542 119.4 66.3542C105.218 66.3542 95.6875 55.4933 95.6875 38.3568C95.6875 21.8373 105.609 10.3594 119.786 10.3594C129.998 10.3594 136.2 15.3258 139.609 22.379Z" fill="#203864"/>
<path d="M194.4 47.9722C194.4 59.3699 186.729 65.4951 175.104 65.4951H150.458V11.2109H175.339C185.867 11.2109 192.54 16.2275 192.54 25.5583C192.54 30.2136 190.369 33.9359 186.805 36.093C191.146 38.0445 194.4 41.9975 194.4 47.9722ZM181.536 26.4011C181.536 22.9898 179.6 21.2089 174.873 21.2089H161.076V31.533H175.414C179.911 31.533 181.536 29.4361 181.536 26.4111V26.4011ZM183.24 48.1177C183.24 43.4624 180.764 41.1347 175.49 41.1347H161.076V55.181H175.49C180.764 55.181 183.24 52.3918 183.24 48.1278V48.1177Z" fill="#203864"/>
<path d="M249.426 65.4951H239.741L219.823 35.8974C218.504 33.8908 216.72 31.1668 216.023 29.7722C216.023 31.7788 216.178 38.6114 216.178 41.6363V65.5202H205.485V11.2109H215.867L235.088 39.9056C236.407 41.9123 238.186 44.6362 238.888 46.0308C238.888 44.0242 238.733 37.1917 238.733 34.1667V11.2109H249.426V65.4951Z" fill="#203864"/>
<path d="M306 44.482C306 58.4431 296.776 66.3542 284.222 66.3542C270.04 66.3542 260.51 55.4933 260.51 38.3568C260.51 21.8373 270.426 10.3594 284.608 10.3594C295.693 10.3594 301.583 15.5565 305.163 23.9342L294.856 28.1982C292.85 24.185 290.344 21.14 284.468 21.14C276.331 21.14 271.684 28.2735 271.684 38.3568C271.684 48.3598 276.412 55.7291 284.548 55.7291C291.988 55.7291 294.545 52.2175 295.166 47.507H286.548V37.3484H306V44.482Z" fill="#203864"/>
<path d="M32.6715 9.06055C24.0065 9.06055 15.6964 12.505 9.56927 18.6361C3.44217 24.7672 0 33.0827 0 41.7534H32.6715V9.06055Z" fill="#203864"/>
<path d="M34.9382 76.7124C39.2287 76.7124 43.4772 75.8668 47.4411 74.2238C51.405 72.5808 55.0067 70.1727 58.0405 67.1369C61.0743 64.1011 63.4809 60.497 65.1228 56.5306C66.7647 52.5641 67.6098 48.3128 67.6098 44.0195H34.9382V76.7124Z" fill="#203864"/>
<path d="M31.1118 45.5747V65.7161C25.8991 65.3333 20.9976 63.0886 17.3009 59.3914C13.6042 55.6941 11.3586 50.7905 10.9734 45.5747H31.1118ZM32.6709 44.0195H9.35913C9.35913 47.0826 9.96214 50.1157 11.1337 52.9456C12.3053 55.7755 14.0225 58.3467 16.1873 60.5124C18.3521 62.6781 20.922 64.3959 23.7502 65.5677C26.5785 66.7394 29.6098 67.3422 32.6709 67.3415V44.0195Z" fill="#0071B2"/>
<path d="M36.4923 1.59025C46.6025 1.98997 56.1908 6.18795 63.3453 13.3472C70.4999 20.5064 74.6951 30.1009 75.0946 40.2177H36.4923V1.59025ZM34.9382 0V41.7528H76.6638C76.6638 36.2697 75.5845 30.8404 73.4876 25.7747C71.3907 20.709 68.3172 16.1062 64.4426 12.2291C60.5681 8.352 55.9683 5.27652 50.9059 3.17824C45.8435 1.07997 40.4177 0 34.9382 0V0Z" fill="#0071B2"/>
</svg>
