<svg width="331" height="36" viewBox="0 0 331 36" fill="none" xmlns="http://www.w3.org/2000/svg">
<path fill-rule="evenodd" clip-rule="evenodd" d="M11.2957 21.7628C11.2957 22.8224 10.4369 23.6812 9.3773 23.6812C8.31872 23.6812 7.45996 22.8224 7.45996 21.7628C7.45996 20.7042 8.31872 19.8444 9.3773 19.8444C10.4369 19.8444 11.2957 20.7042 11.2957 21.7628ZM20.5112 9.37806C20.5112 10.9664 19.2231 12.2546 17.6347 12.2546C16.0453 12.2546 14.7571 10.9664 14.7571 9.37806C14.7571 7.78864 16.0453 6.50154 17.6347 6.50154C19.2231 6.50154 20.5112 7.78864 20.5112 9.37806ZM28.7678 13.5063C28.7678 15.0947 27.4796 16.3829 25.8912 16.3829C24.3028 16.3829 23.0137 15.0947 23.0137 13.5063C23.0137 11.9169 24.3028 10.6298 25.8912 10.6298C27.4796 10.6298 28.7678 11.9169 28.7678 13.5063ZM37.0245 17.6344C37.0245 19.2238 35.7364 20.5109 34.148 20.5109C32.5596 20.5109 31.2715 19.2238 31.2715 17.6344C31.2715 16.046 32.5596 14.7579 34.148 14.7579C35.7364 14.7579 37.0245 16.046 37.0245 17.6344ZM28.7678 21.763C28.7678 23.3514 27.4796 24.6395 25.8912 24.6395C24.3028 24.6395 23.0137 23.3514 23.0137 21.763C23.0137 20.1736 24.3028 18.8865 25.8912 18.8865C27.4796 18.8865 28.7678 20.1736 28.7678 21.763ZM45.2808 21.763C45.2808 23.3514 43.9926 24.6395 42.4032 24.6395C40.8148 24.6395 39.5267 23.3514 39.5267 21.763C39.5267 20.1736 40.8148 18.8865 42.4032 18.8865C43.9926 18.8865 45.2808 20.1736 45.2808 21.763ZM44.3219 30.0194C44.3219 31.0791 43.4631 31.9378 42.4035 31.9378C41.3449 31.9378 40.4852 31.0791 40.4852 30.0194C40.4852 28.9598 41.3449 28.1021 42.4035 28.1021C43.4631 28.1021 44.3219 28.9598 44.3219 30.0194ZM52.5792 25.8912C52.5792 26.9508 51.7204 27.8095 50.6608 27.8095C49.6022 27.8095 48.7435 26.9508 48.7435 25.8912C48.7435 24.8326 49.6022 23.9738 50.6608 23.9738C51.7204 23.9738 52.5792 24.8326 52.5792 25.8912ZM53.5379 17.6344C53.5379 19.2228 52.2498 20.5109 50.6614 20.5109C49.073 20.5109 47.7839 19.2228 47.7839 17.6344C47.7839 16.046 49.073 14.7579 50.6614 14.7579C52.2498 14.7579 53.5379 16.046 53.5379 17.6344ZM45.2808 13.5061C45.2808 15.0945 43.9926 16.3827 42.4032 16.3827C40.8148 16.3827 39.5267 15.0945 39.5267 13.5061C39.5267 11.9177 40.8148 10.6296 42.4032 10.6296C43.9926 10.6296 45.2808 11.9177 45.2808 13.5061ZM36.0658 25.8912C36.0658 26.9508 35.2071 27.8095 34.1475 27.8095C33.0889 27.8095 32.2291 26.9508 32.2291 25.8912C32.2291 24.8316 33.0889 23.9738 34.1475 23.9738C35.2071 23.9738 36.0658 24.8316 36.0658 25.8912ZM53.5379 9.37775C53.5379 10.9661 52.2498 12.2543 50.6614 12.2543C49.073 12.2543 47.7839 10.9661 47.7839 9.37775C47.7839 7.78936 49.073 6.50123 50.6614 6.50123C52.2498 6.50123 53.5379 7.78936 53.5379 9.37775ZM60.8357 5.24937C60.8357 6.30898 59.977 7.16774 58.9173 7.16774C57.8577 7.16774 57 6.30898 57 5.24937C57 4.19079 57.8577 3.33203 58.9173 3.33203C59.977 3.33203 60.8357 4.19079 60.8357 5.24937ZM60.8357 21.7628C60.8357 22.8224 59.977 23.6812 58.9173 23.6812C57.8588 23.6812 56.999 22.8224 56.999 21.7628C56.999 20.7032 57.8588 19.8444 58.9173 19.8444C59.977 19.8444 60.8357 20.7032 60.8357 21.7628ZM36.0658 9.37806C36.0658 10.4366 35.2071 11.2954 34.1475 11.2954C33.0889 11.2954 32.2291 10.4366 32.2291 9.37806C32.2291 8.31845 33.0889 7.45969 34.1475 7.45969C35.2071 7.45969 36.0658 8.31845 36.0658 9.37806ZM27.809 30.0194C27.809 31.0791 26.9502 31.9378 25.8906 31.9378C24.832 31.9378 23.9733 31.0791 23.9733 30.0194C23.9733 28.9598 24.832 28.1021 25.8906 28.1021C26.9502 28.1021 27.809 28.9598 27.809 30.0194ZM20.5112 17.6344C20.5112 19.2228 19.2231 20.5109 17.6347 20.5109C16.0463 20.5109 14.7571 19.2228 14.7571 17.6344C14.7571 16.046 16.0463 14.7579 17.6347 14.7579C19.2231 14.7579 20.5112 16.046 20.5112 17.6344Z" fill="white"/>
<path fill-rule="evenodd" clip-rule="evenodd" d="M12.2545 13.5064C12.2545 15.0948 10.9664 16.3829 9.37799 16.3829C7.7896 16.3829 6.50146 15.0948 6.50146 13.5064C6.50146 11.918 7.7896 10.6299 9.37799 10.6299C10.9664 10.6299 12.2545 11.918 12.2545 13.5064Z" fill="#EC1947"/>
<path fill-rule="evenodd" clip-rule="evenodd" d="M2.24219 25.8912C2.24219 26.5101 1.74006 27.0123 1.1211 27.0123C0.501112 27.0123 0 26.5101 0 25.8912C0 25.2722 0.501112 24.7701 1.1211 24.7701C1.74006 24.7701 2.24219 25.2722 2.24219 25.8912ZM2.24219 17.6344C2.24219 18.2534 1.74006 18.7555 1.1211 18.7555C0.501112 18.7555 0 18.2534 0 17.6344C0 17.0154 0.501112 16.5133 1.1211 16.5133C1.74006 16.5133 2.24219 17.0154 2.24219 17.6344ZM18.7551 25.8329C18.7551 26.4518 18.253 26.954 17.634 26.954C17.015 26.954 16.5129 26.4518 16.5129 25.8329C16.5129 25.2139 17.015 24.7118 17.634 24.7118C18.253 24.7118 18.7551 25.2139 18.7551 25.8329ZM18.7551 1.1211C18.7551 1.74006 18.253 2.24219 17.634 2.24219C17.015 2.24219 16.5129 1.74006 16.5129 1.1211C16.5129 0.502136 17.015 0 17.634 0C18.253 0 18.7551 0.502136 18.7551 1.1211ZM35.2104 34.148C35.2104 34.767 34.7083 35.2691 34.0893 35.2691C33.4693 35.2691 32.9682 34.767 32.9682 34.148C32.9682 33.5291 33.4693 33.0269 34.0893 33.0269C34.7083 33.0269 35.2104 33.5291 35.2104 34.148ZM10.4988 5.24937C10.4988 5.86833 9.99671 6.37047 9.37775 6.37047C8.75777 6.37047 8.25666 5.86833 8.25666 5.24937C8.25666 4.63041 8.75777 4.12828 9.37775 4.12828C9.99671 4.12828 10.4988 4.63041 10.4988 5.24937ZM27.0118 5.24937C27.0118 5.86833 26.5096 6.37047 25.8907 6.37047C25.2707 6.37047 24.7696 5.86833 24.7696 5.24937C24.7696 4.63041 25.2707 4.12828 25.8907 4.12828C26.5096 4.12828 27.0118 4.63041 27.0118 5.24937Z" fill="white"/>
<path fill-rule="evenodd" clip-rule="evenodd" d="M35.2105 34.1478C35.2105 34.7668 34.7083 35.2689 34.0894 35.2689C33.4694 35.2689 32.9683 34.7668 32.9683 34.1478C32.9683 33.5289 33.4694 33.0267 34.0894 33.0267C34.7083 33.0267 35.2105 33.5289 35.2105 34.1478ZM76.5526 13.5059C76.5526 14.1249 76.0504 14.627 75.4315 14.627C74.8125 14.627 74.3104 14.1249 74.3104 13.5059C74.3104 12.887 74.8125 12.3848 75.4315 12.3848C76.0504 12.3848 76.5526 12.887 76.5526 13.5059ZM60.0386 30.0192C60.0386 30.6382 59.5375 31.1403 58.9175 31.1403C58.2996 31.1403 57.7964 30.6382 57.7964 30.0192C57.7964 29.4003 58.2996 28.8981 58.9175 28.8981C59.5375 28.8981 60.0386 29.4003 60.0386 30.0192ZM70.0511 9.37786C70.0511 10.9662 68.763 12.2544 67.1736 12.2544C65.5852 12.2544 64.2971 10.9662 64.2971 9.37786C64.2971 7.78946 65.5852 6.50133 67.1736 6.50133C68.763 6.50133 70.0511 7.78946 70.0511 9.37786ZM61.7944 13.5061C61.7944 15.0945 60.5062 16.3827 58.9168 16.3827C57.3295 16.3827 56.0413 15.0945 56.0413 13.5061C56.0413 11.9177 57.3295 10.6296 58.9168 10.6296C60.5062 10.6296 61.7944 11.9177 61.7944 13.5061ZM68.2952 25.891C68.2952 26.5099 67.793 27.0121 67.1741 27.0121C66.5541 27.0121 66.053 26.5099 66.053 25.891C66.053 25.272 66.5541 24.7699 67.1741 24.7699C67.793 24.7699 68.2952 25.272 68.2952 25.891ZM69.0918 17.6345C69.0918 18.6931 68.2341 19.5519 67.1745 19.5519C66.1149 19.5519 65.2561 18.6931 65.2561 17.6345C65.2561 16.5749 66.1149 15.7161 67.1745 15.7161C68.2341 15.7161 69.0918 16.5749 69.0918 17.6345ZM43.5247 5.24917C43.5247 5.86813 43.0236 6.37026 42.4036 6.37026C41.7846 6.37026 41.2825 5.86813 41.2825 5.24917C41.2825 4.63021 41.7846 4.12807 42.4036 4.12807C43.0236 4.12807 43.5247 4.63021 43.5247 5.24917ZM68.2952 1.1211C68.2952 1.74006 67.793 2.24219 67.1741 2.24219C66.5541 2.24219 66.053 1.74006 66.053 1.1211C66.053 0.502136 66.5541 0 67.1741 0C67.793 0 68.2952 0.502136 68.2952 1.1211ZM76.5526 5.24917C76.5526 5.86813 76.0504 6.37026 75.4315 6.37026C74.8125 6.37026 74.3104 5.86813 74.3104 5.24917C74.3104 4.63021 74.8125 4.12807 75.4315 4.12807C76.0504 4.12807 76.5526 4.63021 76.5526 5.24917ZM99.6617 11.7041C99.9117 11.1036 99.9589 10.6137 99.8021 10.2469C99.6822 9.9671 99.4444 9.75599 99.094 9.6197C98.2393 9.30817 97.5619 9.715 97.108 10.8156L93.9189 18.5506L89.5206 10.6516C89.2603 10.1618 88.9477 9.83183 88.5901 9.66786C88.2263 9.50185 87.8246 9.52645 87.3973 9.74882C87.0007 9.9712 86.7834 10.3135 86.7506 10.7664C86.7199 11.206 86.8367 11.6457 87.095 12.072L92.4996 21.465C92.2608 22.0829 92.0056 22.5492 91.7413 22.8505C91.4779 23.1507 91.1735 23.2963 90.8097 23.2963C90.6468 23.2963 90.4921 23.2809 90.3517 23.2512C90.2103 23.2214 90.0432 23.1682 89.8547 23.0933C89.6538 23.0134 89.5155 22.9653 89.4417 22.9509C88.628 22.6855 88.0736 22.914 87.8072 23.6139C87.51 24.4081 87.799 25.0517 88.667 25.5251C89.2378 25.8428 90.0063 26.0037 90.9501 26.0037C91.9995 26.0037 92.8746 25.604 93.551 24.817C94.215 24.0433 94.9221 22.7839 95.6518 21.0746L99.6617 11.7041ZM104.049 25.7706C104.509 25.7706 104.878 25.6271 105.143 25.3443C105.409 25.0635 105.543 24.6966 105.543 24.2539V18.8011H112.764V24.2539C112.764 24.6956 112.894 25.0624 113.15 25.3432C113.408 25.6271 113.781 25.7706 114.258 25.7706C114.719 25.7706 115.087 25.6271 115.352 25.3443C115.618 25.0635 115.751 24.6966 115.751 24.2539V11.0385C115.751 10.5958 115.618 10.2259 115.353 9.93687C115.087 9.64481 114.719 9.49724 114.258 9.49724C113.781 9.49724 113.407 9.64583 113.149 9.93789C112.894 10.2259 112.764 10.5958 112.764 11.0385V16.1172H105.543V11.0385C105.543 10.5958 105.409 10.2248 105.145 9.93687C104.878 9.64481 104.509 9.49724 104.049 9.49724C103.573 9.49724 103.198 9.64583 102.94 9.93789C102.684 10.2269 102.555 10.5968 102.555 11.0385V24.2539C102.555 24.6956 102.685 25.0624 102.941 25.3432C103.199 25.6271 103.573 25.7706 104.049 25.7706ZM121.413 25.7706C121.893 25.7706 122.357 25.4836 122.795 24.9159L130.198 14.8025V24.2539C130.198 24.6802 130.327 25.043 130.584 25.3309C130.842 25.622 131.222 25.7706 131.715 25.7706C132.193 25.7706 132.561 25.6271 132.813 25.3422C133.061 25.0614 133.186 24.6956 133.186 24.2539V11.0385C133.186 10.0158 132.707 9.49724 131.762 9.49724C131.219 9.49724 130.739 9.777 130.333 10.3294L122.977 20.5094V11.0385C122.977 10.5968 122.847 10.2269 122.591 9.93789C122.332 9.64583 121.959 9.49724 121.483 9.49724C120.99 9.49724 120.613 9.64583 120.362 9.93892C120.115 10.2269 119.989 10.5968 119.989 11.0385V24.2539C119.989 24.7273 120.116 25.1024 120.365 25.3668C120.616 25.6343 120.968 25.7706 121.413 25.7706ZM145.449 22.8226C144.885 23.1987 144.028 23.3893 142.903 23.3893C141.894 23.3893 141.017 23.3452 140.294 23.2602V18.5913H142.88C145.168 18.5913 146.281 19.3691 146.281 20.9667C146.281 21.8306 146.001 22.4547 145.449 22.8226ZM142.576 16.3041H140.294V12.0093C141.002 11.9385 141.691 11.9027 142.344 11.9027C144.475 11.9027 145.511 12.58 145.511 13.9748C145.511 15.5416 144.551 16.3041 142.576 16.3041ZM146.603 17.0583C147.172 16.755 147.637 16.3164 147.984 15.7497C148.372 15.1153 148.568 14.4236 148.568 13.695C148.568 10.8328 146.56 9.38072 142.6 9.38072C141.203 9.38072 139.935 9.47603 138.831 9.66254C137.897 9.8265 137.423 10.3829 137.423 11.3175V24.0441C137.423 24.9654 137.89 25.4983 138.809 25.6294C139.911 25.8006 141.249 25.8867 142.786 25.8867C147.133 25.8867 149.338 24.1927 149.338 20.851C149.338 19.9164 149.072 19.1006 148.549 18.4264C148.069 17.8084 147.415 17.3493 146.603 17.0583ZM163.537 25.4069C163.796 25.164 163.929 24.8391 163.929 24.4405C163.929 24.0265 163.796 23.6935 163.537 23.4496C163.279 23.2087 162.931 23.0868 162.505 23.0868H155.864V18.7551H160.966C161.41 18.7551 161.765 18.628 162.022 18.379C162.282 18.1279 162.413 17.799 162.413 17.4014C162.413 16.9863 162.281 16.6564 162.021 16.4217C161.763 16.1881 161.408 16.0702 160.966 16.0702H155.864V12.1822H162.272C162.699 12.1822 163.046 12.0593 163.303 11.8184C163.564 11.5756 163.695 11.2507 163.695 10.8521C163.695 10.4371 163.564 10.104 163.303 9.86114C163.046 9.62031 162.699 9.49734 162.272 9.49734H154.393C153.918 9.49734 153.54 9.64491 153.274 9.93697C153.011 10.2249 152.876 10.5959 152.876 11.0386V24.2304C152.876 24.6731 153.014 25.0441 153.287 25.3321C153.561 25.6231 153.941 25.7707 154.417 25.7707H162.505C162.931 25.7707 163.279 25.6487 163.537 25.4069ZM169.871 12.1469C170.519 12.0618 171.17 12.0188 171.804 12.0188C173.951 12.0188 174.995 12.895 174.995 14.6975C174.995 16.6251 173.898 17.5618 171.641 17.5618C170.902 17.5618 170.308 17.5351 169.871 17.4808V12.1469ZM178.123 14.6278C178.123 12.8324 177.557 11.4941 176.442 10.6476C175.334 9.80734 173.797 9.38103 171.874 9.38103C170.506 9.38103 169.292 9.48351 168.267 9.68539C167.349 9.86575 166.884 10.4468 166.884 11.4111V24.2535C166.884 24.6952 167.013 25.062 167.269 25.3438C167.529 25.6267 167.902 25.7701 168.377 25.7701C168.838 25.7701 169.206 25.6277 169.472 25.3449C169.737 25.0631 169.871 24.6972 169.871 24.2535V20.0765C170.337 20.1431 170.985 20.177 171.804 20.177C173.666 20.177 175.2 19.7066 176.362 18.7812C177.53 17.8497 178.123 16.4519 178.123 14.6278ZM191.265 22.33C190.151 22.9869 189.054 23.3189 188.003 23.3189C186.687 23.3189 185.586 22.8096 184.732 21.8033C183.873 20.7918 183.437 19.3817 183.437 17.6109C183.437 15.9006 183.843 14.512 184.641 13.4852C185.938 11.8179 188.074 11.491 190.953 12.5957C191.923 12.9564 192.56 12.8079 192.845 12.1735C193.177 11.4603 192.977 10.8475 192.254 10.3535C191.217 9.63107 189.748 9.26421 187.887 9.26421C185.523 9.26421 183.648 10.0328 182.315 11.5464C180.984 13.0569 180.31 15.1044 180.31 17.6345C180.31 20.1944 180.945 22.249 182.197 23.7432C183.453 25.2434 185.337 26.0038 187.794 26.0038C189.732 26.0038 191.351 25.5344 192.606 24.6091C193.011 24.3017 193.262 23.9461 193.352 23.5525C193.444 23.1519 193.379 22.8034 193.163 22.5216C192.749 21.9242 192.104 21.8525 191.265 22.33ZM208.375 9.49765C207.833 9.49765 207.352 9.77741 206.945 10.3298L199.589 20.5098V11.0379C199.589 10.5972 199.46 10.2263 199.205 9.93728C198.946 9.64624 198.573 9.49765 198.096 9.49765C197.603 9.49765 197.226 9.64624 196.974 9.9383C196.727 10.2273 196.602 10.5972 196.602 11.0379V24.2533C196.602 24.7278 196.728 25.1018 196.977 25.3672C197.228 25.6347 197.581 25.771 198.026 25.771C198.506 25.771 198.97 25.484 199.408 24.9153L206.811 14.8029V24.2533C206.811 24.6806 206.941 25.0424 207.196 25.3303C207.454 25.6224 207.836 25.771 208.329 25.771C208.805 25.771 209.174 25.6265 209.425 25.3416C209.673 25.0618 209.798 24.695 209.798 24.2533V11.0379C209.798 10.0162 209.32 9.49765 208.375 9.49765ZM226.324 10.8281C226.324 10.4131 226.191 10.0841 225.931 9.84843C225.673 9.61581 225.318 9.49796 224.877 9.49796H213.829C213.402 9.49796 213.056 9.61581 212.797 9.84843C212.536 10.0841 212.404 10.4131 212.404 10.8281C212.404 11.2257 212.535 11.5547 212.795 11.8057C213.053 12.0558 213.401 12.1818 213.829 12.1818H217.859V24.2536C217.859 24.6953 217.988 25.0621 218.245 25.3429C218.504 25.6268 218.876 25.7702 219.352 25.7702C219.829 25.7702 220.202 25.6268 220.46 25.3439C220.716 25.0621 220.846 24.6963 220.846 24.2536V12.1818H224.877C225.319 12.1818 225.675 12.0558 225.933 11.8057C226.193 11.5547 226.324 11.2257 226.324 10.8281ZM238.558 23.0864H231.918V18.7547H237.02C237.463 18.7547 237.818 18.6286 238.077 18.3786C238.335 18.1275 238.467 17.7996 238.467 17.401C238.467 16.9859 238.335 16.656 238.075 16.4213C237.816 16.1887 237.462 16.0708 237.02 16.0708H231.918V12.1818H238.325C238.752 12.1818 239.099 12.0599 239.358 11.818C239.617 11.5762 239.749 11.2503 239.749 10.8517C239.749 10.4366 239.617 10.1046 239.358 9.86175C239.099 9.61991 238.752 9.49796 238.325 9.49796H230.446C229.971 9.49796 229.594 9.64552 229.328 9.93656C229.064 10.2255 228.93 10.5955 228.93 11.0382V24.23C228.93 24.6737 229.068 25.0437 229.341 25.3327C229.614 25.6237 229.994 25.7702 230.47 25.7702H238.558C238.985 25.7702 239.332 25.6483 239.59 25.4065C239.851 25.1636 239.982 24.8387 239.982 24.4401C239.982 24.0261 239.851 23.693 239.59 23.4502C239.332 23.2083 238.985 23.0864 238.558 23.0864ZM254.992 10.8281C254.992 10.4131 254.86 10.0841 254.6 9.84843C254.341 9.61581 253.987 9.49796 253.545 9.49796H242.497C242.072 9.49796 241.725 9.61581 241.466 9.84843C241.205 10.0841 241.073 10.4131 241.073 10.8281C241.073 11.2257 241.205 11.5547 241.463 11.8057C241.721 12.0558 242.07 12.1818 242.497 12.1818H246.528V24.2536C246.528 24.6953 246.658 25.0621 246.914 25.3429C247.172 25.6268 247.544 25.7702 248.021 25.7702C248.498 25.7702 248.87 25.6268 249.128 25.3439C249.385 25.0621 249.515 24.6963 249.515 24.2536V12.1818H253.545C253.989 12.1818 254.345 12.0558 254.603 11.8057C254.861 11.5547 254.992 11.2257 254.992 10.8281ZM277.321 24.2537V11.0383C277.321 10.0156 276.841 9.49806 275.897 9.49806C275.355 9.49806 274.874 9.77782 274.468 10.3291L267.112 20.5102V11.0383C267.112 10.5966 266.983 10.2267 266.727 9.93769C266.469 9.64563 266.095 9.49806 265.619 9.49806C265.126 9.49806 264.748 9.64563 264.497 9.93871C264.25 10.2277 264.125 10.5976 264.125 11.0383V24.2537C264.125 24.7271 264.251 25.1012 264.5 25.3676C264.75 25.6351 265.104 25.7703 265.548 25.7703C266.028 25.7703 266.493 25.4834 266.931 24.9157L274.334 14.8023V24.2537C274.334 24.68 274.463 25.0428 274.718 25.3307C274.976 25.6228 275.357 25.7703 275.85 25.7703C276.328 25.7703 276.697 25.6269 276.948 25.342C277.195 25.0612 277.321 24.6954 277.321 24.2537ZM292.399 9.49765H281.351C280.926 9.49765 280.578 9.6155 280.319 9.84812C280.059 10.0838 279.928 10.4138 279.928 10.8278C279.928 11.2264 280.059 11.5544 280.317 11.8054C280.575 12.0555 280.924 12.1815 281.351 12.1815H285.382V24.2533C285.382 24.696 285.512 25.0618 285.768 25.3436C286.026 25.6275 286.399 25.771 286.875 25.771C287.352 25.771 287.724 25.6275 287.982 25.3436C288.239 25.0618 288.369 24.696 288.369 24.2533V12.1815H292.399C292.843 12.1815 293.198 12.0555 293.456 11.8054C293.715 11.5544 293.846 11.2264 293.846 10.8278C293.846 10.4138 293.714 10.0838 293.454 9.84812C293.195 9.6155 292.841 9.49765 292.399 9.49765ZM309.903 9.49765C309.327 9.49765 308.838 9.8102 308.447 10.4281L303.866 17.828L299.193 10.4517C298.803 9.8184 298.29 9.49765 297.667 9.49765C297.255 9.49765 296.914 9.62882 296.655 9.88706C296.397 10.1453 296.266 10.5409 296.266 11.0614V24.2533C296.266 25.2606 296.737 25.771 297.667 25.771C298.596 25.771 299.067 25.2606 299.067 24.2533V15.2097L302.341 20.3417C302.7 20.9125 303.166 21.2025 303.727 21.2025C304.272 21.2025 304.731 20.9043 305.09 20.3182L308.316 15.1021V24.2533C308.316 24.696 308.451 25.0628 308.716 25.3447C308.982 25.6275 309.35 25.771 309.81 25.771C310.287 25.771 310.66 25.6275 310.918 25.3436C311.174 25.0628 311.304 24.696 311.304 24.2533V11.0379C311.304 10.5819 311.183 10.2078 310.943 9.92703C310.7 9.64214 310.35 9.49765 309.903 9.49765Z" fill="white"/>
<mask id="mask0_42_112" style="mask-type:alpha" maskUnits="userSpaceOnUse" x="314" y="9" width="17" height="18">
<path d="M330.346 26.0041V9.26514H314.843V26.0041H330.346Z" fill="white"/>
</mask>
<g mask="url(#mask0_42_112)">
<path fill-rule="evenodd" clip-rule="evenodd" d="M326.015 21.7376C325.222 22.7869 324.067 23.3188 322.583 23.3188C321.114 23.3188 319.968 22.7869 319.174 21.7376C318.375 20.679 317.969 19.2986 317.969 17.6344C317.969 15.9702 318.375 14.5898 319.174 13.5302C319.968 12.4819 321.114 11.949 322.583 11.949C324.067 11.949 325.222 12.4819 326.015 13.5302C326.814 14.5888 327.219 15.9702 327.219 17.6344C327.219 19.2986 326.814 20.68 326.015 21.7376ZM328.318 11.6283C326.97 10.0604 325.04 9.26514 322.583 9.26514C320.125 9.26514 318.199 10.0604 316.857 11.6283C315.521 13.1931 314.843 15.2139 314.843 17.6344C314.843 20.0703 315.521 22.0952 316.858 23.6519C318.2 25.2126 320.125 26.0037 322.583 26.0037C325.039 26.0037 326.97 25.2126 328.318 23.6519C329.664 22.0952 330.346 20.0703 330.346 17.6344C330.346 15.2139 329.664 13.1931 328.318 11.6283Z" fill="white"/>
</g>
</svg>
