<svg width="287" height="65" viewBox="0 0 287 65" fill="none" xmlns="http://www.w3.org/2000/svg">
<path fill-rule="evenodd" clip-rule="evenodd" d="M71.7634 30.4028L72.7067 27.3803L69.5841 27.4797C69.322 27.4797 67.4029 27.4224 65.5451 26.0746C65.6847 26.086 65.8206 26.1071 65.966 26.1071C67.8793 26.1071 69.7334 24.9524 70.4738 23.3006L71.817 20.3182C70.1332 20.3412 68.593 20.129 68.593 20.129C68.5796 20.129 67.3666 19.9703 65.9641 18.5346C64.9577 17.5079 63.7121 16.9631 62.3632 16.9631C61.8292 16.9651 61.2986 17.0496 60.7904 17.2135C60.8612 16.9726 60.9282 16.726 60.9684 16.4737C61.395 13.6825 59.6023 11.5566 59.6023 11.5566L57.2546 8.64691L55.7985 12.0651C55.7928 12.0766 55.4254 12.8796 54.7692 13.2696C54.5702 12.264 54.0823 11.1341 53.0414 10.054C51.0764 8.01985 48.6867 7.71397 47.4354 7.71397C46.8556 7.71397 46.4404 7.77897 46.3409 7.79427L43.5073 8.3525C43.6699 7.71971 44.0201 6.61279 44.6553 5.62059L46.2204 3.18309L42.2847 3.63235L41.0314 0.967353L38.6034 2.21956L36.3591 0L34.1205 2.21765L31.6886 0.967353L30.4373 3.63044L26.5035 3.18118L28.0705 5.6225C28.7077 6.61471 29.054 7.71588 29.2166 8.34868L26.5131 7.81338L26.4193 7.8C26.0459 7.74122 25.6684 7.71246 25.2904 7.71397C24.0391 7.71397 21.6494 8.01985 19.6901 10.054C18.6473 11.1322 18.1575 12.264 17.9585 13.2696C17.3061 12.8815 16.9407 12.0938 16.9407 12.0938L15.4827 8.65265L13.0968 11.5853C12.8059 11.9619 11.369 13.9616 11.7574 16.4794C11.7995 16.7299 11.8646 16.9746 11.9354 17.2154C11.4286 17.051 10.8993 16.9665 10.3664 16.965C9.01563 16.965 7.77005 17.5099 6.76172 18.5365C5.36499 19.9665 4.15767 20.129 4.16724 20.129C4.16724 20.129 2.89105 20.3584 0.914573 20.3201L2.25199 23.3025C2.99437 24.9543 4.8503 26.109 6.75981 26.109C6.90522 26.109 7.04107 26.0879 7.18265 26.0765C5.32672 27.4262 3.40956 27.4816 3.17805 27.4816L0 27.3803L0.962407 30.4009C1.44839 31.9609 3.06707 34.5399 6.16667 34.8171C5.82993 36.2318 5.08181 37.8185 3.44017 38.5029L1.07147 39.4779L2.36297 41.73C3.09195 42.944 4.80438 44.3644 7.24005 44.3644C7.76622 44.3644 8.27517 44.309 8.76689 44.2057C8.89126 44.7601 9.04815 45.3146 9.23375 45.869C9.95699 48.0293 9.33324 49.5357 9.32559 49.5529L8.15845 52.0038L10.7663 52.6921C10.7989 52.7035 11.5891 52.9215 12.5744 52.9215C13.0221 52.9215 13.4507 52.8737 13.8525 52.7781C14.1548 52.7074 14.4457 52.6118 14.7269 52.499C15.0656 53.105 15.475 53.6594 15.9534 54.1546C17.6256 55.8732 19.9982 56.7431 22.9983 56.7431H23.0078L25.1508 56.7144L20.7233 58.5574L24.085 60.1843C25.3077 60.7807 26.7541 61.4843 28.2312 62.0234L27.8103 63.1724L28.9679 63.7019C29.0712 63.7497 31.3021 64.7457 35.0044 64.9579C35.0044 64.9579 35.898 65 36.3897 65C36.8833 65 37.7673 64.956 37.7673 64.956C41.4447 64.7381 43.6565 63.7497 43.7599 63.7019L44.9212 63.1724L44.4984 62.0215C46.0138 61.4671 47.5157 60.7329 48.6886 60.1613L51.9872 58.5554L47.5731 56.7144L49.7256 56.7431C52.7296 56.7431 55.1021 55.8713 56.7724 54.1526C57.2489 53.6594 57.6564 53.1069 57.997 52.499C58.6799 52.7812 59.4124 52.9242 60.1514 52.9196C61.1214 52.9196 61.9193 52.7054 61.9403 52.6978L64.5616 52.0038L63.4194 49.5969C63.3926 49.5357 62.7688 48.0293 63.4921 45.8651C63.6777 45.3146 63.8326 44.7582 63.9589 44.2057C64.4506 44.309 64.9653 44.3625 65.4953 44.3644C68.5987 44.3644 70.0873 42.1793 70.3743 41.7052L71.6543 39.476L69.2856 38.5029C67.6402 37.8204 66.894 36.2337 66.561 34.8209C69.6205 34.5532 71.2602 31.9724 71.7653 30.4047L71.7634 30.4028Z" fill="#FFFFFE"/>
<path fill-rule="evenodd" clip-rule="evenodd" d="M36.3591 9.25869C33.8526 9.2606 31.9718 10.0827 31.5624 11.0519L36.3591 12.9446L41.1577 11.0519C40.7521 10.0827 38.8713 9.2606 36.3591 9.25869ZM36.4107 59.4215H36.3151C34.7959 59.431 32.7008 59.1194 31.6944 58.8231L30.4813 62.1094C31.2811 62.3943 33.9904 62.941 36.3648 62.941C38.7354 62.941 41.4466 62.3943 42.2445 62.1094L41.0334 58.825C40.0212 59.1194 37.9299 59.431 36.4107 59.4215ZM45.589 56.1524C44.6859 56.6647 42.6712 57.4333 41.4983 57.7888L42.4818 60.5035C44.2956 60.0065 45.7937 59.4272 47.0297 58.8059L44.9863 58.1272L45.589 56.1524ZM27.1349 56.1524L27.7395 58.1272L25.6942 58.8059C26.9283 59.4272 28.4321 60.0065 30.2402 60.5016L31.2256 57.7869C30.0547 57.4313 28.0361 56.6647 27.1349 56.1524ZM36.3591 6.11766C38.2514 6.11766 40.1035 6.57075 41.5308 7.36413C41.6609 6.92825 41.8427 6.39678 42.0895 5.84045L41.55 5.90545L40.9855 5.96281L40.7464 5.44854L40.0231 3.92487L38.7106 4.60928L38.1978 4.86928L37.7883 4.46781L36.3591 3.0531L34.9337 4.46781L34.5261 4.86928L34.0153 4.60928L32.6951 3.92487L31.9814 5.44854L31.7384 5.96472L31.172 5.90545L30.6363 5.84045C30.8831 6.39678 31.063 6.92825 31.195 7.36413C32.6262 6.57075 34.4783 6.11766 36.361 6.11766H36.3591ZM65.2217 23.7384C65.4685 23.8225 65.7173 23.8607 65.9641 23.8607C67.0356 23.8607 68.0688 23.1668 68.4227 22.3753C68.4227 22.3753 66.4616 22.2568 64.3531 20.1137C63.6834 19.4216 62.9716 19.2132 62.3632 19.2132C61.4161 19.2132 60.7043 19.7122 60.7043 19.7122C63.2529 21.0696 63.7714 23.249 65.2217 23.7384ZM6.75982 23.8588C7.00855 23.8588 7.25729 23.8225 7.49645 23.7365C8.95059 23.2471 9.47484 21.0696 12.0177 19.7141C12.0177 19.7141 11.3059 19.2132 10.3645 19.2132C9.75227 19.2132 9.04243 19.4197 8.36893 20.1156C6.26235 22.2568 4.3031 22.3772 4.3031 22.3772C4.65515 23.1668 5.69027 23.8607 6.75982 23.8607V23.8588Z" fill="#FFFFFE"/>
<path fill-rule="evenodd" clip-rule="evenodd" d="M64.4544 39.3728C62.4837 38.3978 61.24 35.8169 60.9377 34.8878C60.6124 40.0075 58.1156 43.5596 55.1977 46.9778C53.6824 48.7519 53.1543 50.4763 53.1543 50.4763C53.1543 50.4763 53.447 48.5225 54.7557 46.9319C57.4784 43.659 60.0652 39.5831 60.2585 34.8687C60.3905 31.5805 59.5467 28.9135 58.2265 26.715C58.9651 29.0034 58.8598 31.808 56.3553 34.4252C56.3553 34.4252 61.3433 28.4452 54.3712 22.3122C51.5815 19.9799 48.5278 18.5384 46.957 17.5175C52.6339 19.3719 55.4082 17.3302 55.4082 17.3302C53.5943 18.9035 51.2467 18.8768 49.7906 18.6493C50.1867 18.8424 50.5981 19.045 51.0381 19.2802C55.8272 21.884 60.1284 26.1682 60.8631 32.0985V32.0527C61.9747 37.8778 64.4544 39.3728 64.4544 39.3728ZM65.9124 32.586C65.9564 32.5899 65.9947 32.5899 66.0387 32.5899C68.7078 32.5899 69.6109 29.728 69.6109 29.728H69.5592C69.0694 29.728 65.1011 29.6132 62.2962 26.044C60.4517 23.6982 58.9383 21.6355 55.9497 20.8249L55.655 20.7713L55.5919 20.4712C55.5096 20.0143 55.8215 19.586 56.5332 19.1253C60.6565 16.4221 57.8534 12.9732 57.8534 12.9732C57.8534 12.9732 56.6786 15.73 54.044 15.73L53.8469 15.7262C53.5484 15.7109 53.2595 15.7013 52.9687 15.6382L52.4827 15.5427C52.4827 15.5427 53.2346 13.4971 51.4208 11.6216C50.0566 10.2031 48.3939 9.96222 47.4353 9.96222C46.9512 9.96222 46.6451 10.0253 46.6451 10.0253C47.5559 11.2163 48.2141 13.195 47.1617 14.4147C46.2529 15.4624 44.0334 15.514 44.0334 17.0778C44.0334 17.7393 44.6514 18.5116 45.7612 19.2056C49.098 21.3085 52.41 24.0997 53.7876 27.841C55.5096 32.5057 53.5695 35.6028 50.8028 37.3788C50.8028 37.3788 51.6714 38.178 52.9285 38.2812C53.1849 38.306 53.4355 38.3175 53.669 38.3175C56.3266 38.3175 57.7004 37.0691 57.7004 37.0691C57.7004 37.0691 57.4727 38.7935 56.0932 40.3937C54.815 41.8696 53.1409 42.7413 50.5866 42.7777C50.5866 42.7777 50.5062 43.963 51.637 44.9915C52.3622 45.6396 54.0325 45.8518 54.0325 45.8518C54.0325 45.8518 50.9023 46.4846 50.556 51.113C50.3685 53.6212 49.7294 54.491 49.7294 54.491H49.7849C57.0479 54.491 56.8623 48.2549 56.8623 48.2549C56.8623 48.2549 57.3674 50.1016 59.3937 50.5834C59.6386 50.6484 59.9007 50.6732 60.1494 50.6732C60.8 50.6732 61.3682 50.5203 61.3682 50.5203C61.3682 50.5203 60.3063 48.2797 61.3587 45.1463C62.233 42.5444 62.0915 40.6174 62.0915 40.6174C62.0915 40.6174 63.0692 42.099 65.4972 42.1124H65.5221C66.0956 42.1212 66.6621 41.9854 67.1691 41.7173C67.6761 41.4493 68.1073 41.0579 68.4227 40.5791C63.58 38.566 64.0584 32.0718 64.0584 32.0718C64.0584 32.0718 64.6859 32.5421 65.9124 32.588V32.586ZM17.5261 46.9778C14.6083 43.5596 12.1114 40.0075 11.7823 34.8878C11.4819 35.8188 10.2401 38.3997 8.2713 39.3728C8.2713 39.3728 10.7472 37.8778 11.8588 32.0527V32.0985C12.5954 26.1682 16.8966 21.884 21.6857 19.2821C22.1257 19.0431 22.539 18.8424 22.9313 18.6512C21.4771 18.8768 19.1276 18.9035 17.3156 17.3321C17.3156 17.3321 20.09 19.3719 25.7649 17.5175C24.196 18.5384 21.1423 19.9799 18.3546 22.3122C11.3805 28.4452 16.3685 34.4252 16.3685 34.4252C13.8621 31.806 13.7587 29.0053 14.4973 26.715C13.1771 28.9135 12.3314 31.5805 12.4692 34.8706C12.6586 39.5831 15.2435 43.659 17.9604 46.9338C19.2768 48.5206 19.5734 50.4744 19.5734 50.4744C19.5734 50.4744 19.0376 48.7519 17.5261 46.9778ZM18.6932 45.8499C18.6932 45.8499 20.3636 45.6396 21.0887 44.9896C22.2176 43.963 22.1391 42.7777 22.1391 42.7777C19.5829 42.7413 17.9107 41.8696 16.6268 40.3937C15.2531 38.7935 15.0235 37.0691 15.0235 37.0691C15.0235 37.0691 16.3972 38.3175 19.051 38.3175C19.2902 38.3175 19.5389 38.306 19.7934 38.2812C20.5786 38.2017 21.3215 37.8872 21.9249 37.3788C19.1543 35.6028 17.2142 32.5057 18.9343 27.8391C20.3119 24.1016 23.622 21.3085 26.9627 19.2037C28.0705 18.5116 28.6866 17.7393 28.6866 17.0778C28.6866 15.514 26.4709 15.4624 25.5621 14.4147C24.5098 13.195 25.1699 11.2163 26.0787 10.0253C26.0787 10.0253 25.7745 9.96222 25.2885 9.96222C24.3318 9.96222 22.6691 10.2031 21.303 11.6216C19.4853 13.499 20.2411 15.5446 20.2411 15.5446L19.7551 15.6402C19.4662 15.6994 19.1735 15.7109 18.875 15.7281L18.6837 15.73C16.0433 15.73 14.8704 12.9752 14.8704 12.9752C14.8704 12.9752 12.0712 16.4221 16.1944 19.1253C16.9024 19.586 17.2142 20.0162 17.132 20.4712L17.0688 20.7694L16.7684 20.823C13.7855 21.6355 12.2721 23.6982 10.4238 26.044C7.61886 29.6132 3.65443 29.728 3.1627 29.728H3.10913C3.10913 29.728 4.01414 32.5899 6.68515 32.5899C6.72724 32.5899 6.76551 32.5899 6.81143 32.586C8.03788 32.5421 8.66736 32.0718 8.66736 32.0718C8.66736 32.0718 9.14187 38.566 4.30114 40.5791C4.30114 40.5791 5.18318 42.1143 7.20366 42.1143H7.22662C9.65656 42.099 10.6324 40.6174 10.6324 40.6174C10.6324 40.6174 10.4908 42.5463 11.3613 45.1463C12.4137 48.2816 11.3575 50.5184 11.3575 50.5184C11.3575 50.5184 11.9219 50.6713 12.5744 50.6713C12.827 50.6713 13.0853 50.6484 13.3282 50.5834C15.3526 50.1016 15.8596 48.2549 15.8596 48.2549C15.8596 48.2549 15.674 54.491 22.9389 54.491H22.9925C22.9925 54.491 22.3554 53.6212 22.1698 51.113C21.8254 46.4865 18.6913 45.8499 18.6913 45.8499H18.6932ZM34.7212 22.8705H38.1461V24.0462C37.7443 23.553 36.9598 23.6543 36.9598 23.6543V25.35C36.9598 25.35 36.9866 26.1835 37.2813 26.5449H35.5861C35.8826 26.1835 35.9075 25.35 35.9075 25.35V23.6543C35.9075 23.6543 35.1269 23.553 34.7212 24.0462V22.8705ZM30.9902 23.0463C31.1089 23.1744 31.2256 23.314 31.3384 23.4535C31.3652 23.486 31.3901 23.5147 31.4169 23.553C31.5221 23.6906 31.6274 23.8397 31.7288 23.9888L31.7976 24.0902C31.9182 24.2737 32.033 24.463 32.1478 24.6599C33.1963 26.4703 34.8724 27.5524 36.359 27.5543C37.8495 27.5524 39.5237 26.4703 40.5741 24.6599C40.6908 24.4591 40.8075 24.2641 40.93 24.0806C41.0697 23.8668 41.2191 23.6594 41.3777 23.4593C41.4944 23.314 41.615 23.1725 41.7374 23.0425C41.7585 23.0234 41.7757 23.0024 41.7967 22.9852C42.3325 22.4384 42.9658 22.0216 43.8 21.7903L43.4288 21.5743H43.4097L41.9326 20.7178L40.4191 19.848L36.3705 22.0541L36.359 22.0446L36.3533 22.0541L32.3047 19.848L30.7893 20.7178L29.3122 21.5743H29.295L28.9219 21.7903C29.7542 22.0197 30.3894 22.4327 30.9252 22.9813C30.9481 23.0005 30.9634 23.0272 30.9902 23.0463Z" fill="#FFFFFE"/>
<path fill-rule="evenodd" clip-rule="evenodd" d="M35.0714 15.3955V16.5043L34.859 16.4049C34.8494 16.3972 34.5356 16.3284 33.9942 15.8963C33.0968 15.2005 33.0796 14.5581 33.0796 14.5581L35.0695 15.3955H35.0714ZM36.0089 20.5897V13.7035L31.6312 12.2162L32.7869 18.8882L36.0108 20.5897H36.0089ZM37.6544 15.3955L39.6442 14.5581C39.6442 14.5581 39.6289 15.2005 38.7277 15.8963C38.1863 16.3265 37.8744 16.3972 37.8648 16.4049L37.6544 16.5024V15.3955ZM39.937 18.8902L41.0869 12.2181L36.7111 13.7035V20.5897L39.937 18.8882V18.8902ZM29.8174 36.553C30.244 36.7059 30.7606 36.7384 31.0266 36.7384C31.0362 36.7059 31.0515 36.6657 31.0649 36.616C31.0859 36.5396 31.1089 36.4593 31.1261 36.3752C31.2007 35.9928 31.2256 35.5627 31.2332 35.2835C30.9885 35.1382 30.7891 34.9277 30.6573 34.6756C30.4947 34.3334 30.2632 34.1728 29.9245 34.1728C29.4844 34.1728 29.0118 34.4405 28.8071 34.5628C28.6464 35.5149 29.3486 36.379 29.8174 36.551V36.553ZM39.5027 32.8996C38.6914 33.7847 37.0976 35.3275 37.0211 35.404L36.9254 35.4996L31.8933 35.4212C31.8891 35.8371 31.8352 36.2511 31.7326 36.6543L31.6924 36.813L37.6754 37.8912C38.2973 37.4553 40.0097 36.2031 40.6755 35.7118C40.1915 35.0044 40.1455 34.1652 40.2546 33.5763C39.9673 33.395 39.7131 33.1662 39.5027 32.8996Z" fill="#FFFFFE"/>
<path fill-rule="evenodd" clip-rule="evenodd" d="M40.1857 26.8431C39.0262 27.994 37.9146 28.4203 36.9216 28.5197C36.7398 28.5394 36.5572 28.5496 36.3743 28.5503H36.3495C35.9842 28.5503 35.6199 28.5118 35.2627 28.4356C35.1976 28.6937 35.1154 29.2347 35.3507 29.7471C35.5612 30.2116 35.9879 30.5577 36.6116 30.789L36.8221 30.8712L36.824 31.0968C36.824 31.1637 36.8737 32.6281 38.4694 33.0353C38.7297 32.7677 38.9669 32.5249 39.1391 32.3203C38.8138 31.5537 38.986 30.7699 39.4586 30.3856C39.4395 30.4678 39.229 32.3891 40.7693 33.1041L41.0237 33.2246L40.9472 33.4941C40.9223 33.5763 40.4096 35.4365 42.2751 36.1285L42.6042 36.2547L42.4568 36.574C42.4243 36.6447 41.6934 38.3328 43.4154 39.2925H47.1483V36.3235C45.8205 36.161 45.2599 35.0924 45.1145 34.3353C44.4964 34.2302 44.02 33.9644 43.6928 33.5305C42.9084 32.4981 43.5819 31.5518 43.5914 31.5002C43.5895 31.5078 43.5914 32.5134 44.2114 33.1366C44.5194 33.4349 44.8829 33.6681 45.4359 33.7197L45.7057 33.7446L45.7286 34.0218C45.7344 34.081 45.8817 35.4441 47.1483 35.6582L47.1464 29.598C47.1464 28.6574 47.42 27.713 47.7491 26.8412H40.1857V26.8431ZM30.135 29.6209L30.0355 33.4788L30.4755 33.5477L31.547 29.8446L31.0017 28.7052L30.1369 29.6209H30.135ZM32.4578 43.9094C32.4283 43.9085 32.3994 43.9016 32.3727 43.8891C32.3461 43.8766 32.3223 43.8588 32.3027 43.8368C32.2832 43.8148 32.2684 43.789 32.2592 43.761C32.25 43.7331 32.2466 43.7036 32.2492 43.6743C32.2509 43.6453 32.2584 43.6169 32.2712 43.5909C32.284 43.5648 32.3019 43.5416 32.3238 43.5225C32.3457 43.5035 32.3712 43.489 32.3988 43.4799C32.4264 43.4708 32.4556 43.4674 32.4845 43.4697C32.6108 43.4755 32.6988 43.5844 32.695 43.703C32.6906 43.7616 32.6632 43.8162 32.6188 43.8549C32.5744 43.8935 32.5165 43.9131 32.4578 43.9094ZM41.9517 47.3257C41.9842 47.3257 42.0225 47.3296 42.0569 47.3391C42.7266 47.5303 42.8931 49.9353 44.0621 50.1494C44.1769 50.1743 44.2841 50.18 44.3759 50.18C44.7146 50.18 44.9155 50.0366 45.1336 49.7785C45.1336 49.7785 44.5443 48.8552 44.1042 48.23C43.5206 47.4118 43.0672 46.4234 41.9785 46.4234C41.9517 46.4234 41.9211 46.4234 41.8924 46.4272C41.6851 46.4356 41.4845 46.5032 41.3146 46.6222C40.9512 46.382 40.5257 46.2525 40.09 46.2494C39.4108 46.2494 38.8789 46.563 38.6129 46.563H38.6034L36.1734 46.3221C35.7927 46.2838 35.4923 45.9015 35.3832 45.7524L35.3411 45.6874C35.3411 45.6205 35.3411 45.5535 35.3373 45.4943C35.255 43.5041 33.7167 42.6534 33.1676 42.6381C33.1676 42.6381 33.2327 42.2596 33.0853 42.1162L32.5496 42.7662L30.7893 41.883L32.0445 43.3512L30.9826 44.546C30.8486 44.6818 30.8659 44.8653 30.9213 44.9437L31.3805 45.349L31.9622 44.9953C31.9909 44.9743 32.0445 44.9666 32.1095 44.9666C32.2702 44.9666 32.5113 45.0087 32.7275 45.0087C32.9667 45.0087 33.1714 44.959 33.1963 44.7353C33.1236 45.4732 32.4386 46.756 32.8883 47.7635L33.2212 48.5244L31.0725 48.2147L30.0661 49.9143C29.7561 50.4802 29.7064 51.0919 30.0049 51.4246L30.3818 51.8968C30.3818 51.8968 30.9099 51.3366 31.0266 50.9677L30.8563 50.7803C30.7128 50.6216 30.7204 50.4802 30.8085 50.31L31.4399 49.2624L33.975 49.8607L34.109 49.6313C34.2812 49.3446 34.5299 49.2605 34.8016 49.2605C34.9145 49.2605 35.0293 49.2738 35.1479 49.293C35.6186 49.3866 36.3935 49.5109 37.1684 49.5109C38.0198 49.5109 38.8636 49.358 39.3132 48.8552C40.2316 50.2182 42.0952 50.4343 41.9479 51.1282L41.4581 53.4644C41.7833 53.4491 42.0952 53.4281 42.3918 53.388L42.8586 50.9581C42.8965 50.7518 42.9296 50.5446 42.9581 50.3368C42.7783 50.1532 42.3439 49.769 42.0971 49.3006C41.7699 48.6678 41.9479 48.3371 41.6418 47.515C41.6418 47.515 41.7374 47.3238 41.9517 47.3238V47.3257Z" fill="#FFFFFE"/>
<path fill-rule="evenodd" clip-rule="evenodd" d="M28.9928 49.5338C28.9928 49.5338 29.8346 49.1897 29.9112 48.9412L29.7964 48.6621C29.7179 48.4785 29.7275 48.2797 29.8825 48.1727L30.7894 47.5437L32.3067 47.8362C32.3067 47.8362 32.0311 47.4921 32.0579 47.0332L30.6115 46.7274L29.2453 47.559C29.007 47.7356 28.8347 47.9869 28.756 48.2727C28.6772 48.5586 28.6966 48.8626 28.811 49.1362L28.9928 49.5357V49.5338ZM39.7208 53.495C39.9906 53.4835 40.2929 53.4797 40.6201 53.4797C40.6201 53.4797 41.4007 51.1951 41.4447 51.1225C40.865 50.8523 40.2992 50.553 39.7495 50.2259C39.981 50.5738 40.5436 50.9696 40.4326 51.2754L39.7208 53.495Z" fill="#FFFFFE"/>
<path fill-rule="evenodd" clip-rule="evenodd" d="M47.1484 39.9463H25.5756V48.0694C25.5756 51.392 27.9768 53.4701 31.5222 53.4701C34.4821 53.4701 35.2628 53.5848 36.3629 54.6803C37.1225 53.9213 37.7501 53.6403 39.0416 53.5332L39.0703 53.409L39.7495 51.3041C39.7113 51.2563 38.6015 49.9926 38.6015 49.9926C38.1615 50.1398 37.7903 50.1647 37.1665 50.1647C36.5294 50.1647 35.8081 50.0882 35.0255 49.9429C34.9522 49.9256 34.877 49.9166 34.8017 49.9162C34.706 49.9162 34.7002 49.9238 34.6735 49.9716L34.5395 50.1953L34.2908 50.6044L33.8259 50.4954L31.7556 50.0079L31.4705 50.4763L31.5145 50.5279L31.7652 50.8051L31.6542 51.1684C31.5012 51.6406 31.0075 52.1931 30.8564 52.346L30.3398 52.9004L29.8672 52.3059L29.5132 51.8604C29.1401 51.4437 29.054 50.8051 29.2645 50.136C29.2583 50.1405 29.251 50.1432 29.2434 50.1437L28.6599 50.3865L28.3977 49.8129L28.2121 49.4095C28.034 48.9968 28.0019 48.5358 28.1212 48.1024C28.2405 47.669 28.5041 47.2892 28.8684 47.0256L30.533 46.0831L32.1211 46.3947C32.1593 46.2418 32.2167 45.6988 32.2607 45.5593C32.2301 45.5554 32.2014 45.5497 32.1708 45.5497L31.2562 45.89L30.3761 45.2821C30.3761 45.2821 30.0317 44.9494 30.3436 44.6168L31.195 43.3225L29.033 40.6078L32.3564 41.9728L32.5784 41.6994L33.0261 41.1603L33.535 41.6459C33.6689 41.7766 33.7619 41.9433 33.8029 42.1257C34.7175 42.4832 36.3591 43.5366 36.5045 45.2496L35.9917 45.4541V45.4675C36.1085 45.6071 36.206 45.6644 36.2367 45.6701L38.6092 45.9034C38.6704 45.8919 38.7431 45.8651 38.8273 45.8422C39.1239 45.7409 39.5659 45.5937 40.0901 45.5937C40.5187 45.5937 40.932 45.6931 41.328 45.8804C41.4754 45.8231 41.6533 45.7829 41.8638 45.7696L41.9786 45.7657C43.2471 45.7657 43.8785 46.7159 44.3855 47.4748C44.4697 47.6068 44.5539 47.7291 44.6419 47.8515C45.0858 48.4785 45.6656 49.3943 45.6885 49.4344L45.9506 49.8416L45.6292 50.2163C45.3843 50.5031 45.0112 50.8376 44.376 50.8376C44.232 50.8364 44.0886 50.8217 43.9474 50.7937C43.8172 50.7687 43.6902 50.7296 43.5685 50.677C43.5491 50.812 43.5267 50.9465 43.5016 51.0804L43.0864 53.2541C45.5737 52.6423 47.1541 50.7612 47.1541 48.0694L47.1484 39.9463ZM25.5756 39.2925H42.3555C41.5175 38.4245 41.5308 37.3291 41.7432 36.616C41.5169 36.5074 41.3064 36.3685 41.1176 36.2031C40.4613 36.6868 38.4599 38.1454 37.9376 38.5125L37.8247 38.589L31.239 37.396H31.1051C30.9482 37.396 30.7167 37.3903 30.4641 37.3578C30.4371 37.4786 30.3756 37.589 30.2871 37.6757C30.1985 37.7623 30.0868 37.8214 29.9653 37.8459C29.8438 37.8704 29.7179 37.8592 29.6026 37.8136C29.4874 37.768 29.3879 37.69 29.3161 37.5891C29.2657 37.5202 29.2296 37.4419 29.2098 37.3589C29.1901 37.2758 29.1872 37.1896 29.2013 37.1054L29.2262 36.962C28.5489 36.4841 27.9194 35.4135 28.1987 34.2856L28.2255 34.167L28.3212 34.0982C28.4177 34.0324 28.5173 33.9711 28.6197 33.9147L28.1413 33.8382C28.0564 33.8237 27.9805 33.7766 27.9297 33.7069C27.879 33.6373 27.8574 33.5507 27.8696 33.4654C27.9003 33.2857 28.0667 33.1595 28.2447 33.192L29.3831 33.3718L29.4883 29.3551L31.1835 27.5581L32.2435 29.7891L31.1261 33.6547L32.1326 33.8134C32.2185 33.8275 32.2954 33.875 32.3463 33.9456C32.3972 34.0162 32.4181 34.1041 32.4042 34.19C32.3919 34.2661 32.3527 34.3353 32.2938 34.3851C32.2348 34.4349 32.16 34.462 32.0828 34.4615L32.0311 34.4595L31.2103 34.3257C31.2218 34.3525 31.2371 34.3659 31.2486 34.3926C31.34 34.5509 31.4774 34.6777 31.6427 34.7559L36.6614 34.8381C36.8738 34.6297 37.4 34.1135 37.9433 33.5668C37.4704 33.3933 37.0551 33.0916 36.7442 32.6955C36.4333 32.2994 36.239 31.8246 36.1831 31.3243C35.4943 31.0298 35.0159 30.5901 34.7519 30.0166C34.4305 29.3054 34.5453 28.5943 34.6314 28.2482C33.9617 28.0054 33.2576 27.5581 32.5382 26.8431H24.9767C25.302 27.7148 25.5756 28.6593 25.5756 29.5979V39.2906V39.2925Z" fill="#FFE52B"/>
<path fill-rule="evenodd" clip-rule="evenodd" d="M32.4846 43.4697C32.4555 43.4674 32.4262 43.4709 32.3985 43.4801C32.3708 43.4893 32.3452 43.5039 32.3232 43.5232C32.3013 43.5424 32.2834 43.5659 32.2707 43.5922C32.258 43.6184 32.2507 43.647 32.2493 43.6762C32.2469 43.7053 32.2505 43.7346 32.2599 43.7624C32.2692 43.7901 32.2841 43.8156 32.3036 43.8374C32.3231 43.8592 32.3468 43.8768 32.3733 43.8892C32.3998 43.9016 32.4286 43.9085 32.4578 43.9094C32.5163 43.9131 32.5739 43.8938 32.6183 43.8555C32.6626 43.8173 32.6902 43.7632 32.6951 43.7048C32.6982 43.6458 32.6779 43.5879 32.6384 43.5439C32.599 43.4998 32.5437 43.4731 32.4846 43.4697ZM42.4837 60.5035L41.4983 57.7888C42.6712 57.4313 44.686 56.6628 45.591 56.1523L44.9883 58.1272L47.0298 58.8059C45.7938 59.4253 44.2976 60.0045 42.4837 60.5016V60.5035ZM36.3649 62.941C33.9904 62.941 31.2811 62.3942 30.4814 62.1094L31.6944 58.825C32.7008 59.1194 34.794 59.431 36.3151 59.4215H36.4108C37.93 59.431 40.0213 59.1175 41.0334 58.825L42.2445 62.1094C41.4448 62.3962 38.7355 62.941 36.3649 62.941ZM25.6961 58.8059L27.7396 58.1272L27.135 56.1523C28.0361 56.6628 30.0566 57.4332 31.2257 57.7888L30.2403 60.5035C28.4322 60.0065 26.9302 59.4253 25.6961 58.8059ZM47.1216 58.2037L45.878 57.7257L46.2224 56.441L46.5993 55.0397C46.5993 55.0397 44.399 56.2365 41.2936 57.1331C40.4135 57.3854 39.7476 57.502 39.7476 57.502V58.456C39.7476 58.456 38.0869 58.7428 36.4108 58.7428H36.3151C34.6352 58.7428 32.9783 58.456 32.9783 58.456V57.5001C32.9783 57.5001 32.3105 57.3854 31.4304 57.1331C28.3289 56.2345 26.1285 55.0397 26.1285 55.0397L26.4997 56.441L26.8518 57.7257L25.6043 58.2037L24.2209 58.7198C25.8052 59.4865 28.0017 60.601 30.0107 61.1516L29.5381 62.4478C29.5381 62.4478 32.0867 63.6101 36.3323 63.6216V63.6235H36.3897V63.6216C40.6412 63.6101 43.1897 62.4478 43.1897 62.4478L42.7114 61.1516C44.7223 60.601 46.9226 59.4884 48.4992 58.7198L47.1216 58.2037ZM31.174 5.90352L31.7384 5.96469L31.9814 5.44852L32.6932 3.92484L34.0134 4.60925L34.5262 4.87116L36.3591 3.05116L37.7884 4.46587L38.1978 4.87116L38.7106 4.60925L40.0232 3.92484L40.7464 5.44852L40.9856 5.96469L41.55 5.90352L42.0896 5.84043C41.8427 6.39675 41.661 6.92631 41.529 7.36602C40.1035 6.56881 38.2514 6.11763 36.361 6.11763C34.4783 6.11763 32.6262 6.56881 31.195 7.36602C31.0407 6.84639 30.8541 6.33688 30.6364 5.84043L31.1721 5.90352H31.174ZM36.3591 6.91102C38.8905 6.91102 40.9129 7.75219 42.0322 8.64499C42.0322 8.64499 42.3651 6.64337 43.4978 4.87881L41.4601 5.10822L40.3944 2.84278L38.3471 3.89999L36.3591 1.93469L34.3788 3.89999L32.3277 2.84278L31.2639 5.11013L29.2262 4.8769C30.3608 6.64337 30.6918 8.64307 30.6918 8.64307C31.8169 7.75028 33.8335 6.91102 36.3591 6.91102ZM68.4228 40.5791C68.4228 40.5791 67.5426 42.1143 65.5222 42.1143H65.4973C63.0712 42.099 62.0915 40.6173 62.0915 40.6173C62.0915 40.6173 62.2331 42.5444 61.3607 45.1463C60.3083 48.2816 61.3683 50.5184 61.3683 50.5184C61.3683 50.5184 60.802 50.6732 60.1495 50.6732C59.9008 50.6732 59.6406 50.6484 59.3937 50.5834C57.3675 50.1035 56.8624 48.2568 56.8624 48.2568C56.8624 48.2568 57.0499 54.491 49.785 54.491H49.7276C49.7276 54.491 50.3686 53.6212 50.558 51.1129C50.9024 46.4865 54.0326 45.8498 54.0326 45.8498C54.0326 45.8498 52.3623 45.6395 51.6371 44.9915C50.5063 43.9648 50.5848 42.7776 50.5848 42.7776C53.141 42.7413 54.8171 41.8715 56.0933 40.3937C56.9156 39.4482 57.4705 38.3005 57.7005 37.0691C57.7005 37.0691 56.3267 38.3175 53.6691 38.3175C53.4356 38.3175 53.1869 38.306 52.9305 38.2812C51.6715 38.1798 50.8029 37.3788 50.8029 37.3788C53.5696 35.6028 55.5097 32.5038 53.7896 27.8391C52.412 24.1016 49.0981 21.3085 45.7632 19.2056C44.6534 18.5116 44.0335 17.7393 44.0335 17.0759C44.0335 15.514 46.253 15.4643 47.1637 14.4147C48.2161 13.195 47.556 11.2163 46.6452 10.0253C46.6452 10.0253 46.9513 9.96219 47.4354 9.96219C48.3959 9.96219 50.0567 10.2031 51.4228 11.6216C53.2347 13.499 52.4828 15.5445 52.4828 15.5445L52.9688 15.6401C53.2596 15.6994 53.5485 15.7128 53.8489 15.7281L54.0441 15.73C56.6787 15.73 57.8554 12.9732 57.8554 12.9732C57.8554 12.9732 60.6566 16.422 56.5333 19.1253C55.8235 19.586 55.5097 20.0162 55.592 20.4712L55.657 20.7713L55.9498 20.8229C58.9384 21.6354 60.4518 23.7001 62.2982 26.044C65.1031 29.6132 69.0714 29.7279 69.5593 29.7279H69.6129C69.6129 29.7279 68.7079 32.5898 66.0388 32.5898C65.9947 32.5898 65.9565 32.5898 65.9125 32.586C64.6879 32.542 64.0565 32.0717 64.0565 32.0717C64.0565 32.0717 63.5801 38.566 68.4228 40.5791ZM66.0388 33.4654C69.3106 33.4654 70.405 30.1332 70.4509 29.9917L70.8144 28.816L69.5899 28.8542H69.5861C69.1517 28.8542 65.5432 28.7587 62.9851 25.5029L62.7421 25.2009C61.0698 23.0731 59.4837 21.0485 56.6481 20.1251C56.7614 20.026 56.8823 19.9359 57.0097 19.8556C58.5136 18.8653 59.3899 17.6628 59.608 16.2653C59.9314 14.1643 58.5901 12.4895 58.5327 12.4207L57.622 11.2928L57.0518 12.631C57.0136 12.7132 56.0569 14.8544 54.0441 14.8544H53.8948C53.7571 14.8487 53.625 14.8429 53.4949 14.8315C53.5657 13.8756 53.3916 12.3997 52.0523 11.0118C50.4432 9.34278 48.4686 9.09234 47.4354 9.09234C46.8844 9.09234 46.517 9.16116 46.4768 9.16499L45.1012 9.43837L45.9488 10.5568C46.6146 11.4209 47.2192 13.0134 46.5036 13.845C46.274 14.1126 45.8033 14.3248 45.3537 14.5409C44.4277 14.9672 43.161 15.5637 43.161 17.0759C43.161 18.0547 43.9206 19.0813 45.2982 19.9512C49.3698 22.5148 51.8839 25.1913 52.9688 28.145C54.6487 32.6873 52.4579 35.2797 50.3284 36.6447L49.3755 37.2584L50.2117 38.0269C50.3246 38.1263 51.3444 39.0268 52.854 39.1568C53.141 39.1759 53.4146 39.1912 53.671 39.1912C54.6372 39.1912 55.4619 39.0382 56.1315 38.8356C55.9314 39.1846 55.6981 39.5137 55.4351 39.8182C54.2201 41.2291 52.7239 41.8715 50.5714 41.9059L49.7716 41.9173L49.7104 42.7203C49.7027 42.8828 49.6434 44.372 51.0497 45.6376C51.2659 45.8326 51.5261 45.9951 51.7997 46.1251C50.8431 46.9854 49.8749 48.4842 49.6874 51.0498C49.5286 53.191 49.0177 53.9844 49.012 53.994L48.128 55.3437L49.7257 55.3647C52.3642 55.3647 54.3846 54.6382 55.7833 53.1929C56.5077 52.4338 57.0484 51.5188 57.3637 50.5184C58.1407 51.1803 59.1285 51.5437 60.1495 51.5431C60.8957 51.5431 61.5195 51.3844 61.5883 51.3691L62.6082 51.0976L62.1585 50.1456C62.1241 50.0691 61.2746 48.1573 62.1891 45.4293C62.5833 44.2497 62.7842 43.1944 62.8818 42.3704C63.5246 42.7069 64.3837 42.9822 65.4954 42.986C68.021 42.986 69.1326 41.0991 69.1824 41.0207L69.6798 40.1528L68.7576 39.7743C65.7498 38.524 65.084 35.1669 64.9501 33.3507C65.2237 33.4023 65.5336 33.4501 65.8838 33.4597L66.0388 33.4654Z" fill="#1A1919"/>
<path fill-rule="evenodd" clip-rule="evenodd" d="M62.3632 19.2132C62.9716 19.2132 63.6834 19.4216 64.3531 20.1156C66.4615 22.2568 68.4227 22.3772 68.4227 22.3772C68.0668 23.1668 67.0336 23.8607 65.9641 23.8607C65.7173 23.8607 65.4666 23.8225 65.2236 23.7365C63.7714 23.2471 63.2529 21.0696 60.7062 19.7141C60.7062 19.7141 61.4142 19.2132 62.3632 19.2132ZM60.291 20.4865C61.5098 21.1365 62.2216 22.0101 62.8454 22.7825C63.4576 23.5376 64.0374 24.2641 64.95 24.5662C65.2715 24.6771 65.6139 24.7306 65.9641 24.7306C67.3283 24.7306 68.7002 23.8932 69.2206 22.7347L69.7429 21.5762L68.4782 21.4997C68.4189 21.4997 66.7906 21.3487 64.9806 19.4981C64.2344 18.7372 63.3333 18.3396 62.3632 18.3396C61.1769 18.3396 60.2968 18.9322 60.2011 18.9934L59.0378 19.8135L60.291 20.4865ZM60.8631 32.0545V32.0985C60.1284 26.1682 55.8272 21.8859 51.0382 19.2821C50.5981 19.045 50.1867 18.8423 49.7907 18.6512C51.2467 18.8768 53.5944 18.9035 55.4082 17.3321C55.4082 17.3321 52.6339 19.3719 46.957 17.5175C48.526 18.5384 51.5816 19.9798 54.3712 22.3122C61.3415 28.4451 56.3553 34.4251 56.3553 34.4251C58.8618 31.8079 58.9651 29.0053 58.2266 26.715C59.5468 28.9135 60.3886 31.5804 60.2585 34.8706C60.0672 39.5831 57.4785 43.659 54.7558 46.9338C53.4471 48.5206 53.1562 50.4744 53.1562 50.4744C53.1562 50.4744 53.6843 48.7519 55.1978 46.9797C58.1156 43.5576 60.6125 40.0075 60.9378 34.8878C61.2401 35.8188 62.4837 38.3997 64.4545 39.3728C64.4545 39.3728 61.9767 37.8778 60.8631 32.0545ZM22.9409 54.491C15.6759 54.491 15.8615 48.2568 15.8615 48.2568C15.8615 48.2568 15.3526 50.1035 13.3302 50.5834C13.0832 50.6455 12.8292 50.6757 12.5744 50.6732C11.9239 50.6732 11.3575 50.5203 11.3575 50.5203C11.3575 50.5203 12.4156 48.2797 11.3614 45.1463C10.4927 42.5463 10.6343 40.6173 10.6343 40.6173C10.6343 40.6173 9.6566 42.099 7.22858 42.1143H7.2037C5.18514 42.1143 4.30309 40.5791 4.30309 40.5791C9.14382 38.566 8.66932 32.0718 8.66932 32.0718C8.66932 32.0718 8.03792 32.542 6.81338 32.5879H6.68519C4.01418 32.5879 3.10917 29.7279 3.10917 29.7279H3.16466C3.6583 29.7279 7.62081 29.6132 10.4238 26.044C12.2702 23.6982 13.7856 21.6354 16.7685 20.8248L17.0688 20.7713L17.132 20.4712C17.2162 20.0162 16.9024 19.586 16.1945 19.1253C12.0712 16.4221 14.8704 12.9751 14.8704 12.9751C14.8704 12.9751 16.0414 15.73 18.6837 15.73L18.875 15.7281C19.1735 15.7128 19.4663 15.6994 19.7552 15.6382L20.2412 15.5446C20.2412 15.5446 19.4873 13.499 21.305 11.6216C22.6711 10.2031 24.3299 9.9622 25.2885 9.9622C25.7764 9.9622 26.0768 10.0253 26.0768 10.0253C25.1699 11.2163 24.5117 13.195 25.5602 14.4147C26.471 15.4643 28.6885 15.514 28.6885 17.0759C28.6885 17.7393 28.0705 18.5116 26.9627 19.2056C23.6239 21.3085 20.3119 24.0997 18.9343 27.841C17.2162 32.5057 19.1563 35.6028 21.9249 37.3807C21.9249 37.3807 21.0543 38.1798 19.7953 38.2812C19.5486 38.3049 19.3009 38.317 19.053 38.3175C16.3973 38.3175 15.0235 37.071 15.0235 37.071C15.0235 37.071 15.2531 38.7935 16.6269 40.3956C17.9088 41.8715 19.583 42.7413 22.1373 42.7776C22.1373 42.7776 22.2195 43.9629 21.0888 44.9915C20.3636 45.6415 18.6933 45.8518 18.6933 45.8518C18.6933 45.8518 21.8254 46.4865 22.1698 51.1129C22.3573 53.6212 22.9925 54.491 22.9925 54.491H22.9409ZM23.7119 53.994C23.71 53.9844 23.203 53.191 23.0404 51.0498C22.849 48.4843 21.8809 46.9854 20.9223 46.1251C21.1997 45.9951 21.458 45.8326 21.6723 45.6376C23.0786 44.372 23.0193 42.8847 23.0097 42.7203L22.9562 41.9173L22.1507 41.9059C20.0039 41.8715 18.5058 41.2291 17.2908 39.8182C17.0289 39.5128 16.7958 39.1838 16.5943 38.8356C17.264 39.0401 18.0829 39.1912 19.053 39.1912C19.3113 39.1912 19.583 39.1759 19.8681 39.1568C20.8446 39.0593 21.768 38.6657 22.5142 38.0288L23.3503 37.2584L22.3975 36.6466C20.2622 35.2797 18.0791 32.6893 19.7571 28.145C20.8419 25.1913 23.3503 22.5168 27.4296 19.9512C28.8071 19.0813 29.561 18.0547 29.561 17.0759C29.561 15.5637 28.2982 14.9672 27.3721 14.5409C26.9206 14.3248 26.4499 14.1107 26.2222 13.845C25.5047 13.0134 26.1074 11.4209 26.7752 10.5568L27.6285 9.43838L26.2452 9.16499C26.2069 9.15926 25.8434 9.09235 25.2885 9.09235C24.2572 9.09235 22.2846 9.34279 20.6774 11.0118C19.3361 12.3997 19.1601 13.8775 19.229 14.8315C19.0989 14.8429 18.9688 14.8487 18.831 14.8544H18.6837C16.6632 14.8544 15.7104 12.7132 15.674 12.631L15.1058 11.2928L14.1874 12.4207C14.1357 12.4896 12.7906 14.1643 13.1197 16.2653C13.3359 17.6609 14.2122 18.8653 15.7161 19.8556C15.8807 19.9607 15.9936 20.0506 16.0758 20.1251C13.2364 21.0485 11.6541 23.0731 9.98186 25.2009L9.74078 25.5029C7.18457 28.7587 3.56646 28.8562 3.13404 28.8562L1.90186 28.8179L2.27687 29.9918C2.32088 30.1332 3.41148 33.4654 6.68519 33.4654L6.84208 33.4597C7.1884 33.4501 7.50027 33.4023 7.77579 33.3488C7.64186 35.165 6.97219 38.524 3.96443 39.7723L3.04603 40.1547L3.5435 41.0207C3.58942 41.0991 4.7068 42.986 7.23623 42.986C8.14155 42.995 9.03562 42.7852 9.84219 42.3743C9.93977 43.1963 10.1426 44.2497 10.5367 45.4293C11.4513 48.1554 10.5999 50.0691 10.5673 50.1456L10.1158 51.0976L11.1356 51.3672C11.2045 51.3863 11.8321 51.5431 12.5744 51.5431C13.5959 51.5457 14.5843 51.1821 15.3602 50.5184C15.6377 51.3729 16.1141 52.3384 16.9387 53.1929C18.3431 54.6363 20.3617 55.3647 22.9983 55.3647L24.5959 55.3437L23.7119 53.994Z" fill="#1A1919"/>
<path fill-rule="evenodd" clip-rule="evenodd" d="M8.3689 20.1156C9.0424 19.4216 9.75224 19.2113 10.3645 19.2113C11.3059 19.2113 12.0195 19.7141 12.0195 19.7141C9.47481 21.0715 8.95055 23.247 7.49642 23.7384C7.2596 23.8204 7.01043 23.8611 6.75979 23.8588C5.69023 23.8588 4.65512 23.1668 4.30307 22.3772C4.30307 22.3772 6.26232 22.2568 8.3689 20.1156ZM6.75979 24.7306C7.10993 24.7306 7.45241 24.677 7.77768 24.5662C8.68843 24.2641 9.27008 23.5395 9.88235 22.7825C10.508 22.012 11.2121 21.1384 12.4328 20.4884L13.688 19.8135L12.5208 18.9915C12.4252 18.9322 11.5508 18.3415 10.3645 18.3415C9.39253 18.3415 8.48944 18.7372 7.74515 19.4981C5.93323 21.3506 4.30881 21.4997 4.24949 21.5016L2.98669 21.5762L3.50329 22.7366C4.02755 23.8932 5.39749 24.7306 6.75979 24.7306ZM12.4673 34.8706C12.3333 31.5804 13.1752 28.9135 14.4954 26.715C13.7607 29.0053 13.8602 31.8079 16.3705 34.427C16.3705 34.427 11.3805 28.4432 18.3546 22.3141C21.1442 19.9798 24.196 18.5384 25.7649 17.5175C20.09 19.3719 17.3176 17.3301 17.3176 17.3301C19.1295 18.9035 21.4771 18.8787 22.9332 18.6493C22.539 18.8423 22.1258 19.0431 21.6857 19.282C16.8966 21.884 12.5974 26.1682 11.8588 32.0985V32.0545C10.7472 37.8778 8.27132 39.3728 8.27132 39.3728C10.2421 38.3978 11.4819 35.8169 11.7842 34.8878C12.1133 40.0075 14.6083 43.5595 17.5242 46.9797C19.0396 48.7519 19.5715 50.4744 19.5715 50.4744C19.5715 50.4744 19.2768 48.5225 17.9624 46.9338C15.2454 43.659 12.6586 39.5831 12.4673 34.8706ZM34.7212 22.8704V24.0481C35.1269 23.5529 35.9075 23.6543 35.9075 23.6543V25.35C35.9075 25.35 35.8826 26.1835 35.5861 26.5448H37.2813C36.9866 26.1835 36.9579 25.35 36.9579 25.35V23.6543C36.9579 23.6543 37.7424 23.5529 38.1442 24.0481V22.8704H34.7193H34.7212ZM33.9942 15.8963C34.5357 16.3265 34.8494 16.3991 34.859 16.4048L35.0695 16.5023V15.3954L33.0796 14.5581C33.0796 14.5581 33.0968 15.2004 33.9942 15.8963ZM38.7278 15.8963C39.627 15.2004 39.6462 14.5581 39.6462 14.5581L37.6544 15.3954V16.5043L37.8649 16.4048C37.8744 16.3991 38.1863 16.3265 38.7278 15.8963Z" fill="#1A1919"/>
<path fill-rule="evenodd" clip-rule="evenodd" d="M36.3609 12.9465L31.5642 11.05C31.9717 10.0826 33.8525 9.26058 36.3609 9.25867C38.8712 9.26058 40.752 10.0826 41.1596 11.05L36.3609 12.9465ZM39.9369 18.8901L36.713 20.5916V13.7016L41.0888 12.2143L39.9369 18.8863V18.8901ZM41.9345 20.7178L43.4077 21.5743H43.4288L43.8 21.7903C42.9677 22.0197 42.3305 22.4384 41.7967 22.9851L41.7393 23.0425C41.6134 23.1767 41.4928 23.3157 41.3777 23.4593L41.3107 23.5472C41.1959 23.6944 41.0869 23.8454 40.9855 24.0022L40.93 24.0806C40.8059 24.2699 40.6878 24.4631 40.576 24.6598C39.5237 26.4703 37.8495 27.5523 36.3609 27.5562C34.8724 27.5523 33.1963 26.4703 32.1478 24.6598C32.0363 24.4668 31.9195 24.2768 31.7976 24.0901L31.7287 23.9888C31.6288 23.8412 31.5254 23.6959 31.4188 23.5529C31.392 23.5147 31.3671 23.486 31.3403 23.4535C31.228 23.3141 31.1112 23.1783 30.9902 23.0463C30.9653 23.0272 30.9481 23.0023 30.9251 22.9813C30.3785 22.4093 29.6858 21.9975 28.9219 21.7903L29.2969 21.5743H29.3122L30.7912 20.7178L32.3047 19.8479L36.3533 22.0541L36.3609 22.0465L36.3724 22.0541L40.4191 19.8479L41.9345 20.7178ZM47.751 26.8431C47.42 27.7148 47.1464 28.6593 47.1464 29.5979L47.1502 35.6582C45.8855 35.4479 45.7343 34.0829 45.7305 34.0237L45.7076 33.7465L45.434 33.7216C44.97 33.6807 44.5364 33.4737 44.2132 33.1385C43.5914 32.5172 43.5914 31.5116 43.5914 31.5021C43.5838 31.5537 42.9103 32.4962 43.6909 33.5285C44.02 33.9644 44.4983 34.234 45.1144 34.3391C45.2598 35.0943 45.8224 36.1629 47.1502 36.3274V39.2906H43.4173C41.6953 38.3328 42.4243 36.6466 42.4587 36.574L42.6041 36.2528L42.275 36.1285C40.4095 35.4365 40.9242 33.5744 40.9491 33.4941L41.0256 33.2226L40.7692 33.1041C39.2309 32.3891 39.4395 30.4659 39.4605 30.3856C38.986 30.7698 38.8157 31.5518 39.141 32.3222C38.965 32.5248 38.7277 32.7676 38.4694 33.0353C38.02 32.9372 37.6153 32.6941 37.318 32.3434C37.0206 31.9927 36.847 31.5539 36.824 31.0948L36.822 30.8693L36.6116 30.789C35.9897 30.5596 35.5631 30.2116 35.3507 29.7471C35.1153 29.2328 35.1976 28.6956 35.2627 28.4337C35.6202 28.5078 35.9843 28.5462 36.3494 28.5484H36.3743C36.5599 28.5484 36.7417 28.5369 36.9215 28.5197C37.9165 28.4203 39.0262 27.994 40.1857 26.8431H47.751ZM43.0863 53.2541L43.5034 51.0804L43.5704 50.679C43.8278 50.7797 44.1013 50.8335 44.3778 50.8376C45.013 50.8376 45.3842 50.5012 45.631 50.2163L45.9486 49.8435L45.6884 49.4344C45.6655 49.3943 45.0857 48.4785 44.6418 47.8515C44.5536 47.7276 44.4688 47.6014 44.3874 47.4729C43.8803 46.7159 43.247 45.7657 41.9766 45.7657L41.8637 45.7696C41.6807 45.7794 41.5002 45.8161 41.3279 45.8785C40.9413 45.6938 40.5185 45.5972 40.09 45.5956C39.659 45.606 39.2327 45.6887 38.8291 45.8403C38.7449 45.8651 38.6684 45.8919 38.6091 45.9034L36.2366 45.6701C36.2059 45.6625 36.1103 45.6051 35.9917 45.4675V45.4541L36.5044 45.2496C36.3609 43.5366 34.7174 42.4832 33.8028 42.1257C33.7623 41.9425 33.6692 41.7751 33.5349 41.644L33.026 41.1603L32.5783 41.6975L32.3582 41.9728L29.0329 40.6059L31.1949 43.3225L30.3435 44.6168C30.0297 44.9475 30.376 45.2821 30.376 45.2821L31.2562 45.89L32.1707 45.5478C32.2013 45.5478 32.2281 45.5554 32.2607 45.5593C32.2166 45.6988 32.1592 46.2437 32.121 46.3947L30.5348 46.0831L28.8702 47.0256C28.0111 47.6565 27.8944 48.6965 28.214 49.4096L28.3976 49.8148L28.6598 50.3865L29.2433 50.1456C29.2529 50.1418 29.2605 50.1399 29.2663 50.1341C29.0558 50.8051 29.1419 51.4418 29.515 51.8604L29.869 52.3059L30.3397 52.9024L30.8563 52.346C31.0093 52.1931 31.503 51.6406 31.6541 51.1665L31.7651 50.8051L31.5145 50.5279L31.4724 50.4763L31.7555 50.0079L33.8258 50.4973L34.2926 50.6044L34.5413 50.1934L34.6753 49.9716C34.7002 49.9238 34.7059 49.9162 34.8016 49.9162C34.8762 49.9162 34.9489 49.9238 35.0273 49.9429C35.7333 50.0822 36.4507 50.1558 37.1703 50.1628C37.7883 50.1628 38.1614 50.1398 38.6014 49.9926C38.6014 49.9926 39.7131 51.2544 39.7514 51.3041L39.0702 53.4071L39.0396 53.5332C37.7519 53.6384 37.1243 53.9213 36.3648 54.6803C35.2627 53.5868 34.4839 53.4701 31.524 53.4701C27.9786 53.4701 25.5755 51.3921 25.5755 48.0675V39.9463H47.1502L47.154 48.0675C47.154 50.7612 45.5736 52.6404 43.0863 53.2541ZM29.7982 48.6621L29.9111 48.9431C29.8345 49.1878 28.9927 49.5357 28.9927 49.5357L28.8128 49.1362C28.698 48.8624 28.6783 48.558 28.7571 48.2717C28.8358 47.9854 29.0084 47.7338 29.2472 47.5571L30.6114 46.7254L32.0598 47.0313C32.0311 47.4921 32.3066 47.8362 32.3066 47.8362L30.7912 47.5456L29.8824 48.1726C29.7293 48.2797 29.7178 48.4785 29.7982 48.6621ZM42.8567 50.9562L42.3918 53.386C42.0933 53.4281 41.7795 53.451 41.458 53.4625L41.9479 51.1301C42.0933 50.4343 40.2335 50.2182 39.3132 48.8551C38.8636 49.3598 38.0198 49.5109 37.1703 49.5109C36.3935 49.5109 35.6205 49.3866 35.1479 49.2929C35.0341 49.2732 34.9189 49.2623 34.8035 49.2604C34.5299 49.2604 34.283 49.3446 34.1108 49.6332L33.9769 49.8626L31.4398 49.2643L30.8084 50.31C30.7204 50.4801 30.7128 50.6216 30.8563 50.7803L31.0285 50.9676C30.9098 51.3366 30.3818 51.8968 30.3818 51.8968L30.0048 51.4246C29.7064 51.0919 29.7561 50.4801 30.0661 49.9143L31.0725 48.2128L33.2211 48.5244L32.8882 47.7616C32.4386 46.7541 33.1236 45.4732 33.1963 44.7353C33.1714 44.959 32.9667 45.0087 32.7294 45.0087C32.5113 45.0087 32.2702 44.9685 32.1095 44.9685C32.0464 44.9685 31.9909 44.9743 31.9622 44.9953L31.3805 45.349L30.9213 44.9437C30.8658 44.8672 30.8486 44.6818 30.9825 44.5441L32.0464 43.3512L30.7912 41.8829L32.5477 42.7681L33.0853 42.1162C33.2326 42.2615 33.1676 42.6381 33.1676 42.6381C33.7167 42.6534 35.2569 43.5041 35.3373 45.4923C35.343 45.5535 35.343 45.6204 35.343 45.6874L35.3832 45.7523C35.4923 45.9034 35.7927 46.2876 36.1734 46.3221L38.6034 46.5629H38.6129C38.8808 46.5629 39.4108 46.2494 40.09 46.2494C40.4631 46.2494 40.8745 46.345 41.3145 46.6222C41.3145 46.6222 41.5365 46.4463 41.8943 46.4272C41.9211 46.4234 41.9517 46.4234 41.9766 46.4234C43.0672 46.4234 43.5206 47.4099 44.1061 48.23C44.5462 48.8532 45.1336 49.7785 45.1336 49.7785C44.9174 50.0366 44.7145 50.18 44.3759 50.18C44.2705 50.1804 44.1654 50.1701 44.0621 50.1494C42.895 49.9334 42.7247 47.5303 42.0588 47.3391C42.0239 47.3299 41.9878 47.3254 41.9517 47.3257C41.7374 47.3257 41.6436 47.5169 41.6436 47.5169C41.9498 48.3371 41.7699 48.6678 42.099 49.3006C42.3439 49.769 42.7782 50.1532 42.9581 50.3368C42.9581 50.3368 42.9103 50.6923 42.8567 50.9581V50.9562ZM40.62 53.4797C40.2947 53.4797 39.9924 53.4835 39.7207 53.495L40.4325 51.2754C40.5435 50.9676 39.981 50.5719 39.7494 50.224C40.0996 50.4457 41.0084 50.9313 41.4466 51.1225C41.1626 51.9052 40.8871 52.691 40.62 53.4797ZM30.0354 33.4788L30.1369 29.6209L31.0017 28.7051L31.5451 29.8446L30.4736 33.5476L30.0335 33.4807L30.0354 33.4788ZM30.6573 34.6756C30.7886 34.9269 30.9874 35.1367 31.2313 35.2816C31.2246 35.6483 31.1894 36.0139 31.126 36.3751C31.1069 36.4593 31.0878 36.5376 31.0629 36.616C31.0514 36.6657 31.0361 36.7059 31.0266 36.7384C30.7606 36.7384 30.2421 36.7059 29.8192 36.551C29.3486 36.379 28.6464 35.5148 28.809 34.5628C29.0118 34.4385 29.4825 34.1728 29.9245 34.1728C30.2631 34.1728 30.4946 34.3334 30.6573 34.6756ZM40.6755 35.7118C40.0116 36.2031 38.2972 37.4553 37.6754 37.8912L31.6905 36.8129L31.7326 36.6543C31.8091 36.3426 31.8914 35.9182 31.8952 35.4193L36.9254 35.4996L37.021 35.404C37.0976 35.3275 38.6914 33.7847 39.5026 32.8996C39.6959 33.1423 39.9369 33.3718 40.2546 33.5744C40.1474 34.1671 40.1914 35.0044 40.6755 35.7118ZM32.5381 26.8431C33.2594 27.5581 33.9616 28.0035 34.6313 28.2482C34.5452 28.5923 34.4304 29.3073 34.7518 30.0166C35.0159 30.5901 35.4942 31.0298 36.1849 31.3243C36.2614 32.0316 36.7072 33.0965 37.9452 33.5668C37.4018 34.1135 36.8737 34.6297 36.6632 34.8362L31.6426 34.7578C31.4768 34.6786 31.3393 34.5505 31.2485 34.3907C31.2389 34.3659 31.2217 34.3525 31.2102 34.3257L32.0311 34.4596L32.0827 34.4615C32.1599 34.462 32.2347 34.4349 32.2937 34.3851C32.3526 34.3354 32.3918 34.2661 32.4042 34.19C32.418 34.1044 32.3974 34.0167 32.3469 33.9462C32.2964 33.8756 32.22 33.8279 32.1344 33.8134L31.126 33.6528L32.2434 29.7891L31.1854 27.5581L29.4882 29.3551L29.3849 33.3718L28.2446 33.1901C28.0685 33.1557 27.9002 33.2857 27.8676 33.4635C27.8549 33.5496 27.8764 33.6372 27.9276 33.7076C27.9787 33.778 28.0554 33.8256 28.1412 33.8401L28.6196 33.9128C28.4474 34.0103 28.3345 34.0887 28.3211 34.0982L28.2254 34.1671L28.1986 34.2856C27.9212 35.4135 28.5488 36.4841 29.2261 36.9621L29.2012 37.1054C29.1744 37.2775 29.2127 37.4496 29.316 37.5891C29.3748 37.6739 29.4536 37.743 29.5453 37.7903C29.637 37.8376 29.739 37.8618 29.8422 37.8606C29.9872 37.8594 30.1275 37.8093 30.2404 37.7183C30.3533 37.6274 30.4321 37.501 30.464 37.3597C30.7166 37.3884 30.9481 37.396 31.105 37.396H31.2408L37.8246 38.5871L37.9375 38.5125C38.4618 38.1454 40.4631 36.6868 41.1175 36.2031C41.2992 36.3579 41.5001 36.4994 41.7431 36.616C41.5308 37.3291 41.5174 38.4246 42.3554 39.2925H25.5755V29.5998C25.5755 28.6593 25.3019 27.7148 24.9766 26.8431H32.5381ZM31.6312 12.2181L36.0108 13.7035V20.5897L32.7868 18.8882L31.6312 12.2162V12.2181ZM42.3152 11.3865C42.3152 9.70602 39.4892 8.19382 36.3705 8.19382H36.3514C33.2326 8.19382 30.4085 9.70602 30.4085 11.3865L30.4698 11.7994L31.7154 18.9551L30.464 19.6816L27.2286 21.5743H27.2401C27.2401 21.5743 26.513 21.949 26.1743 22.1784C24.9422 23.0348 24.68 24.2851 25.3956 24.8013C25.5716 23.7823 26.3772 22.7175 27.8829 22.7175C28.9697 22.7175 29.7963 23.2796 30.4659 24.1188C30.6381 24.331 30.8008 24.5585 30.9519 24.8013C31.1394 25.1091 31.3289 25.3806 31.5145 25.6406H23.1761C23.7884 26.8737 24.372 28.1794 24.372 29.5979V48.0694C24.372 52.5391 27.8064 54.6726 31.5221 54.6726C34.394 54.6726 34.7805 54.5426 36.3648 56.1218C37.9413 54.5426 38.3297 54.6726 41.2036 54.6726C44.9212 54.6726 48.3499 52.5391 48.3499 48.0694V29.5979C48.3499 28.1794 48.9334 26.8737 49.5495 25.6406H41.2074C41.3949 25.3806 41.5824 25.1091 41.7699 24.8013C41.923 24.5585 42.0856 24.331 42.254 24.1188C42.9275 23.2757 43.754 22.7175 44.8408 22.7175C46.3466 22.7175 47.1502 23.7823 47.3282 24.8013C48.0437 24.2851 47.7854 23.0348 46.5437 22.1784C46.2146 21.949 45.4837 21.5743 45.4837 21.5743H45.4971L42.254 19.6816L41.0103 18.9551L42.254 11.7994L42.3152 11.3865Z" fill="#1A1919"/>
<path d="M95.8962 42.1735H101.636V28.8294H109.519V23.9735H88.0133V28.8294H95.8962V42.1735ZM126.93 23.9735L117.364 34.5647V23.9735H111.815V42.1735H116.713L126.28 31.5824V42.1735H131.829V23.9735H126.93ZM141.581 35.4059H150.497V42.1735H156.046V23.9735H150.497V30.6265H141.581V23.9735H136.032V42.1735H141.581V35.4059ZM171.498 42.1735C172.761 42.1735 173.909 42.0588 174.98 41.753C177.85 40.95 179.725 38.6177 179.725 35.4441C179.725 32.4235 178.118 30.3206 175.554 29.3647C174.33 28.9059 172.875 28.8677 171.498 28.8677H165.796V23.9735H160.247V42.1735H171.498ZM165.796 33.15H170.541C171.306 33.15 172.034 33.15 172.684 33.3794C173.602 33.6853 174.138 34.45 174.138 35.3677C174.138 36.3235 173.602 37.1265 172.722 37.5088C172.11 37.7765 171.498 37.7765 170.541 37.7765H165.796V33.15ZM188.144 35.2912H189.674L196.295 42.1735H203.68L194.458 32.6912L203.336 23.9735H196.371L189.674 30.8177H188.144V23.9735H182.595V42.1735H188.144V35.2912Z" fill="black"/>
<path d="M215.097 23.4765C207.635 23.4765 203.158 27.6823 203.158 33.1117C203.158 38.5412 207.635 42.747 215.097 42.747C222.521 42.747 226.998 38.5412 226.998 33.1117C226.998 27.6823 222.521 23.4765 215.097 23.4765ZM215.097 38.3118C211.385 38.3118 209.013 36.0941 209.013 33.1117C209.013 30.1294 211.385 27.95 215.097 27.95C218.771 27.95 221.181 30.1294 221.181 33.1117C221.181 36.0941 218.771 38.3118 215.097 38.3118ZM245.477 24.7765V22.9412H239.928V24.7765C232.964 24.9294 228.793 27.8735 228.793 33.0735C228.793 38.2735 232.964 40.9882 239.928 41.1412V42.9765H245.477V41.1412C252.48 40.9882 256.651 38.2735 256.651 33.0735C256.651 27.8735 252.48 24.9294 245.477 24.7765ZM239.928 37.2412C236.101 37.0882 234.418 35.5206 234.418 33.0735C234.418 30.6265 236.101 28.8676 239.928 28.7147V37.2412ZM245.477 37.2412V28.7147C249.342 28.8676 250.987 30.6265 250.987 33.0735C250.987 35.5206 249.342 37.0882 245.477 37.2412ZM275.111 24.7765V22.9412H269.562V24.7765C262.597 24.9294 258.426 27.8735 258.426 33.0735C258.426 38.2735 262.597 40.9882 269.562 41.1412V42.9765H275.111V41.1412C282.113 40.9882 286.284 38.2735 286.284 33.0735C286.284 27.8735 282.113 24.9294 275.111 24.7765ZM269.562 37.2412C265.735 37.0882 264.051 35.5206 264.051 33.0735C264.051 30.6265 265.735 28.8676 269.562 28.7147V37.2412ZM275.111 37.2412V28.7147C278.975 28.8676 280.621 30.6265 280.621 33.0735C280.621 35.5206 278.975 37.0882 275.111 37.2412Z" fill="black"/>
</svg>
