<svg width="132" height="82" viewBox="0 0 132 82" fill="none" xmlns="http://www.w3.org/2000/svg">
<path fill-rule="evenodd" clip-rule="evenodd" d="M35.999 18.455C36.6137 18.4729 37.2197 18.3074 37.7396 17.9797C38.2594 17.652 38.6694 17.1771 38.9172 16.6157C39.1649 16.0542 39.2391 15.4318 39.1302 14.8281C39.0213 14.2243 38.7344 13.6667 38.306 13.2266C37.8777 12.7865 37.3275 12.4839 36.7257 12.3575C36.124 12.2311 35.4982 12.2867 34.9283 12.5171C34.3584 12.7475 33.8704 13.1423 33.5267 13.651C33.183 14.1597 32.9993 14.7591 32.999 15.3725C32.987 15.773 33.0557 16.1718 33.201 16.5454C33.3464 16.9189 33.5655 17.2595 33.8452 17.5469C34.125 17.8344 34.4598 18.0629 34.8298 18.2189C35.1998 18.3749 35.5974 18.4552 35.999 18.455ZM35.999 20.4501C37.0211 20.4779 38.0283 20.201 38.8918 19.6547C39.7553 19.1084 40.4358 18.3177 40.8464 17.3835C41.257 16.4494 41.379 15.4143 41.1967 14.4107C41.0145 13.407 40.5363 12.4804 39.8234 11.7492C39.1104 11.0181 38.1951 10.5157 37.1944 10.3063C36.1937 10.0969 35.1531 10.1899 34.2057 10.5736C33.2584 10.9572 32.4472 11.614 31.876 12.46C31.3047 13.3059 30.9994 14.3026 30.999 15.3226C30.9831 15.991 31.1002 16.6558 31.3434 17.2788C31.5867 17.9017 31.9514 18.4704 32.4164 18.9518C32.8813 19.4333 33.4374 19.818 34.0523 20.0837C34.6673 20.3495 35.3289 20.491 35.999 20.5V20.4501Z" fill="url(#paint0_linear_1_9601)"/>
<path d="M121.999 20.5H61.999C61.5575 20.4994 61.1164 20.5294 60.679 20.5898C58.2449 20.9513 56.0245 22.1803 54.4287 24.0491C52.8329 25.918 51.9698 28.3002 51.999 30.755V71.745C51.9805 73.0734 52.2245 74.3924 52.7171 75.6268C53.2096 76.8611 53.9411 77.9865 54.8697 78.9388C55.7983 79.8911 56.9059 80.6516 58.1291 81.1768C59.3524 81.7021 60.6674 81.9818 61.999 82H121.999C123.331 81.9818 124.646 81.7021 125.869 81.1768C127.092 80.6516 128.2 79.8911 129.128 78.9388C130.057 77.9865 130.788 76.8611 131.281 75.6268C131.774 74.3924 132.018 73.0734 131.999 71.745V30.755C132.018 29.4266 131.774 28.1076 131.281 26.8732C130.788 25.6389 130.057 24.5135 129.128 23.5612C128.2 22.6089 127.092 21.8484 125.869 21.3232C124.646 20.7979 123.331 20.5182 121.999 20.5ZM129.999 71.745C130.014 72.8075 129.818 73.8624 129.424 74.8495C129.03 75.8366 128.445 76.7366 127.702 77.4981C126.959 78.2595 126.073 78.8675 125.094 79.2874C124.116 79.7072 123.064 79.9307 121.999 79.945H61.999C60.934 79.9307 59.8822 79.7072 58.9037 79.2874C57.9253 78.8675 57.0393 78.2595 56.2964 77.4981C55.5535 76.7366 54.9683 75.8366 54.5741 74.8495C54.1799 73.8624 53.9845 72.8075 53.999 71.745V30.755C53.9768 28.7818 54.6748 26.8679 55.9627 25.3702C57.2507 23.8725 59.0407 22.8932 60.999 22.6148C61.3307 22.5735 61.6647 22.5535 61.999 22.555H121.999C123.064 22.5693 124.116 22.7928 125.094 23.2126C126.073 23.6325 126.959 24.2405 127.702 25.0019C128.445 25.7634 129.03 26.6634 129.424 27.6505C129.818 28.6376 130.014 29.6925 129.999 30.755V71.745Z" fill="white"/>
<path fill-rule="evenodd" clip-rule="evenodd" d="M121.999 20.5H80.999V10.255C81.0175 8.92659 80.7736 7.60756 80.281 6.37324C79.7884 5.13892 79.057 4.01348 78.1284 3.06119C77.1998 2.1089 76.0922 1.34842 74.8689 0.823173C73.6457 0.29793 72.3307 0.0182142 70.999 0H10.999C9.66739 0.0182142 8.35238 0.29793 7.12912 0.823173C5.90586 1.34842 4.79829 2.1089 3.86968 3.06119C2.94107 4.01348 2.2096 5.13892 1.71705 6.37324C1.2245 7.60756 0.980514 8.92659 0.999027 10.255V51.245C0.980514 52.5734 1.2245 53.8924 1.71705 55.1268C2.2096 56.3611 2.94107 57.4865 3.86968 58.4388C4.79829 59.3911 5.90586 60.1516 7.12912 60.6768C8.35238 61.2021 9.66739 61.4818 10.999 61.5H51.999V71.745C51.9805 73.0734 52.2245 74.3924 52.7171 75.6268C53.2096 76.8611 53.9411 77.9865 54.8697 78.9388C55.7983 79.8911 56.9059 80.6516 58.1291 81.1768C59.3524 81.7021 60.6674 81.9818 61.999 82H121.999C123.331 81.9818 124.646 81.7021 125.869 81.1768C127.092 80.6516 128.2 79.8911 129.128 78.9388C130.057 77.9865 130.788 76.8611 131.281 75.6268C131.774 74.3924 132.018 73.0734 131.999 71.745V30.755C132.018 29.4266 131.774 28.1076 131.281 26.8732C130.788 25.6389 130.057 24.5135 129.128 23.5612C128.2 22.6089 127.092 21.8484 125.869 21.3232C124.646 20.7979 123.331 20.5182 121.999 20.5ZM51.999 59.4051H10.999C9.93398 59.3908 8.88219 59.1673 7.90372 58.7475C6.92525 58.3276 6.03928 57.7196 5.29639 56.9581C4.5535 56.1967 3.96825 55.2967 3.57407 54.3096C3.17988 53.3225 2.98448 52.2676 2.99903 51.2051V10.255C2.98448 9.19253 3.17988 8.13762 3.57407 7.15051C3.96825 6.1634 4.5535 5.26341 5.29639 4.50195C6.03928 3.74049 6.92525 3.13247 7.90372 2.71262C8.88219 2.29276 9.93398 2.0693 10.999 2.05499H70.999C72.0641 2.0693 73.1159 2.29276 74.0943 2.71262C75.0728 3.13247 75.9588 3.74049 76.7017 4.50195C77.4445 5.26341 78.0298 6.1634 78.424 7.15051C78.8182 8.13762 79.0136 9.19253 78.999 10.255V20.5H62.699L62.179 17.5073C62.0424 16.7445 61.6862 16.0379 61.1537 15.4737C60.6213 14.9095 59.9357 14.5122 59.1806 14.3303C58.4256 14.1483 57.6338 14.1896 56.9019 14.4491C56.17 14.7086 55.5296 15.175 55.059 15.7915L41.999 33.3487C41.6826 33.7678 41.2135 34.0457 40.6932 34.1223C40.1728 34.1988 39.6432 34.0678 39.219 33.7577L32.659 28.7698C32.2227 28.4374 31.7214 28.1999 31.1875 28.0726C30.6535 27.9453 30.0987 27.931 29.5589 28.0306C29.0191 28.1302 28.5061 28.3415 28.0532 28.651C27.6002 28.9605 27.2173 29.3611 26.929 29.8272L14.669 49.1002C14.4697 49.407 14.356 49.7613 14.3396 50.1265C14.3233 50.4918 14.405 50.8548 14.5761 51.178C14.7473 51.5013 15.0019 51.7731 15.3135 51.9655C15.6252 52.1579 15.9826 52.2639 16.349 52.2725H51.999V59.4051ZM51.999 50.1876H16.349L28.599 30.9645C28.7468 30.7362 28.9397 30.5405 29.1659 30.3893C29.3922 30.2381 29.647 30.1345 29.9148 30.085C30.1825 30.0355 30.4576 30.0411 30.7232 30.1014C30.9887 30.1617 31.2391 30.2755 31.459 30.4358L38.029 35.4236C38.4446 35.7416 38.9199 35.9733 39.4267 36.105C39.9336 36.2368 40.4617 36.2658 40.98 36.1905C41.4983 36.1152 41.9962 35.937 42.4443 35.6665C42.8924 35.396 43.2817 35.0386 43.589 34.6156L56.649 16.9786C56.8857 16.6701 57.2074 16.4372 57.5748 16.3086C57.9422 16.1799 58.3393 16.161 58.7173 16.2542C59.0953 16.3474 59.4378 16.5487 59.7028 16.8333C59.9678 17.1179 60.1437 17.4735 60.209 17.8564L60.679 20.5898C58.2449 20.9513 56.0245 22.1803 54.4287 24.0491C52.8329 25.918 51.9698 28.3002 51.999 30.755V50.1876ZM129.999 71.7051C130.014 72.7676 129.818 73.8225 129.424 74.8096C129.03 75.7967 128.445 76.6967 127.702 77.4581C126.959 78.2196 126.073 78.8276 125.094 79.2475C124.116 79.6673 123.064 79.8908 121.999 79.9051H61.999C60.934 79.8908 59.8822 79.6673 58.9037 79.2475C57.9253 78.8276 57.0393 78.2196 56.2964 77.4581C55.5535 76.6967 54.9683 75.7967 54.5741 74.8096C54.1799 73.8225 53.9845 72.7676 53.999 71.7051V30.755C53.9768 28.7818 54.6748 26.8679 55.9627 25.3702C57.2507 23.8725 59.0407 22.8932 60.999 22.6148C61.3307 22.5735 61.6647 22.5535 61.999 22.555H121.999C123.064 22.5693 124.116 22.7928 125.094 23.2126C126.073 23.6325 126.959 24.2405 127.702 25.0019C128.445 25.7634 129.03 26.6634 129.424 27.6505C129.818 28.6376 130.014 29.6925 129.999 30.755V71.7051Z" fill="url(#paint1_linear_1_9601)"/>
<path fill-rule="evenodd" clip-rule="evenodd" d="M106.999 51.245L84.499 37.9375V64.5625L106.999 51.245ZM102.999 51.245L86.499 41.4888V61.0112L102.999 51.245Z" fill="url(#paint2_linear_1_9601)"/>
<defs>
<linearGradient id="paint0_linear_1_9601" x1="13.0043" y1="29.0872" x2="116.888" y2="110.854" gradientUnits="userSpaceOnUse">
<stop offset="0.0037645" stop-color="#43CCF8"/>
<stop offset="1" stop-color="#6A30F4"/>
</linearGradient>
<linearGradient id="paint1_linear_1_9601" x1="13.0043" y1="29.0872" x2="116.888" y2="110.854" gradientUnits="userSpaceOnUse">
<stop offset="0.0037645" stop-color="#43CCF8"/>
<stop offset="1" stop-color="#6A30F4"/>
</linearGradient>
<linearGradient id="paint2_linear_1_9601" x1="13.0043" y1="29.0872" x2="116.888" y2="110.854" gradientUnits="userSpaceOnUse">
<stop offset="0.0037645" stop-color="#43CCF8"/>
<stop offset="1" stop-color="#6A30F4"/>
</linearGradient>
</defs>
</svg>
