<svg width="47" height="45" viewBox="0 0 47 45" fill="none" xmlns="http://www.w3.org/2000/svg">
<path d="M14.4204 15.9882H15.6799V5.99402H14.6517V11.7841C14.6517 12.0757 14.656 12.3925 14.6646 12.7343C14.6774 13.0715 14.6903 13.3882 14.7031 13.6844C14.716 13.9761 14.7267 14.2017 14.7353 14.3612H14.6903L9.5882 5.99402H8.33517V15.9882H9.35045V10.246C9.35045 9.91329 9.34402 9.58744 9.33117 9.26843C9.3226 8.94487 9.30975 8.64181 9.29261 8.35925C9.27548 8.07214 9.26048 7.81694 9.24763 7.59363H9.29904L14.4204 15.9882Z" fill="url(#paint0_linear_1_10053)"/>
<path d="M18.2437 15.9882H23.4743V14.9628H19.3361V11.2645H23.2366V10.2528H19.3361V7.01941H23.4743V5.99402H18.2437V15.9882Z" fill="url(#paint1_linear_1_10053)"/>
<path d="M33.717 15.9882L36.2295 5.99402H35.0857L33.5757 12.2557C33.5071 12.5428 33.4429 12.8208 33.3829 13.0897C33.3272 13.3586 33.278 13.6161 33.2351 13.8622C33.1923 14.1083 33.1559 14.343 33.1259 14.5663C33.1002 14.4068 33.0702 14.2382 33.0359 14.0604C33.0059 13.8781 32.9695 13.689 32.9267 13.493C32.8881 13.2925 32.8431 13.0874 32.7917 12.8778C32.7403 12.6682 32.6846 12.4563 32.6247 12.2421L30.864 5.99402H29.7395L28.0495 12.1942C27.9938 12.3993 27.9403 12.6044 27.8889 12.8094C27.8417 13.0145 27.7968 13.2173 27.7539 13.4178C27.7154 13.6184 27.6789 13.8166 27.6447 14.0126C27.6104 14.204 27.5826 14.3885 27.5611 14.5663C27.5354 14.3931 27.5076 14.2154 27.4776 14.0331C27.4476 13.8508 27.4133 13.6639 27.3748 13.4725C27.3405 13.2811 27.2998 13.0852 27.2527 12.8846C27.2099 12.6796 27.1627 12.4722 27.1113 12.2626L25.6013 5.99402H24.4639L26.9571 15.9882H28.0559L29.868 9.26843C29.9237 9.06791 29.9751 8.86967 30.0222 8.67371C30.0736 8.47774 30.1165 8.29317 30.1507 8.12C30.1893 7.94682 30.2193 7.79415 30.2407 7.66199C30.2664 7.52983 30.2835 7.42957 30.2921 7.36121L30.3499 7.66882C30.3799 7.80098 30.4163 7.95593 30.4592 8.13367C30.502 8.30684 30.547 8.49142 30.5941 8.68738C30.6455 8.87878 30.6991 9.07019 30.7548 9.2616L32.6182 15.9882H33.717Z" fill="url(#paint2_linear_1_10053)"/>
<path d="M42.5975 14.8466C42.8759 14.4273 43.0152 13.9214 43.0152 13.329C43.0152 12.8003 42.9145 12.3651 42.7132 12.0233C42.5118 11.677 42.2184 11.3853 41.8328 11.1483C41.4473 10.9068 40.9782 10.6789 40.4256 10.4647C39.9201 10.2688 39.5131 10.0819 39.2047 9.90417C38.9005 9.72188 38.6778 9.51453 38.5364 9.2821C38.3993 9.04968 38.3308 8.75802 38.3308 8.4071C38.3308 8.09265 38.4036 7.82149 38.5492 7.59363C38.6949 7.36576 38.9048 7.19031 39.179 7.06726C39.4574 6.93966 39.798 6.87585 40.2007 6.87585C40.6034 6.87585 40.9932 6.92598 41.3702 7.02625C41.7514 7.12651 42.1113 7.25183 42.4497 7.40222L42.7903 6.40417C42.4347 6.23556 42.0427 6.10112 41.6143 6.00085C41.1902 5.90059 40.7276 5.85046 40.2264 5.85046C39.6395 5.85046 39.119 5.953 38.6649 6.15808C38.2151 6.3586 37.8617 6.65027 37.6047 7.03308C37.3519 7.41134 37.2255 7.86707 37.2255 8.40027C37.2255 8.78764 37.2769 9.13171 37.3798 9.4325C37.4869 9.73328 37.6432 9.9976 37.8488 10.2255C38.0545 10.4533 38.3093 10.6584 38.6135 10.8407C38.9177 11.0184 39.2689 11.1825 39.6673 11.3329C40.2328 11.5471 40.6783 11.7499 41.0039 11.9413C41.3338 12.1281 41.5694 12.3378 41.7107 12.5702C41.8521 12.7981 41.9228 13.0829 41.9228 13.4247C41.9228 13.7802 41.8371 14.0855 41.6658 14.3407C41.4987 14.5913 41.2524 14.785 40.9268 14.9218C40.6012 15.0539 40.2028 15.12 39.7316 15.12C39.2261 15.12 38.742 15.0608 38.2794 14.9423C37.8167 14.8192 37.4247 14.6871 37.1034 14.5458V15.66C37.3048 15.7603 37.5383 15.8446 37.8039 15.913C38.0695 15.9813 38.3608 16.0337 38.6778 16.0702C38.9948 16.1066 39.3311 16.1249 39.6866 16.1249C40.3592 16.1249 40.9439 16.0155 41.4409 15.7968C41.9378 15.578 42.3233 15.2613 42.5975 14.8466Z" fill="url(#paint3_linear_1_10053)"/>
<path fill-rule="evenodd" clip-rule="evenodd" d="M10.81 21.033C9.77172 21.033 8.93002 21.9284 8.93002 23.033V35.6553C8.93002 36.7598 9.77172 37.6553 10.81 37.6553H22.09C23.1283 37.6553 23.97 36.7598 23.97 35.6553V23.033C23.97 21.9284 23.1283 21.033 22.09 21.033H10.81ZM22.09 22.033H10.81C10.2909 22.033 9.87002 22.4807 9.87002 23.033V35.6553C9.87002 36.2076 10.2909 36.6553 10.81 36.6553H22.09C22.6092 36.6553 23.03 36.2076 23.03 35.6553V23.033C23.03 22.4807 22.6092 22.033 22.09 22.033Z" fill="url(#paint4_linear_1_10053)"/>
<path d="M29.6101 21.5112C29.3505 21.5112 29.14 21.7351 29.14 22.0112C29.14 22.2874 29.3505 22.5112 29.6101 22.5112H40.8901C41.1496 22.5112 41.3601 22.2874 41.3601 22.0112C41.3601 21.7351 41.1496 21.5112 40.8901 21.5112H29.6101Z" fill="url(#paint5_linear_1_10053)"/>
<path d="M29.14 29.3453C29.14 29.0692 29.3505 28.8453 29.6101 28.8453H40.8901C41.1496 28.8453 41.3601 29.0692 41.3601 29.3453C41.3601 29.6215 41.1496 29.8453 40.8901 29.8453H29.6101C29.3505 29.8453 29.14 29.6215 29.14 29.3453Z" fill="url(#paint6_linear_1_10053)"/>
<path d="M29.6101 36.1775C29.3505 36.1775 29.14 36.4014 29.14 36.6775C29.14 36.9536 29.3505 37.1775 29.6101 37.1775H40.8901C41.1496 37.1775 41.3601 36.9536 41.3601 36.6775C41.3601 36.4014 41.1496 36.1775 40.8901 36.1775H29.6101Z" fill="url(#paint7_linear_1_10053)"/>
<path fill-rule="evenodd" clip-rule="evenodd" d="M9.8694 0C6.49494 0 3.75939 2.91015 3.75939 6.5V7.82002C1.64475 8.06874 0 9.97599 0 12.2919V38.5002C0 42.0901 2.73554 45.0002 6.11 45.0002H40.8898C44.2642 45.0002 46.9998 42.0901 46.9998 38.5002L47 6.50009C47 2.9102 44.2645 0 40.89 0H9.8694ZM0.940002 12.2919C0.940002 10.529 2.16535 9.07061 3.75939 8.828V35.2104C3.75939 35.4865 3.96982 35.7104 4.2294 35.7104C4.48897 35.7104 4.6994 35.4865 4.6994 35.2104V6.5C4.6994 3.46243 7.01409 1 9.8694 1H40.89C43.7453 1 46.06 3.46248 46.06 6.50008L46.0598 38.5002C46.0598 41.5378 43.7451 44.0002 40.8898 44.0002H6.11C3.25469 44.0002 0.940002 41.5378 0.940002 38.5002V12.2919Z" fill="url(#paint8_linear_1_10053)"/>
<defs>
<linearGradient id="paint0_linear_1_10053" x1="4.30754" y1="15.9626" x2="52.0314" y2="40.5201" gradientUnits="userSpaceOnUse">
<stop offset="0.0037645" stop-color="#43CCF8"/>
<stop offset="1" stop-color="#6A30F4"/>
</linearGradient>
<linearGradient id="paint1_linear_1_10053" x1="4.30754" y1="15.9626" x2="52.0314" y2="40.5201" gradientUnits="userSpaceOnUse">
<stop offset="0.0037645" stop-color="#43CCF8"/>
<stop offset="1" stop-color="#6A30F4"/>
</linearGradient>
<linearGradient id="paint2_linear_1_10053" x1="4.30754" y1="15.9626" x2="52.0314" y2="40.5201" gradientUnits="userSpaceOnUse">
<stop offset="0.0037645" stop-color="#43CCF8"/>
<stop offset="1" stop-color="#6A30F4"/>
</linearGradient>
<linearGradient id="paint3_linear_1_10053" x1="4.30754" y1="15.9626" x2="52.0314" y2="40.5201" gradientUnits="userSpaceOnUse">
<stop offset="0.0037645" stop-color="#43CCF8"/>
<stop offset="1" stop-color="#6A30F4"/>
</linearGradient>
<linearGradient id="paint4_linear_1_10053" x1="4.30754" y1="15.9626" x2="52.0314" y2="40.5201" gradientUnits="userSpaceOnUse">
<stop offset="0.0037645" stop-color="#43CCF8"/>
<stop offset="1" stop-color="#6A30F4"/>
</linearGradient>
<linearGradient id="paint5_linear_1_10053" x1="4.30754" y1="15.9626" x2="52.0314" y2="40.5201" gradientUnits="userSpaceOnUse">
<stop offset="0.0037645" stop-color="#43CCF8"/>
<stop offset="1" stop-color="#6A30F4"/>
</linearGradient>
<linearGradient id="paint6_linear_1_10053" x1="4.30754" y1="15.9626" x2="52.0314" y2="40.5201" gradientUnits="userSpaceOnUse">
<stop offset="0.0037645" stop-color="#43CCF8"/>
<stop offset="1" stop-color="#6A30F4"/>
</linearGradient>
<linearGradient id="paint7_linear_1_10053" x1="4.30754" y1="15.9626" x2="52.0314" y2="40.5201" gradientUnits="userSpaceOnUse">
<stop offset="0.0037645" stop-color="#43CCF8"/>
<stop offset="1" stop-color="#6A30F4"/>
</linearGradient>
<linearGradient id="paint8_linear_1_10053" x1="4.30754" y1="15.9626" x2="52.0314" y2="40.5201" gradientUnits="userSpaceOnUse">
<stop offset="0.0037645" stop-color="#43CCF8"/>
<stop offset="1" stop-color="#6A30F4"/>
</linearGradient>
</defs>
</svg>
