<svg width="254" height="60" viewBox="0 0 254 60" fill="none" xmlns="http://www.w3.org/2000/svg">
<path d="M52.8178 34.5472C58.0014 34.5472 65.5012 33.4796 65.5012 27.3224C65.5167 26.8472 65.4735 26.3719 65.3727 25.9072L62.2858 12.5169C61.5731 9.57068 60.9474 8.23413 55.768 5.64792C51.7487 3.59551 42.9934 0.206543 40.4037 0.206543C37.9921 0.206543 37.2919 3.30999 34.4162 3.30999C31.6483 3.30999 29.5931 0.99275 27.0034 0.99275C24.5173 0.99275 22.8971 2.68516 21.6458 6.16516C21.6458 6.16516 18.1611 15.9803 17.7136 17.4038C17.6424 17.6652 17.6117 17.9359 17.6224 18.2065C17.6224 22.0217 32.6635 34.5307 52.8178 34.5307V34.5472ZM66.2968 29.8217C67.0136 33.2107 67.0136 33.5665 67.0136 34.0134C67.0136 39.8065 60.4916 43.0217 51.9186 43.0217C32.5433 43.0341 15.5713 31.6962 15.5713 24.2024C15.5702 23.1593 15.7832 22.127 16.197 21.1693C9.22755 21.5169 0.207031 22.7583 0.207031 30.7114C0.207031 43.7376 31.1138 59.7928 55.5857 59.7928C74.3477 59.7928 79.0796 51.3183 79.0796 44.6272C79.0796 39.3638 74.5217 33.3886 66.305 29.8217" fill="#EE0000"/>
<path d="M66.2977 29.8228C67.0145 33.2117 67.0145 33.5676 67.0145 34.0145C67.0145 39.8076 60.4926 43.0228 51.9196 43.0228C32.5443 43.0352 15.5723 31.6972 15.5723 24.2035C15.5711 23.1604 15.7841 22.1281 16.1979 21.1704L17.7145 17.4214C17.645 17.6775 17.6143 17.9425 17.6233 18.2076C17.6233 22.0228 32.6644 34.5317 52.8187 34.5317C58.0023 34.5317 65.5021 33.4641 65.5021 27.3069C65.5176 26.8317 65.4745 26.3564 65.3737 25.8917L66.2977 29.8228Z" fill="black"/>
<path d="M240.219 38.3999C240.219 43.3199 243.181 45.7116 248.585 45.7116C250.248 45.6702 251.901 45.437 253.511 45.0164V39.3102C252.482 39.6359 251.408 39.7979 250.329 39.7902C248.104 39.7902 247.279 39.0951 247.279 37.0054V28.262H253.727V22.3861H247.279V14.9378L240.235 16.4606V22.3861H235.557V28.262H240.219V38.3999ZM218.258 38.5323C218.258 37.0095 219.787 36.2689 222.095 36.2689C223.505 36.277 224.91 36.4521 226.28 36.7902V39.7488C224.93 40.485 223.413 40.8599 221.875 40.8371C219.613 40.8371 218.258 39.9682 218.258 38.5323ZM220.412 45.7985C222.899 45.7985 224.904 45.2771 226.777 44.0151V45.4095H233.746V30.6537C233.746 25.0426 229.959 21.964 223.64 21.964C220.11 21.964 216.621 22.7916 212.867 24.4882L215.395 29.6689C218.096 28.5351 220.367 27.8399 222.368 27.8399C225.269 27.8399 226.769 28.9695 226.769 31.2785V32.4082C225.061 31.9667 223.303 31.747 221.54 31.7544C215.61 31.7544 212.038 34.2371 212.038 38.6771C212.038 42.724 215.262 45.8109 220.404 45.8109L220.412 45.7985ZM182.101 45.422H189.597V33.484H202.148V45.4095H209.664V14.9461H202.177V26.6523H189.626V14.9461H182.13L182.101 45.422ZM153.569 33.8771C153.569 30.5668 156.183 28.0426 159.627 28.0426C161.418 28.0064 163.157 28.6445 164.499 29.8302V37.8785C163.849 38.4919 163.084 38.9708 162.248 39.2876C161.411 39.6043 160.52 39.7527 159.627 39.724C156.229 39.724 153.569 37.1999 153.569 33.8937V33.8771ZM164.595 45.4261H171.568V13.4233L164.524 14.9461V23.6068C162.731 22.5916 160.702 22.0663 158.64 22.084C151.932 22.084 146.657 27.2606 146.657 33.8771C146.638 35.4296 146.929 36.9704 147.512 38.4095C148.096 39.8486 148.96 41.1572 150.056 42.2589C151.151 43.3606 152.456 44.2333 153.892 44.8262C155.329 45.419 156.87 45.72 158.425 45.7116C160.648 45.7222 162.816 45.0218 164.611 43.713L164.595 45.4261ZM132.594 27.724C134.815 27.724 136.688 29.1599 137.429 31.3778H127.816C128.513 29.0895 130.257 27.724 132.594 27.724ZM120.714 33.9309C120.714 40.6344 126.205 45.8564 133.261 45.8564C137.139 45.8564 139.974 44.8095 142.895 42.3723L138.229 38.2344C137.139 39.3682 135.528 39.9764 133.613 39.9764C132.409 40.0103 131.224 39.6793 130.212 39.0271C129.2 38.375 128.41 37.4321 127.945 36.3226H144.374V34.5723C144.374 27.2606 139.452 21.9971 132.739 21.9971C131.161 21.9734 129.594 22.2649 128.131 22.8546C126.667 23.4443 125.337 24.3202 124.217 25.431C123.098 26.5417 122.212 27.8647 121.612 29.3223C121.011 30.7799 120.709 32.3426 120.723 33.9185L120.714 33.9309ZM108.561 21.3433C111.047 21.3433 112.44 22.9075 112.44 24.782C112.44 26.6564 111.047 28.2206 108.561 28.2206H101.149V21.3433H108.561ZM93.6445 45.4095H101.14V34.3116H106.846L112.601 45.4095H120.992L114.279 33.2233C115.985 32.5305 117.445 31.3438 118.47 29.8158C119.495 28.2879 120.038 26.4886 120.031 24.6495C120.031 19.1668 115.717 14.9461 109.257 14.9461H93.6445V45.4095Z" fill="black"/>
</svg>
