<svg width="40" height="40" viewBox="0 0 40 40" fill="none" xmlns="http://www.w3.org/2000/svg">
<circle cx="20" cy="20" r="19" stroke="#6A30F4" stroke-width="2"/>
<path d="M9.27163 30.8235H15.9241C14.241 30.4291 10.3937 27.037 9.03117 24.1971C7.32797 20.6473 8.38997 15.993 8.55027 15.5197C8.71057 15.0464 10.0731 11.9698 11.596 11.0232C12.8143 10.2659 13.5998 10.918 13.8402 11.3387L19.9317 30.2713L26.1033 11.0232C27.3055 9.99766 28.5781 11.0135 28.9085 11.3387L28.9199 11.3499C29.3403 11.7635 31.013 13.4093 31.6337 15.5197C32.5153 18.5173 32.2749 20.9628 30.9925 24.1971C29.9665 26.7846 26.3437 29.6928 24.6606 30.8235H30.8322C32.1146 29.7191 35 24.9071 35 20.2528C35 14.3364 30.8322 10.2343 29.5498 9.2088C27.7063 7.73462 26.6643 7.39443 25.3018 7L19.9317 23.7238L14.7219 7C13.8669 7.18407 11.8044 7.88352 10.3937 9.2088C8.63042 10.8654 5.4244 14.3364 5.02364 20.2528C4.70304 24.986 7.72205 29.2721 9.27163 30.8235Z" fill="#6A30F4"/>
</svg>
