<svg width="88" height="82" viewBox="0 0 88 82" fill="none" xmlns="http://www.w3.org/2000/svg">
<g filter="url(#filter0_d_0_8932)">
<path fill-rule="evenodd" clip-rule="evenodd" d="M82.1395 1.82718H5.86047V41.9375H82.1395V1.82718ZM5.86047 0C4.83296 0 4 0.818055 4 1.82718V41.9375C4 42.9466 4.83296 43.7647 5.86047 43.7647H82.1395C83.167 43.7647 84 42.9466 84 41.9375V1.82718C84 0.818055 83.167 0 82.1395 0H5.86047Z" fill="#2DC0C5"/>
<path fill-rule="evenodd" clip-rule="evenodd" d="M25.7781 30.5591C32.1098 30.5591 37.251 25.5035 37.251 19.2569C37.251 13.0103 32.1098 7.95464 25.7781 7.95464C19.4464 7.95464 14.3052 13.0103 14.3052 19.2569C14.3052 25.5035 19.4464 30.5591 25.7781 30.5591ZM25.7781 32.3863C33.1419 32.3863 39.1114 26.508 39.1114 19.2569C39.1114 12.0057 33.1419 6.12746 25.7781 6.12746C18.4143 6.12746 12.4448 12.0057 12.4448 19.2569C12.4448 26.508 18.4143 32.3863 25.7781 32.3863Z" fill="#2DC0C5"/>
<path fill-rule="evenodd" clip-rule="evenodd" d="M25.7789 23.1181C27.9377 23.1181 29.6962 21.3934 29.6962 19.2558C29.6962 17.1182 27.9377 15.3936 25.7789 15.3936C23.62 15.3936 21.8616 17.1182 21.8616 19.2558C21.8616 21.3934 23.62 23.1181 25.7789 23.1181ZM25.7789 24.9452C28.9698 24.9452 31.5566 22.398 31.5566 19.2558C31.5566 16.1137 28.9698 13.5664 25.7789 13.5664C22.5879 13.5664 20.0011 16.1137 20.0011 19.2558C20.0011 22.398 22.5879 24.9452 25.7789 24.9452Z" fill="#2DC0C5"/>
<path fill-rule="evenodd" clip-rule="evenodd" d="M25.3332 6.56463C25.8469 6.56463 26.2634 6.97366 26.2634 7.47822V14.0046C26.2634 14.5092 25.8469 14.9182 25.3332 14.9182C24.8194 14.9182 24.4029 14.5092 24.4029 14.0046V7.47822C24.4029 6.97366 24.8194 6.56463 25.3332 6.56463ZM12.8863 19.2564C12.8863 18.7518 13.3027 18.3428 13.8165 18.3428H20.4443C20.958 18.3428 21.3745 18.7518 21.3745 19.2564C21.3745 19.761 20.958 20.17 20.4443 20.17H13.8165C13.3027 20.17 12.8863 19.761 12.8863 19.2564ZM22.8139 22.4904C23.2103 22.8115 23.2666 23.3873 22.9397 23.7765L18.6348 28.9025C18.3079 29.2918 17.7217 29.3471 17.3253 29.026C16.929 28.705 16.8727 28.1292 17.1996 27.7399L21.5044 22.6139C21.8313 22.2247 22.4176 22.1694 22.8139 22.4904Z" fill="#2DC0C5"/>
<path fill-rule="evenodd" clip-rule="evenodd" d="M66.6219 7.65844C66.6219 7.15388 67.0384 6.74485 67.5521 6.74485H74.0028L76.0321 12.6967C76.1952 13.1752 75.9325 13.6929 75.4453 13.8531C74.9582 14.0133 74.431 13.7553 74.2679 13.2769L73.009 9.58447L65.2942 19.5326C64.679 20.3259 63.53 20.4883 62.712 19.8976L57.5227 16.1503L51.1871 24.4014C50.8778 24.8043 50.2945 24.8846 49.8843 24.5808C49.4741 24.277 49.3924 23.7042 49.7017 23.3013L56.0372 15.0502C56.6506 14.2514 57.804 14.0856 58.6248 14.6782L63.8141 18.4256L71.4555 8.57202H67.5521C67.0384 8.57202 66.6219 8.163 66.6219 7.65844Z" fill="#2DC0C5"/>
<path fill-rule="evenodd" clip-rule="evenodd" d="M51.0692 28.2284C51.0692 27.7239 51.4857 27.3149 51.9995 27.3149H75.3328C75.8466 27.3149 76.263 27.7239 76.263 28.2284C76.263 28.733 75.8466 29.142 75.3328 29.142H51.9995C51.4857 29.142 51.0692 28.733 51.0692 28.2284ZM61.7359 34.1367C61.7359 33.6321 62.1524 33.2231 62.6661 33.2231H75.3328C75.8466 33.2231 76.263 33.6321 76.263 34.1367C76.263 34.6412 75.8466 35.0503 75.3328 35.0503H62.6661C62.1524 35.0503 61.7359 34.6412 61.7359 34.1367ZM49.7359 38.2943C49.7359 37.7898 50.1524 37.3807 50.6661 37.3807H69.3328C69.8466 37.3807 70.263 37.7898 70.263 38.2943C70.263 38.7989 69.8466 39.2079 69.3328 39.2079H50.6661C50.1524 39.2079 49.7359 38.7989 49.7359 38.2943Z" fill="#2DC0C5"/>
<path d="M36.8892 13.5664C24.667 13.5664 22.4448 25.6017 22.4448 30.6347V36.3241V52.0794L46.4448 52.4076L57.1114 52.0794C57.0374 44.8582 56.9337 33.7857 57.1114 28.0088C57.2892 22.2318 53.4818 20.4958 51.1114 20.35C50.2225 19.256 48.667 13.5666 36.8892 13.5664Z" fill="white"/>
<path fill-rule="evenodd" clip-rule="evenodd" d="M51.0691 40.2962V28.8851H52.9296V40.2962C52.9296 47.5507 46.9415 53.4316 39.5549 53.4316C32.1683 53.4316 26.1802 47.5507 26.1802 40.2962V35.0121H28.0407V40.2962C28.0407 46.5416 33.1958 51.6044 39.5549 51.6044C45.914 51.6044 51.0691 46.5416 51.0691 40.2962Z" fill="#2DC0C5"/>
<path d="M39.7781 73.0864V64.5523L33.1114 54.8153L25.0837 56.6746L24.002 57.0492C17.0767 59.4472 12.4448 65.8746 12.4448 73.0864H39.7781Z" fill="white"/>
<path fill-rule="evenodd" clip-rule="evenodd" d="M25.8945 20.661C23.9157 24.1164 23.375 28.2125 23.375 30.6347V52.0745H32.1812V50.7664C32.1812 50.2619 32.5977 49.8528 33.1114 49.8528C33.6252 49.8528 34.0417 50.2619 34.0417 50.7664V54.5367L39.7781 62.915L45.5145 54.5367V50.7664C45.5145 50.2619 45.931 49.8528 46.4448 49.8528C46.9585 49.8528 47.375 50.2619 47.375 50.7664V52.0794H56.1719C56.0991 44.8025 56.0106 33.5401 56.1816 27.9812C56.2639 25.3089 55.4299 23.6916 54.4175 22.7217C53.3806 21.7285 52.0616 21.3238 51.0533 21.2617L50.6416 21.2364L50.3843 20.9198C50.224 20.7225 50.0689 20.4543 49.9367 20.2256L49.9098 20.1791C49.7606 19.9212 49.5963 19.6373 49.3905 19.3264C48.9745 18.698 48.3913 17.964 47.5004 17.2597C45.7316 15.8614 42.6207 14.4801 36.8892 14.48C31.1676 14.48 27.841 17.2619 25.8945 20.661ZM47.375 53.9065V54.0921L54.7347 55.7967L56.1034 56.2706C63.257 58.7477 68.0417 65.3871 68.0417 72.8366C68.0417 73.4791 67.5113 74 66.8571 74H12.4448C11.931 74 11.5145 73.591 11.5145 73.0864C11.5145 65.4872 16.3953 58.7145 23.6927 56.1876L24.8215 55.7967L32.1812 54.0921V53.9017H21.5145V30.6347C21.5145 28.0239 22.085 23.5858 24.2729 19.7653C26.493 15.8886 30.3886 12.6528 36.8892 12.6528C42.9355 12.6529 46.4913 14.1164 48.6669 15.8363C49.7483 16.6912 50.4567 17.5847 50.9504 18.3306C51.1869 18.6879 51.3746 19.0124 51.5219 19.2669L51.5369 19.293C51.5795 19.3665 51.6165 19.43 51.6489 19.4848C52.9295 19.6545 54.4624 20.2123 55.7165 21.4137C57.1559 22.7926 58.1368 24.9317 58.0412 28.0364C57.8642 33.7904 57.9675 45.7542 58.0416 52.9837L58.0511 53.9065H47.375ZM32.6986 55.8496L26.5768 57.2675L32.9864 67.0701L38.4309 64.2219L32.6986 55.8496ZM38.8479 66.074V72.1728H13.4013C13.7726 65.7241 18.052 60.0782 24.3113 57.9108L24.6987 57.7767L32.3476 69.4745L38.8479 66.074ZM40.7083 72.1728V66.074L47.2086 69.4745L54.8575 57.7767L55.4847 57.9938C61.681 60.1394 65.8935 65.7702 66.167 72.1728H40.7083ZM52.9794 57.2675L46.8576 55.8496L41.1253 64.2219L46.5698 67.0701L52.9794 57.2675ZM40.7797 23.5685L41.5543 25.9837C41.8005 26.7515 42.0525 27.9496 41.985 29.2272C41.9465 29.9543 41.8023 30.7347 41.4752 31.4797C45.9916 31.3284 50.5318 30.6523 53.2109 26.4314C53.4827 26.0032 54.0564 25.8724 54.4924 26.1394C54.9284 26.4063 55.0615 26.9698 54.7897 27.3979C51.153 33.1277 44.6325 33.2741 39.7339 33.3459L37.4445 33.3794L39.0613 31.7872C39.7734 31.086 40.0739 30.1366 40.127 29.1324C40.1338 29.0032 40.1365 28.8745 40.1354 28.747C38.2019 30.9684 34.0705 33.9878 25.3782 36.5428C24.886 36.6875 24.3676 36.4129 24.2203 35.9295C24.073 35.4462 24.3525 34.937 24.8447 34.7924C36.618 31.3317 39.2882 27.1586 39.8057 25.9131L40.7797 23.5685Z" fill="#2DC0C5"/>
</g>
<defs>
<filter id="filter0_d_0_8932" x="0" y="0" width="88" height="82" filterUnits="userSpaceOnUse" color-interpolation-filters="sRGB">
<feFlood flood-opacity="0" result="BackgroundImageFix"/>
<feColorMatrix in="SourceAlpha" type="matrix" values="0 0 0 0 0 0 0 0 0 0 0 0 0 0 0 0 0 0 127 0" result="hardAlpha"/>
<feOffset dy="4"/>
<feGaussianBlur stdDeviation="2"/>
<feComposite in2="hardAlpha" operator="out"/>
<feColorMatrix type="matrix" values="0 0 0 0 0 0 0 0 0 0 0 0 0 0 0 0 0 0 0.25 0"/>
<feBlend mode="normal" in2="BackgroundImageFix" result="effect1_dropShadow_0_8932"/>
<feBlend mode="normal" in="SourceGraphic" in2="effect1_dropShadow_0_8932" result="shape"/>
</filter>
</defs>
</svg>
