<svg width="143" height="101" viewBox="0 0 143 101" fill="none" xmlns="http://www.w3.org/2000/svg">
<path fill-rule="evenodd" clip-rule="evenodd" d="M50.8897 2.72904C49.0288 2.72904 47.2441 3.46654 45.9282 4.7793C44.6124 6.09205 43.8731 7.87253 43.8731 9.72904C43.8571 10.5248 43.9826 11.3171 44.244 12.069C44.4852 12.7068 44.8233 13.3038 45.2464 13.839C46.0951 15.0058 47.2843 15.8827 48.6514 16.3498C50.0185 16.817 51.4969 16.8516 52.8844 16.449C53.5332 16.2632 54.1512 15.9835 54.7188 15.619C55.9973 14.8 56.9748 13.589 57.5042 12.1681C58.0337 10.7473 58.0865 9.19335 57.6548 7.73997C57.223 6.2866 56.3301 5.01231 55.1101 4.10868C53.8902 3.20505 52.4091 2.72091 50.8897 2.72904ZM50.8897 14.729C49.8985 14.729 48.9295 14.4358 48.1053 13.8864C47.2811 13.337 46.6387 12.5561 46.2594 11.6425C45.88 10.7288 45.7808 9.7235 45.9742 8.75359C46.1675 7.78369 46.6449 6.89277 47.3458 6.19351C48.0467 5.49425 48.9397 5.01804 49.912 4.82512C50.8842 4.63219 51.8919 4.73121 52.8077 5.10965C53.7235 5.48808 54.5062 6.12895 55.0569 6.95119C55.6076 7.77344 55.9016 8.74014 55.9016 9.72904C55.9016 11.0551 55.3735 12.3269 54.4336 13.2646C53.4937 14.2023 52.2189 14.729 50.8897 14.729Z" fill="url(#paint0_linear_1_5132)"/>
<path fill-rule="evenodd" clip-rule="evenodd" d="M51.5312 73.629C50.4679 73.629 49.448 74.0505 48.6961 74.8006C47.9442 75.5508 47.5217 76.5682 47.5217 77.629C47.5213 78.0154 47.5788 78.3996 47.6921 78.769C47.9042 79.4804 48.3104 80.1189 48.8653 80.6131C49.4203 81.1073 50.1021 81.4378 50.8346 81.5675C51.567 81.6972 52.3212 81.6211 53.0127 81.3476C53.7043 81.0742 54.306 80.6141 54.7504 80.0191C55.1949 79.424 55.4647 78.7172 55.5296 77.9779C55.5944 77.2386 55.4519 76.4959 55.1178 75.8328C54.7838 75.1697 54.2714 74.6124 53.638 74.2232C53.0046 73.834 52.2751 73.6283 51.5312 73.629ZM51.5312 79.629C51.1347 79.629 50.7471 79.5117 50.4175 79.292C50.0878 79.0722 49.8308 78.7599 49.6791 78.3944C49.5274 78.029 49.4877 77.6268 49.565 77.2389C49.6424 76.8509 49.8333 76.4945 50.1137 76.2148C50.394 75.9351 50.7512 75.7446 51.1401 75.6675C51.529 75.5903 51.9321 75.6299 52.2984 75.7813C52.6647 75.9327 52.9778 76.189 53.1981 76.5179C53.4184 76.8468 53.536 77.2335 53.536 77.629C53.536 78.1595 53.3248 78.6682 52.9488 79.0433C52.5728 79.4183 52.0629 79.629 51.5312 79.629Z" fill="url(#paint1_linear_1_5132)"/>
<path d="M139.098 71.809L137.866 58.709C139.205 58.0351 140.292 56.9507 140.968 55.615C141.645 54.2793 141.874 52.7625 141.623 51.2873C141.372 49.812 140.653 48.4558 139.573 47.4177C138.493 46.3796 137.107 45.7142 135.62 45.519L134.217 31.309C135.069 30.947 135.769 30.3018 136.198 29.4831C136.628 28.6645 136.76 27.7228 136.572 26.8181C136.384 25.9133 135.888 25.1013 135.168 24.52C134.449 23.9387 133.549 23.6239 132.623 23.629C131.766 23.6254 130.931 23.903 130.248 24.419L114.21 13.649C114.671 12.4873 114.905 11.2485 114.901 9.99904C114.9 8.36805 114.5 6.762 113.734 5.3209C112.969 3.8798 111.861 2.6474 110.509 1.73112C109.156 0.814838 107.6 0.242496 105.975 0.0639848C104.35 -0.114527 102.705 0.106211 101.185 0.706955C99.6655 1.3077 98.316 2.27021 97.2544 3.5106C96.1928 4.75098 95.4515 6.23158 95.095 7.82333C94.7385 9.41508 94.7777 11.0697 95.2091 12.6428C95.6405 14.216 96.4511 15.66 97.5702 16.849L81.7628 41.519C80.8308 41.0494 79.7997 40.8094 78.7557 40.819C78.366 40.8217 77.9772 40.8551 77.5929 40.919C77.2952 40.977 77.0008 41.0505 76.7108 41.139C76.6271 40.7519 76.5165 40.371 76.38 39.999C75.7203 38.3425 74.5777 36.9215 73.0999 35.9196C71.6222 34.9178 69.8771 34.3811 68.0904 34.379C67.239 34.3808 66.3921 34.502 65.5745 34.739L54.6887 15.619C54.1211 15.9835 53.5031 16.2632 52.8544 16.449L63.7101 35.519C62.6123 36.134 61.6579 36.9743 60.9097 37.9845C60.1616 38.9946 59.6367 40.1516 59.3698 41.379C58.9358 41.3072 58.4966 41.2705 58.0567 41.269C56.4878 41.2677 54.955 41.7384 53.6586 42.6197C52.3621 43.501 51.3622 44.7519 50.7895 46.209L28.0056 29.479C28.6811 28.2902 29.1053 26.9758 29.2518 25.6171C29.3984 24.2583 29.2642 22.884 28.8576 21.579L45.2464 13.839C44.8233 13.3038 44.4852 12.7068 44.244 12.069L28.0657 19.729C27.3905 18.4661 26.4515 17.3626 25.312 16.4929C24.1726 15.6232 22.8593 15.0076 21.4609 14.6878C20.0624 14.368 18.6115 14.3515 17.2061 14.6392C15.8007 14.927 14.4736 15.5123 13.3145 16.3558C12.1554 17.1992 11.1912 18.281 10.4873 19.5282C9.78328 20.7753 9.35586 22.1587 9.23387 23.5848C9.11189 25.0109 9.29819 26.4465 9.78018 27.7946C10.2622 29.1427 11.0286 30.3719 12.0277 31.399L3.82834 56.399C3.30181 56.4233 2.78523 56.5509 2.30809 56.7743C1.83096 56.9978 1.40261 57.3128 1.04752 57.7014C0.330369 58.4863 -0.0448911 59.5232 0.0042903 60.584C0.0534717 61.6449 0.523066 62.6428 1.30977 63.3583C2.09647 64.0737 3.13584 64.4481 4.19922 64.399C4.90578 64.3956 5.59834 64.2021 6.20396 63.839L21.8309 83.409C20.8812 84.194 20.1555 85.2148 19.7272 86.3686C19.2988 87.5225 19.1829 88.7685 19.3911 89.9813C19.5993 91.1941 20.1242 92.3307 20.913 93.2766C21.7018 94.2225 22.7266 94.9442 23.884 95.3691C25.0415 95.794 26.2908 95.907 27.506 95.6968C28.7212 95.4865 29.8594 94.9604 30.8059 94.1715C31.7523 93.3826 32.4736 92.3587 32.8971 91.2031C33.3206 90.0475 33.4312 88.8009 33.2179 87.589L48.7547 80.499C48.2792 80.0163 47.9343 79.421 47.7523 78.769L32.6165 85.679C32.305 85.0319 31.8884 84.4406 31.3836 83.929L48.7346 66.559C49.0662 66.6102 49.4015 66.6336 49.737 66.629H90.3531L83.527 78.299C83.1993 78.2154 82.8628 78.1718 82.5246 78.169C81.5929 78.1678 80.6899 78.4902 79.9707 79.0809C79.2514 79.6717 78.7608 80.4939 78.5832 81.4062C78.4055 82.3186 78.5519 83.2642 78.9971 84.0807C79.4423 84.8971 80.1587 85.5334 81.023 85.8802C81.8874 86.227 82.8458 86.2626 83.7337 85.9811C84.6216 85.6995 85.3834 85.1183 85.8884 84.3373C86.3934 83.5562 86.61 82.6241 86.501 81.7011C86.392 80.778 85.9642 79.9216 85.2911 79.279L91.8767 67.999L100.658 82.069C99.304 83.1031 98.2373 84.4644 97.5581 86.0243C96.8789 87.5842 96.6097 89.2912 96.776 90.9838C96.9423 92.6764 97.5385 94.2987 98.5083 95.6974C99.4781 97.0961 100.79 98.2249 102.318 98.9771C103.847 99.7293 105.543 100.08 107.246 99.9963C108.949 99.9124 110.602 99.3968 112.049 98.498C113.496 97.5992 114.69 96.3471 115.517 94.8599C116.344 93.3728 116.777 91.6998 116.776 89.999C116.777 89.1205 116.659 88.2459 116.425 87.399L135.911 78.399C136.34 78.9125 136.891 79.3105 137.514 79.5567C138.137 79.8028 138.812 79.8892 139.478 79.808C140.143 79.7267 140.777 79.4805 141.322 79.0917C141.867 78.7029 142.306 78.184 142.598 77.5824C142.891 76.9808 143.027 76.3157 142.995 75.6479C142.964 74.9801 142.765 74.3309 142.417 73.7597C142.068 73.1884 141.582 72.7133 141.003 72.3778C140.423 72.0423 139.768 71.857 139.098 71.839V71.809ZM82.5146 84.179C82.1181 84.179 81.7305 84.0618 81.4008 83.842C81.0711 83.6222 80.8142 83.3099 80.6624 82.9444C80.5107 82.579 80.471 82.1768 80.5483 81.7889C80.6257 81.4009 80.8166 81.0445 81.097 80.7648C81.3774 80.4851 81.7346 80.2946 82.1235 80.2175C82.5123 80.1403 82.9154 80.1799 83.2817 80.3313C83.6481 80.4827 83.9612 80.739 84.1814 81.0679C84.4017 81.3968 84.5193 81.7835 84.5193 82.179C84.5193 82.7095 84.3081 83.2182 83.9321 83.5933C83.5562 83.9683 83.0463 84.179 82.5146 84.179ZM134.718 47.449C135.917 47.4464 137.076 47.8723 137.987 48.6495C138.898 49.4267 139.499 50.5037 139.682 51.6853C139.865 52.8669 139.618 54.0748 138.985 55.0901C138.352 56.1053 137.375 56.8606 136.232 57.219L135.751 57.349C135.42 57.4119 135.085 57.4454 134.748 57.449C133.419 57.449 132.144 56.9223 131.204 55.9846C130.264 55.0469 129.736 53.7751 129.736 52.449C129.736 51.123 130.264 49.8512 131.204 48.9135C132.144 47.9758 133.419 47.449 134.748 47.449H134.718ZM132.623 25.629C133.02 25.629 133.407 25.7463 133.737 25.9661C134.067 26.1859 134.324 26.4982 134.475 26.8637C134.627 27.2291 134.667 27.6313 134.589 28.0192C134.512 28.4072 134.321 28.7636 134.041 29.0433C133.76 29.323 133.403 29.5134 133.014 29.5906C132.625 29.6678 132.222 29.6282 131.856 29.4768C131.49 29.3254 131.177 29.0691 130.956 28.7402C130.736 28.4113 130.618 28.0246 130.618 27.629C130.618 27.3664 130.67 27.1063 130.771 26.8637C130.872 26.621 131.019 26.4005 131.206 26.2148C131.392 26.0291 131.613 25.8818 131.856 25.7813C132.099 25.6808 132.36 25.629 132.623 25.629ZM96.9086 9.99904C96.9086 8.41679 97.3789 6.87008 98.2601 5.55448C99.1412 4.23889 100.394 3.21351 101.859 2.60801C103.324 2.00251 104.937 1.84408 106.492 2.15276C108.048 2.46144 109.476 3.22337 110.598 4.34219C111.719 5.46101 112.483 6.88647 112.793 8.43832C113.102 9.99017 112.943 11.5987 112.336 13.0605C111.729 14.5223 110.701 15.7717 109.383 16.6508C108.064 17.5299 106.514 17.999 104.928 17.999C102.801 17.999 100.761 17.1562 99.2573 15.6559C97.7535 14.1556 96.9086 12.1208 96.9086 9.99904ZM99.1539 18.179C100.257 18.9538 101.505 19.4985 102.824 19.7804C104.143 20.0624 105.506 20.0759 106.83 19.82C108.155 19.5642 109.413 19.0443 110.532 18.2915C111.65 17.5387 112.604 16.5685 113.338 15.439L128.975 25.999C128.71 26.5783 128.588 27.2123 128.618 27.8482C128.648 28.4841 128.83 29.1036 129.149 29.6552C129.467 30.2068 129.913 30.6746 130.45 31.0196C130.986 31.3647 131.597 31.577 132.232 31.639L133.605 45.569C132.623 45.7166 131.685 46.0785 130.859 46.629L116.655 38.629L116.315 38.439C116.528 37.7663 116.636 37.0647 116.635 36.359C116.642 34.6808 116.045 33.0559 114.952 31.7805C113.858 30.505 112.342 29.6638 110.679 29.4102C109.016 29.1565 107.317 29.5074 105.892 30.3987C104.467 31.2901 103.41 32.6627 102.914 34.2663C102.418 35.87 102.516 37.598 103.19 39.1355C103.865 40.6731 105.07 41.9177 106.587 42.6428C108.105 43.3678 109.832 43.525 111.456 43.0856C113.079 42.6462 114.491 41.6396 115.432 40.249L115.653 40.369L129.285 47.999C128.403 49.0647 127.865 50.3721 127.742 51.749L97.4499 56.209C96.9578 55.2129 96.2426 54.3431 95.3596 53.6668C94.4767 52.9905 93.4496 52.526 92.3579 52.309C92.1896 51.0899 91.6213 49.9606 90.7418 49.0976C89.8623 48.2347 88.7211 47.6866 87.4964 47.539C87.2761 47.5241 87.0551 47.5241 86.8348 47.539C86.3824 47.5405 85.9317 47.5942 85.4916 47.699V47.499C85.4913 46.8806 85.407 46.265 85.241 45.669C84.9173 44.52 84.2826 43.4821 83.4067 42.669L99.1539 18.179ZM109.689 41.409C108.698 41.409 107.729 41.1158 106.904 40.5664C106.08 40.017 105.438 39.2361 105.059 38.3225C104.679 37.4088 104.58 36.4035 104.773 35.4336C104.967 34.4637 105.444 33.5728 106.145 32.8735C106.846 32.1742 107.739 31.698 108.711 31.5051C109.683 31.3122 110.691 31.4112 111.607 31.7896C112.523 32.1681 113.305 32.8089 113.856 33.6312C114.407 34.4534 114.701 35.4201 114.701 36.409C114.701 37.7351 114.173 39.0069 113.233 39.9446C112.293 40.8823 111.018 41.409 109.689 41.409ZM11.2559 24.549C11.2559 22.9668 11.7262 21.4201 12.6074 20.1045C13.4885 18.7889 14.7409 17.7635 16.2062 17.158C17.6714 16.5525 19.2838 16.3941 20.8393 16.7028C22.3949 17.0114 23.8237 17.7734 24.9452 18.8922C26.0666 20.011 26.8304 21.4365 27.1398 22.9883C27.4492 24.5402 27.2904 26.1487 26.6835 27.6105C26.0765 29.0723 25.0487 30.3218 23.73 31.2008C22.4113 32.0799 20.8609 32.549 19.2749 32.549C17.1481 32.549 15.1085 31.7062 13.6046 30.2059C12.1008 28.7056 11.2559 26.6708 11.2559 24.549ZM4.1491 62.359C3.7526 62.359 3.365 62.2417 3.03532 62.022C2.70564 61.8022 2.44869 61.4899 2.29696 61.1244C2.14522 60.759 2.10552 60.3568 2.18288 59.9689C2.26023 59.5809 2.45116 59.2245 2.73153 58.9448C3.0119 58.6651 3.36911 58.4746 3.75799 58.3975C4.14688 58.3203 4.54996 58.3599 4.91628 58.5113C5.2826 58.6627 5.5957 58.919 5.81598 59.2479C6.03627 59.5768 6.15384 59.9635 6.15384 60.359C6.15384 60.8895 5.94263 61.3982 5.56667 61.7733C5.19071 62.1483 4.68079 62.359 4.1491 62.359ZM26.2915 93.819C24.9623 93.819 23.6875 93.2923 22.7476 92.3546C21.8077 91.4169 21.2796 90.1451 21.2796 88.819C21.2796 87.493 21.8077 86.2212 22.7476 85.2835C23.6875 84.3458 24.9623 83.819 26.2915 83.819C27.6207 83.819 28.8955 84.3458 29.8354 85.2835C30.7753 86.2212 31.3034 87.493 31.3034 88.819C31.3034 90.1451 30.7753 91.4169 29.8354 92.3546C28.8955 93.2923 27.6207 93.819 26.2915 93.819ZM29.7096 82.709C28.6692 82.1148 27.4903 81.8044 26.2915 81.809C25.3518 81.8098 24.4217 81.9968 23.555 82.359L7.61731 62.359C7.97065 61.7514 8.15734 61.0616 8.15859 60.359C8.15611 59.5885 7.9306 58.8351 7.50916 58.1893C7.08773 57.5436 6.48831 57.033 5.78297 56.719L13.6315 32.809C15.292 33.9471 17.2604 34.554 19.2749 34.549C20.214 34.5478 21.1485 34.4165 22.0515 34.159L25.6199 56.819C23.9843 57.4417 22.6412 58.6518 21.8541 60.2118C21.067 61.7718 20.8929 63.569 21.3659 65.2505C21.839 66.932 22.925 68.3764 24.4107 69.3C25.8965 70.2237 27.6747 70.5598 29.3962 70.2426C31.1177 69.9253 32.6581 68.9775 33.715 67.5852C34.7719 66.193 35.269 64.4568 35.1086 62.7177C34.9482 60.9786 34.142 59.3621 32.8482 58.1856C31.5543 57.0091 29.8664 56.3576 28.1158 56.359C27.9355 56.3491 27.7548 56.3491 27.5745 56.359L23.966 33.359C25.0583 32.7835 26.0338 32.0104 26.8428 31.079L50.2582 48.319C50.2582 48.489 50.2582 48.659 50.2582 48.839V49.059C50.258 49.658 50.3253 50.2551 50.4587 50.839H50.2582C49.6512 50.8391 49.0461 50.9062 48.454 51.039C46.744 51.4454 45.2209 52.4141 44.13 53.7891C43.039 55.1641 42.4436 56.8654 42.4397 58.619C42.4397 58.759 42.4397 58.889 42.4397 59.019C42.4397 59.149 42.4397 59.269 42.4397 59.399C42.4375 60.7608 42.8225 62.0953 43.5499 63.2476C44.2774 64.3999 45.3174 65.3227 46.5494 65.909L29.7096 82.709ZM28.1158 58.359C29.1071 58.359 30.0761 58.6523 30.9003 59.2017C31.7245 59.7511 32.3668 60.532 32.7462 61.4456C33.1255 62.3593 33.2248 63.3646 33.0314 64.3345C32.838 65.3044 32.3607 66.1953 31.6597 66.8946C30.9588 67.5938 30.0658 68.07 29.0936 68.263C28.1214 68.4559 27.1137 68.3569 26.1979 67.9784C25.2821 67.6 24.4993 66.9591 23.9486 66.1369C23.3979 65.3147 23.104 64.3479 23.104 63.359C23.104 62.033 23.632 60.7612 24.5719 59.8235C25.5118 58.8858 26.7866 58.359 28.1158 58.359ZM90.9445 64.629H49.6869C48.2965 64.629 46.9631 64.078 45.9799 63.0972C44.9968 62.1164 44.4445 60.7861 44.4445 59.399C44.4396 59.3058 44.4396 59.2123 44.4445 59.119V58.919C44.4445 58.819 44.4445 58.719 44.4445 58.619C44.4445 57.8583 44.595 57.1051 44.8874 56.4025C45.1798 55.6999 45.6084 55.0619 46.1485 54.5249C46.6886 53.9879 47.3297 53.5626 48.0349 53.2733C48.7402 52.984 49.4957 52.8364 50.2582 52.839H50.4086L53.0047 52.899L52.4133 50.379C52.3116 49.9464 52.2612 49.5034 52.263 49.059C52.2628 48.6004 52.3201 48.1435 52.4334 47.699C52.4426 47.6135 52.4628 47.5294 52.4935 47.449C52.8417 46.2432 53.5738 45.1831 54.5793 44.429C55.5847 43.6749 56.8088 43.2678 58.0667 43.269C58.4025 43.2684 58.7377 43.2951 59.0691 43.349L60.9636 43.669L61.2843 41.799C61.6221 40.279 62.4645 38.9173 63.6751 37.9347C64.8856 36.952 66.3934 36.406 67.9539 36.3852C69.5144 36.3644 71.0362 36.8699 72.2727 37.8199C73.5091 38.7698 74.3878 40.1086 74.7662 41.619L75.3175 43.699L77.3223 43.049C77.7845 42.8958 78.2686 42.8182 78.7557 42.819C79.9981 42.8217 81.1887 43.3159 82.0663 44.1933C82.9439 45.0707 83.4368 46.2596 83.4367 47.499V47.609L83.3766 50.229L85.9226 49.599C86.2055 49.5347 86.4945 49.5012 86.7847 49.499C87.6524 49.4887 88.494 49.795 89.1512 50.3604C89.8084 50.9258 90.2358 51.7112 90.3531 52.569L90.5536 53.999L91.9569 54.279C93.2322 54.5314 94.3679 55.2476 95.1437 56.2884C95.9195 57.3292 96.2799 58.6205 96.155 59.9116C96.0301 61.2026 95.4287 62.4013 94.4677 63.2749C93.5067 64.1485 92.2546 64.6347 90.9545 64.639L90.9445 64.629ZM106.752 97.999C105.166 97.999 103.616 97.5299 102.297 96.6508C100.978 95.7718 99.9503 94.5223 99.3434 93.0605C98.7364 91.5987 98.5776 89.9902 98.887 88.4383C99.1964 86.8865 99.9602 85.461 101.082 84.3422C102.203 83.2234 103.632 82.4614 105.188 82.1528C106.743 81.8441 108.355 82.0025 109.821 82.608C111.286 83.2135 112.538 84.2389 113.419 85.5545C114.301 86.8701 114.771 88.4168 114.771 89.999C114.771 92.1208 113.926 94.1556 112.422 95.6559C110.918 97.1562 108.879 97.999 106.752 97.999ZM134.989 75.809C134.986 76.0608 135.01 76.3121 135.059 76.559L115.713 85.559C114.902 83.9231 113.658 82.5398 112.115 81.559L117.888 70.559L118.269 69.829C118.623 69.938 118.992 69.992 119.362 69.989C120.29 69.9883 121.189 69.6663 121.906 69.078C122.623 68.4897 123.113 67.6715 123.292 66.763C123.472 65.8546 123.33 64.912 122.891 64.0963C122.452 63.2805 121.742 62.6421 120.884 62.2898C120.025 61.9375 119.071 61.8933 118.184 62.1646C117.296 62.436 116.531 63.0061 116.018 63.7777C115.504 64.5493 115.275 65.4746 115.37 66.3958C115.464 67.317 115.876 68.177 116.535 68.829L116.144 69.559L110.33 80.639C109.042 80.143 107.664 79.9181 106.284 79.9783C104.904 80.0386 103.552 80.3827 102.311 80.989L93.1698 66.269C94.6268 65.801 95.8972 64.8835 96.7979 63.6488C97.6986 62.4142 98.1831 60.9261 98.1816 59.399C98.1807 58.9767 98.1438 58.5552 98.0714 58.139L127.822 53.779C128.129 55.3766 128.985 56.8174 130.242 57.8539C131.498 58.8905 133.078 59.458 134.708 59.459C135.112 59.4627 135.515 59.4259 135.911 59.349L137.124 72.269C136.479 72.6094 135.939 73.1189 135.563 73.7428C135.186 74.3666 134.988 75.081 134.989 75.809ZM117.417 65.999C117.417 65.6035 117.535 65.2168 117.755 64.8879C117.975 64.559 118.288 64.3027 118.655 64.1513C119.021 63.9999 119.424 63.9603 119.813 64.0375C120.202 64.1146 120.559 64.3051 120.839 64.5848C121.12 64.8645 121.311 65.2209 121.388 65.6089C121.465 65.9968 121.426 66.399 121.274 66.7644C121.122 67.1299 120.865 67.4422 120.536 67.662C120.206 67.8818 119.818 67.999 119.422 67.999C118.89 67.999 118.38 67.7883 118.004 67.4133C117.628 67.0382 117.417 66.5295 117.417 65.999ZM139.058 77.809C138.662 77.809 138.274 77.6917 137.945 77.472C137.615 77.2522 137.358 76.9399 137.206 76.5744C137.055 76.209 137.015 75.8068 137.092 75.4189C137.17 75.0309 137.36 74.6745 137.641 74.3948C137.921 74.1151 138.278 73.9246 138.667 73.8475C139.056 73.7703 139.459 73.8099 139.826 73.9613C140.192 74.1127 140.505 74.369 140.725 74.6979C140.946 75.0268 141.063 75.4135 141.063 75.809C141.063 76.076 141.01 76.3402 140.906 76.5861C140.802 76.8321 140.65 77.0548 140.458 77.2412C140.267 77.4276 140.04 77.5739 139.791 77.6714C139.542 77.7689 139.276 77.8157 139.008 77.809H139.058Z" fill="url(#paint2_linear_1_5132)"/>
<defs>
<linearGradient id="paint0_linear_1_5132" x1="13.1059" y1="35.4777" x2="135.84" y2="121.944" gradientUnits="userSpaceOnUse">
<stop offset="0.0037645" stop-color="#43CCF8"/>
<stop offset="1" stop-color="#6A30F4"/>
</linearGradient>
<linearGradient id="paint1_linear_1_5132" x1="13.1059" y1="35.4777" x2="135.84" y2="121.944" gradientUnits="userSpaceOnUse">
<stop offset="0.0037645" stop-color="#43CCF8"/>
<stop offset="1" stop-color="#6A30F4"/>
</linearGradient>
<linearGradient id="paint2_linear_1_5132" x1="13.1059" y1="35.4777" x2="135.84" y2="121.944" gradientUnits="userSpaceOnUse">
<stop offset="0.0037645" stop-color="#43CCF8"/>
<stop offset="1" stop-color="#6A30F4"/>
</linearGradient>
</defs>
</svg>
