<svg width="58" height="45" viewBox="0 0 58 45" fill="none" xmlns="http://www.w3.org/2000/svg">
<path fill-rule="evenodd" clip-rule="evenodd" d="M46.7569 5.62901C46.7677 4.81094 45.9329 4.25654 45.1896 4.58809L39.7072 7.03341C39.1803 7.26842 38.5945 7.2842 38.0677 7.1045C35.4572 6.21412 32.5818 5.71968 29.5577 5.71968C17.3073 5.71968 7.80769 13.7231 7.80769 23.1152C7.80769 28.5459 10.9401 33.4736 15.9921 36.7063C16.5489 37.0626 16.9422 37.6539 17.0276 38.3413L17.7154 43.8777L22.4384 43.8777L22.6558 42.1283C22.8185 40.818 24.0401 39.9753 25.2729 40.1727C26.6574 40.3944 28.0901 40.5108 29.5577 40.5108C30.6718 40.5108 31.7658 40.4437 32.8339 40.3144C34.0412 40.1682 35.2051 41.0081 35.3633 42.282L35.5616 43.8777L40.2846 43.8777L40.8827 39.0632C40.9738 38.3299 41.4146 37.7078 42.0296 37.3624C45.402 35.4681 48.045 32.8447 49.6308 29.8166C49.9669 29.1748 50.5964 28.6993 51.3563 28.6037L55.9076 28.0313C56.4657 27.9611 56.8846 27.4836 56.8846 26.9176V22.4634C56.8846 21.8974 56.4657 21.42 55.9076 21.3498L52.6785 20.9436C51.7373 20.8252 51.0169 20.1336 50.7756 19.2786C50.1336 17.0037 48.9283 14.8832 47.2652 13.0218C46.8936 12.6058 46.672 12.0555 46.6798 11.4684L46.7569 5.62901ZM44.7376 3.56208C46.2242 2.89898 47.8938 4.00779 47.8722 5.64392L47.795 11.4833C47.7912 11.7745 47.9012 12.0549 48.0947 12.2715C49.8601 14.2474 51.1556 16.5168 51.8486 18.9721C51.9766 19.4256 52.3519 19.7715 52.8168 19.83L56.0459 20.2361C57.1623 20.3765 58 21.3314 58 22.4634V26.9176C58 28.0496 57.1623 29.0045 56.0459 29.1449L51.4946 29.7173C51.1184 29.7646 50.7943 30.0022 50.6176 30.3397C48.9179 33.5853 46.1078 36.357 42.5733 38.3423C42.2549 38.5211 42.0347 38.8384 41.9895 39.2024L41.3914 44.0169C41.3216 44.5785 40.8471 45 40.2846 45H35.5616C34.999 45 34.5246 44.5785 34.4548 44.0169L34.2566 42.4212C34.1781 41.79 33.5948 41.3527 32.9671 41.4287C31.8548 41.5633 30.7163 41.6331 29.5577 41.6331C28.0314 41.6331 26.5401 41.512 25.0976 41.281C24.4557 41.1782 23.8431 41.6186 23.7625 42.2675L23.5452 44.0169C23.4754 44.5785 23.0009 45 22.4384 45H17.7154C17.1529 45 16.6784 44.5785 16.6086 44.0169L15.9208 38.4805C15.8785 38.1393 15.6819 37.8378 15.3935 37.6533C10.0936 34.2619 6.69231 29.0103 6.69231 23.1152C6.69231 12.8881 16.9295 4.59738 29.5577 4.59738C32.7024 4.59738 35.6988 5.1115 38.4258 6.04161C38.6971 6.13416 38.9932 6.12423 39.2552 6.0074L44.7376 3.56208Z" fill="url(#paint0_linear_733_9220)"/>
<path fill-rule="evenodd" clip-rule="evenodd" d="M3.74707 16.2199C3.48 16.2116 3.08827 16.3632 2.72958 17.085C2.47817 17.591 2.50979 18.0356 2.71616 18.4604C2.93617 18.9133 3.36646 19.36 3.9371 19.7735C4.34453 20.0687 4.79985 20.3302 5.25226 20.5524C5.65126 19.0933 5.35669 17.7934 4.83407 17.0047C4.47226 16.4587 4.05822 16.2297 3.74707 16.2199ZM6.2848 20.9989C6.82608 19.186 6.49504 17.4882 5.76208 16.3821C5.28736 15.6657 4.58601 15.1234 3.78177 15.0982C2.93346 15.0716 2.20981 15.6215 1.73195 16.5831C1.31413 17.4239 1.3662 18.2372 1.71408 18.9533C2.04832 19.6413 2.64285 20.2186 3.28526 20.6842C3.77324 21.0378 4.31564 21.3459 4.84985 21.6031C4.76034 21.7837 4.65943 21.9653 4.54631 22.1474C4.29694 22.5489 3.706 22.8069 2.91956 22.7884C2.14704 22.7702 1.38321 22.4826 0.95204 22.0488C0.734248 21.8296 0.381137 21.8296 0.163344 22.0488C-0.0544481 22.2679 -0.0544481 22.6232 0.163344 22.8424C0.847561 23.5308 1.91419 23.8873 2.89344 23.9104C3.85876 23.9331 4.94091 23.6297 5.49215 22.7422C5.63662 22.5096 5.76473 22.2765 5.87744 22.0437C6.361 22.2266 6.79759 22.3576 7.12926 22.4318C7.42993 22.499 7.72783 22.3083 7.79465 22.0057C7.86146 21.7032 7.67189 21.4035 7.37122 21.3362C7.08892 21.2731 6.70895 21.1587 6.2848 20.9989Z" fill="url(#paint1_linear_733_9220)"/>
<path d="M33.4615 6.73377C33.4615 10.4527 30.4653 13.4675 26.7692 13.4675C23.0732 13.4675 20.0769 10.4527 20.0769 6.73377C20.0769 3.01481 23.0732 0 26.7692 0C30.4653 0 33.4615 3.01481 33.4615 6.73377Z" fill="white"/>
<path fill-rule="evenodd" clip-rule="evenodd" d="M26.9851 1.45876C23.4778 1.45876 20.6346 4.31959 20.6346 7.84861C20.6346 10.2831 22.2315 12.7917 24.2268 13.8709L23.6987 14.8594C21.3579 13.5934 19.5192 10.7145 19.5192 7.84861C19.5192 3.69977 22.8618 0.336469 26.9851 0.336469C31.1084 0.336469 34.451 3.69977 34.451 7.84861C34.451 10.6298 32.9486 13.0573 30.7185 14.3554L30.16 13.3839C32.0596 12.2782 33.3356 10.213 33.3356 7.84861C33.3356 4.31959 30.4924 1.45876 26.9851 1.45876Z" fill="url(#paint2_linear_733_9220)"/>
<path fill-rule="evenodd" clip-rule="evenodd" d="M24.0114 14.9189C22.9132 15.1764 22.0428 15.5005 21.5989 15.8354C21.3524 16.0214 21.0029 15.9711 20.8181 15.7231C20.6333 15.4751 20.6833 15.1234 20.9298 14.9375C21.5735 14.4519 22.6432 14.0874 23.7583 13.8259C24.8972 13.5589 26.1709 13.3801 27.289 13.3073C28.674 13.2172 30.019 13.2246 31.1496 13.3453C32.2491 13.4627 33.2481 13.6961 33.8538 14.1314C34.1045 14.3115 34.1625 14.662 33.9835 14.9142C33.8045 15.1664 33.4562 15.2248 33.2055 15.0447C32.8547 14.7925 32.1142 14.5768 31.0319 14.4613C29.9807 14.3491 28.7017 14.34 27.361 14.4273C26.2986 14.4964 25.0858 14.667 24.0114 14.9189Z" fill="url(#paint3_linear_733_9220)"/>
<path d="M26.8049 11.4474C26.7454 11.4474 26.6949 11.4265 26.6532 11.3846C26.6116 11.3427 26.5908 11.2918 26.5908 11.2319V10.6034C26.1506 10.5615 25.7788 10.4568 25.4754 10.2892C25.172 10.1156 24.943 9.90912 24.7883 9.66969C24.6336 9.42428 24.5504 9.1699 24.5385 8.90653C24.5385 8.85266 24.5563 8.80777 24.592 8.77186C24.6336 8.73594 24.6812 8.71799 24.7348 8.71799H25.5289C25.6003 8.71799 25.6568 8.73594 25.6985 8.77186C25.7401 8.80179 25.7728 8.84069 25.7966 8.88858C25.8383 9.0023 25.9067 9.11603 26.0018 9.22975C26.103 9.33749 26.2428 9.42728 26.4212 9.4991C26.5997 9.57093 26.8228 9.60684 27.0905 9.60684C27.5188 9.60684 27.837 9.53502 28.0452 9.39137C28.2534 9.24771 28.3575 9.05318 28.3575 8.80777C28.3575 8.63419 28.301 8.49652 28.188 8.39477C28.0809 8.28703 27.9084 8.19126 27.6705 8.10746C27.4325 8.01767 27.1202 7.9249 26.7335 7.82913C26.2933 7.72139 25.9215 7.5927 25.6182 7.44306C25.3148 7.28744 25.0857 7.0929 24.9311 6.85947C24.7824 6.62603 24.708 6.32974 24.708 5.97061C24.708 5.50972 24.8746 5.11766 25.2077 4.79444C25.5408 4.47122 26.0018 4.2737 26.5908 4.20187V3.58237C26.5908 3.52251 26.6116 3.47163 26.6532 3.42973C26.6949 3.38783 26.7454 3.36689 26.8049 3.36689H27.3492C27.4087 3.36689 27.4593 3.38783 27.5009 3.42973C27.5426 3.47163 27.5634 3.52251 27.5634 3.58237V4.21983C27.9679 4.27968 28.307 4.3994 28.5806 4.57896C28.8543 4.75853 29.0625 4.96503 29.2052 5.19847C29.348 5.42592 29.4224 5.64739 29.4283 5.86287C29.4283 5.91075 29.4105 5.95565 29.3748 5.99754C29.345 6.03346 29.3004 6.05141 29.2409 6.05141H28.4111C28.3575 6.05141 28.307 6.03944 28.2594 6.0155C28.2118 5.99156 28.1731 5.94667 28.1434 5.88083C28.1136 5.69527 28.0006 5.53666 27.8043 5.40497C27.608 5.27329 27.3522 5.20745 27.0369 5.20745C26.7157 5.20745 26.4569 5.2673 26.2606 5.38702C26.0703 5.50673 25.9751 5.69228 25.9751 5.94367C25.9751 6.11127 26.0227 6.25193 26.1178 6.36566C26.213 6.4734 26.3677 6.56917 26.5818 6.65296C26.8019 6.73676 27.0934 6.82655 27.4563 6.92231C27.962 7.03604 28.3724 7.16772 28.6877 7.31736C29.0089 7.467 29.2439 7.65854 29.3926 7.89198C29.5473 8.11943 29.6246 8.40973 29.6246 8.76288C29.6246 9.11004 29.5384 9.41531 29.3658 9.67867C29.1993 9.93605 28.9613 10.1455 28.652 10.3072C28.3427 10.4628 27.9798 10.5645 27.5634 10.6124V11.2319C27.5634 11.2918 27.5426 11.3427 27.5009 11.3846C27.4593 11.4265 27.4087 11.4474 27.3492 11.4474H26.8049Z" fill="url(#paint4_linear_733_9220)"/>
<path fill-rule="evenodd" clip-rule="evenodd" d="M41.2692 18.5179C41.5772 18.5179 41.8269 18.7691 41.8269 19.079C41.8269 20.0088 42.576 20.7625 43.5 20.7625C44.424 20.7625 45.1731 20.0088 45.1731 19.079C45.1731 18.7691 45.4228 18.5179 45.7308 18.5179C46.0388 18.5179 46.2885 18.7691 46.2885 19.079C46.2885 20.6286 45.04 21.8848 43.5 21.8848C41.96 21.8848 40.7115 20.6286 40.7115 19.079C40.7115 18.7691 40.9612 18.5179 41.2692 18.5179Z" fill="url(#paint5_linear_733_9220)"/>
<defs>
<linearGradient id="paint0_linear_733_9220" x1="5.31568" y1="15.9625" x2="58.3983" y2="49.6705" gradientUnits="userSpaceOnUse">
<stop offset="0.0037645" stop-color="#43CCF8"/>
<stop offset="1" stop-color="#6A30F4"/>
</linearGradient>
<linearGradient id="paint1_linear_733_9220" x1="5.31568" y1="15.9625" x2="58.3983" y2="49.6705" gradientUnits="userSpaceOnUse">
<stop offset="0.0037645" stop-color="#43CCF8"/>
<stop offset="1" stop-color="#6A30F4"/>
</linearGradient>
<linearGradient id="paint2_linear_733_9220" x1="5.31568" y1="15.9625" x2="58.3983" y2="49.6705" gradientUnits="userSpaceOnUse">
<stop offset="0.0037645" stop-color="#43CCF8"/>
<stop offset="1" stop-color="#6A30F4"/>
</linearGradient>
<linearGradient id="paint3_linear_733_9220" x1="5.31568" y1="15.9625" x2="58.3983" y2="49.6705" gradientUnits="userSpaceOnUse">
<stop offset="0.0037645" stop-color="#43CCF8"/>
<stop offset="1" stop-color="#6A30F4"/>
</linearGradient>
<linearGradient id="paint4_linear_733_9220" x1="5.31568" y1="15.9625" x2="58.3983" y2="49.6705" gradientUnits="userSpaceOnUse">
<stop offset="0.0037645" stop-color="#43CCF8"/>
<stop offset="1" stop-color="#6A30F4"/>
</linearGradient>
<linearGradient id="paint5_linear_733_9220" x1="5.31568" y1="15.9625" x2="58.3983" y2="49.6705" gradientUnits="userSpaceOnUse">
<stop offset="0.0037645" stop-color="#43CCF8"/>
<stop offset="1" stop-color="#6A30F4"/>
</linearGradient>
</defs>
</svg>
