<svg width="47" height="45" viewBox="0 0 47 45" fill="none" xmlns="http://www.w3.org/2000/svg">
<path fill-rule="evenodd" clip-rule="evenodd" d="M40.73 3.14H6.27C5.43803 3.14264 4.64089 3.4743 4.0526 4.0626C3.4643 4.65089 3.13264 5.44803 3.13 6.28V26.16C3.13 26.9928 3.46082 27.7915 4.04968 28.3803C4.63855 28.9692 5.43722 29.3 6.27 29.3H40.73C41.5628 29.3 42.3615 28.9692 42.9503 28.3803C43.5392 27.7915 43.87 26.9928 43.87 26.16V6.28C43.8674 5.44803 43.5357 4.65089 42.9474 4.0626C42.3591 3.4743 41.562 3.14264 40.73 3.14ZM42.82 26.14C42.8213 26.4153 42.7682 26.6882 42.6638 26.9429C42.5593 27.1976 42.4056 27.4292 42.2114 27.6243C42.0172 27.8195 41.7863 27.9743 41.5321 28.08C41.2779 28.1856 41.0053 28.24 40.73 28.24H6.27C5.99469 28.24 5.7221 28.1856 5.46788 28.08C5.21365 27.9743 4.98281 27.8195 4.7886 27.6243C4.59439 27.4292 4.44066 27.1976 4.33621 26.9429C4.23177 26.6882 4.17868 26.4153 4.18 26.14V6.28C4.17868 6.00517 4.23183 5.7328 4.33639 5.47863C4.44096 5.22446 4.59485 4.99353 4.78919 4.79919C4.98353 4.60486 5.21446 4.45096 5.46863 4.34639C5.7228 4.24183 5.99517 4.18868 6.27 4.19H40.73C41.0048 4.18868 41.2772 4.24183 41.5314 4.34639C41.7855 4.45096 42.0165 4.60486 42.2108 4.79919C42.4051 4.99353 42.559 5.22446 42.6636 5.47863C42.7682 5.7328 42.8213 6.00517 42.82 6.28V13.6H39.32C38.9536 12.7575 38.3713 12.0267 37.6321 11.4813C36.8928 10.9359 36.0227 10.5953 35.1096 10.4938C34.1965 10.3924 33.2728 10.5337 32.4319 10.9035C31.5909 11.2733 30.8624 11.8585 30.32 12.6C30.297 12.6188 30.2785 12.6424 30.2657 12.6692C30.253 12.696 30.2464 12.7253 30.2464 12.755C30.2464 12.7847 30.253 12.814 30.2657 12.8408C30.2785 12.8676 30.297 12.8912 30.32 12.91C30.4717 13.0345 30.6494 13.1234 30.84 13.17L31.27 13.31C32.37 13.65 33.97 14.14 33.97 15.74C33.97 17.34 32.37 17.82 31.27 18.16L30.84 18.3C30.6494 18.3466 30.4717 18.4355 30.32 18.56C30.2968 18.5797 30.2782 18.6042 30.2654 18.6319C30.2526 18.6595 30.246 18.6896 30.246 18.72C30.246 18.7504 30.2526 18.7805 30.2654 18.8081C30.2782 18.8358 30.2968 18.8603 30.32 18.88C30.8662 19.6199 31.5982 20.2023 32.4419 20.5683C33.2856 20.9344 34.211 21.071 35.1244 20.9645C36.0379 20.8579 36.907 20.5119 37.6438 19.9615C38.3805 19.411 38.9588 18.6757 39.32 17.83H42.82V26.14ZM38.64 16.72L38.37 17.35C38.0433 18.0964 37.5061 18.7314 36.824 19.1772C36.142 19.623 35.3448 19.8603 34.53 19.86C33.6148 19.8609 32.7251 19.5584 32 19C32.5926 18.8259 33.158 18.5701 33.68 18.24C34.1141 17.9709 34.4724 17.5955 34.7208 17.1493C34.9693 16.703 35.0997 16.2007 35.0997 15.69C35.0997 15.1793 34.9693 14.677 34.7208 14.2307C34.4724 13.7845 34.1141 13.409 33.68 13.14C33.1555 12.8145 32.5907 12.559 32 12.38C32.5024 11.996 33.0852 11.7307 33.7047 11.604C34.3241 11.4773 34.9643 11.4924 35.5771 11.6483C36.1899 11.8041 36.7595 12.0966 37.2432 12.5039C37.7269 12.9112 38.1121 13.4227 38.37 14L38.64 14.63H42.82V16.72H38.64Z" fill="url(#paint0_linear_733_9696)"/>
<path fill-rule="evenodd" clip-rule="evenodd" d="M24 33.49C24.2772 33.49 24.543 33.3799 24.7389 33.1839C24.9349 32.9879 25.045 32.7222 25.045 32.445C25.045 32.1678 24.9349 31.9021 24.7389 31.7061C24.543 31.5101 24.2772 31.4 24 31.4C23.7229 31.4 23.4571 31.5101 23.2611 31.7061C23.0651 31.9021 22.955 32.1678 22.955 32.445C22.955 32.7222 23.0651 32.9879 23.2611 33.1839C23.4571 33.3799 23.7229 33.49 24 33.49ZM24 34.49C24.4134 34.49 24.8174 34.3674 25.1611 34.1378C25.5048 33.9081 25.7727 33.5817 25.9309 33.1998C26.0891 32.8179 26.1305 32.3977 26.0498 31.9923C25.9692 31.5868 25.7701 31.2144 25.4779 30.9221C25.1856 30.6299 24.8132 30.4308 24.4077 30.3502C24.0023 30.2695 23.5821 30.3109 23.2002 30.4691C22.8183 30.6273 22.4919 30.8952 22.2622 31.2389C22.0326 31.5826 21.91 31.9866 21.91 32.4C21.9033 32.6782 21.9525 32.9549 22.0547 33.2137C22.1568 33.4725 22.3099 33.7082 22.5047 33.9068C22.6996 34.1054 22.9324 34.2629 23.1892 34.3699C23.446 34.477 23.7218 34.5314 24 34.53V34.49Z" fill="url(#paint1_linear_733_9696)"/>
<path fill-rule="evenodd" clip-rule="evenodd" d="M43.87 0H3.13C2.29895 0.00264666 1.50285 0.334635 0.916146 0.923213C0.329443 1.51179 -4.21439e-06 2.30895 0 3.14V33.49C-4.21439e-06 34.3211 0.329443 35.1182 0.916146 35.7068C1.50285 36.2954 2.29895 36.6274 3.13 36.63H19.6C19.9635 37.071 20.2171 37.5919 20.34 38.15C20.3926 38.4478 20.3686 38.7541 20.27 39.04C20.1448 39.3392 19.9322 39.5937 19.66 39.77H16.71C16.2981 39.77 15.8903 39.8513 15.5099 40.0092C15.1295 40.1671 14.784 40.3986 14.4932 40.6903C14.2024 40.982 13.9721 41.3282 13.8154 41.7091C13.6587 42.09 13.5787 42.4981 13.58 42.91V45H34.47V42.91C34.47 42.0772 34.1392 41.2785 33.5503 40.6897C32.9615 40.1008 32.1628 39.77 31.33 39.77H28.38C28.1158 39.6012 27.9098 39.3552 27.79 39.0655C27.6701 38.7757 27.6422 38.4561 27.71 38.15C27.8292 37.5926 28.0794 37.0715 28.44 36.63H43.87C44.701 36.6274 45.4972 36.2954 46.0839 35.7068C46.6706 35.1182 47 34.3211 47 33.49V3.14C47 2.30895 46.6706 1.51179 46.0839 0.923213C45.4972 0.334635 44.701 0.00264666 43.87 0ZM31.33 40.81C31.6053 40.81 31.8779 40.8644 32.1321 40.97C32.3863 41.0757 32.6172 41.2305 32.8114 41.4257C33.0056 41.6208 33.1593 41.8524 33.2638 42.1071C33.3682 42.3618 33.4213 42.6347 33.42 42.91V43.91H14.62V42.91C14.62 42.3548 14.8399 41.8221 15.2315 41.4286C15.6232 41.0351 16.1548 40.8126 16.71 40.81H31.33ZM26.81 39.42C26.8565 39.5413 26.9134 39.6584 26.98 39.77H21.07C21.1366 39.6584 21.1935 39.5413 21.24 39.42C21.4099 38.9667 21.4514 38.4754 21.36 38C21.2753 37.53 21.1059 37.0794 20.86 36.67H27.18C26.9341 37.0794 26.7647 37.53 26.68 38C26.5917 38.4763 26.6367 38.9677 26.81 39.42ZM46 33.49C45.9974 34.0435 45.7763 34.5736 45.3849 34.9649C44.9936 35.3563 44.4635 35.5774 43.91 35.58H3.13C2.85255 35.584 2.57706 35.5329 2.31946 35.4298C2.06186 35.3266 1.82725 35.1735 1.62919 34.9791C1.43114 34.7848 1.27356 34.5531 1.16556 34.2975C1.05756 34.0419 1.00129 33.7675 1 33.49V3.14C0.999949 2.86214 1.0553 2.58706 1.16283 2.33084C1.27035 2.07463 1.42789 1.84243 1.62622 1.64782C1.82455 1.45322 2.0597 1.30011 2.3179 1.19746C2.57611 1.09481 2.85219 1.04468 3.13 1.05H43.87C44.1478 1.04468 44.4239 1.09481 44.6821 1.19746C44.9403 1.30011 45.1754 1.45322 45.3738 1.64782C45.5721 1.84243 45.7296 2.07463 45.8372 2.33084C45.9447 2.58706 46 2.86214 46 3.14V33.49Z" fill="url(#paint2_linear_733_9696)"/>
<path fill-rule="evenodd" clip-rule="evenodd" d="M15.89 10.47H15.45V10.71C15.3982 11.1171 15.2356 11.5021 14.9799 11.8231C14.7242 12.144 14.3852 12.3886 14 12.53H13.95C13.5838 12.6895 13.1811 12.7468 12.7849 12.6957C12.3888 12.6447 12.0138 12.4872 11.7 12.24L11.28 11.9L10.97 12.21L11.26 12.58C11.5111 12.9039 11.669 13.2903 11.7166 13.6974C11.7642 14.1045 11.6997 14.5169 11.53 14.89C11.5025 14.9414 11.4791 14.9949 11.46 15.05C11.3184 15.4333 11.0751 15.7707 10.7562 16.0262C10.4373 16.2816 10.0549 16.4454 9.65 16.5H9.4V17H9.68C10.0754 17.0516 10.4493 17.2102 10.7612 17.4587C11.0732 17.7071 11.3113 18.0361 11.45 18.41C11.5952 18.7628 11.644 19.1478 11.5913 19.5256C11.5386 19.9035 11.3863 20.2605 11.15 20.56L10.91 20.86L11.22 21.17L11.34 21.08C11.6725 20.8211 12.0712 20.6613 12.4905 20.6188C12.9097 20.5764 13.3324 20.653 13.71 20.84L14 21C14.3796 21.1459 14.7123 21.3924 14.9625 21.713C15.2127 22.0336 15.3708 22.4163 15.42 22.82V23.06H15.86V22.82C15.9154 22.4099 16.0829 22.023 16.344 21.7019C16.6052 21.3808 16.9498 21.1379 17.34 21L17.47 20.94C17.8425 20.7726 18.2536 20.7102 18.659 20.7595C19.0644 20.8089 19.4486 20.9681 19.77 21.22H19.82L20.13 20.91V20.85C19.8787 20.5281 19.7206 20.1434 19.673 19.7378C19.6254 19.3322 19.6901 18.9213 19.86 18.55L19.92 18.42C20.06 18.046 20.2984 17.7167 20.6099 17.4668C20.9214 17.2169 21.2945 17.0556 21.69 17H21.93V16.56H21.69C21.2855 16.5089 20.9026 16.3488 20.582 16.097C20.2615 15.8451 20.0154 15.5109 19.87 15.13L19.78 14.9C19.5829 14.5209 19.4989 14.0932 19.5379 13.6677C19.5769 13.2422 19.7373 12.8369 20 12.5L20.17 12.29L19.88 12L19.57 12.25C19.2583 12.4932 18.8875 12.6492 18.4956 12.7019C18.1038 12.7546 17.7049 12.7022 17.34 12.55C16.9591 12.4046 16.6249 12.1585 16.373 11.838C16.1212 11.5174 15.9611 11.1345 15.91 10.73L15.89 10.47ZM15.45 9.42C15.1949 9.41954 14.9492 9.51662 14.7633 9.69137C14.5774 9.86612 14.4653 10.1053 14.45 10.36V10.6C14.4283 10.8221 14.3446 11.0337 14.2085 11.2105C14.0723 11.3873 13.8892 11.5223 13.68 11.6H13.62C13.4259 11.687 13.212 11.7199 13.0007 11.6952C12.7895 11.6706 12.5888 11.5893 12.42 11.46L12.01 11.13C11.8141 10.9558 11.5575 10.8656 11.2957 10.8786C11.0338 10.8917 10.7876 11.0071 10.61 11.2L10.3 11.51C10.1071 11.6876 9.99173 11.9338 9.97864 12.1957C9.96555 12.4575 10.0558 12.7141 10.23 12.91L10.52 13.27C10.6507 13.4444 10.731 13.6513 10.7522 13.8682C10.7734 14.0851 10.7345 14.3036 10.64 14.5C10.64 14.57 10.58 14.64 10.56 14.7C10.4828 14.9104 10.3482 15.095 10.1715 15.2329C9.99472 15.3708 9.7829 15.4564 9.56 15.48H9.31C9.0571 15.4977 8.82038 15.6109 8.64773 15.7965C8.47507 15.9822 8.37938 16.2265 8.38 16.48V17C8.37938 17.2535 8.47507 17.4978 8.64773 17.6835C8.82038 17.8691 9.0571 17.9823 9.31 18H9.59C9.79526 18.0272 9.98897 18.1107 10.1496 18.2414C10.3103 18.372 10.4315 18.5446 10.5 18.74C10.5749 18.923 10.6014 19.1222 10.5769 19.3184C10.5523 19.5145 10.4776 19.7011 10.36 19.86L10.12 20.15C9.94582 20.3459 9.85555 20.6025 9.86864 20.8643C9.88173 21.1262 9.99714 21.3724 10.19 21.55L10.5 21.86C10.6836 22.0415 10.9271 22.1499 11.1849 22.1646C11.4427 22.1793 11.6969 22.0995 11.9 21.94L12.01 21.84C12.1905 21.7047 12.4056 21.6234 12.6305 21.6057C12.8553 21.588 13.0806 21.6346 13.28 21.74C13.394 21.796 13.5108 21.8461 13.63 21.89C13.8323 21.9639 14.0108 22.0912 14.1464 22.2585C14.282 22.4258 14.3696 22.6268 14.4 22.84V23.09C14.4153 23.3447 14.5274 23.5839 14.7133 23.7586C14.8992 23.9334 15.1449 24.0305 15.4 24.03H15.84C16.0951 24.0305 16.3408 23.9334 16.5267 23.7586C16.7126 23.5839 16.8247 23.3447 16.84 23.09V22.85C16.8639 22.6286 16.9484 22.4181 17.0843 22.2417C17.2201 22.0652 17.4021 21.9297 17.61 21.85L17.78 21.78C17.976 21.6888 18.1931 21.6527 18.408 21.6757C18.623 21.6986 18.8276 21.7796 19 21.91H19.06C19.1473 22.0223 19.2575 22.1147 19.3833 22.181C19.5092 22.2473 19.6477 22.286 19.7896 22.2945C19.9316 22.303 20.0737 22.2811 20.2066 22.2304C20.3394 22.1796 20.4599 22.101 20.56 22L20.87 21.69C21.0515 21.5064 21.1599 21.2629 21.1746 21.0051C21.1893 20.7474 21.1095 20.4931 20.95 20.29L20.9 20.23C20.7672 20.0566 20.6856 19.8495 20.6644 19.6321C20.6431 19.4148 20.6832 19.1958 20.78 19C20.78 19 20.78 18.89 20.85 18.83C20.9157 18.6171 21.0393 18.4267 21.2071 18.2801C21.3749 18.1335 21.5802 18.0365 21.8 18H22C22.2605 17.9856 22.5066 17.8757 22.6911 17.6911C22.8757 17.5066 22.9856 17.2605 23 17V16.56C22.9874 16.3089 22.8859 16.0705 22.7137 15.8873C22.5415 15.7042 22.3098 15.5881 22.06 15.56H21.82C21.6057 15.5288 21.4039 15.4396 21.2365 15.3022C21.0691 15.1647 20.9424 14.9842 20.87 14.78C20.87 14.69 20.79 14.59 20.74 14.5C20.6426 14.3009 20.6023 14.0787 20.6234 13.858C20.6446 13.6374 20.7265 13.4269 20.86 13.25L21 13C21.1742 12.8041 21.2645 12.5475 21.2514 12.2857C21.2383 12.0238 21.1229 11.7776 20.93 11.6L20.62 11.29C20.4364 11.1084 20.1929 11.0001 19.9351 10.9854C19.6774 10.9707 19.4231 11.0505 19.22 11.21L18.91 11.47C18.7428 11.5947 18.5458 11.6733 18.3387 11.6978C18.1316 11.7224 17.9217 11.6921 17.73 11.61C17.5196 11.5328 17.335 11.3982 17.1971 11.2215C17.0592 11.0447 16.9736 10.8329 16.95 10.61V10.37C16.9347 10.1153 16.8226 9.87612 16.6367 9.70137C16.4508 9.52662 16.2051 9.42954 15.95 9.43L15.45 9.42Z" fill="url(#paint3_linear_733_9696)"/>
<path fill-rule="evenodd" clip-rule="evenodd" d="M15.67 18.61C16.0383 18.612 16.3989 18.5046 16.7061 18.3014C17.0133 18.0982 17.2532 17.8084 17.3955 17.4687C17.5378 17.1291 17.5761 16.7548 17.5055 16.3933C17.4348 16.0318 17.2585 15.6995 16.9988 15.4384C16.739 15.1772 16.4076 14.9991 16.0466 14.9265C15.6855 14.8539 15.311 14.8902 14.9705 15.0306C14.6301 15.1711 14.339 15.4095 14.1342 15.7156C13.9293 16.0217 13.82 16.3817 13.82 16.75C13.82 17.2416 14.0146 17.7132 14.3612 18.0617C14.7079 18.4102 15.1784 18.6074 15.67 18.61ZM15.67 19.66C16.246 19.662 16.8096 19.493 17.2894 19.1744C17.7693 18.8559 18.1438 18.4021 18.3656 17.8706C18.5874 17.339 18.6465 16.7536 18.5353 16.1884C18.4241 15.6233 18.1478 15.1039 17.7412 14.6959C17.3346 14.2879 16.8162 14.0098 16.2514 13.8967C15.6866 13.7836 15.101 13.8406 14.5687 14.0606C14.0364 14.2805 13.5813 14.6535 13.2611 15.1323C12.9409 15.611 12.77 16.174 12.77 16.75C12.77 17.5201 13.0752 18.2587 13.6188 18.8042C14.1624 19.3496 14.9 19.6574 15.67 19.66Z" fill="url(#paint4_linear_733_9696)"/>
<defs>
<linearGradient id="paint0_linear_733_9696" x1="4.30754" y1="15.9625" x2="52.0313" y2="40.5201" gradientUnits="userSpaceOnUse">
<stop offset="0.0037645" stop-color="#43CCF8"/>
<stop offset="1" stop-color="#6A30F4"/>
</linearGradient>
<linearGradient id="paint1_linear_733_9696" x1="4.30754" y1="15.9625" x2="52.0313" y2="40.5201" gradientUnits="userSpaceOnUse">
<stop offset="0.0037645" stop-color="#43CCF8"/>
<stop offset="1" stop-color="#6A30F4"/>
</linearGradient>
<linearGradient id="paint2_linear_733_9696" x1="4.30754" y1="15.9625" x2="52.0313" y2="40.5201" gradientUnits="userSpaceOnUse">
<stop offset="0.0037645" stop-color="#43CCF8"/>
<stop offset="1" stop-color="#6A30F4"/>
</linearGradient>
<linearGradient id="paint3_linear_733_9696" x1="4.30754" y1="15.9625" x2="52.0313" y2="40.5201" gradientUnits="userSpaceOnUse">
<stop offset="0.0037645" stop-color="#43CCF8"/>
<stop offset="1" stop-color="#6A30F4"/>
</linearGradient>
<linearGradient id="paint4_linear_733_9696" x1="4.30754" y1="15.9625" x2="52.0313" y2="40.5201" gradientUnits="userSpaceOnUse">
<stop offset="0.0037645" stop-color="#43CCF8"/>
<stop offset="1" stop-color="#6A30F4"/>
</linearGradient>
</defs>
</svg>
