<svg width="64" height="41" viewBox="0 0 64 41" fill="none" xmlns="http://www.w3.org/2000/svg">
<path fill-rule="evenodd" clip-rule="evenodd" d="M48.23 2.33251H38.49C38.3784 2.34901 38.2764 2.40532 38.2027 2.49115C38.1289 2.57698 38.0884 2.68661 38.0884 2.80002C38.0884 2.91344 38.1289 3.02307 38.2027 3.1089C38.2764 3.19473 38.3784 3.25103 38.49 3.26753H48.23C48.2968 3.2774 48.3649 3.2727 48.4297 3.25374C48.4945 3.23477 48.5545 3.20199 48.6056 3.15764C48.6567 3.11328 48.6977 3.05837 48.7257 2.99666C48.7538 2.93496 48.7684 2.86789 48.7684 2.80002C48.7684 2.73216 48.7538 2.66509 48.7257 2.60338C48.6977 2.54167 48.6567 2.48677 48.6056 2.44241C48.5545 2.39805 48.4945 2.36527 48.4297 2.34631C48.3649 2.32735 48.2968 2.32264 48.23 2.33251ZM20.87 2.33251H18.55C18.4384 2.34901 18.3364 2.40532 18.2627 2.49115C18.1889 2.57698 18.1484 2.68661 18.1484 2.80002C18.1484 2.91344 18.1889 3.02307 18.2627 3.1089C18.3364 3.19473 18.4384 3.25103 18.55 3.26753H20.87C20.9816 3.25103 21.0836 3.19473 21.1573 3.1089C21.2311 3.02307 21.2716 2.91344 21.2716 2.80002C21.2716 2.68661 21.2311 2.57698 21.1573 2.49115C21.0836 2.40532 20.9816 2.34901 20.87 2.33251ZM15.77 2.33251H13.45C13.3384 2.34901 13.2364 2.40532 13.1627 2.49115C13.0889 2.57698 13.0484 2.68661 13.0484 2.80002C13.0484 2.91344 13.0889 3.02307 13.1627 3.1089C13.2364 3.19473 13.3384 3.25103 13.45 3.26753H15.77C15.8816 3.25103 15.9836 3.19473 16.0573 3.1089C16.1311 3.02307 16.1716 2.91344 16.1716 2.80002C16.1716 2.68661 16.1311 2.57698 16.0573 2.49115C15.9836 2.40532 15.8816 2.34901 15.77 2.33251ZM10.67 2.33251H8.35C8.28322 2.32264 8.2151 2.32735 8.15029 2.34631C8.08548 2.36527 8.02549 2.39805 7.97441 2.44241C7.92333 2.48677 7.88234 2.54167 7.85426 2.60338C7.82617 2.66509 7.81163 2.73216 7.81163 2.80002C7.81163 2.86789 7.82617 2.93496 7.85426 2.99666C7.88234 3.05837 7.92333 3.11328 7.97441 3.15764C8.02549 3.20199 8.08548 3.23477 8.15029 3.25374C8.2151 3.2727 8.28322 3.2774 8.35 3.26753H10.67C10.7816 3.25103 10.8836 3.19473 10.9573 3.1089C11.0311 3.02307 11.0716 2.91344 11.0716 2.80002C11.0716 2.68661 11.0311 2.57698 10.9573 2.49115C10.8836 2.40532 10.7816 2.34901 10.67 2.33251Z" fill="#0071B2"/>
<path d="M20.12 26.4821C20.0172 26.4774 19.9174 26.4463 19.83 26.3916C19.7554 26.3386 19.6749 26.2947 19.59 26.2609L12.59 21.4048C12.3945 21.2849 12.2273 21.1237 12.1 20.9323C11.9935 20.7754 11.9377 20.5894 11.94 20.3995V19.9973C11.9335 19.8037 11.9896 19.6132 12.1 19.4544C12.2354 19.2699 12.4011 19.1101 12.59 18.9818L19.59 14.156L19.83 13.9951C19.9174 13.9404 20.0172 13.9093 20.12 13.9046C20.1794 13.9036 20.2383 13.9146 20.2933 13.9371C20.3483 13.9595 20.3982 13.9929 20.44 14.0353C20.4837 14.0804 20.5177 14.134 20.5401 14.1927C20.5624 14.2515 20.5726 14.3143 20.57 14.3771V15.3825C20.5696 15.5332 20.5243 15.6803 20.44 15.8048C20.328 15.9255 20.2001 16.0304 20.06 16.1165L14.06 20.2185L20.06 24.3104C20.1966 24.409 20.3238 24.5201 20.44 24.6422C20.5258 24.7584 20.5714 24.8997 20.57 25.0444V26.0498C20.5694 26.1728 20.523 26.2912 20.44 26.3815C20.3473 26.4497 20.2348 26.485 20.12 26.4821Z" fill="#0071B2"/>
<path d="M23.11 28.9252C23.0515 28.9242 22.9939 28.9111 22.9406 28.8869C22.8873 28.8627 22.8394 28.8279 22.8 28.7844C22.7582 28.7443 22.725 28.6959 22.7026 28.6423C22.6803 28.5886 22.6692 28.5309 22.67 28.4728C22.6748 28.3795 22.695 28.2878 22.73 28.2013L30.35 9.85286C30.3957 9.7559 30.4528 9.66476 30.52 9.58141C30.6308 9.48628 30.7747 9.43927 30.92 9.45071H31.79C31.848 9.44857 31.9058 9.45916 31.9593 9.48173C32.0128 9.5043 32.0609 9.53831 32.1 9.58141C32.1435 9.62295 32.1783 9.67281 32.2023 9.72806C32.2264 9.78331 32.2392 9.84283 32.24 9.90313C32.2317 9.99168 32.215 10.0792 32.19 10.1645L24.56 28.523C24.5151 28.6138 24.4541 28.6956 24.38 28.7643C24.3304 28.8206 24.2684 28.8645 24.199 28.8924C24.1295 28.9203 24.0545 28.9316 23.98 28.9252H23.11Z" fill="#0071B2"/>
<path d="M34.78 26.462C34.6674 26.4605 34.5583 26.4217 34.47 26.3514C34.4242 26.3079 34.3888 26.2545 34.3663 26.1954C34.3437 26.1362 34.3348 26.0727 34.34 26.0096V25.0042C34.3345 24.8556 34.3727 24.7087 34.45 24.5819C34.5653 24.4565 34.7005 24.3512 34.85 24.2702L40.8 20.1481L34.85 16.1265C34.7037 16.0328 34.5693 15.9214 34.45 15.7947C34.3725 15.6644 34.3343 15.5142 34.34 15.3624V14.357C34.3348 14.2939 34.3437 14.2304 34.3663 14.1712C34.3888 14.112 34.4242 14.0587 34.47 14.0152C34.5583 13.9449 34.6674 13.906 34.78 13.9046C34.883 13.9078 34.9832 13.9391 35.07 13.9951C35.1584 14.0281 35.2424 14.072 35.32 14.1258L42.32 18.9617C42.5089 19.09 42.6746 19.2498 42.81 19.4343C42.9177 19.6018 42.9734 19.7978 42.97 19.9973V20.3693C42.9734 20.5688 42.9177 20.7648 42.81 20.9323C42.6717 21.1142 42.5065 21.2735 42.32 21.4048L35.32 26.2408L35.07 26.3916C34.9801 26.4373 34.8808 26.4614 34.78 26.462Z" fill="#0071B2"/>
<path fill-rule="evenodd" clip-rule="evenodd" d="M61.22 27.0451H55.65V19.7158C56.5698 19.9946 57.3873 20.5402 58 21.2842C58.75 22.1016 59.2136 23.1432 59.32 24.2501C59.3185 24.5859 59.4236 24.9135 59.62 25.1851C59.7085 25.3352 59.8344 25.4594 59.9852 25.5458C60.136 25.6321 60.3065 25.6775 60.48 25.6775C60.6535 25.6775 60.824 25.6321 60.9748 25.5458C61.1256 25.4594 61.2515 25.3352 61.34 25.1851C61.541 24.9159 61.6466 24.5867 61.64 24.2501C61.6434 22.5609 61.0371 20.9278 59.9337 19.6539C58.8303 18.3799 57.3047 17.5517 55.64 17.3229V4.66503C55.64 3.42779 55.1511 2.24122 54.281 1.36636C53.4108 0.491493 52.2306 0 51 0H4.64C3.4094 0 2.22919 0.491493 1.35902 1.36636C0.488856 2.24122 0 3.42779 0 4.66503V32.6351C0 33.8723 0.488856 35.0589 1.35902 35.9338C2.22919 36.8086 3.4094 37.3001 4.64 37.3001H45.45V38.205C45.4487 38.5724 45.5197 38.9364 45.6589 39.2762C45.7982 39.6159 46.0029 39.9245 46.2613 40.1843C46.5197 40.4441 46.8267 40.6499 47.1646 40.7899C47.5025 40.9299 47.8646 41.0013 48.23 41H61.23C61.9656 40.9973 62.6701 40.7017 63.1893 40.1778C63.7085 39.6539 64 38.9445 64 38.205V29.8401C64 29.0988 63.7071 28.3879 63.1858 27.8637C62.6644 27.3396 61.9573 27.0451 61.22 27.0451ZM50.09 24.2501C50.1737 23.2287 50.5448 22.2522 51.16 21.435C51.3851 21.1228 51.647 20.8392 51.94 20.5905V27.0451H50.1L50.09 24.2501ZM54.72 27.0451H52.87V20.0073C53.4466 19.7276 54.0799 19.5865 54.72 19.5951V27.0451ZM60.72 24.2501C60.723 24.3826 60.6845 24.5127 60.61 24.6221C60.55 24.7025 60.5 24.7126 60.49 24.7126C60.48 24.7126 60.43 24.7126 60.37 24.6221C60.2955 24.5127 60.257 24.3826 60.26 24.2501C60.1553 22.9195 59.6095 21.6627 58.71 20.681C57.9145 19.7167 56.8308 19.0362 55.62 18.7405C55.3137 18.6796 55.0022 18.6493 54.69 18.6501C54.0583 18.645 53.431 18.7574 52.84 18.9818C52.5119 19.0916 52.1992 19.2437 51.91 19.4343C51.3131 19.8147 50.7938 20.3061 50.38 20.882C49.6439 21.8572 49.2092 23.0285 49.13 24.2501V26.9747H48.7V24.2501C48.6977 23.1424 48.9988 22.0554 49.5704 21.1084C50.1419 20.1614 50.9617 19.3909 51.94 18.8813C52.234 18.7125 52.5459 18.5776 52.87 18.4791C53.4674 18.2839 54.0919 18.1855 54.72 18.1876C55.0319 18.1835 55.3434 18.2104 55.65 18.268C57.0721 18.4849 58.3695 19.2083 59.3056 20.3063C60.2417 21.4043 60.7543 22.8039 60.75 24.2501H60.72ZM45.45 36.3651H4.64C3.65605 36.3651 2.71239 35.9721 2.01663 35.2726C1.32087 34.5731 0.93 33.6244 0.93 32.6351V4.66503C0.93 3.67577 1.32087 2.72703 2.01663 2.02751C2.71239 1.328 3.65605 0.935017 4.64 0.935017H51C51.984 0.935017 52.9276 1.328 53.6234 2.02751C54.3191 2.72703 54.71 3.67577 54.71 4.66503V17.2526C54.085 17.2536 53.4629 17.3382 52.86 17.5039V9.32001C52.86 8.70786 52.7399 8.10172 52.5066 7.5363C52.2733 6.97087 51.9314 6.45727 51.5004 6.02488C51.0694 5.59249 50.5578 5.24982 49.9949 5.01648C49.432 4.78314 48.8289 4.66371 48.22 4.66503H7.42C6.81114 4.66371 6.208 4.78314 5.6451 5.01648C5.08221 5.24982 4.57062 5.59249 4.13963 6.02488C3.70863 6.45727 3.3667 6.97087 3.13339 7.5363C2.90009 8.10172 2.78 8.70786 2.78 9.32001V30.7751C2.78 32.0124 3.26886 33.1989 4.13902 34.0738C5.00919 34.9487 6.1894 35.4402 7.42 35.4402H45.42L45.45 36.3651ZM45.45 29.8401V34.5051H7.45C6.46605 34.5051 5.52239 34.1122 4.82663 33.4126C4.13087 32.7131 3.74 31.7644 3.74 30.7751V9.32001C3.74257 8.33675 4.13017 7.39406 4.81889 6.69597C5.50762 5.99789 6.44207 5.60056 7.42 5.58999H48.23C49.2131 5.59265 50.1553 5.98648 50.8505 6.68542C51.5456 7.38436 51.9374 8.33156 51.94 9.32001V17.8357C50.7028 18.3855 49.6506 19.2839 48.9105 20.4223C48.1705 21.5606 47.7743 22.8902 47.77 24.2501V27.0853C47.1209 27.1928 46.5311 27.5289 46.106 28.0337C45.6809 28.5384 45.4484 29.1787 45.45 29.8401ZM63.07 38.205C63.07 38.6983 62.8751 39.1714 62.5281 39.5202C62.1812 39.869 61.7107 40.065 61.22 40.065H48.22C47.7311 40.0623 47.2631 39.8652 46.9183 39.5166C46.5735 39.1681 46.38 38.6965 46.38 38.205V29.8401C46.38 29.3468 46.5749 28.8737 46.9219 28.5249C47.2688 28.1761 47.7393 27.9801 48.23 27.9801H61.23C61.7207 27.9801 62.1912 28.1761 62.5381 28.5249C62.8851 28.8737 63.08 29.3468 63.08 29.8401L63.07 38.205Z" fill="#0071B2"/>
<path fill-rule="evenodd" clip-rule="evenodd" d="M55.65 30.8254C55.4987 30.7932 55.3446 30.7764 55.19 30.7751C54.8797 30.7764 54.5729 30.8399 54.2874 30.962C54.0018 31.084 53.7435 31.2622 53.5274 31.486C53.3113 31.7098 53.1418 31.9748 53.0289 32.2653C52.916 32.5559 52.862 32.8662 52.87 33.178C52.8679 33.5196 52.9351 33.8581 53.0675 34.1727C53.1999 34.4873 53.3947 34.7714 53.64 35.0078V37.3001H56.73V35.048C56.9836 34.8091 57.1841 34.519 57.3185 34.1967C57.4529 33.8745 57.5182 33.5273 57.51 33.178C57.5103 32.6322 57.3266 32.1023 56.9888 31.675C56.6509 31.2477 56.179 30.9482 55.65 30.8254ZM56.1 34.3644L55.81 34.6459V36.3651H54.57V34.6459L54.29 34.3744C54.1273 34.2223 53.9993 34.0367 53.9147 33.8302C53.8302 33.6236 53.791 33.4012 53.8 33.178C53.7919 32.8757 53.8756 32.5781 54.04 32.3249C54.2043 32.0716 54.4415 31.8747 54.72 31.7604C54.8695 31.7006 55.029 31.6699 55.19 31.6699C55.3477 31.6699 55.5039 31.7006 55.65 31.7604C55.9295 31.8743 56.168 32.0708 56.3341 32.3239C56.5001 32.577 56.5859 32.8749 56.58 33.178C56.5888 33.3987 56.5505 33.6188 56.4677 33.8234C56.3849 34.0281 56.2596 34.2125 56.1 34.3644Z" fill="#0071B2"/>
</svg>
