<svg width="80" height="74" viewBox="0 0 80 74" fill="none" xmlns="http://www.w3.org/2000/svg">
<path fill-rule="evenodd" clip-rule="evenodd" d="M71.34 33.1701H58.67C58.5418 33.1567 58.4122 33.1704 58.2896 33.2102C58.1671 33.2501 58.0542 33.3153 57.9585 33.4015C57.8627 33.4878 57.7861 33.5932 57.7337 33.711C57.6813 33.8288 57.6542 33.9562 57.6542 34.0851C57.6542 34.214 57.6813 34.3415 57.7337 34.4592C57.7861 34.577 57.8627 34.6824 57.9585 34.7687C58.0542 34.8549 58.1671 34.9201 58.2896 34.96C58.4122 34.9999 58.5418 35.0135 58.67 35.0001H71.33C71.4582 35.0135 71.5878 34.9999 71.7104 34.96C71.8329 34.9201 71.9458 34.8549 72.0415 34.7687C72.1373 34.6824 72.2139 34.577 72.2663 34.4592C72.3187 34.3415 72.3458 34.214 72.3458 34.0851C72.3458 33.9562 72.3187 33.8288 72.2663 33.711C72.2139 33.5932 72.1373 33.4878 72.0415 33.4015C71.9458 33.3153 71.8329 33.2501 71.7104 33.2102C71.5878 33.1704 71.4582 33.1567 71.33 33.1701H71.34ZM52.18 27.2601C52.18 27.4701 52.18 27.7001 52.18 27.9301C52.18 28.1601 52.18 28.6801 52.18 29.0901C52.18 28.6801 52.18 28.2901 52.18 27.9301C52.18 27.5701 52.18 27.4701 52.18 27.2601ZM48.59 27.2601C48.3798 27.5216 48.1562 27.7719 47.92 28.0101C48.1619 27.7744 48.389 27.5239 48.6 27.2601H48.59Z" fill="#2DC0C5"/>
<path fill-rule="evenodd" clip-rule="evenodd" d="M78.14 0.000108997H1.86C1.61753 -0.00253021 1.37693 0.0427833 1.15203 0.133444C0.92713 0.224105 0.722369 0.358326 0.549517 0.528389C0.376666 0.698452 0.239134 0.901004 0.144829 1.1244C0.0505229 1.34779 0.00130349 1.58763 0 1.83011V41.9501C0.00261221 42.1917 0.0527963 42.4305 0.147686 42.6527C0.242577 42.875 0.380314 43.0764 0.553034 43.2454C0.725754 43.4144 0.930073 43.5477 1.15432 43.6377C1.37857 43.7278 1.61836 43.7727 1.86 43.7701H17.52V53.8501H28.19V54.0401L20.83 55.7501L19.7 56.1401C16.1683 57.3467 13.0989 59.6213 10.9168 62.6491C8.73467 65.6769 7.54764 69.308 7.52 73.0401C7.52131 73.1609 7.5464 73.2803 7.59384 73.3914C7.64129 73.5025 7.71016 73.6032 7.79652 73.6877C7.88288 73.7722 7.98504 73.8389 8.09716 73.8839C8.20929 73.9289 8.32918 73.9514 8.45 73.9501H62.87C63.0236 73.9514 63.1761 73.9225 63.3185 73.8649C63.461 73.8073 63.5907 73.7222 63.7003 73.6145C63.8098 73.5068 63.8971 73.3785 63.9571 73.2371C64.0171 73.0956 64.0487 72.9438 64.05 72.7901C64.0317 69.1291 62.8715 65.565 60.7312 62.5947C58.5909 59.6244 55.5771 57.396 52.11 56.2201L50.74 55.7501L43.39 54.0401V53.8601H54.06V52.9501C54.06 50.3401 54 47.1101 53.98 43.7801H78.14C78.3825 43.7827 78.6231 43.7374 78.848 43.6468C79.0729 43.5561 79.2776 43.4219 79.4505 43.2518C79.6233 43.0818 79.7609 42.8792 79.8552 42.6558C79.9495 42.4324 79.9987 42.1926 80 41.9501V1.83011C79.9987 1.58763 79.9495 1.34779 79.8552 1.1244C79.7609 0.901004 79.6233 0.698452 79.4505 0.528389C79.2776 0.358326 79.0729 0.224105 78.848 0.133444C78.6231 0.0427833 78.3825 -0.00253021 78.14 0.000108997ZM17.54 29.7101C16.6594 29.3629 15.8262 28.906 15.06 28.3501L18.39 24.4001C17.9099 26.133 17.6249 27.914 17.54 29.7101ZM16.08 20.1201C16.2355 21.1077 16.6573 22.0343 17.3 22.8001L13.64 27.1601C11.7447 25.292 10.575 22.811 10.34 20.1601L16.08 20.1201ZM10.35 18.2901C10.5715 15.6704 11.6939 13.2085 13.5263 11.3232C15.3586 9.43798 17.7877 8.24598 20.4 7.95011V13.6401C19.3073 13.9005 18.3153 14.4763 17.5472 15.2959C16.7792 16.1156 16.269 17.1429 16.08 18.2501L10.35 18.2901ZM19.15 22.0601C18.745 21.7038 18.4205 21.2654 18.1981 20.774C17.9757 20.2826 17.8604 19.7495 17.86 19.2101C17.8679 18.1775 18.2851 17.1902 19.0199 16.4647C19.7548 15.7392 20.7474 15.3348 21.78 15.3401C22.3903 15.3407 22.9923 15.481 23.54 15.7501C22.2248 16.8796 21.1209 18.234 20.28 19.7501C19.8525 20.503 19.4782 21.2849 19.16 22.0901L19.15 22.0601ZM22.26 13.5401V7.95011C24.0079 8.0176 25.7173 8.48328 27.258 9.31165C28.7986 10.14 30.1298 11.3092 31.15 12.7301C29.0292 12.8941 26.9753 13.5479 25.15 14.6401C24.3035 14.0195 23.3049 13.6395 22.26 13.5401ZM28.71 55.8001L34.44 64.1701L29 67.0201L22.59 57.2201L28.71 55.8001ZM34.86 72.1201H9.41C9.61074 68.9296 10.755 65.8707 12.6975 63.3318C14.64 60.7928 17.2931 58.8883 20.32 57.8601L20.71 57.7301L28.36 69.4201L34.86 66.0201V72.1201ZM30.05 54.4901V52.2101C31.861 53.0155 33.8266 53.4141 35.8083 53.3778C37.79 53.3415 39.7397 52.8713 41.52 52.0001V54.4901L35.79 62.8701L30.05 54.4901ZM50.87 57.7301L51.49 57.9401C54.4883 58.9592 57.1109 60.8562 59.0173 63.3849C60.9236 65.9136 62.0256 68.9571 62.18 72.1201H36.72V66.0201L43.22 69.4201L50.87 57.7301ZM49 57.2201L42.59 67.0201L37.15 64.1701L42.88 55.8001L49 57.2201ZM35.56 51.5501C33.1339 51.5707 30.7634 50.8235 28.7876 49.4154C26.8119 48.0072 25.3321 46.0102 24.56 43.7101C24.1942 42.5933 24.0085 41.4253 24.01 40.2501V35.6401C30.91 33.3001 34.38 30.6401 36.11 28.7001C36.11 28.8201 36.11 28.9501 36.11 29.0801C36.0943 30.0685 35.7131 31.0161 35.04 31.7401L33.42 33.3301H35.71C39.21 33.2701 43.54 33.1901 47.05 31.0501V40.2501C47.0515 41.4253 46.8658 42.5933 46.5 43.7101C45.7311 46.0004 44.2605 47.9904 42.2967 49.3977C40.333 50.805 37.9759 51.5581 35.56 51.5501ZM52.19 27.9501C52.19 28.3101 52.19 28.7001 52.19 29.1101C52.19 31.3501 52.12 34.2501 52.12 37.3501V39.1801C52.12 40.0801 52.12 41.0001 52.12 41.9101C52.12 42.5201 52.12 43.1301 52.12 43.7301C52.12 46.7301 52.12 49.6001 52.19 52.0501H43.39V50.8901C45.859 49.1526 47.6532 46.6166 48.47 43.7101C48.6345 43.1126 48.7582 42.5045 48.84 41.8901C48.9035 41.3457 48.9369 40.7982 48.94 40.2501V29.6001C49.1199 29.4403 49.2902 29.27 49.45 29.0901C49.9515 28.5545 50.4002 27.9718 50.79 27.3501C50.7938 27.3202 50.7938 27.29 50.79 27.2601H48.6C48.389 27.5239 48.1619 27.7744 47.92 28.0101C47.6956 28.2398 47.4585 28.4568 47.21 28.6601C44.55 30.8701 41.02 31.3101 37.49 31.4301C37.7888 30.7152 37.9614 29.954 38 29.1801C38.0403 28.0861 37.8915 26.9934 37.56 25.9501L36.79 23.5401L35.79 25.8801C35.27 27.1301 32.6 31.3001 20.79 34.7601C20.6739 34.7934 20.5655 34.8494 20.4713 34.9249C20.3771 35.0005 20.2988 35.0941 20.2411 35.2002C20.1834 35.3063 20.1474 35.4228 20.1352 35.543C20.123 35.6632 20.1348 35.7846 20.17 35.9001C20.2437 36.1343 20.407 36.3299 20.6243 36.4442C20.8416 36.5584 21.0953 36.5821 21.33 36.5101L22.13 36.2701V40.2701C22.1308 40.8186 22.1675 41.3664 22.24 41.9101C22.3137 42.525 22.434 43.1334 22.6 43.7301C23.4657 46.8189 25.433 49.4834 28.13 51.2201V52.0401H19.33V30.5801C19.33 30.4801 19.33 30.3701 19.33 30.2601C19.3691 28.3725 19.648 26.4974 20.16 24.6801C20.33 24.1001 20.51 23.5201 20.74 22.9401C21.0418 22.1361 21.4062 21.357 21.83 20.6101C22.6352 19.1932 23.7125 17.9494 25 16.9501C25.4787 16.5662 25.9946 16.2312 26.54 15.9501C28.283 15.0147 30.2223 14.5041 32.2 14.4601C32.43 14.4601 32.67 14.4601 32.91 14.4601C33.36 14.4601 33.8 14.4601 34.22 14.4601C39.12 14.6501 41.89 15.9201 43.52 17.2101C44.2576 17.7935 44.8959 18.4926 45.41 19.2801C45.62 19.5901 45.78 19.8701 45.93 20.1301V20.1801C46.0613 20.4195 46.2083 20.6501 46.37 20.8701L46.63 21.1901H47.23C47.8955 21.2586 48.5429 21.4484 49.14 21.7501C49.6011 21.9797 50.0257 22.2762 50.4 22.6301C50.9846 23.2392 51.4415 23.959 51.7438 24.7473C52.046 25.5356 52.1875 26.3763 52.16 27.2201C52.2 27.4701 52.2 27.7001 52.19 27.9501ZM78.19 41.9501H54V41.9001C54 40.9901 54 40.0701 54 39.1701H65.33C65.4582 39.1835 65.5878 39.1699 65.7104 39.13C65.8329 39.0901 65.9458 39.0249 66.0415 38.9387C66.1373 38.8524 66.2139 38.747 66.2663 38.6292C66.3187 38.5115 66.3458 38.384 66.3458 38.2551C66.3458 38.1262 66.3187 37.9988 66.2663 37.881C66.2139 37.7632 66.1373 37.6578 66.0415 37.5715C65.9458 37.4853 65.8329 37.4201 65.7104 37.3802C65.5878 37.3404 65.4582 37.3267 65.33 37.3401H54C54 34.2301 54 31.3401 54.07 29.1001H71.33C71.4582 29.1135 71.5878 29.0999 71.7104 29.06C71.8329 29.0201 71.9458 28.9549 72.0415 28.8687C72.1373 28.7824 72.2139 28.677 72.2663 28.5592C72.3187 28.4415 72.3458 28.314 72.3458 28.1851C72.3458 28.0562 72.3187 27.9288 72.2663 27.811C72.2139 27.6932 72.1373 27.5878 72.0415 27.5015C71.9458 27.4153 71.8329 27.3501 71.7104 27.3102C71.5878 27.2704 71.4582 27.2567 71.33 27.2701H54.05C54.0793 26.1813 53.889 25.0977 53.4904 24.084C53.0918 23.0703 52.4931 22.1474 51.73 21.3701C51.3005 20.96 50.8199 20.6071 50.3 20.3201L53.53 16.1101L58.72 19.8601C59.1136 20.1463 59.6033 20.2677 60.0851 20.1986C60.5668 20.1296 61.0027 19.8754 61.3 19.4901L69 9.53011L70.26 13.2301C70.3416 13.4616 70.5115 13.6515 70.7326 13.7582C70.9536 13.865 71.2079 13.8801 71.44 13.8001C71.5526 13.7619 71.6566 13.7017 71.7458 13.623C71.835 13.5444 71.9078 13.4488 71.9598 13.3419C72.0119 13.235 72.0423 13.1188 72.0492 13C72.0561 12.8813 72.0394 12.7624 72 12.6501L70 6.65011H63.55C63.4218 6.63669 63.2922 6.65036 63.1696 6.69023C63.0471 6.73009 62.9342 6.79528 62.8385 6.88154C62.7427 6.96781 62.6661 7.07324 62.6137 7.191C62.5613 7.30876 62.5342 7.43621 62.5342 7.56511C62.5342 7.694 62.5613 7.82146 62.6137 7.93922C62.6661 8.05698 62.7427 8.16241 62.8385 8.24867C62.9342 8.33494 63.0471 8.40012 63.1696 8.43999C63.2922 8.47986 63.4218 8.49353 63.55 8.48011H67.46L59.81 18.3401L54.62 14.5901C54.2264 14.3039 53.7367 14.1825 53.2549 14.2516C52.7732 14.3207 52.3373 14.5748 52.04 14.9601L48.51 19.5601C48.2304 19.4862 47.9465 19.4294 47.66 19.3901C47.66 19.3401 47.59 19.2801 47.55 19.2001C47.4 18.9401 47.22 18.6201 46.98 18.2601C46.3623 17.3102 45.5919 16.4689 44.7 15.7701C42.57 14.0901 39.13 12.6501 33.33 12.5901C31.8435 10.0901 29.5823 8.14298 26.8893 7.04408C24.1963 5.94519 21.2184 5.75444 18.4073 6.50078C15.5961 7.24711 13.1049 8.88981 11.3116 11.1798C9.51833 13.4697 8.52069 16.282 8.47 19.1901C8.47656 21.9534 9.35347 24.6445 10.9762 26.8811C12.599 29.1178 14.8851 30.7864 17.51 31.6501V41.9501H1.86V1.83011H78.14L78.19 41.9501Z" fill="#2DC0C5"/>
</svg>
