<svg width="110" height="95" viewBox="0 0 110 95" fill="none" xmlns="http://www.w3.org/2000/svg">
<path fill-rule="evenodd" clip-rule="evenodd" d="M41.4423 41.5145H22.5223V45.1296H41.4423V41.5145ZM22.5223 39.7169C22.045 39.7169 21.5871 39.9063 21.2496 40.2434C20.912 40.5805 20.7223 41.0377 20.7223 41.5145V45.1296C20.7223 45.6073 20.9117 46.0656 21.2489 46.4043C21.5862 46.743 22.044 46.9346 22.5223 46.9372H41.4423C41.9207 46.9346 42.3785 46.743 42.7157 46.4043C43.053 46.0656 43.2424 45.6073 43.2423 45.1296V41.5145C43.2423 41.0377 43.0527 40.5805 42.7151 40.2434C42.3776 39.9063 41.9197 39.7169 41.4423 39.7169H22.5223Z" fill="url(#paint0_linear_1_5127)"/>
<path fill-rule="evenodd" clip-rule="evenodd" d="M47.7423 28.8814H22.5223V32.4965H47.7423V28.8814ZM22.5223 27.0738C22.044 27.0764 21.5862 27.268 21.2489 27.6067C20.9117 27.9454 20.7223 28.4037 20.7223 28.8814V32.4965C20.725 32.9725 20.9155 33.4282 21.2525 33.7647C21.5895 34.1013 22.0458 34.2915 22.5223 34.2941H47.7423C48.2207 34.2941 48.6795 34.1051 49.0187 33.7682C49.3578 33.4314 49.5497 32.9742 49.5523 32.4965V28.8814C49.5523 28.402 49.3616 27.9422 49.0222 27.6032C48.6828 27.2642 48.2224 27.0738 47.7423 27.0738H22.5223Z" fill="url(#paint1_linear_1_5127)"/>
<path fill-rule="evenodd" clip-rule="evenodd" d="M21.1723 51.9306C21.171 51.8117 21.1933 51.6937 21.238 51.5835C21.2826 51.4733 21.3487 51.3731 21.4324 51.2885C21.5161 51.204 21.6158 51.1369 21.7256 51.0911C21.8355 51.0453 21.9533 51.0218 22.0723 51.0218H30.6323C30.856 51.0453 31.0629 51.1506 31.2134 51.3175C31.3638 51.4844 31.4471 51.701 31.4471 51.9256C31.4471 52.1501 31.3638 52.3667 31.2134 52.5336C31.0629 52.7005 30.856 52.8058 30.6323 52.8294H22.0723C21.9542 52.8294 21.8371 52.8061 21.7279 52.7609C21.6187 52.7158 21.5195 52.6496 21.4359 52.5661C21.3524 52.4826 21.2861 52.3836 21.2409 52.2745C21.1956 52.1655 21.1723 52.0486 21.1723 51.9306Z" fill="url(#paint2_linear_1_5127)"/>
<path fill-rule="evenodd" clip-rule="evenodd" d="M78.8223 52.7994C78.8223 52.561 78.9172 52.3324 79.0859 52.1638C79.2547 51.9953 79.4837 51.9006 79.7223 51.9006H92.3323C92.4505 51.9006 92.5676 51.9238 92.6768 51.969C92.7859 52.0142 92.8852 52.0804 92.9687 52.1638C93.0523 52.2473 93.1186 52.3464 93.1638 52.4554C93.2091 52.5645 93.2323 52.6814 93.2323 52.7994C93.2323 52.9174 93.2091 53.0343 93.1638 53.1433C93.1186 53.2524 93.0523 53.3515 92.9687 53.4349C92.8852 53.5184 92.7859 53.5846 92.6768 53.6298C92.5676 53.6749 92.4505 53.6982 92.3323 53.6982H79.7223C79.4837 53.6982 79.2547 53.6035 79.0859 53.4349C78.9172 53.2664 78.8223 53.0378 78.8223 52.7994ZM67.5623 57.7927C67.5623 57.5543 67.6572 57.3257 67.8259 57.1572C67.9947 56.9886 68.2236 56.8939 68.4623 56.8939H92.3323C92.4505 56.8939 92.5676 56.9172 92.6768 56.9623C92.7859 57.0075 92.8852 57.0737 92.9687 57.1572C93.0523 57.2406 93.1186 57.3397 93.1638 57.4488C93.2091 57.5578 93.2323 57.6747 93.2323 57.7927C93.2323 57.9107 93.2091 58.0276 93.1638 58.1367C93.1186 58.2457 93.0523 58.3448 92.9687 58.4283C92.8852 58.5117 92.7859 58.5779 92.6768 58.6231C92.5676 58.6683 92.4505 58.6915 92.3323 58.6915H68.4623C68.3416 58.6916 68.2221 58.6674 68.1109 58.6203C67.9997 58.5733 67.8991 58.5044 67.8151 58.4178C67.7311 58.3311 67.6655 58.2284 67.622 58.1159C67.5786 58.0034 67.5583 57.8833 67.5623 57.7628V57.7927Z" fill="url(#paint3_linear_1_5127)"/>
<path fill-rule="evenodd" clip-rule="evenodd" d="M94.7623 3.61517C93.9508 3.61517 93.1725 3.93713 92.5986 4.51022C92.0247 5.08332 91.7023 5.8606 91.7023 6.67108C91.7023 7.48156 92.0247 8.25884 92.5986 8.83194C93.1725 9.40503 93.9508 9.72699 94.7623 9.72699H98.6323L96.2323 12.723C95.9877 12.6828 95.7402 12.6627 95.4923 12.6631H28.7723C28.7094 12.5101 28.6067 12.3767 28.4749 12.2766C28.343 12.1765 28.1868 12.1134 28.0223 12.0938L25.6923 11.8442C25.5102 11.817 25.3392 11.7401 25.198 11.6221C25.0569 11.504 24.9511 11.3493 24.8923 11.1751C24.6746 10.4451 24.3761 9.74172 24.0023 9.07786C23.9085 8.90823 23.8661 8.715 23.8803 8.52171C23.8945 8.32842 23.9647 8.14344 24.0823 7.98932L25.5923 6.11183C25.7106 5.94613 25.769 5.74528 25.7581 5.5421C25.7472 5.33892 25.6676 5.14545 25.5323 4.99332L23.4423 2.89613C23.2843 2.73752 23.0727 2.64349 22.849 2.63241C22.6252 2.62132 22.4053 2.69399 22.2323 2.83621L20.2323 4.484C20.0893 4.58731 19.9215 4.65096 19.7458 4.6685C19.5702 4.68604 19.393 4.65684 19.2323 4.58387C18.7381 4.34881 18.2266 4.15184 17.7023 3.99466C17.5278 3.936 17.3729 3.83036 17.2547 3.68939C17.1365 3.54842 17.0595 3.37759 17.0323 3.19573L16.7923 0.808918C16.7678 0.587306 16.6626 0.382433 16.4966 0.233279C16.3307 0.0841255 16.1156 0.00110012 15.8923 0H12.8923C12.6691 0.00110012 12.454 0.0841255 12.2881 0.233279C12.1221 0.382433 12.0169 0.587306 11.9923 0.808918L11.8023 3.14579C11.7743 3.32883 11.6959 3.50047 11.5758 3.64155C11.4557 3.78264 11.2987 3.8876 11.1223 3.94472C10.5715 4.11518 10.0362 4.33235 9.52234 4.59386C9.36167 4.66683 9.18451 4.69603 9.00887 4.67849C8.83323 4.66095 8.66537 4.59729 8.52234 4.49399L6.25234 2.66643C6.07461 2.51613 5.84593 2.4396 5.61339 2.4526C5.38086 2.46561 5.16217 2.56716 5.00234 2.73634L3.00234 4.82355C2.84867 4.9739 2.7533 5.17376 2.73316 5.38766C2.71303 5.60156 2.76942 5.81567 2.89234 5.99199L4.65234 8.19904C4.75258 8.34371 4.81277 8.51226 4.82681 8.68762C4.84086 8.86299 4.80827 9.03895 4.73234 9.1977C4.40879 9.80474 4.14103 10.4398 3.93234 11.0952C3.88077 11.2717 3.77841 11.4292 3.63796 11.5482C3.49752 11.6671 3.32518 11.7423 3.14234 11.7643L0.812344 12.0139C0.577991 12.0392 0.362595 12.1543 0.211511 12.335C0.0604265 12.5157 -0.0145585 12.7478 0.00234442 12.9826V15.9786C0.00344601 16.2016 0.0865824 16.4164 0.235936 16.5821C0.385289 16.7478 0.590436 16.8529 0.812344 16.8774L3.14234 17.1271C3.32518 17.1491 3.49752 17.2242 3.63796 17.3432C3.77841 17.4621 3.88077 17.6197 3.93234 17.7962C4.08209 18.259 4.25906 18.7125 4.46234 19.1544C4.534 19.3157 4.56158 19.4931 4.54225 19.6685C4.52293 19.844 4.4574 20.0111 4.35234 20.153L2.78234 22.0505C2.64413 22.225 2.57403 22.4437 2.58506 22.666C2.5961 22.8882 2.68752 23.0989 2.84234 23.2589L4.93234 25.3461C5.08752 25.5061 5.29775 25.6013 5.52051 25.6124C5.74328 25.6235 5.96196 25.5498 6.13234 25.406L7.83234 24.0279C7.98766 23.9155 8.17205 23.8501 8.36353 23.8395C8.55502 23.8289 8.74553 23.8735 8.91234 23.9679C9.23522 24.1575 9.56915 24.3275 9.91234 24.4773V62.2767C9.91103 62.8682 10.0264 63.4541 10.2518 64.0011C10.4773 64.548 10.8084 65.0453 11.2262 65.4644C11.6441 65.8836 12.1405 66.2165 12.6872 66.444C13.2339 66.6716 13.8201 66.7894 14.4123 66.7907H45.0023L36.6523 91.3179C36.5181 91.6592 36.455 92.0242 36.4669 92.3907C36.4787 92.7572 36.5653 93.1174 36.7213 93.4493C36.8773 93.7813 37.0995 94.0779 37.3742 94.3212C37.649 94.5644 37.9705 94.7492 38.3192 94.8641C38.6678 94.9791 39.0363 95.0218 39.4021 94.9896C39.7678 94.9575 40.1231 94.8512 40.4464 94.6773C40.7696 94.5033 41.0539 94.2653 41.2819 93.9779C41.5099 93.6905 41.6768 93.3596 41.7723 93.0056L50.4523 66.7907H52.2523V92.0569C52.2523 92.772 52.5368 93.4579 53.0432 93.9635C53.5495 94.4692 54.2363 94.7533 54.9523 94.7533C55.6684 94.7533 56.3552 94.4692 56.8615 93.9635C57.3679 93.4579 57.6523 92.772 57.6523 92.0569V66.7907H59.4523L68.1123 92.756C68.3351 93.434 68.8185 93.9959 69.4561 94.318C70.0937 94.6402 70.8334 94.6961 71.5123 94.4737C72.1913 94.2512 72.7539 93.7685 73.0765 93.1317C73.3991 92.4949 73.4551 91.7562 73.2323 91.0782L64.8623 66.7907H95.4923C96.085 66.7907 96.6718 66.6738 97.219 66.4467C97.7663 66.2196 98.2633 65.8868 98.6814 65.4674C99.0995 65.0479 99.4306 64.5502 99.6556 64.0026C99.8805 63.4551 99.995 62.8686 99.9923 62.2767V17.7563L102.902 14.1611V17.8861C102.902 18.2861 102.981 18.6822 103.135 19.0517C103.288 19.4213 103.512 19.757 103.796 20.0399C104.079 20.3227 104.415 20.5471 104.785 20.7002C105.155 20.8532 105.552 20.932 105.952 20.932C106.353 20.932 106.749 20.8532 107.12 20.7002C107.49 20.5471 107.826 20.3227 108.109 20.0399C108.392 19.757 108.617 19.4213 108.77 19.0517C108.923 18.6822 109.002 18.2861 109.002 17.8861V3.61517H94.7623ZM9.91234 22.45L9.81234 22.4C9.33205 22.118 8.77708 21.9889 8.22143 22.0299C7.66578 22.071 7.13586 22.2802 6.70234 22.6297L5.63234 23.4986L4.69234 22.4999L5.75234 21.1817C6.07557 20.7795 6.27889 20.2946 6.33902 19.7824C6.39915 19.2702 6.31366 18.7515 6.09234 18.2855C5.92071 17.9162 5.77372 17.5358 5.65234 17.1471C5.49407 16.6341 5.18927 16.1785 4.77536 15.8361C4.36146 15.4937 3.85646 15.2795 3.32234 15.2196L1.80234 15.1098V13.7716L3.32234 13.6118C3.85646 13.552 4.36146 13.3377 4.77536 12.9953C5.18927 12.6529 5.49407 12.1973 5.65234 11.6844C5.82379 11.1379 6.04818 10.6094 6.32234 10.1065C6.5679 9.63332 6.67295 9.09993 6.62511 8.56914C6.57728 8.03835 6.37855 7.53226 6.05234 7.11049L4.80234 5.52261L5.74234 4.58387L7.36234 5.89212C7.77664 6.23234 8.28212 6.44313 8.81565 6.49819C9.34918 6.55325 9.88714 6.45013 10.3623 6.20171C10.796 5.9912 11.2437 5.81101 11.7023 5.66243C12.216 5.50436 12.6722 5.19997 13.0151 4.78662C13.3579 4.37326 13.5724 3.86894 13.6323 3.33554L13.7923 1.80758H15.1223L15.2823 3.33554C15.3402 3.86814 15.5529 4.3722 15.894 4.78565C16.2351 5.19909 16.6899 5.50386 17.2023 5.66243C17.6308 5.79765 18.0487 5.96455 18.4523 6.16176C18.9214 6.39148 19.4464 6.48252 19.9655 6.42413C20.4846 6.36574 20.9762 6.16036 21.3823 5.8322L22.7823 4.69372L23.7223 5.69239L22.7223 6.93073C22.3748 7.35338 22.1616 7.87001 22.1099 8.41445C22.0582 8.95888 22.1705 9.50633 22.4323 9.98664C22.7423 10.5334 22.9905 11.1129 23.1723 11.7143C23.275 12.0794 23.4521 12.4194 23.6923 12.713C23.9128 12.9909 24.1863 13.2223 24.497 13.3937C24.8077 13.5651 25.1495 13.6732 25.5023 13.7117L27.0223 13.8715V15.2097L25.5023 15.3694C24.9682 15.4293 24.4632 15.6435 24.0493 15.9859C23.6354 16.3283 23.3306 16.7839 23.1723 17.2969C23.0083 17.8239 22.7974 18.3352 22.5423 18.8248C22.292 19.2972 22.1852 19.8324 22.2349 20.3645C22.2847 20.8967 22.4888 21.4028 22.8223 21.8208L23.5723 22.7496L22.6223 23.6883L21.7023 22.9393C21.2838 22.6062 20.777 22.4024 20.2441 22.3527C19.7112 22.303 19.1754 22.4097 18.7023 22.6597C18.2124 22.9177 17.7003 23.1316 17.1723 23.2988C16.6606 23.4585 16.2065 23.7636 15.8655 24.1769C15.5245 24.5901 15.3115 25.0935 15.2523 25.6257L15.0923 27.1537H13.7523L13.5923 25.6257C13.5351 25.1011 13.3272 24.6042 12.9936 24.1949C12.6601 23.7856 12.2151 23.4813 11.7123 23.3188H11.6623C11.0476 23.097 10.4605 22.8055 9.91234 22.45ZM40.0623 92.4464C40.0256 92.5578 39.9672 92.661 39.8905 92.7499C39.8138 92.8389 39.7203 92.9118 39.6154 92.9647C39.5105 93.0176 39.3961 93.0493 39.2789 93.058C39.1617 93.0667 39.044 93.0523 38.9323 93.0156C38.8207 92.9789 38.7174 92.9206 38.6284 92.844C38.5393 92.7674 38.4662 92.674 38.4133 92.5693C38.3604 92.4645 38.3286 92.3503 38.3199 92.2333C38.3111 92.1162 38.3256 91.9986 38.3623 91.8871L46.8423 66.7907H48.6423L40.0623 92.4464ZM55.8523 92.0569C55.8523 92.1749 55.8291 92.2918 55.7838 92.4008C55.7386 92.5099 55.6723 92.609 55.5887 92.6924C55.5052 92.7759 55.406 92.8421 55.2968 92.8873C55.1876 92.9324 55.0705 92.9557 54.9523 92.9557C54.8342 92.9557 54.7171 92.9324 54.6079 92.8873C54.4987 92.8421 54.3995 92.7759 54.3159 92.6924C54.2324 92.609 54.1661 92.5099 54.1209 92.4008C54.0756 92.2918 54.0523 92.1749 54.0523 92.0569V66.7907H55.8523V92.0569ZM71.5223 91.6774C71.5591 91.7889 71.5735 91.9065 71.5648 92.0235C71.556 92.1406 71.5243 92.2547 71.4714 92.3595C71.4184 92.4643 71.3454 92.5577 71.2563 92.6343C71.1673 92.7109 71.064 92.7692 70.9523 92.8059C70.8407 92.8426 70.7229 92.857 70.6058 92.8483C70.4886 92.8396 70.3742 92.8078 70.2693 92.755C70.1644 92.7021 70.0709 92.6292 69.9942 92.5402C69.9175 92.4513 69.8591 92.3481 69.8223 92.2367L61.2623 66.7907H63.0623L71.5223 91.6774ZM98.1923 62.2767C98.1937 62.6317 98.1248 62.9834 97.9897 63.3116C97.8546 63.6399 97.6559 63.9384 97.4051 64.1898C97.1542 64.4413 96.8561 64.6408 96.5279 64.7769C96.1997 64.913 95.8478 64.9831 95.4923 64.9831H14.4123C14.0569 64.9831 13.705 64.913 13.3768 64.7769C13.0486 64.6408 12.7505 64.4413 12.4996 64.1898C12.2488 63.9384 12.0501 63.6399 11.915 63.3116C11.7799 62.9834 11.711 62.6317 11.7123 62.2767V25.446C11.7618 25.5354 11.7924 25.6339 11.8023 25.7356L12.0023 28.0725C12.0269 28.2941 12.1321 28.4989 12.2981 28.6481C12.464 28.7973 12.6791 28.8803 12.9023 28.8814H15.9023C16.1256 28.8803 16.3407 28.7973 16.5066 28.6481C16.6726 28.4989 16.7778 28.2941 16.8023 28.0725L17.0023 25.7356C17.0295 25.5537 17.1065 25.3829 17.2247 25.2419C17.3429 25.101 17.4978 24.9953 17.6723 24.9367C18.3049 24.7417 18.9176 24.4875 19.5023 24.1777C19.6605 24.0967 19.8384 24.0622 20.0154 24.0781C20.1924 24.094 20.3612 24.1597 20.5023 24.2675L22.0523 25.5259C22.2246 25.6653 22.4424 25.7362 22.6638 25.7252C22.8853 25.7141 23.0948 25.6218 23.2523 25.4659L25.3423 23.3687C25.5006 23.2111 25.5952 23.0008 25.6081 22.7779C25.621 22.555 25.5513 22.3352 25.4123 22.1604L24.1523 20.6124C24.0411 20.4633 23.9737 20.2862 23.9578 20.1009C23.9419 19.9157 23.9781 19.7297 24.0623 19.5638C24.3726 18.9799 24.6271 18.368 24.8223 17.7363C24.8811 17.562 24.9869 17.4073 25.128 17.2893C25.2692 17.1712 25.4402 17.0943 25.6223 17.0672L28.0023 16.8175C28.2243 16.793 28.4294 16.6879 28.5788 16.5222C28.7281 16.3564 28.8112 16.1417 28.8123 15.9187V14.4407H94.8123L77.5623 35.7921L68.8723 28.7516C68.8109 28.6906 68.74 28.64 68.6623 28.6018L68.4123 28.402C68.229 28.2527 68.0178 28.1411 67.791 28.0738C67.5642 28.0064 67.3263 27.9847 67.091 28.0098C66.8557 28.0348 66.6278 28.1062 66.4203 28.2199C66.2129 28.3335 66.03 28.487 65.8823 28.6717L52.9323 44.6503C52.6556 44.9581 52.4442 45.3189 52.3112 45.7107C52.1782 46.1025 52.1262 46.5172 52.1584 46.9297C52.1906 47.3421 52.3063 47.7438 52.4986 48.1103C52.6909 48.4767 52.9556 48.8004 53.2769 49.0616C53.5981 49.3229 53.9691 49.5163 54.3674 49.6301C54.7657 49.7439 55.183 49.7757 55.594 49.7237C56.005 49.6717 56.4011 49.5368 56.7583 49.3274C57.1156 49.1179 57.4266 48.8382 57.6723 48.5051L67.9323 35.8521L77.2023 43.382C77.5839 43.6254 78.0436 43.7155 78.4889 43.6339C78.9343 43.5524 79.3321 43.3054 79.6023 42.9426L98.1923 19.9733V62.2767ZM107.192 17.8861C107.192 18.2172 107.061 18.5347 106.826 18.7688C106.592 19.0029 106.274 19.1344 105.942 19.1344C105.611 19.1344 105.293 19.0029 105.058 18.7688C104.824 18.5347 104.692 18.2172 104.692 17.8861V14.1611C104.693 13.7888 104.578 13.4256 104.363 13.1215C104.148 12.8174 103.844 12.5874 103.492 12.4633C103.141 12.3369 102.759 12.3238 102.4 12.4259C102.042 12.5281 101.724 12.7403 101.492 13.0326L99.6123 15.3495L98.1823 17.1271L78.2023 41.844L78.1023 41.7841L69.1023 34.4539C68.9202 34.3027 68.7096 34.1894 68.483 34.1205C68.2564 34.0516 68.0183 34.0286 67.7827 34.0528C67.5471 34.0769 67.3186 34.1479 67.1108 34.2613C66.903 34.3748 66.7199 34.5285 66.5723 34.7136L56.2723 47.4066C56.1686 47.5338 56.0408 47.6394 55.8962 47.7173C55.7516 47.7951 55.5931 47.8438 55.4296 47.8605C55.2662 47.8772 55.1011 47.8616 54.9437 47.8145C54.7863 47.7675 54.6397 47.69 54.5123 47.5864C54.385 47.4828 54.2793 47.3551 54.2013 47.2107C54.1233 47.0663 54.0746 46.908 54.0578 46.7448C54.0411 46.5816 54.0568 46.4167 54.1039 46.2595C54.151 46.1023 54.2286 45.9559 54.3323 45.8287L67.3323 29.8501L67.5823 30.0598L67.7923 30.1996L76.4723 37.2502C76.8485 37.5433 77.3253 37.6763 77.7991 37.6202C78.2729 37.5641 78.7053 37.3234 79.0023 36.9506L96.8523 14.8002L98.0023 13.3921L100.002 10.8655C100.212 10.6052 100.346 10.2926 100.39 9.96159C100.434 9.6306 100.386 9.29388 100.252 8.98798C100.103 8.68693 99.8717 8.43378 99.5854 8.25726C99.299 8.08073 98.9688 7.98791 98.6323 7.98932H94.7623C94.4488 7.96134 94.1572 7.81719 93.9447 7.58524C93.7323 7.35329 93.6145 7.05033 93.6145 6.73599C93.6145 6.42165 93.7323 6.1187 93.9447 5.88674C94.1572 5.65479 94.4488 5.51064 94.7623 5.48267H107.202L107.192 17.8861Z" fill="url(#paint4_linear_1_5127)"/>
<path fill-rule="evenodd" clip-rule="evenodd" d="M14.4123 18.0559C15.1292 18.0598 15.831 17.8511 16.4289 17.4563C17.0269 17.0615 17.494 16.4983 17.771 15.838C18.0481 15.1778 18.1226 14.4503 17.9852 13.7477C17.8478 13.0451 17.5046 12.3991 16.9992 11.8915C16.4937 11.3839 15.8487 11.0376 15.146 10.8965C14.4432 10.7554 13.7143 10.8258 13.0517 11.0988C12.3891 11.3719 11.8225 11.8352 11.4238 12.4302C11.0252 13.0251 10.8124 13.7248 10.8123 14.4407C10.8123 15.396 11.191 16.3126 11.8655 16.99C12.5401 17.6674 13.4557 18.0506 14.4123 18.0559ZM14.4123 19.8534C15.4847 19.8554 16.5336 19.5397 17.4263 18.9461C18.3189 18.3525 19.0151 17.5079 19.4269 16.519C19.8387 15.5301 19.9474 14.4415 19.7394 13.3908C19.5314 12.3402 19.016 11.3748 18.2584 10.6168C17.5008 9.85885 16.5351 9.34234 15.4834 9.13267C14.4318 8.92301 13.3415 9.02962 12.3505 9.439C11.3596 9.84838 10.5125 10.5421 9.91648 11.4325C9.32048 12.3228 9.00235 13.3697 9.00234 14.4407C9.00234 15.8745 9.572 17.2498 10.5863 18.2646C11.6006 19.2794 12.9766 19.8508 14.4123 19.8534Z" fill="url(#paint5_linear_1_5127)"/>
<defs>
<linearGradient id="paint0_linear_1_5127" x1="9.99003" y1="33.6985" x2="116.077" y2="93.6693" gradientUnits="userSpaceOnUse">
<stop offset="0.0037645" stop-color="#43CCF8"/>
<stop offset="1" stop-color="#6A30F4"/>
</linearGradient>
<linearGradient id="paint1_linear_1_5127" x1="9.99003" y1="33.6985" x2="116.077" y2="93.6693" gradientUnits="userSpaceOnUse">
<stop offset="0.0037645" stop-color="#43CCF8"/>
<stop offset="1" stop-color="#6A30F4"/>
</linearGradient>
<linearGradient id="paint2_linear_1_5127" x1="9.99003" y1="33.6985" x2="116.077" y2="93.6693" gradientUnits="userSpaceOnUse">
<stop offset="0.0037645" stop-color="#43CCF8"/>
<stop offset="1" stop-color="#6A30F4"/>
</linearGradient>
<linearGradient id="paint3_linear_1_5127" x1="9.99003" y1="33.6985" x2="116.077" y2="93.6693" gradientUnits="userSpaceOnUse">
<stop offset="0.0037645" stop-color="#43CCF8"/>
<stop offset="1" stop-color="#6A30F4"/>
</linearGradient>
<linearGradient id="paint4_linear_1_5127" x1="9.99003" y1="33.6985" x2="116.077" y2="93.6693" gradientUnits="userSpaceOnUse">
<stop offset="0.0037645" stop-color="#43CCF8"/>
<stop offset="1" stop-color="#6A30F4"/>
</linearGradient>
<linearGradient id="paint5_linear_1_5127" x1="9.99003" y1="33.6985" x2="116.077" y2="93.6693" gradientUnits="userSpaceOnUse">
<stop offset="0.0037645" stop-color="#43CCF8"/>
<stop offset="1" stop-color="#6A30F4"/>
</linearGradient>
</defs>
</svg>
