<svg width="50" height="45" viewBox="0 0 50 45" fill="none" xmlns="http://www.w3.org/2000/svg">
<path fill-rule="evenodd" clip-rule="evenodd" d="M14.3617 28.0588H7.97872V43.9412H14.3617V28.0588ZM7.97872 27C7.39119 27 6.91489 27.4741 6.91489 28.0588V43.9412C6.91489 44.526 7.39119 45 7.97872 45H14.3617C14.9492 45 15.4255 44.526 15.4255 43.9412V28.0588C15.4255 27.4741 14.9492 27 14.3617 27H7.97872Z" fill="url(#paint0_linear_733_9211)"/>
<path fill-rule="evenodd" clip-rule="evenodd" d="M28.1915 21.7059H21.8085V43.9412H28.1915V21.7059ZM21.8085 20.6471C21.221 20.6471 20.7447 21.1211 20.7447 21.7059V43.9412C20.7447 44.526 21.221 45 21.8085 45H28.1915C28.779 45 29.2553 44.526 29.2553 43.9412V21.7059C29.2553 21.1211 28.779 20.6471 28.1915 20.6471H21.8085Z" fill="url(#paint1_linear_733_9211)"/>
<path fill-rule="evenodd" clip-rule="evenodd" d="M42.0213 13.2353H35.6383V43.9412H42.0213V13.2353ZM35.6383 12.1765C35.0508 12.1765 34.5745 12.6505 34.5745 13.2353V43.9412C34.5745 44.526 35.0508 45 35.6383 45H42.0213C42.6088 45 43.0851 44.526 43.0851 43.9412V13.2353C43.0851 12.6505 42.6088 12.1765 42.0213 12.1765H35.6383Z" fill="url(#paint2_linear_733_9211)"/>
<path fill-rule="evenodd" clip-rule="evenodd" d="M0 44.4706C0 44.1782 0.238146 43.9412 0.531915 43.9412H49.4681C49.7619 43.9412 50 44.1782 50 44.4706C50 44.763 49.7619 45 49.4681 45H0.531915C0.238146 45 0 44.763 0 44.4706Z" fill="url(#paint3_linear_733_9211)"/>
<path fill-rule="evenodd" clip-rule="evenodd" d="M44.2384 0.719926C44.4265 0.944543 44.396 1.27837 44.1703 1.46555C43.6047 1.93469 43.0053 2.43732 42.3757 2.96524C38.055 6.58831 32.314 11.4024 26.3246 14.7556C16.6911 20.1489 9.1846 22.219 2.74702 23.2869C2.45725 23.335 2.18319 23.1402 2.1349 22.8518C2.0866 22.5633 2.28236 22.2906 2.57213 22.2425C8.90051 21.1927 16.2877 19.1599 25.8031 13.8327C31.6973 10.5328 37.3538 5.79072 41.6817 2.16238C42.3137 1.63257 42.9173 1.1265 43.4893 0.652142C43.7149 0.464961 44.0504 0.495309 44.2384 0.719926Z" fill="url(#paint4_linear_733_9211)"/>
<path fill-rule="evenodd" clip-rule="evenodd" d="M37.6256 0.490632C37.6471 0.199032 37.9021 -0.0199829 38.195 0.00144779L44.0304 0.428289C44.3234 0.449719 44.5434 0.703481 44.5219 0.99508L44.132 6.27495C44.1105 6.56655 43.8555 6.78557 43.5625 6.76414C43.2696 6.74271 43.0495 6.48895 43.071 6.19735L43.4219 1.44546L38.1171 1.05742C37.8241 1.03599 37.604 0.782231 37.6256 0.490632Z" fill="url(#paint5_linear_733_9211)"/>
<defs>
<linearGradient id="paint0_linear_733_9211" x1="4.58249" y1="15.9625" x2="53.9899" y2="43.0092" gradientUnits="userSpaceOnUse">
<stop offset="0.0037645" stop-color="#43CCF8"/>
<stop offset="1" stop-color="#6A30F4"/>
</linearGradient>
<linearGradient id="paint1_linear_733_9211" x1="4.58249" y1="15.9625" x2="53.9899" y2="43.0092" gradientUnits="userSpaceOnUse">
<stop offset="0.0037645" stop-color="#43CCF8"/>
<stop offset="1" stop-color="#6A30F4"/>
</linearGradient>
<linearGradient id="paint2_linear_733_9211" x1="4.58249" y1="15.9625" x2="53.9899" y2="43.0092" gradientUnits="userSpaceOnUse">
<stop offset="0.0037645" stop-color="#43CCF8"/>
<stop offset="1" stop-color="#6A30F4"/>
</linearGradient>
<linearGradient id="paint3_linear_733_9211" x1="4.58249" y1="15.9625" x2="53.9899" y2="43.0092" gradientUnits="userSpaceOnUse">
<stop offset="0.0037645" stop-color="#43CCF8"/>
<stop offset="1" stop-color="#6A30F4"/>
</linearGradient>
<linearGradient id="paint4_linear_733_9211" x1="4.58249" y1="15.9625" x2="53.9899" y2="43.0092" gradientUnits="userSpaceOnUse">
<stop offset="0.0037645" stop-color="#43CCF8"/>
<stop offset="1" stop-color="#6A30F4"/>
</linearGradient>
<linearGradient id="paint5_linear_733_9211" x1="4.58249" y1="15.9625" x2="53.9899" y2="43.0092" gradientUnits="userSpaceOnUse">
<stop offset="0.0037645" stop-color="#43CCF8"/>
<stop offset="1" stop-color="#6A30F4"/>
</linearGradient>
</defs>
</svg>
