<svg width="87" height="100" viewBox="0 0 87 100" fill="none" xmlns="http://www.w3.org/2000/svg">
<path fill-rule="evenodd" clip-rule="evenodd" d="M86.9616 15.1478C86.3808 6.63744 79.2934 0 70.6357 0H16.3643C7.70658 0 0.619183 6.63744 0.0384455 15.1478C0.0129537 15.5214 0 15.9842 0 16.3643V76.8164C0 89.3047 10.1238 99.4286 22.6122 99.4286H64.3878C76.8762 99.4286 87 89.3047 87 76.8164V16.3643C87 15.9842 86.987 15.5214 86.9616 15.1478ZM84.6941 15.1478C84.1182 7.88752 78.044 2.17533 70.6357 2.17533H16.3643C8.95596 2.17533 2.88178 7.88752 2.30588 15.1478H84.6941ZM2.26122 17.409H84.7388V76.7305C84.7388 87.97 75.6273 97.0814 64.3878 97.0814H22.6122C11.3726 97.0814 2.26122 87.97 2.26122 76.7305V17.409Z" fill="url(#paint0_linear_1_5428)"/>
<path fill-rule="evenodd" clip-rule="evenodd" d="M71.3681 12.842C73.2413 12.842 74.7599 11.3235 74.7599 9.4502C74.7599 7.57694 73.2413 6.05837 71.3681 6.05837C69.4948 6.05837 67.9762 7.57694 67.9762 9.4502C67.9762 11.3235 69.4948 12.842 71.3681 12.842ZM71.3681 11.1461C70.4314 11.1461 69.6721 10.3868 69.6721 9.4502C69.6721 8.51357 70.4314 7.75429 71.3681 7.75429C72.3047 7.75429 73.064 8.51357 73.064 9.4502C73.064 10.3868 72.3047 11.1461 71.3681 11.1461Z" fill="url(#paint1_linear_1_5428)"/>
<path fill-rule="evenodd" clip-rule="evenodd" d="M62.3232 12.842C64.1964 12.842 65.715 11.3235 65.715 9.4502C65.715 7.57694 64.1964 6.05837 62.3232 6.05837C60.4499 6.05837 58.9314 7.57694 58.9314 9.4502C58.9314 11.3235 60.4499 12.842 62.3232 12.842ZM62.3232 11.1461C61.3866 11.1461 60.6273 10.3868 60.6273 9.4502C60.6273 8.51357 61.3866 7.75429 62.3232 7.75429C63.2598 7.75429 64.0191 8.51357 64.0191 9.4502C64.0191 10.3868 63.2598 11.1461 62.3232 11.1461Z" fill="url(#paint2_linear_1_5428)"/>
<path fill-rule="evenodd" clip-rule="evenodd" d="M53.2783 12.842C55.1516 12.842 56.6701 11.3235 56.6701 9.4502C56.6701 7.57694 55.1516 6.05837 53.2783 6.05837C51.4051 6.05837 49.8865 7.57694 49.8865 9.4502C49.8865 11.3235 51.4051 12.842 53.2783 12.842ZM53.2783 11.1461C52.3417 11.1461 51.5824 10.3868 51.5824 9.4502C51.5824 8.51357 52.3417 7.75429 53.2783 7.75429C54.2149 7.75429 54.9742 8.51357 54.9742 9.4502C54.9742 10.3868 54.2149 11.1461 53.2783 11.1461Z" fill="url(#paint3_linear_1_5428)"/>
<path fill-rule="evenodd" clip-rule="evenodd" d="M12.578 28.1062C12.578 27.4818 13.0842 26.9756 13.7086 26.9756H40.8444C41.4688 26.9756 41.975 27.4818 41.975 28.1062C41.975 28.7307 41.4688 29.2368 40.8444 29.2368H13.7086C13.0842 29.2368 12.578 28.7307 12.578 28.1062ZM52.4225 64.5795C52.4225 63.9551 52.9287 63.4489 53.5531 63.4489H77.6875C78.3119 63.4489 78.8181 63.9551 78.8181 64.5795C78.8181 65.2039 78.3119 65.7101 77.6875 65.7101H53.5531C52.9287 65.7101 52.4225 65.2039 52.4225 64.5795ZM52.4225 73.3808C52.4225 72.7564 52.9287 72.2502 53.5531 72.2502H61.5623C62.1868 72.2502 62.693 72.7564 62.693 73.3808C62.693 74.0052 62.1868 74.5114 61.5623 74.5114H53.5531C52.9287 74.5114 52.4225 74.0052 52.4225 73.3808ZM65.196 73.3808C65.196 72.7564 65.7022 72.2502 66.3266 72.2502H70.4695C71.0939 72.2502 71.6001 72.7564 71.6001 73.3808C71.6001 74.0052 71.0939 74.5114 70.4695 74.5114H66.3266C65.7022 74.5114 65.196 74.0052 65.196 73.3808ZM74.4901 73.3808C74.4901 72.7564 74.9963 72.2502 75.6207 72.2502H77.6875C78.3119 72.2502 78.8181 72.7564 78.8181 73.3808C78.8181 74.0052 78.3119 74.5114 77.6875 74.5114H75.6207C74.9963 74.5114 74.4901 74.0052 74.4901 73.3808ZM52.4225 81.7303C52.4225 81.1059 52.9287 80.5997 53.5531 80.5997H60.4486C61.0731 80.5997 61.5793 81.1059 61.5793 81.7303C61.5793 82.3548 61.0731 82.8609 60.4486 82.8609H53.5531C52.9287 82.8609 52.4225 82.3548 52.4225 81.7303ZM63.668 81.7303C63.668 81.1059 64.1742 80.5997 64.7986 80.5997H71.2201C71.8445 80.5997 72.3507 81.1059 72.3507 81.7303C72.3507 82.3548 71.8445 82.8609 71.2201 82.8609H64.7986C64.1742 82.8609 63.668 82.3548 63.668 81.7303ZM74.4901 81.7303C74.4901 81.1059 74.9963 80.5997 75.6207 80.5997H77.6875C78.3119 80.5997 78.8181 81.1059 78.8181 81.7303C78.8181 82.3548 78.3119 82.8609 77.6875 82.8609H75.6207C74.9963 82.8609 74.4901 82.3548 74.4901 81.7303Z" fill="url(#paint4_linear_1_5428)"/>
<path d="M55.2453 26.6002C55.2453 27.3275 55.1054 27.9355 54.8257 28.4242C54.549 28.91 54.1471 29.2766 53.62 29.5239C53.093 29.7683 52.4585 29.8905 51.7165 29.8905H49.8881V23.4336H51.9153C52.5925 23.4336 53.1799 23.5544 53.6774 23.7958C54.175 24.0343 54.5607 24.3891 54.8345 24.8602C55.1084 25.3283 55.2453 25.9083 55.2453 26.6002ZM53.8232 26.6356C53.8232 26.1586 53.7525 25.767 53.6112 25.4608C53.4728 25.1516 53.2667 24.9235 52.9929 24.7762C52.722 24.629 52.3864 24.5554 51.9859 24.5554H51.2572V28.7599H51.8446C52.513 28.7599 53.0091 28.5817 53.333 28.2255C53.6598 27.8692 53.8232 27.3392 53.8232 26.6356Z" fill="url(#paint5_linear_1_5428)"/>
<path d="M56.08 32.0634C55.9269 32.0634 55.7679 32.0516 55.603 32.028C55.4381 32.0074 55.3012 31.9824 55.1923 31.953V30.893C55.3012 30.9225 55.4043 30.9431 55.5014 30.9548C55.5956 30.9696 55.7031 30.9769 55.8238 30.9769C56.0064 30.9769 56.161 30.9254 56.2876 30.8224C56.4142 30.7222 56.4775 30.5235 56.4775 30.2261V24.9529H57.8245V30.4249C57.8245 30.7252 57.7671 30.999 57.6522 31.2463C57.5374 31.4966 57.3519 31.6953 57.0958 31.8425C56.8396 31.9898 56.501 32.0634 56.08 32.0634ZM56.4201 23.6765C56.4201 23.4233 56.4907 23.2511 56.632 23.1598C56.7763 23.0656 56.95 23.0185 57.1532 23.0185C57.3534 23.0185 57.5256 23.0656 57.6699 23.1598C57.8142 23.2511 57.8863 23.4233 57.8863 23.6765C57.8863 23.9268 57.8142 24.1005 57.6699 24.1977C57.5256 24.2919 57.3534 24.339 57.1532 24.339C56.95 24.339 56.7763 24.2919 56.632 24.1977C56.4907 24.1005 56.4201 23.9268 56.4201 23.6765Z" fill="url(#paint6_linear_1_5428)"/>
<path d="M61.2649 24.8513C61.9274 24.8513 62.4352 24.9956 62.7886 25.2841C63.1419 25.5727 63.3185 26.0114 63.3185 26.6002V29.8905H62.3778L62.1173 29.2192H62.0819C61.9406 29.3958 61.7963 29.5401 61.6491 29.652C61.5019 29.7639 61.3326 29.8463 61.1412 29.8993C60.9498 29.9523 60.7173 29.9788 60.4434 29.9788C60.1519 29.9788 59.8899 29.9229 59.6573 29.811C59.4276 29.6991 59.2466 29.5283 59.1141 29.2987C58.9816 29.0661 58.9153 28.7717 58.9153 28.4154C58.9153 27.8913 59.0994 27.5056 59.4674 27.2583C59.8354 27.008 60.3875 26.8696 61.1236 26.8431L61.9804 26.8166V26.6002C61.9804 26.3411 61.9126 26.1512 61.7772 26.0305C61.6418 25.9098 61.4533 25.8494 61.2119 25.8494C60.9734 25.8494 60.7393 25.8833 60.5097 25.951C60.28 26.0187 60.0504 26.1041 59.8207 26.2072L59.3747 25.2974C59.6367 25.159 59.9297 25.0501 60.2535 24.9706C60.5803 24.8911 60.9175 24.8513 61.2649 24.8513ZM61.9804 27.6028L61.4592 27.6204C61.0235 27.6322 60.7202 27.7102 60.5494 27.8545C60.3816 27.9988 60.2977 28.1887 60.2977 28.4242C60.2977 28.6303 60.358 28.7775 60.4788 28.8659C60.5995 28.9513 60.757 28.9939 60.9513 28.9939C61.2399 28.9939 61.4828 28.9086 61.68 28.7378C61.8802 28.567 61.9804 28.3241 61.9804 28.0091V27.6028Z" fill="url(#paint7_linear_1_5428)"/>
<path d="M67.5142 24.8602C68.0412 24.8602 68.4652 25.0044 68.7861 25.293C69.107 25.5786 69.2675 26.0379 69.2675 26.6709V29.8905H67.9205V27.0065C67.9205 26.6532 67.8557 26.3868 67.7261 26.2072C67.5995 26.0276 67.3993 25.9378 67.1255 25.9378C66.7133 25.9378 66.4321 26.0776 66.282 26.3573C66.1318 26.637 66.0567 27.0404 66.0567 27.5674V29.8905H64.7097V24.9529H65.7387L65.9198 25.5844H65.9949C66.1009 25.4137 66.2319 25.2753 66.388 25.1693C66.547 25.0633 66.7221 24.9853 66.9135 24.9352C67.1078 24.8852 67.3081 24.8602 67.5142 24.8602Z" fill="url(#paint8_linear_1_5428)"/>
<path d="M72.0984 32.0634C71.4095 32.0634 70.8824 31.9427 70.5173 31.7012C70.1552 31.4627 69.9741 31.1271 69.9741 30.6943C69.9741 30.3969 70.0669 30.1481 70.2523 29.9479C70.4378 29.7477 70.7102 29.6049 71.0694 29.5195C70.931 29.4606 70.8103 29.3649 70.7072 29.2324C70.6042 29.097 70.5527 28.9542 70.5527 28.804C70.5527 28.6156 70.6071 28.4596 70.7161 28.3359C70.825 28.2093 70.9825 28.0856 71.1886 27.9649C70.9295 27.853 70.7234 27.6734 70.5703 27.4261C70.4202 27.1788 70.3451 26.8873 70.3451 26.5517C70.3451 26.1924 70.4231 25.8877 70.5792 25.6374C70.7382 25.3842 70.9678 25.1914 71.2681 25.0589C71.5714 24.9264 71.9394 24.8602 72.3722 24.8602C72.4635 24.8602 72.5695 24.866 72.6902 24.8778C72.8109 24.8896 72.9214 24.9028 73.0215 24.9176C73.1245 24.9323 73.1937 24.9441 73.229 24.9529H74.9514V25.6374L74.1786 25.8362C74.2492 25.9451 74.3022 26.0614 74.3376 26.1851C74.3729 26.3087 74.3906 26.4398 74.3906 26.5781C74.3906 27.1081 74.2051 27.5218 73.8341 27.8192C73.466 28.1136 72.9537 28.2608 72.2972 28.2608C72.1411 28.252 71.9939 28.2402 71.8555 28.2255C71.7878 28.2785 71.7363 28.3344 71.7009 28.3933C71.6656 28.4522 71.6479 28.514 71.6479 28.5788C71.6479 28.6436 71.6744 28.698 71.7274 28.7422C71.7834 28.7834 71.8658 28.8158 71.9748 28.8394C72.0866 28.86 72.225 28.8703 72.3899 28.8703H73.229C73.7708 28.8703 74.183 28.9866 74.4656 29.2192C74.7512 29.4518 74.894 29.7933 74.894 30.2438C74.894 30.8209 74.6526 31.2684 74.1697 31.5864C73.6898 31.9044 72.9994 32.0634 72.0984 32.0634ZM72.1558 31.1845C72.4768 31.1845 72.7521 31.1536 72.9817 31.0918C73.2143 31.0329 73.3924 30.9475 73.5161 30.8356C73.6398 30.7267 73.7016 30.5956 73.7016 30.4425C73.7016 30.3189 73.6648 30.2202 73.5912 30.1466C73.5205 30.076 73.4116 30.0259 73.2644 29.9965C73.1201 29.967 72.9346 29.9523 72.7079 29.9523H72.0101C71.8452 29.9523 71.6965 29.9788 71.564 30.0318C71.4345 30.0848 71.3314 30.1584 71.2549 30.2526C71.1783 30.3498 71.1401 30.4617 71.1401 30.5883C71.1401 30.7738 71.2284 30.9195 71.405 31.0255C71.5846 31.1315 71.8349 31.1845 72.1558 31.1845ZM72.3722 27.4394C72.6255 27.4394 72.8109 27.3613 72.9287 27.2053C73.0465 27.0492 73.1054 26.8372 73.1054 26.5693C73.1054 26.2719 73.0435 26.0497 72.9199 25.9024C72.7992 25.7523 72.6166 25.6772 72.3722 25.6772C72.1249 25.6772 71.9394 25.7523 71.8158 25.9024C71.6921 26.0497 71.6303 26.2719 71.6303 26.5693C71.6303 26.8372 71.6906 27.0492 71.8114 27.2053C71.935 27.3613 72.122 27.4394 72.3722 27.4394Z" fill="url(#paint9_linear_1_5428)"/>
<path d="M80.2556 27.4129C80.2556 27.8251 80.1997 28.1902 80.0878 28.5081C79.9788 28.8261 79.8184 29.0955 79.6064 29.3163C79.3973 29.5342 79.1441 29.6991 78.8467 29.811C78.5523 29.9229 78.2196 29.9788 77.8486 29.9788C77.5012 29.9788 77.1817 29.9229 76.8903 29.811C76.6017 29.6991 76.35 29.5342 76.1351 29.3163C75.9231 29.0955 75.7582 28.8261 75.6404 28.5081C75.5256 28.1902 75.4682 27.8251 75.4682 27.4129C75.4682 26.8652 75.5653 26.4015 75.7597 26.0217C75.954 25.6419 76.2307 25.3533 76.5899 25.1561C76.9492 24.9588 77.3775 24.8602 77.8751 24.8602C78.3374 24.8602 78.7466 24.9588 79.1029 25.1561C79.4621 25.3533 79.7433 25.6419 79.9464 26.0217C80.1525 26.4015 80.2556 26.8652 80.2556 27.4129ZM76.8417 27.4129C76.8417 27.7367 76.877 28.0091 76.9477 28.2299C77.0183 28.4507 77.1288 28.6171 77.2789 28.729C77.4291 28.8408 77.6249 28.8968 77.8663 28.8968C78.1048 28.8968 78.2976 28.8408 78.4449 28.729C78.595 28.6171 78.7039 28.4507 78.7717 28.2299C78.8423 28.0091 78.8777 27.7367 78.8777 27.4129C78.8777 27.086 78.8423 26.8152 78.7717 26.6002C78.7039 26.3824 78.595 26.2189 78.4449 26.11C78.2947 26.0011 78.0989 25.9466 77.8575 25.9466C77.5012 25.9466 77.2421 26.0688 77.0802 26.3132C76.9212 26.5575 76.8417 26.9241 76.8417 27.4129Z" fill="url(#paint10_linear_1_5428)"/>
<path d="M23.5043 38.1316C24.0902 38.1316 24.5731 38.2022 24.9529 38.3436C25.3357 38.4849 25.6198 38.6983 25.8053 38.9839C25.9908 39.2695 26.0835 39.6302 26.0835 40.066C26.0835 40.3604 26.0276 40.618 25.9157 40.8388C25.8038 41.0597 25.6566 41.2466 25.474 41.3997C25.2915 41.5528 25.0942 41.678 24.8822 41.7751L26.7813 44.5884H25.2621L23.7207 42.1108H22.992V44.5884H21.6229V38.1316H23.5043ZM23.4071 39.2533H22.992V40.9978H23.4336C23.8871 40.9978 24.2109 40.9228 24.4053 40.7726C24.6025 40.6195 24.7012 40.3957 24.7012 40.1013C24.7012 39.7951 24.5952 39.5772 24.3832 39.4477C24.1741 39.3181 23.8488 39.2533 23.4071 39.2533Z" fill="url(#paint11_linear_1_5428)"/>
<path d="M32.0192 39.6508V44.5884H30.9858L30.8047 43.9569H30.734C30.628 44.1247 30.4955 44.2616 30.3365 44.3676C30.1776 44.4736 30.0024 44.5516 29.811 44.6017C29.6196 44.6517 29.4209 44.6767 29.2148 44.6767C28.8615 44.6767 28.5538 44.6149 28.2917 44.4912C28.0297 44.3646 27.8251 44.1688 27.6778 43.9039C27.5336 43.6389 27.4614 43.2944 27.4614 42.8704V39.6508H28.8085V42.5348C28.8085 42.8881 28.8718 43.1545 28.9984 43.3341C29.125 43.5137 29.3266 43.6035 29.6034 43.6035C29.8772 43.6035 30.0922 43.5417 30.2482 43.418C30.4043 43.2914 30.5132 43.1074 30.575 42.866C30.6398 42.6216 30.6722 42.3242 30.6722 41.9739V39.6508H32.0192Z" fill="url(#paint12_linear_1_5428)"/>
<path d="M34.7795 37.7164V39.3152C34.7795 39.5007 34.7736 39.6847 34.7618 39.8672C34.753 40.0498 34.7412 40.1911 34.7265 40.2912H34.7795C34.909 40.0881 35.0857 39.9158 35.3095 39.7745C35.5332 39.6302 35.8232 39.5581 36.1795 39.5581C36.733 39.5581 37.182 39.7745 37.5265 40.2073C37.871 40.6401 38.0432 41.2746 38.0432 42.1108C38.0432 42.6731 37.9637 43.1457 37.8047 43.5285C37.6458 43.9083 37.4235 44.1953 37.1379 44.3897C36.8523 44.581 36.521 44.6767 36.1442 44.6767C35.782 44.6767 35.4964 44.612 35.2874 44.4824C35.0783 44.3529 34.909 44.2071 34.7795 44.0452H34.6867L34.4615 44.5884H33.4325V37.7164H34.7795ZM35.7467 40.6357C35.5111 40.6357 35.3242 40.6843 35.1858 40.7814C35.0474 40.8786 34.9458 41.0243 34.8811 41.2187C34.8192 41.413 34.7854 41.6588 34.7795 41.9562V42.1019C34.7795 42.5819 34.8501 42.9499 34.9915 43.2061C35.1328 43.4593 35.3904 43.5859 35.7644 43.5859C36.0411 43.5859 36.2605 43.4578 36.4224 43.2016C36.5873 42.9455 36.6697 42.576 36.6697 42.0931C36.6697 41.6102 36.5873 41.2466 36.4224 41.0023C36.2575 40.7579 36.0323 40.6357 35.7467 40.6357Z" fill="url(#paint13_linear_1_5428)"/>
<path d="M38.4495 39.6508H39.9246L40.8565 42.4288C40.8859 42.5171 40.911 42.6069 40.9316 42.6982C40.9522 42.7894 40.9699 42.8837 40.9846 42.9808C40.9993 43.078 41.0111 43.1796 41.0199 43.2856H41.0464C41.0641 43.1266 41.0876 42.9779 41.1171 42.8395C41.1495 42.7011 41.1892 42.5642 41.2363 42.4288L42.1505 39.6508H43.5947L41.5057 45.22C41.3791 45.5615 41.2142 45.8456 41.0111 46.0723C40.8079 46.302 40.5739 46.4742 40.3089 46.5891C40.0468 46.7039 39.7583 46.7613 39.4432 46.7613C39.2901 46.7613 39.1577 46.7525 39.0458 46.7348C38.9339 46.7201 38.8382 46.7039 38.7587 46.6862V45.6174C38.8205 45.6322 38.8986 45.6454 38.9928 45.6572C39.087 45.669 39.1856 45.6749 39.2887 45.6749C39.4771 45.6749 39.639 45.6351 39.7745 45.5556C39.9099 45.4761 40.0233 45.3686 40.1145 45.2332C40.2058 45.1007 40.278 44.955 40.331 44.796L40.4104 44.5531L38.4495 39.6508Z" fill="url(#paint14_linear_1_5428)"/>
<path d="M51.1424 42.1108C51.1424 42.523 51.0865 42.8881 50.9746 43.2061C50.8656 43.524 50.7052 43.7934 50.4932 44.0143C50.2841 44.2321 50.0309 44.397 49.7336 44.5089C49.4391 44.6208 49.1064 44.6767 48.7354 44.6767C48.388 44.6767 48.0686 44.6208 47.7771 44.5089C47.4885 44.397 47.2368 44.2321 47.0219 44.0143C46.8099 43.7934 46.645 43.524 46.5272 43.2061C46.4124 42.8881 46.355 42.523 46.355 42.1108C46.355 41.5631 46.4521 41.0994 46.6465 40.7196C46.8408 40.3398 47.1176 40.0512 47.4768 39.854C47.836 39.6567 48.2644 39.5581 48.7619 39.5581C49.2242 39.5581 49.6335 39.6567 49.9897 39.854C50.3489 40.0512 50.6301 40.3398 50.8333 40.7196C51.0394 41.0994 51.1424 41.5631 51.1424 42.1108ZM47.7285 42.1108C47.7285 42.4347 47.7638 42.707 47.8345 42.9278C47.9052 43.1486 48.0156 43.315 48.1657 43.4269C48.3159 43.5388 48.5117 43.5947 48.7531 43.5947C48.9916 43.5947 49.1844 43.5388 49.3317 43.4269C49.4818 43.315 49.5908 43.1486 49.6585 42.9278C49.7291 42.707 49.7645 42.4347 49.7645 42.1108C49.7645 41.784 49.7291 41.5131 49.6585 41.2982C49.5908 41.0803 49.4818 40.9169 49.3317 40.8079C49.1815 40.699 48.9857 40.6445 48.7443 40.6445C48.388 40.6445 48.1289 40.7667 47.967 41.0111C47.808 41.2555 47.7285 41.622 47.7285 42.1108Z" fill="url(#paint15_linear_1_5428)"/>
<path d="M55.0598 39.5581C55.5868 39.5581 56.0108 39.7023 56.3317 39.9909C56.6527 40.2765 56.8131 40.7358 56.8131 41.3688V44.5884H55.4661V41.7045C55.4661 41.3512 55.4013 41.0847 55.2718 40.9051C55.1452 40.7255 54.945 40.6357 54.6711 40.6357C54.2589 40.6357 53.9778 40.7755 53.8276 41.0552C53.6774 41.335 53.6024 41.7383 53.6024 42.2654V44.5884H52.2553V39.6508H53.2844L53.4655 40.2824H53.5405C53.6465 40.1116 53.7775 39.9732 53.9336 39.8672C54.0926 39.7612 54.2678 39.6832 54.4592 39.6332C54.6535 39.5831 54.8537 39.5581 55.0598 39.5581Z" fill="url(#paint16_linear_1_5428)"/>
<path d="M62.5368 38.1316C63.1227 38.1316 63.6056 38.2022 63.9854 38.3436C64.3682 38.4849 64.6523 38.6983 64.8378 38.9839C65.0233 39.2695 65.116 39.6302 65.116 40.066C65.116 40.3604 65.0601 40.618 64.9482 40.8388C64.8363 41.0597 64.6891 41.2466 64.5066 41.3997C64.324 41.5528 64.1267 41.678 63.9148 41.7751L65.8138 44.5884H64.2946L62.7532 42.1108H62.0245V44.5884H60.6554V38.1316H62.5368ZM62.4397 39.2533H62.0245V40.9978H62.4662C62.9196 40.9978 63.2435 40.9228 63.4378 40.7726C63.635 40.6195 63.7337 40.3957 63.7337 40.1013C63.7337 39.7951 63.6277 39.5772 63.4157 39.4477C63.2067 39.3181 62.8813 39.2533 62.4397 39.2533Z" fill="url(#paint17_linear_1_5428)"/>
<path d="M68.5432 39.5492C69.2057 39.5492 69.7135 39.6935 70.0669 39.9821C70.4202 40.2706 70.5968 40.7093 70.5968 41.2982V44.5884H69.6561L69.3956 43.9171H69.3602C69.2189 44.0938 69.0746 44.238 68.9274 44.3499C68.7802 44.4618 68.6109 44.5442 68.4195 44.5972C68.2281 44.6502 67.9955 44.6767 67.7217 44.6767C67.4302 44.6767 67.1682 44.6208 66.9356 44.5089C66.7059 44.397 66.5249 44.2263 66.3924 43.9966C66.2599 43.764 66.1936 43.4696 66.1936 43.1133C66.1936 42.5892 66.3777 42.2035 66.7457 41.9562C67.1137 41.7059 67.6658 41.5676 68.4019 41.5411L69.2587 41.5146V41.2982C69.2587 41.0391 69.1909 40.8491 69.0555 40.7284C68.9201 40.6077 68.7316 40.5474 68.4902 40.5474C68.2517 40.5474 68.0176 40.5812 67.788 40.6489C67.5583 40.7167 67.3287 40.802 67.099 40.9051L66.653 39.9953C66.915 39.8569 67.2079 39.748 67.5318 39.6685C67.8586 39.589 68.1958 39.5492 68.5432 39.5492ZM69.2587 42.3007L68.7375 42.3184C68.3018 42.3301 67.9985 42.4082 67.8277 42.5524C67.6599 42.6967 67.576 42.8866 67.576 43.1221C67.576 43.3282 67.6364 43.4755 67.7571 43.5638C67.8778 43.6492 68.0353 43.6919 68.2296 43.6919C68.5182 43.6919 68.7611 43.6065 68.9583 43.4357C69.1585 43.2649 69.2587 43.022 69.2587 42.707V42.3007Z" fill="url(#paint18_linear_1_5428)"/>
<path d="M73.335 39.6508V44.5884H71.988V39.6508H73.335ZM72.6637 37.7164C72.8639 37.7164 73.0362 37.7635 73.1805 37.8577C73.3247 37.949 73.3969 38.1213 73.3969 38.3745C73.3969 38.6247 73.3247 38.7985 73.1805 38.8956C73.0362 38.9898 72.8639 39.0369 72.6637 39.0369C72.4606 39.0369 72.2869 38.9898 72.1426 38.8956C72.0013 38.7985 71.9306 38.6247 71.9306 38.3745C71.9306 38.1213 72.0013 37.949 72.1426 37.8577C72.2869 37.7635 72.4606 37.7164 72.6637 37.7164Z" fill="url(#paint19_linear_1_5428)"/>
<path d="M76.0997 44.5884H74.7527V37.7164H76.0997V44.5884Z" fill="url(#paint20_linear_1_5428)"/>
<path d="M80.9622 43.1221C80.9622 43.4578 80.8827 43.7419 80.7237 43.9745C80.5677 44.2042 80.3336 44.3794 80.0215 44.5001C79.7094 44.6178 79.3208 44.6767 78.8556 44.6767C78.5111 44.6767 78.2152 44.6546 77.9679 44.6105C77.7235 44.5663 77.4762 44.4927 77.2259 44.3897V43.2767C77.4938 43.3974 77.7809 43.4975 78.0871 43.577C78.3963 43.6536 78.6671 43.6919 78.8997 43.6919C79.1618 43.6919 79.3488 43.6536 79.4606 43.577C79.5755 43.4975 79.6329 43.3945 79.6329 43.2679C79.6329 43.1854 79.6093 43.1118 79.5622 43.0471C79.5181 42.9793 79.4209 42.9043 79.2707 42.8218C79.1206 42.7364 78.885 42.626 78.5641 42.4906C78.2549 42.361 78.0003 42.23 77.8 42.0975C77.6028 41.965 77.4556 41.809 77.3584 41.6294C77.2642 41.4468 77.2171 41.2157 77.2171 40.936C77.2171 40.4796 77.3937 40.1366 77.7471 39.907C78.1033 39.6744 78.5788 39.5581 79.1736 39.5581C79.4798 39.5581 79.7713 39.589 80.048 39.6508C80.3277 39.7127 80.6148 39.8113 80.9092 39.9467L80.5029 40.9183C80.2585 40.8123 80.0274 40.7255 79.8095 40.6578C79.5946 40.59 79.3752 40.5562 79.1515 40.5562C78.9542 40.5562 78.8055 40.5827 78.7054 40.6357C78.6053 40.6887 78.5553 40.7697 78.5553 40.8786C78.5553 40.9581 78.5803 41.0288 78.6303 41.0906C78.6833 41.1524 78.7834 41.2216 78.9307 41.2982C79.0808 41.3718 79.3002 41.4675 79.5887 41.5852C79.8684 41.7001 80.1113 41.8208 80.3174 41.9474C80.5235 42.071 80.6825 42.2256 80.7944 42.4111C80.9063 42.5936 80.9622 42.8307 80.9622 43.1221Z" fill="url(#paint21_linear_1_5428)"/>
<path d="M51.2351 59.2863H49.8881V52.8295H53.5891V53.9513H51.2351V55.6163H53.4257V56.7336H51.2351V59.2863Z" fill="url(#paint22_linear_1_5428)"/>
<path d="M56.0932 59.2863H54.7462V52.4143H56.0932V59.2863Z" fill="url(#paint23_linear_1_5428)"/>
<path d="M62.0422 54.3487V59.2863H61.0087L60.8277 58.6548H60.757C60.651 58.8226 60.5185 58.9595 60.3595 59.0655C60.2005 59.1715 60.0253 59.2495 59.834 59.2996C59.6426 59.3496 59.4438 59.3747 59.2377 59.3747C58.8844 59.3747 58.5767 59.3128 58.3147 59.1892C58.0527 59.0626 57.848 58.8668 57.7008 58.6018C57.5565 58.3368 57.4844 57.9923 57.4844 57.5683V54.3487H58.8314V57.2327C58.8314 57.586 58.8947 57.8525 59.0213 58.0321C59.1479 58.2117 59.3496 58.3015 59.6264 58.3015C59.9002 58.3015 60.1151 58.2396 60.2712 58.116C60.4272 57.9894 60.5362 57.8053 60.598 57.5639C60.6628 57.3195 60.6952 57.0222 60.6952 56.6718V54.3487H62.0422Z" fill="url(#paint24_linear_1_5428)"/>
<path d="M65.5356 58.3015C65.6828 58.3015 65.8256 58.2867 65.964 58.2573C66.1053 58.2279 66.2452 58.191 66.3835 58.1469V59.1494C66.2393 59.2142 66.0597 59.2672 65.8447 59.3084C65.6328 59.3526 65.4002 59.3747 65.1469 59.3747C64.8525 59.3747 64.5875 59.3275 64.352 59.2333C64.1194 59.1362 63.9354 58.9698 63.7999 58.7343C63.6674 58.4958 63.6012 58.1645 63.6012 57.7406V55.3601H62.9564V54.7904L63.6983 54.3399L64.087 53.2976H64.9482V54.3487H66.3306V55.3601H64.9482V57.7406C64.9482 57.929 65.0012 58.0703 65.1072 58.1646C65.2161 58.2558 65.3589 58.3015 65.5356 58.3015Z" fill="url(#paint25_linear_1_5428)"/>
<path d="M69.4662 58.3015C69.6134 58.3015 69.7562 58.2867 69.8946 58.2573C70.0359 58.2279 70.1758 58.191 70.3142 58.1469V59.1494C70.1699 59.2142 69.9903 59.2672 69.7754 59.3084C69.5634 59.3526 69.3308 59.3747 69.0776 59.3747C68.7831 59.3747 68.5182 59.3275 68.2826 59.2333C68.05 59.1362 67.866 58.9698 67.7306 58.7343C67.5981 58.4958 67.5318 58.1645 67.5318 57.7406V55.3601H66.887V54.7904L67.629 54.3399L68.0176 53.2976H68.8788V54.3487H70.2612V55.3601H68.8788V57.7406C68.8788 57.929 68.9318 58.0703 69.0378 58.1646C69.1468 58.2558 69.2896 58.3015 69.4662 58.3015Z" fill="url(#paint26_linear_1_5428)"/>
<path d="M73.3527 54.256C73.8091 54.256 74.2021 54.3443 74.5319 54.521C74.8616 54.6947 75.1163 54.9479 75.2959 55.2806C75.4755 55.6133 75.5653 56.0196 75.5653 56.4995V57.1532H72.3811C72.3958 57.533 72.5092 57.8318 72.7211 58.0497C72.9361 58.2647 73.2335 58.3721 73.6133 58.3721C73.9283 58.3721 74.2168 58.3397 74.4789 58.275C74.7409 58.2102 75.0103 58.113 75.2871 57.9835V59.0258C75.0427 59.1465 74.7866 59.2348 74.5186 59.2907C74.2536 59.3467 73.9313 59.3747 73.5514 59.3747C73.0568 59.3747 72.6181 59.2834 72.2353 59.1008C71.8555 58.9183 71.5567 58.6401 71.3388 58.2661C71.1239 57.8922 71.0164 57.4211 71.0164 56.8529C71.0164 56.2758 71.1136 55.7959 71.3079 55.4131C71.5051 55.0274 71.779 54.7389 72.1293 54.5475C72.4797 54.3532 72.8875 54.256 73.3527 54.256ZM73.3615 55.2144C73.0995 55.2144 72.8816 55.2983 72.7079 55.4661C72.5371 55.6339 72.4385 55.8974 72.412 56.2566H74.3022C74.2993 56.0564 74.2625 55.8783 74.1918 55.7223C74.1241 55.5662 74.021 55.4426 73.8827 55.3513C73.7472 55.26 73.5735 55.2144 73.3615 55.2144Z" fill="url(#paint27_linear_1_5428)"/>
<path d="M79.4165 54.256C79.4842 54.256 79.5622 54.2604 79.6505 54.2692C79.7418 54.2751 79.8154 54.284 79.8714 54.2957L79.7698 55.5588C79.7256 55.5441 79.6623 55.5338 79.5799 55.5279C79.5004 55.5191 79.4312 55.5147 79.3723 55.5147C79.1986 55.5147 79.0293 55.5368 78.8644 55.5809C78.7025 55.6251 78.5567 55.6972 78.4272 55.7973C78.2976 55.8945 78.1946 56.024 78.118 56.186C78.0444 56.345 78.0076 56.5408 78.0076 56.7734V59.2863H76.6606V54.3487H77.6808L77.8795 55.179H77.9458C78.043 55.0112 78.1637 54.8581 78.3079 54.7197C78.4552 54.5784 78.6215 54.4665 78.807 54.3841C78.9954 54.2987 79.1986 54.256 79.4165 54.256Z" fill="url(#paint28_linear_1_5428)"/>
<path fill-rule="evenodd" clip-rule="evenodd" d="M24.1464 55.4208C24.191 54.997 24.5483 54.6753 24.9744 54.6753H29.577C30.003 54.6753 30.3604 54.997 30.405 55.4208L30.7937 59.1132C30.8302 59.4607 31.0806 59.7462 31.4159 59.8448C32.2703 60.0962 33.0922 60.4233 33.8739 60.8185C34.1768 60.9717 34.543 60.9417 34.8068 60.7281L37.9642 58.1721C38.2953 57.904 38.7755 57.9292 39.0768 58.2305L42.3313 61.485C42.6326 61.7863 42.6578 62.2665 42.3897 62.5976L39.9997 65.55C39.7741 65.8287 39.7543 66.2192 39.9349 66.5289C40.5212 67.5343 40.9912 68.6159 41.3264 69.7552C41.425 70.0904 41.7105 70.3408 42.058 70.3774L45.7509 70.7661C46.1746 70.8107 46.4963 71.1681 46.4963 71.5941V76.1967C46.4963 76.6228 46.1746 76.9801 45.7509 77.0247L42.058 77.4135C41.7105 77.4501 41.425 77.7005 41.3264 78.0357C41.0262 79.056 40.618 80.03 40.1148 80.9444C39.9459 81.2516 39.9701 81.6319 40.1906 81.9043L42.2373 84.4325C42.5053 84.7637 42.4801 85.2438 42.1789 85.5451L38.9243 88.7996C38.6231 89.1009 38.1429 89.1261 37.8117 88.858L35.2832 86.8111C35.0108 86.5906 34.6305 86.5663 34.3234 86.7353C33.4094 87.2381 32.4358 87.646 31.4161 87.9461C31.0809 88.0447 30.8304 88.3302 30.7939 88.6777L30.4051 92.3706C30.3605 92.7944 30.0032 93.116 29.5771 93.116H24.9745C24.5485 93.116 24.1911 92.7944 24.1465 92.3706L23.7578 88.6777C23.7212 88.3301 23.4708 88.0447 23.1356 87.9461C21.9182 87.5879 20.7667 87.0758 19.7037 86.4324C19.3925 86.244 18.9951 86.2608 18.7124 86.4896L15.9773 88.7038C15.6461 88.9719 15.166 88.9467 14.8647 88.6454L11.6102 85.3909C11.3089 85.0896 11.2837 84.6095 11.5518 84.2783L14.014 81.2367C14.2249 80.9762 14.257 80.6156 14.1099 80.3145C13.7544 79.5866 13.4574 78.8249 13.2252 78.0354C13.1266 77.7002 12.8411 77.4498 12.4936 77.4132L8.80102 77.0245C8.37728 76.9799 8.05559 76.6226 8.05559 76.1965V71.5939C8.05559 71.1678 8.37728 70.8105 8.80102 70.7659L12.4937 70.3772C12.8413 70.3406 13.1267 70.0902 13.2254 69.755C13.5354 68.7013 13.9606 67.697 14.4866 66.7567C14.6589 66.4488 14.6359 66.0656 14.4139 65.7915L11.7042 62.4442C11.4361 62.113 11.4613 61.6329 11.7626 61.3316L15.0171 58.0771C15.3184 57.7758 15.7986 57.7506 16.1297 58.0187L19.5808 60.8124C19.8476 61.0284 20.2185 61.0564 20.523 60.8979C21.3506 60.4671 22.2246 60.1129 23.1355 59.8449C23.4707 59.7463 23.7211 59.4608 23.7577 59.1133L24.1464 55.4208Z" fill="white" fill-opacity="0.01"/>
<path fill-rule="evenodd" clip-rule="evenodd" d="M25.7239 56.3405L25.4137 59.2876C25.3025 60.3436 24.5507 61.1643 23.6055 61.4424C22.7991 61.6797 22.0251 61.9932 21.2919 62.375C20.4327 62.8223 19.3435 62.7628 18.5331 62.1067L15.6646 59.7846L13.4701 61.9791L15.7082 64.7437C16.3826 65.5769 16.4256 66.7014 15.9399 67.5697C15.4739 68.4028 15.0973 69.2922 14.8228 70.225C14.5447 71.1702 13.7241 71.922 12.6681 72.0332L9.72077 72.3434V75.4469L12.6679 75.7572C13.7239 75.8683 14.5446 76.6202 14.8227 77.5655C15.0283 78.2644 15.2912 78.9389 15.6061 79.5836C16.0215 80.434 15.9488 81.4932 15.3083 82.2844L13.3177 84.7434L15.5122 86.9379L17.6647 85.1954C18.524 84.4998 19.6891 84.4771 20.5659 85.0078C21.508 85.5781 22.5279 86.0315 23.6055 86.3486C24.5508 86.6266 25.3027 87.4473 25.4138 88.5033L25.7241 91.4509H28.8276L29.1378 88.5033C29.249 87.4473 30.0009 86.6267 30.9461 86.3486C31.8489 86.083 32.711 85.7217 33.5208 85.2762C34.3871 84.7998 35.5032 84.8468 36.3309 85.5169L38.2769 87.0922L40.4714 84.8977L38.8964 82.9521C38.2262 82.1242 38.1793 81.008 38.6559 80.1417C39.1017 79.3315 39.4632 78.469 39.7289 77.5657C40.007 76.6205 40.8277 75.8686 41.8837 75.7574L44.8311 75.4472V72.3437L41.8837 72.0334C40.8277 71.9223 40.007 71.1704 39.7289 70.2252C39.4322 69.2166 39.016 68.2587 38.4965 67.3678C37.9874 66.4948 38.0199 65.3491 38.7054 64.5023L40.6238 62.1325L38.4293 59.938L35.8545 62.0223C35.053 62.6712 33.9778 62.7369 33.1226 62.3046C32.4302 61.9545 31.7023 61.6648 30.9459 61.4423C30.0007 61.1642 29.2488 60.3435 29.1376 59.2875L28.8274 56.3405H25.7239ZM24.9744 54.6753C24.5483 54.6753 24.191 54.997 24.1464 55.4208L23.7577 59.1133C23.7211 59.4608 23.4707 59.7463 23.1355 59.8449C22.2246 60.1129 21.3506 60.4671 20.523 60.8979C20.2185 61.0564 19.8476 61.0284 19.5808 60.8124L16.1297 58.0187C15.7986 57.7506 15.3184 57.7758 15.0171 58.0771L11.7626 61.3316C11.4613 61.6329 11.4361 62.113 11.7042 62.4442L14.4139 65.7915C14.6359 66.0656 14.6589 66.4488 14.4866 66.7567C13.9606 67.697 13.5354 68.7013 13.2254 69.755C13.1267 70.0902 12.8413 70.3406 12.4937 70.3772L8.80102 70.7659C8.37728 70.8105 8.05559 71.1678 8.05559 71.5939V76.1965C8.05559 76.6226 8.37728 76.9799 8.80102 77.0245L12.4936 77.4132C12.8411 77.4498 13.1266 77.7002 13.2252 78.0354C13.4574 78.8249 13.7544 79.5866 14.1099 80.3145C14.257 80.6156 14.2249 80.9762 14.014 81.2367L11.5518 84.2783C11.2837 84.6095 11.3089 85.0896 11.6102 85.3909L14.8647 88.6454C15.166 88.9467 15.6461 88.9719 15.9773 88.7038L18.7124 86.4896C18.9951 86.2608 19.3925 86.244 19.7037 86.4324C20.7667 87.0758 21.9182 87.5879 23.1356 87.9461C23.4708 88.0447 23.7212 88.3301 23.7578 88.6777L24.1465 92.3706C24.1911 92.7944 24.5485 93.116 24.9745 93.116H29.5771C30.0032 93.116 30.3605 92.7944 30.4051 92.3706L30.7939 88.6777C30.8304 88.3302 31.0809 88.0447 31.4161 87.9461C32.4358 87.646 33.4094 87.2381 34.3234 86.7353C34.6305 86.5663 35.0108 86.5906 35.2832 86.8111L37.8117 88.858C38.1429 89.1261 38.6231 89.1009 38.9243 88.7996L42.1789 85.5451C42.4801 85.2438 42.5053 84.7637 42.2373 84.4325L40.1906 81.9043C39.9701 81.6319 39.9459 81.2516 40.1148 80.9444C40.618 80.03 41.0262 79.056 41.3264 78.0357C41.425 77.7005 41.7105 77.4501 42.058 77.4135L45.7509 77.0247C46.1746 76.9801 46.4963 76.6228 46.4963 76.1967V71.5941C46.4963 71.1681 46.1746 70.8107 45.7509 70.7661L42.058 70.3774C41.7105 70.3408 41.425 70.0904 41.3264 69.7552C40.9912 68.6159 40.5212 67.5343 39.9349 66.5289C39.7543 66.2192 39.7741 65.8287 39.9997 65.55L42.3897 62.5976C42.6578 62.2665 42.6326 61.7863 42.3313 61.485L39.0768 58.2305C38.7755 57.9292 38.2953 57.904 37.9642 58.1721L34.8068 60.7281C34.543 60.9417 34.1768 60.9717 33.8739 60.8185C33.0922 60.4233 32.2703 60.0962 31.4159 59.8448C31.0806 59.7462 30.8302 59.4607 30.7937 59.1132L30.405 55.4208C30.3604 54.997 30.003 54.6753 29.577 54.6753H24.9744Z" fill="url(#paint29_linear_1_5428)"/>
<path d="M34.9165 73.9092C34.9165 78.1215 31.5017 81.5363 27.2894 81.5363C23.0771 81.5363 19.6623 78.1215 19.6623 73.9092C19.6623 69.6968 23.0771 66.282 27.2894 66.282C31.5017 66.282 34.9165 69.6968 34.9165 73.9092Z" fill="white" fill-opacity="0.01"/>
<path fill-rule="evenodd" clip-rule="evenodd" d="M27.2894 79.8711C30.5821 79.8711 33.2513 77.2018 33.2513 73.9092C33.2513 70.6165 30.5821 67.9472 27.2894 67.9472C23.9967 67.9472 21.3275 70.6165 21.3275 73.9092C21.3275 77.2018 23.9967 79.8711 27.2894 79.8711ZM27.2894 81.5363C31.5017 81.5363 34.9165 78.1215 34.9165 73.9092C34.9165 69.6968 31.5017 66.282 27.2894 66.282C23.0771 66.282 19.6623 69.6968 19.6623 73.9092C19.6623 78.1215 23.0771 81.5363 27.2894 81.5363Z" fill="url(#paint30_linear_1_5428)"/>
<defs>
<linearGradient id="paint0_linear_1_5428" x1="7.97352" y1="35.2694" x2="102.194" y2="75.8877" gradientUnits="userSpaceOnUse">
<stop offset="0.0037645" stop-color="#43CCF8"/>
<stop offset="1" stop-color="#6A30F4"/>
</linearGradient>
<linearGradient id="paint1_linear_1_5428" x1="7.97352" y1="35.2694" x2="102.194" y2="75.8877" gradientUnits="userSpaceOnUse">
<stop offset="0.0037645" stop-color="#43CCF8"/>
<stop offset="1" stop-color="#6A30F4"/>
</linearGradient>
<linearGradient id="paint2_linear_1_5428" x1="7.97352" y1="35.2694" x2="102.194" y2="75.8877" gradientUnits="userSpaceOnUse">
<stop offset="0.0037645" stop-color="#43CCF8"/>
<stop offset="1" stop-color="#6A30F4"/>
</linearGradient>
<linearGradient id="paint3_linear_1_5428" x1="7.97352" y1="35.2694" x2="102.194" y2="75.8877" gradientUnits="userSpaceOnUse">
<stop offset="0.0037645" stop-color="#43CCF8"/>
<stop offset="1" stop-color="#6A30F4"/>
</linearGradient>
<linearGradient id="paint4_linear_1_5428" x1="7.97352" y1="35.2694" x2="102.194" y2="75.8877" gradientUnits="userSpaceOnUse">
<stop offset="0.0037645" stop-color="#43CCF8"/>
<stop offset="1" stop-color="#6A30F4"/>
</linearGradient>
<linearGradient id="paint5_linear_1_5428" x1="7.97352" y1="35.2694" x2="102.194" y2="75.8877" gradientUnits="userSpaceOnUse">
<stop offset="0.0037645" stop-color="#43CCF8"/>
<stop offset="1" stop-color="#6A30F4"/>
</linearGradient>
<linearGradient id="paint6_linear_1_5428" x1="7.97352" y1="35.2694" x2="102.194" y2="75.8877" gradientUnits="userSpaceOnUse">
<stop offset="0.0037645" stop-color="#43CCF8"/>
<stop offset="1" stop-color="#6A30F4"/>
</linearGradient>
<linearGradient id="paint7_linear_1_5428" x1="7.97352" y1="35.2694" x2="102.194" y2="75.8877" gradientUnits="userSpaceOnUse">
<stop offset="0.0037645" stop-color="#43CCF8"/>
<stop offset="1" stop-color="#6A30F4"/>
</linearGradient>
<linearGradient id="paint8_linear_1_5428" x1="7.97352" y1="35.2694" x2="102.194" y2="75.8877" gradientUnits="userSpaceOnUse">
<stop offset="0.0037645" stop-color="#43CCF8"/>
<stop offset="1" stop-color="#6A30F4"/>
</linearGradient>
<linearGradient id="paint9_linear_1_5428" x1="7.97352" y1="35.2694" x2="102.194" y2="75.8877" gradientUnits="userSpaceOnUse">
<stop offset="0.0037645" stop-color="#43CCF8"/>
<stop offset="1" stop-color="#6A30F4"/>
</linearGradient>
<linearGradient id="paint10_linear_1_5428" x1="7.97352" y1="35.2694" x2="102.194" y2="75.8877" gradientUnits="userSpaceOnUse">
<stop offset="0.0037645" stop-color="#43CCF8"/>
<stop offset="1" stop-color="#6A30F4"/>
</linearGradient>
<linearGradient id="paint11_linear_1_5428" x1="7.97352" y1="35.2694" x2="102.194" y2="75.8877" gradientUnits="userSpaceOnUse">
<stop offset="0.0037645" stop-color="#43CCF8"/>
<stop offset="1" stop-color="#6A30F4"/>
</linearGradient>
<linearGradient id="paint12_linear_1_5428" x1="7.97352" y1="35.2694" x2="102.194" y2="75.8877" gradientUnits="userSpaceOnUse">
<stop offset="0.0037645" stop-color="#43CCF8"/>
<stop offset="1" stop-color="#6A30F4"/>
</linearGradient>
<linearGradient id="paint13_linear_1_5428" x1="7.97352" y1="35.2694" x2="102.194" y2="75.8877" gradientUnits="userSpaceOnUse">
<stop offset="0.0037645" stop-color="#43CCF8"/>
<stop offset="1" stop-color="#6A30F4"/>
</linearGradient>
<linearGradient id="paint14_linear_1_5428" x1="7.97352" y1="35.2694" x2="102.194" y2="75.8877" gradientUnits="userSpaceOnUse">
<stop offset="0.0037645" stop-color="#43CCF8"/>
<stop offset="1" stop-color="#6A30F4"/>
</linearGradient>
<linearGradient id="paint15_linear_1_5428" x1="7.97352" y1="35.2694" x2="102.194" y2="75.8877" gradientUnits="userSpaceOnUse">
<stop offset="0.0037645" stop-color="#43CCF8"/>
<stop offset="1" stop-color="#6A30F4"/>
</linearGradient>
<linearGradient id="paint16_linear_1_5428" x1="7.97352" y1="35.2694" x2="102.194" y2="75.8877" gradientUnits="userSpaceOnUse">
<stop offset="0.0037645" stop-color="#43CCF8"/>
<stop offset="1" stop-color="#6A30F4"/>
</linearGradient>
<linearGradient id="paint17_linear_1_5428" x1="7.97352" y1="35.2694" x2="102.194" y2="75.8877" gradientUnits="userSpaceOnUse">
<stop offset="0.0037645" stop-color="#43CCF8"/>
<stop offset="1" stop-color="#6A30F4"/>
</linearGradient>
<linearGradient id="paint18_linear_1_5428" x1="7.97352" y1="35.2694" x2="102.194" y2="75.8877" gradientUnits="userSpaceOnUse">
<stop offset="0.0037645" stop-color="#43CCF8"/>
<stop offset="1" stop-color="#6A30F4"/>
</linearGradient>
<linearGradient id="paint19_linear_1_5428" x1="7.97352" y1="35.2694" x2="102.194" y2="75.8877" gradientUnits="userSpaceOnUse">
<stop offset="0.0037645" stop-color="#43CCF8"/>
<stop offset="1" stop-color="#6A30F4"/>
</linearGradient>
<linearGradient id="paint20_linear_1_5428" x1="7.97352" y1="35.2694" x2="102.194" y2="75.8877" gradientUnits="userSpaceOnUse">
<stop offset="0.0037645" stop-color="#43CCF8"/>
<stop offset="1" stop-color="#6A30F4"/>
</linearGradient>
<linearGradient id="paint21_linear_1_5428" x1="7.97352" y1="35.2694" x2="102.194" y2="75.8877" gradientUnits="userSpaceOnUse">
<stop offset="0.0037645" stop-color="#43CCF8"/>
<stop offset="1" stop-color="#6A30F4"/>
</linearGradient>
<linearGradient id="paint22_linear_1_5428" x1="7.97352" y1="35.2694" x2="102.194" y2="75.8877" gradientUnits="userSpaceOnUse">
<stop offset="0.0037645" stop-color="#43CCF8"/>
<stop offset="1" stop-color="#6A30F4"/>
</linearGradient>
<linearGradient id="paint23_linear_1_5428" x1="7.97352" y1="35.2694" x2="102.194" y2="75.8877" gradientUnits="userSpaceOnUse">
<stop offset="0.0037645" stop-color="#43CCF8"/>
<stop offset="1" stop-color="#6A30F4"/>
</linearGradient>
<linearGradient id="paint24_linear_1_5428" x1="7.97352" y1="35.2694" x2="102.194" y2="75.8877" gradientUnits="userSpaceOnUse">
<stop offset="0.0037645" stop-color="#43CCF8"/>
<stop offset="1" stop-color="#6A30F4"/>
</linearGradient>
<linearGradient id="paint25_linear_1_5428" x1="7.97352" y1="35.2694" x2="102.194" y2="75.8877" gradientUnits="userSpaceOnUse">
<stop offset="0.0037645" stop-color="#43CCF8"/>
<stop offset="1" stop-color="#6A30F4"/>
</linearGradient>
<linearGradient id="paint26_linear_1_5428" x1="7.97352" y1="35.2694" x2="102.194" y2="75.8877" gradientUnits="userSpaceOnUse">
<stop offset="0.0037645" stop-color="#43CCF8"/>
<stop offset="1" stop-color="#6A30F4"/>
</linearGradient>
<linearGradient id="paint27_linear_1_5428" x1="7.97352" y1="35.2694" x2="102.194" y2="75.8877" gradientUnits="userSpaceOnUse">
<stop offset="0.0037645" stop-color="#43CCF8"/>
<stop offset="1" stop-color="#6A30F4"/>
</linearGradient>
<linearGradient id="paint28_linear_1_5428" x1="7.97352" y1="35.2694" x2="102.194" y2="75.8877" gradientUnits="userSpaceOnUse">
<stop offset="0.0037645" stop-color="#43CCF8"/>
<stop offset="1" stop-color="#6A30F4"/>
</linearGradient>
<linearGradient id="paint29_linear_1_5428" x1="7.97352" y1="35.2694" x2="102.194" y2="75.8877" gradientUnits="userSpaceOnUse">
<stop offset="0.0037645" stop-color="#43CCF8"/>
<stop offset="1" stop-color="#6A30F4"/>
</linearGradient>
<linearGradient id="paint30_linear_1_5428" x1="7.97352" y1="35.2694" x2="102.194" y2="75.8877" gradientUnits="userSpaceOnUse">
<stop offset="0.0037645" stop-color="#43CCF8"/>
<stop offset="1" stop-color="#6A30F4"/>
</linearGradient>
</defs>
</svg>
