<svg width="87" height="99" viewBox="0 0 87 99" fill="none" xmlns="http://www.w3.org/2000/svg">
<path fill-rule="evenodd" clip-rule="evenodd" d="M29.5861 59.8416C30.11 60.0162 30.3932 60.5826 30.2186 61.1065L22.3384 84.747C22.1638 85.2709 21.5974 85.5541 21.0735 85.3794C20.5496 85.2048 20.2664 84.6385 20.441 84.1145L28.3212 60.4741C28.4958 59.9501 29.0622 59.667 29.5861 59.8416ZM18.3448 63.4439C18.7353 63.8344 18.7353 64.4676 18.3448 64.8581L10.5161 72.6867L18.357 80.7183C18.7428 81.1135 18.7352 81.7466 18.34 82.1324C17.9448 82.5182 17.3117 82.5106 16.9259 82.1154L9.08502 74.0839C8.31995 73.3002 8.32748 72.0469 9.1019 71.2725L16.9306 63.4439C17.3211 63.0533 17.9542 63.0533 18.3448 63.4439ZM32.8744 63.6297C33.2649 63.2392 33.8981 63.2392 34.2886 63.6297L42.1097 71.4508C42.8901 72.2311 42.8908 73.4962 42.1114 74.2775L34.2845 82.1232C33.8944 82.5142 33.2613 82.5149 32.8703 82.1249C32.4793 81.7348 32.4785 81.1017 32.8686 80.7107L40.6955 72.865L32.8744 65.0439C32.4839 64.6534 32.4839 64.0202 32.8744 63.6297Z" fill="url(#paint0_linear_1_5110)"/>
<path fill-rule="evenodd" clip-rule="evenodd" d="M16.8872 40.5254C16.8872 39.9037 17.3912 39.3997 18.0129 39.3997H25.6442C26.2659 39.3997 26.7699 39.9037 26.7699 40.5254C26.7699 41.1471 26.2659 41.6511 25.6442 41.6511H18.0129C17.3912 41.6511 16.8872 41.1471 16.8872 40.5254ZM29.2622 40.5254C29.2622 39.9037 29.7662 39.3997 30.388 39.3997H34.513C35.1347 39.3997 35.6387 39.9037 35.6387 40.5254C35.6387 41.1471 35.1347 41.6511 34.513 41.6511H30.388C29.7662 41.6511 29.2622 41.1471 29.2622 40.5254Z" fill="url(#paint1_linear_1_5110)"/>
<path fill-rule="evenodd" clip-rule="evenodd" d="M86.5872 15.0818C86.009 6.6081 78.9521 -0.000732422 70.3317 -0.000732422H16.2942C7.67385 -0.000732422 0.617002 6.6081 0.038768 15.0818C0.0133862 15.4537 0.000488281 15.9146 0.000488281 16.293V76.4846C0.000488281 88.9191 10.0807 98.9993 22.5152 98.9993H64.1108C76.5453 98.9993 86.6255 88.9191 86.6255 76.4845V16.293C86.6255 15.9146 86.6126 15.4537 86.5872 15.0818ZM84.3296 15.0818C83.7561 7.85279 77.7081 2.16522 70.3317 2.16522H16.2942C8.91784 2.16522 2.86985 7.85279 2.29643 15.0818H84.3296ZM2.25196 17.3332H84.374V76.399C84.374 87.5901 75.3019 96.6623 64.1108 96.6623H22.5152C11.3241 96.6623 2.25196 87.5901 2.25196 76.399V17.3332Z" fill="url(#paint2_linear_1_5110)"/>
<path fill-rule="evenodd" clip-rule="evenodd" d="M71.0609 12.7859C72.9261 12.7859 74.4381 11.2739 74.4381 9.40874C74.4381 7.54355 72.9261 6.03153 71.0609 6.03153C69.1957 6.03153 67.6837 7.54355 67.6837 9.40874C67.6837 11.2739 69.1957 12.7859 71.0609 12.7859ZM71.0609 11.0973C70.1283 11.0973 69.3723 10.3413 69.3723 9.40874C69.3723 8.47614 70.1283 7.72013 71.0609 7.72013C71.9935 7.72013 72.7495 8.47614 72.7495 9.40874C72.7495 10.3413 71.9935 11.0973 71.0609 11.0973Z" fill="url(#paint3_linear_1_5110)"/>
<path fill-rule="evenodd" clip-rule="evenodd" d="M62.055 12.7859C63.9202 12.7859 65.4323 11.2739 65.4323 9.40874C65.4323 7.54355 63.9202 6.03153 62.055 6.03153C60.1899 6.03153 58.6778 7.54355 58.6778 9.40874C58.6778 11.2739 60.1899 12.7859 62.055 12.7859ZM62.055 11.0973C61.1225 11.0973 60.3664 10.3413 60.3664 9.40874C60.3664 8.47614 61.1225 7.72013 62.055 7.72013C62.9876 7.72013 63.7436 8.47614 63.7436 9.40874C63.7436 10.3413 62.9876 11.0973 62.055 11.0973Z" fill="url(#paint4_linear_1_5110)"/>
<path fill-rule="evenodd" clip-rule="evenodd" d="M53.0492 12.7859C54.9143 12.7859 56.4264 11.2739 56.4264 9.40874C56.4264 7.54355 54.9143 6.03153 53.0492 6.03153C51.184 6.03153 49.6719 7.54355 49.6719 9.40874C49.6719 11.2739 51.184 12.7859 53.0492 12.7859ZM53.0492 11.0973C52.1166 11.0973 51.3605 10.3413 51.3605 9.40874C51.3605 8.47614 52.1166 7.72013 53.0492 7.72013C53.9817 7.72013 54.7378 8.47614 54.7378 9.40874C54.7378 10.3413 53.9817 11.0973 53.0492 11.0973Z" fill="url(#paint5_linear_1_5110)"/>
<path fill-rule="evenodd" clip-rule="evenodd" d="M12.5243 27.9844C12.5243 27.3626 13.0283 26.8586 13.65 26.8586H40.6688C41.2905 26.8586 41.7945 27.3626 41.7945 27.9844C41.7945 28.6061 41.2905 29.1101 40.6688 29.1101H13.65C13.0283 29.1101 12.5243 28.6061 12.5243 27.9844ZM52.197 64.3004C52.197 63.6787 52.701 63.1747 53.3228 63.1747H77.3531C77.9749 63.1747 78.4789 63.6787 78.4789 64.3004C78.4789 64.9222 77.9749 65.4262 77.3531 65.4262H53.3228C52.701 65.4262 52.197 64.9222 52.197 64.3004ZM52.197 73.0638C52.197 72.442 52.701 71.938 53.3228 71.938H61.2975C61.9192 71.938 62.4232 72.442 62.4232 73.0638C62.4232 73.6855 61.9192 74.1895 61.2975 74.1895H53.3228C52.701 74.1895 52.197 73.6855 52.197 73.0638ZM64.9155 73.0638C64.9155 72.442 65.4195 71.938 66.0412 71.938H70.1662C70.788 71.938 71.292 72.442 71.292 73.0638C71.292 73.6855 70.788 74.1895 70.1662 74.1895H66.0412C65.4195 74.1895 64.9155 73.6855 64.9155 73.0638ZM74.1695 73.0638C74.1695 72.442 74.6735 71.938 75.2952 71.938H77.3531C77.9749 71.938 78.4789 72.442 78.4789 73.0638C78.4789 73.6855 77.9749 74.1895 77.3531 74.1895H75.2952C74.6735 74.1895 74.1695 73.6855 74.1695 73.0638ZM52.197 81.3773C52.197 80.7556 52.701 80.2516 53.3228 80.2516H60.1886C60.8103 80.2516 61.3143 80.7556 61.3143 81.3773C61.3143 81.9991 60.8103 82.5031 60.1886 82.5031H53.3228C52.701 82.5031 52.197 81.9991 52.197 81.3773ZM63.3941 81.3773C63.3941 80.7556 63.8981 80.2516 64.5198 80.2516H70.9136C71.5353 80.2516 72.0393 80.7556 72.0393 81.3773C72.0393 81.9991 71.5353 82.5031 70.9136 82.5031H64.5198C63.8981 82.5031 63.3941 81.9991 63.3941 81.3773ZM74.1695 81.3773C74.1695 80.7556 74.6735 80.2516 75.2952 80.2516H77.3531C77.9749 80.2516 78.4789 80.7556 78.4789 81.3773C78.4789 81.9991 77.9749 82.5031 77.3531 82.5031H75.2952C74.6735 82.5031 74.1695 81.9991 74.1695 81.3773Z" fill="url(#paint6_linear_1_5110)"/>
<path d="M12.7963 54.0346C12.7963 53.4129 13.3003 52.9089 13.922 52.9089H42.4553C43.077 52.9089 43.5811 53.4129 43.5811 54.0346C43.5811 54.6563 43.077 55.1603 42.4553 55.1603H13.922C13.3003 55.1603 12.7963 54.6563 12.7963 54.0346Z" fill="url(#paint7_linear_1_5110)"/>
<path d="M57.6366 38.4999L55.4511 44.929H53.9648L51.7837 38.4999H53.1601L54.3694 42.3257C54.3899 42.3902 54.4236 42.5118 54.4705 42.6907C54.5174 42.8666 54.5643 43.0542 54.6112 43.2535C54.6611 43.45 54.6948 43.6127 54.7124 43.7417C54.73 43.6127 54.7607 43.45 54.8047 43.2535C54.8516 43.0571 54.8971 42.871 54.941 42.6951C54.9879 42.5162 55.0216 42.3931 55.0422 42.3257L56.2603 38.4999H57.6366Z" fill="url(#paint8_linear_1_5110)"/>
<path d="M62.8564 40.0127V44.929H61.8274L61.6471 44.3001H61.5767C61.4712 44.4672 61.3393 44.6035 61.181 44.7091C61.0226 44.8146 60.8482 44.8923 60.6577 44.9422C60.4671 44.992 60.2692 45.0169 60.064 45.0169C59.7122 45.0169 59.4059 44.9553 59.145 44.8322C58.884 44.7062 58.6803 44.5112 58.5337 44.2474C58.3901 43.9835 58.3182 43.6405 58.3182 43.2184V40.0127H59.6594V42.8842C59.6594 43.236 59.7225 43.5013 59.8485 43.6801C59.9746 43.8589 60.1754 43.9483 60.451 43.9483C60.7236 43.9483 60.9376 43.8868 61.093 43.7636C61.2484 43.6376 61.3568 43.4544 61.4184 43.214C61.4829 42.9706 61.5152 42.6746 61.5152 42.3257V40.0127H62.8564Z" fill="url(#paint9_linear_1_5110)"/>
<path d="M66.2907 39.9203C66.7451 39.9203 67.1365 40.0083 67.4648 40.1842C67.7932 40.3571 68.0468 40.6092 68.2256 40.9405C68.4044 41.2718 68.4938 41.6763 68.4938 42.1542V42.805H65.3233C65.338 43.1832 65.4508 43.4807 65.6619 43.6977C65.8759 43.9117 66.172 44.0187 66.5502 44.0187C66.8639 44.0187 67.1512 43.9864 67.4121 43.922C67.673 43.8575 67.9412 43.7607 68.2168 43.6317V44.6695C67.9735 44.7897 67.7184 44.8777 67.4517 44.9334C67.1878 44.9891 66.8668 45.0169 66.4886 45.0169C65.9961 45.0169 65.5593 44.926 65.1782 44.7443C64.8 44.5625 64.5025 44.2855 64.2855 43.9132C64.0715 43.5408 63.9645 43.0718 63.9645 42.506C63.9645 41.9314 64.0612 41.4535 64.2547 41.0724C64.4512 40.6884 64.7238 40.4011 65.0727 40.2105C65.4215 40.0171 65.8275 39.9203 66.2907 39.9203ZM66.2995 40.8745C66.0386 40.8745 65.8217 40.9581 65.6487 41.1252C65.4787 41.2923 65.3805 41.5547 65.3541 41.9123H67.2362C67.2333 41.713 67.1966 41.5356 67.1262 41.3802C67.0588 41.2249 66.9562 41.1017 66.8184 41.0109C66.6836 40.92 66.5106 40.8745 66.2995 40.8745Z" fill="url(#paint10_linear_1_5110)"/>
<path d="M71.3566 46.8198C71.1807 46.8198 71.0267 46.8096 70.8948 46.7891C70.76 46.7715 70.6456 46.7495 70.5518 46.7231V45.5886C70.6456 45.6091 70.7468 45.6281 70.8552 45.6457C70.9608 45.6663 71.0737 45.6765 71.1938 45.6765C71.3522 45.6765 71.4943 45.6457 71.6204 45.5842C71.7465 45.5255 71.8461 45.4127 71.9194 45.2456C71.9927 45.0785 72.0294 44.8381 72.0294 44.5244V38.4999H73.3925V44.5156C73.3925 45.0667 73.3061 45.5109 73.1331 45.848C72.9631 46.1881 72.7241 46.4343 72.4163 46.5868C72.1114 46.7422 71.7582 46.8198 71.3566 46.8198Z" fill="url(#paint11_linear_1_5110)"/>
<path d="M78.3352 43.469C78.3352 43.8032 78.2561 44.0861 78.0978 44.3177C77.9424 44.5464 77.7093 44.7208 77.3986 44.841C77.0878 44.9583 76.7009 45.0169 76.2377 45.0169C75.8947 45.0169 75.6 44.9949 75.3538 44.9509C75.1105 44.907 74.8642 44.8337 74.615 44.7311V43.6229C74.8818 43.7431 75.1676 43.8428 75.4725 43.922C75.7803 43.9982 76.05 44.0363 76.2816 44.0363C76.5426 44.0363 76.7287 43.9982 76.8401 43.922C76.9545 43.8428 77.0116 43.7402 77.0116 43.6141C77.0116 43.532 76.9882 43.4588 76.9413 43.3943C76.8973 43.3268 76.8005 43.2521 76.651 43.17C76.5015 43.085 76.267 42.975 75.9474 42.8402C75.6396 42.7112 75.386 42.5807 75.1867 42.4488C74.9903 42.3169 74.8437 42.1615 74.7469 41.9827C74.6531 41.8009 74.6062 41.5708 74.6062 41.2923C74.6062 40.8379 74.7821 40.4964 75.1339 40.2677C75.4886 40.0361 75.9621 39.9203 76.5543 39.9203C76.8592 39.9203 77.1494 39.9511 77.425 40.0127C77.7035 40.0742 77.9893 40.1724 78.2825 40.3073L77.8779 41.2747C77.6346 41.1692 77.4045 41.0827 77.1875 41.0153C76.9735 40.9478 76.7551 40.9141 76.5323 40.9141C76.3359 40.9141 76.1878 40.9405 76.0882 40.9933C75.9885 41.046 75.9386 41.1267 75.9386 41.2351C75.9386 41.3143 75.9636 41.3846 76.0134 41.4462C76.0662 41.5078 76.1658 41.5767 76.3124 41.6529C76.4619 41.7262 76.6803 41.8215 76.9676 41.9387C77.2461 42.0531 77.488 42.1732 77.6932 42.2993C77.8984 42.4224 78.0567 42.5763 78.1681 42.761C78.2795 42.9428 78.3352 43.1788 78.3352 43.469Z" fill="url(#paint12_linear_1_5110)"/>
<path d="M57.0848 24.7668C57.6682 24.7668 58.1489 24.8372 58.5271 24.9779C58.9082 25.1186 59.1911 25.3312 59.3758 25.6155C59.5605 25.8999 59.6529 26.259 59.6529 26.6929C59.6529 26.9861 59.5972 27.2426 59.4858 27.4625C59.3744 27.6823 59.2278 27.8685 59.046 28.0209C58.8643 28.1734 58.6678 28.298 58.4568 28.3947L60.3476 31.1959H58.8349L57.3002 28.7289H56.5747V31.1959H55.2115V24.7668H57.0848ZM56.988 25.8838H56.5747V27.6208H57.0144C57.4659 27.6208 57.7884 27.546 57.9818 27.3965C58.1783 27.2441 58.2765 27.0212 58.2765 26.7281C58.2765 26.4232 58.1709 26.2063 57.9599 26.0773C57.7517 25.9483 57.4278 25.8838 56.988 25.8838Z" fill="url(#paint13_linear_1_5110)"/>
<path d="M63.0784 26.1872C63.5328 26.1872 63.9242 26.2752 64.2525 26.4511C64.5809 26.624 64.8345 26.8761 65.0133 27.2074C65.1921 27.5387 65.2815 27.9432 65.2815 28.4211V29.0719H62.111C62.1257 29.4501 62.2385 29.7476 62.4496 29.9646C62.6636 30.1786 62.9597 30.2856 63.3379 30.2856C63.6516 30.2856 63.9389 30.2533 64.1998 30.1888C64.4607 30.1244 64.7289 30.0276 65.0045 29.8986V30.9364C64.7612 31.0566 64.5061 31.1446 64.2393 31.2003C63.9755 31.256 63.6545 31.2838 63.2763 31.2838C62.7838 31.2838 62.347 31.1929 61.9659 31.0112C61.5877 30.8294 61.2902 30.5524 61.0732 30.1801C60.8592 29.8077 60.7522 29.3387 60.7522 28.7729C60.7522 28.1983 60.8489 27.7204 61.0424 27.3393C61.2389 26.9553 61.5115 26.668 61.8604 26.4774C62.2092 26.284 62.6152 26.1872 63.0784 26.1872ZM63.0872 27.1414C62.8263 27.1414 62.6094 27.225 62.4364 27.3921C62.2664 27.5592 62.1682 27.8216 62.1418 28.1792H64.0239C64.0209 27.9799 63.9843 27.8025 63.9139 27.6471C63.8465 27.4918 63.7439 27.3686 63.6061 27.2778C63.4713 27.1869 63.2983 27.1414 63.0872 27.1414Z" fill="url(#paint14_linear_1_5110)"/>
<path d="M68.3861 26.1784C69.0457 26.1784 69.5514 26.3221 69.9032 26.6094C70.255 26.8967 70.4309 27.3335 70.4309 27.9198V31.1959H69.4942L69.2348 30.5274H69.1996C69.0589 30.7033 68.9153 30.847 68.7687 30.9584C68.6221 31.0698 68.4535 31.1519 68.263 31.2047C68.0724 31.2574 67.8408 31.2838 67.5682 31.2838C67.278 31.2838 67.017 31.2281 66.7854 31.1167C66.5568 31.0053 66.3765 30.8353 66.2446 30.6066C66.1126 30.375 66.0467 30.0818 66.0467 29.7271C66.0467 29.2053 66.2299 28.8213 66.5964 28.575C66.9628 28.3258 67.5125 28.188 68.2454 28.1616L69.0985 28.1353V27.9198C69.0985 27.6618 69.0311 27.4727 68.8962 27.3525C68.7613 27.2323 68.5737 27.1722 68.3333 27.1722C68.0959 27.1722 67.8628 27.2059 67.6341 27.2734C67.4055 27.3408 67.1768 27.4258 66.9482 27.5284L66.504 26.6226C66.7649 26.4848 67.0566 26.3763 67.3791 26.2971C67.7045 26.218 68.0402 26.1784 68.3861 26.1784ZM69.0985 28.918L68.5796 28.9356C68.1457 28.9473 67.8438 29.025 67.6737 29.1686C67.5066 29.3123 67.4231 29.5014 67.4231 29.7359C67.4231 29.9411 67.4832 30.0877 67.6034 30.1757C67.7236 30.2607 67.8804 30.3032 68.0739 30.3032C68.3612 30.3032 68.603 30.2182 68.7995 30.0481C68.9988 29.8781 69.0985 29.6362 69.0985 29.3226V28.918Z" fill="url(#paint15_linear_1_5110)"/>
<path d="M73.8125 31.2838C73.3259 31.2838 72.911 31.1959 72.568 31.02C72.225 30.8411 71.9641 30.5656 71.7853 30.1932C71.6065 29.8209 71.5171 29.3445 71.5171 28.7641C71.5171 28.1631 71.6182 27.6735 71.8205 27.2954C72.0257 26.9142 72.3086 26.6343 72.6692 26.4555C73.0327 26.2766 73.4534 26.1872 73.9312 26.1872C74.2713 26.1872 74.5645 26.2209 74.8107 26.2883C75.0599 26.3528 75.2768 26.4305 75.4615 26.5214L75.0658 27.5592C74.8547 27.4742 74.6583 27.4053 74.4765 27.3525C74.2948 27.2968 74.113 27.269 73.9312 27.269C73.6967 27.269 73.5017 27.3247 73.3464 27.4361C73.191 27.5445 73.0752 27.7087 72.999 27.9286C72.9228 28.1485 72.8847 28.424 72.8847 28.7553C72.8847 29.0807 72.9257 29.3504 73.0078 29.5644C73.0899 29.7784 73.2086 29.9382 73.364 30.0437C73.5193 30.1463 73.7084 30.1976 73.9312 30.1976C74.2097 30.1976 74.4575 30.161 74.6744 30.0877C74.8913 30.0115 75.1024 29.9059 75.3076 29.7711V30.9188C75.1024 31.0478 74.8869 31.1402 74.6612 31.1959C74.4384 31.2545 74.1555 31.2838 73.8125 31.2838Z" fill="url(#paint16_linear_1_5110)"/>
<path d="M78.5221 30.2152C78.6687 30.2152 78.8109 30.2006 78.9487 30.1713C79.0894 30.1419 79.2286 30.1053 79.3664 30.0613V31.0595C79.2228 31.124 79.0439 31.1768 78.8299 31.2178C78.6189 31.2618 78.3873 31.2838 78.1352 31.2838C77.842 31.2838 77.5781 31.2369 77.3436 31.1431C77.112 31.0463 76.9288 30.8807 76.7939 30.6462C76.662 30.4087 76.5961 30.0789 76.5961 29.6568V27.2866H75.954V26.7193L76.6928 26.2708L77.0798 25.233H77.9373V26.2796H79.3137V27.2866H77.9373V29.6568C77.9373 29.8444 77.99 29.9851 78.0956 30.0789C78.204 30.1698 78.3462 30.2152 78.5221 30.2152Z" fill="url(#paint17_linear_1_5110)"/>
<defs>
<linearGradient id="paint0_linear_1_5110" x1="7.93965" y1="35.1167" x2="101.755" y2="75.5599" gradientUnits="userSpaceOnUse">
<stop offset="0.0037645" stop-color="#43CCF8"/>
<stop offset="1" stop-color="#6A30F4"/>
</linearGradient>
<linearGradient id="paint1_linear_1_5110" x1="7.93965" y1="35.1167" x2="101.755" y2="75.5599" gradientUnits="userSpaceOnUse">
<stop offset="0.0037645" stop-color="#43CCF8"/>
<stop offset="1" stop-color="#6A30F4"/>
</linearGradient>
<linearGradient id="paint2_linear_1_5110" x1="7.93965" y1="35.1167" x2="101.755" y2="75.5599" gradientUnits="userSpaceOnUse">
<stop offset="0.0037645" stop-color="#43CCF8"/>
<stop offset="1" stop-color="#6A30F4"/>
</linearGradient>
<linearGradient id="paint3_linear_1_5110" x1="7.93965" y1="35.1167" x2="101.755" y2="75.5599" gradientUnits="userSpaceOnUse">
<stop offset="0.0037645" stop-color="#43CCF8"/>
<stop offset="1" stop-color="#6A30F4"/>
</linearGradient>
<linearGradient id="paint4_linear_1_5110" x1="7.93965" y1="35.1167" x2="101.755" y2="75.5599" gradientUnits="userSpaceOnUse">
<stop offset="0.0037645" stop-color="#43CCF8"/>
<stop offset="1" stop-color="#6A30F4"/>
</linearGradient>
<linearGradient id="paint5_linear_1_5110" x1="7.93965" y1="35.1167" x2="101.755" y2="75.5599" gradientUnits="userSpaceOnUse">
<stop offset="0.0037645" stop-color="#43CCF8"/>
<stop offset="1" stop-color="#6A30F4"/>
</linearGradient>
<linearGradient id="paint6_linear_1_5110" x1="7.93965" y1="35.1167" x2="101.755" y2="75.5599" gradientUnits="userSpaceOnUse">
<stop offset="0.0037645" stop-color="#43CCF8"/>
<stop offset="1" stop-color="#6A30F4"/>
</linearGradient>
<linearGradient id="paint7_linear_1_5110" x1="7.93965" y1="35.1167" x2="101.755" y2="75.5599" gradientUnits="userSpaceOnUse">
<stop offset="0.0037645" stop-color="#43CCF8"/>
<stop offset="1" stop-color="#6A30F4"/>
</linearGradient>
<linearGradient id="paint8_linear_1_5110" x1="7.93965" y1="35.1167" x2="101.755" y2="75.5599" gradientUnits="userSpaceOnUse">
<stop offset="0.0037645" stop-color="#43CCF8"/>
<stop offset="1" stop-color="#6A30F4"/>
</linearGradient>
<linearGradient id="paint9_linear_1_5110" x1="7.93965" y1="35.1167" x2="101.755" y2="75.5599" gradientUnits="userSpaceOnUse">
<stop offset="0.0037645" stop-color="#43CCF8"/>
<stop offset="1" stop-color="#6A30F4"/>
</linearGradient>
<linearGradient id="paint10_linear_1_5110" x1="7.93965" y1="35.1167" x2="101.755" y2="75.5599" gradientUnits="userSpaceOnUse">
<stop offset="0.0037645" stop-color="#43CCF8"/>
<stop offset="1" stop-color="#6A30F4"/>
</linearGradient>
<linearGradient id="paint11_linear_1_5110" x1="7.93965" y1="35.1167" x2="101.755" y2="75.5599" gradientUnits="userSpaceOnUse">
<stop offset="0.0037645" stop-color="#43CCF8"/>
<stop offset="1" stop-color="#6A30F4"/>
</linearGradient>
<linearGradient id="paint12_linear_1_5110" x1="7.93965" y1="35.1167" x2="101.755" y2="75.5599" gradientUnits="userSpaceOnUse">
<stop offset="0.0037645" stop-color="#43CCF8"/>
<stop offset="1" stop-color="#6A30F4"/>
</linearGradient>
<linearGradient id="paint13_linear_1_5110" x1="7.93965" y1="35.1167" x2="101.755" y2="75.5599" gradientUnits="userSpaceOnUse">
<stop offset="0.0037645" stop-color="#43CCF8"/>
<stop offset="1" stop-color="#6A30F4"/>
</linearGradient>
<linearGradient id="paint14_linear_1_5110" x1="7.93965" y1="35.1167" x2="101.755" y2="75.5599" gradientUnits="userSpaceOnUse">
<stop offset="0.0037645" stop-color="#43CCF8"/>
<stop offset="1" stop-color="#6A30F4"/>
</linearGradient>
<linearGradient id="paint15_linear_1_5110" x1="7.93965" y1="35.1167" x2="101.755" y2="75.5599" gradientUnits="userSpaceOnUse">
<stop offset="0.0037645" stop-color="#43CCF8"/>
<stop offset="1" stop-color="#6A30F4"/>
</linearGradient>
<linearGradient id="paint16_linear_1_5110" x1="7.93965" y1="35.1167" x2="101.755" y2="75.5599" gradientUnits="userSpaceOnUse">
<stop offset="0.0037645" stop-color="#43CCF8"/>
<stop offset="1" stop-color="#6A30F4"/>
</linearGradient>
<linearGradient id="paint17_linear_1_5110" x1="7.93965" y1="35.1167" x2="101.755" y2="75.5599" gradientUnits="userSpaceOnUse">
<stop offset="0.0037645" stop-color="#43CCF8"/>
<stop offset="1" stop-color="#6A30F4"/>
</linearGradient>
</defs>
</svg>
