<svg width="80" height="74" viewBox="0 0 80 74" fill="none" xmlns="http://www.w3.org/2000/svg">
<path fill-rule="evenodd" clip-rule="evenodd" d="M78.1395 1.82718H1.86047V41.9375H78.1395V1.82718ZM1.86047 0C0.832959 0 0 0.818055 0 1.82718V41.9375C0 42.9466 0.83296 43.7647 1.86047 43.7647H78.1395C79.167 43.7647 80 42.9466 80 41.9375V1.82718C80 0.818055 79.167 0 78.1395 0H1.86047Z" fill="#2DC0C5"/>
<path fill-rule="evenodd" clip-rule="evenodd" d="M21.7781 30.5591C28.1098 30.5591 33.251 25.5035 33.251 19.2569C33.251 13.0103 28.1098 7.95464 21.7781 7.95464C15.4464 7.95464 10.3052 13.0103 10.3052 19.2569C10.3052 25.5035 15.4464 30.5591 21.7781 30.5591ZM21.7781 32.3863C29.1419 32.3863 35.1114 26.508 35.1114 19.2569C35.1114 12.0057 29.1419 6.12746 21.7781 6.12746C14.4143 6.12746 8.44477 12.0057 8.44477 19.2569C8.44477 26.508 14.4143 32.3863 21.7781 32.3863Z" fill="#2DC0C5"/>
<path fill-rule="evenodd" clip-rule="evenodd" d="M21.7789 23.1181C23.9377 23.1181 25.6962 21.3934 25.6962 19.2558C25.6962 17.1182 23.9377 15.3936 21.7789 15.3936C19.62 15.3936 17.8616 17.1182 17.8616 19.2558C17.8616 21.3934 19.62 23.1181 21.7789 23.1181ZM21.7789 24.9452C24.9698 24.9452 27.5566 22.398 27.5566 19.2558C27.5566 16.1137 24.9698 13.5664 21.7789 13.5664C18.5879 13.5664 16.0011 16.1137 16.0011 19.2558C16.0011 22.398 18.5879 24.9452 21.7789 24.9452Z" fill="#2DC0C5"/>
<path fill-rule="evenodd" clip-rule="evenodd" d="M21.3332 6.56463C21.8469 6.56463 22.2634 6.97366 22.2634 7.47822V14.0046C22.2634 14.5092 21.8469 14.9182 21.3332 14.9182C20.8194 14.9182 20.4029 14.5092 20.4029 14.0046V7.47822C20.4029 6.97366 20.8194 6.56463 21.3332 6.56463ZM8.88626 19.2564C8.88626 18.7518 9.30274 18.3428 9.8165 18.3428H16.4443C16.958 18.3428 17.3745 18.7518 17.3745 19.2564C17.3745 19.761 16.958 20.17 16.4443 20.17H9.8165C9.30274 20.17 8.88626 19.761 8.88626 19.2564ZM18.8139 22.4904C19.2103 22.8115 19.2666 23.3873 18.9397 23.7765L14.6348 28.9025C14.3079 29.2918 13.7217 29.3471 13.3253 29.026C12.929 28.705 12.8727 28.1292 13.1996 27.7399L17.5044 22.6139C17.8313 22.2247 18.4176 22.1694 18.8139 22.4904Z" fill="#2DC0C5"/>
<path fill-rule="evenodd" clip-rule="evenodd" d="M62.6219 7.65844C62.6219 7.15388 63.0384 6.74485 63.5521 6.74485H70.0028L72.0321 12.6967C72.1952 13.1752 71.9325 13.6929 71.4453 13.8531C70.9582 14.0133 70.431 13.7553 70.2679 13.2769L69.009 9.58447L61.2942 19.5326C60.679 20.3259 59.53 20.4883 58.712 19.8976L53.5227 16.1503L47.1871 24.4014C46.8778 24.8043 46.2945 24.8846 45.8843 24.5808C45.4741 24.277 45.3924 23.7042 45.7017 23.3013L52.0372 15.0502C52.6506 14.2514 53.804 14.0856 54.6248 14.6782L59.8141 18.4256L67.4555 8.57202H63.5521C63.0384 8.57202 62.6219 8.163 62.6219 7.65844Z" fill="#2DC0C5"/>
<path fill-rule="evenodd" clip-rule="evenodd" d="M47.0692 28.2284C47.0692 27.7239 47.4857 27.3149 47.9995 27.3149H71.3328C71.8466 27.3149 72.263 27.7239 72.263 28.2284C72.263 28.733 71.8466 29.142 71.3328 29.142H47.9995C47.4857 29.142 47.0692 28.733 47.0692 28.2284ZM57.7359 34.1367C57.7359 33.6321 58.1524 33.2231 58.6661 33.2231H71.3328C71.8466 33.2231 72.263 33.6321 72.263 34.1367C72.263 34.6412 71.8466 35.0503 71.3328 35.0503H58.6661C58.1524 35.0503 57.7359 34.6412 57.7359 34.1367ZM45.7359 38.2943C45.7359 37.7898 46.1524 37.3807 46.6661 37.3807H65.3328C65.8466 37.3807 66.263 37.7898 66.263 38.2943C66.263 38.7989 65.8466 39.2079 65.3328 39.2079H46.6661C46.1524 39.2079 45.7359 38.7989 45.7359 38.2943Z" fill="#2DC0C5"/>
<path d="M32.8892 13.5664C20.667 13.5664 18.4448 25.6017 18.4448 30.6347V36.3241V52.0794L42.4448 52.4076L53.1114 52.0794C53.0374 44.8582 52.9337 33.7857 53.1114 28.0088C53.2892 22.2318 49.4818 20.4958 47.1114 20.35C46.2225 19.256 44.667 13.5666 32.8892 13.5664Z" fill="#070C2D"/>
<path fill-rule="evenodd" clip-rule="evenodd" d="M47.0691 40.2962V28.8851H48.9296V40.2962C48.9296 47.5507 42.9415 53.4316 35.5549 53.4316C28.1683 53.4316 22.1802 47.5507 22.1802 40.2962V35.0121H24.0407V40.2962C24.0407 46.5416 29.1958 51.6044 35.5549 51.6044C41.914 51.6044 47.0691 46.5416 47.0691 40.2962Z" fill="#2DC0C5"/>
<path d="M35.7781 73.0864V64.5523L29.1114 54.8153L21.0837 56.6746L20.002 57.0492C13.0767 59.4472 8.44477 65.8746 8.44477 73.0864H35.7781Z" />
<path fill-rule="evenodd" clip-rule="evenodd" d="M21.8945 20.661C19.9157 24.1164 19.375 28.2125 19.375 30.6347V52.0745H28.1812V50.7664C28.1812 50.2619 28.5977 49.8528 29.1114 49.8528C29.6252 49.8528 30.0417 50.2619 30.0417 50.7664V54.5367L35.7781 62.915L41.5145 54.5367V50.7664C41.5145 50.2619 41.931 49.8528 42.4448 49.8528C42.9585 49.8528 43.375 50.2619 43.375 50.7664V52.0794H52.1719C52.0991 44.8025 52.0106 33.5401 52.1816 27.9812C52.2639 25.3089 51.4299 23.6916 50.4175 22.7217C49.3806 21.7285 48.0616 21.3238 47.0533 21.2617L46.6416 21.2364L46.3843 20.9198C46.224 20.7225 46.0689 20.4543 45.9367 20.2256L45.9098 20.1791C45.7606 19.9212 45.5963 19.6373 45.3905 19.3264C44.9745 18.698 44.3913 17.964 43.5004 17.2597C41.7316 15.8614 38.6207 14.4801 32.8892 14.48C27.1676 14.48 23.841 17.2619 21.8945 20.661ZM43.375 53.9065V54.0921L50.7347 55.7967L52.1034 56.2706C59.257 58.7477 64.0417 65.3871 64.0417 72.8366C64.0417 73.4791 63.5113 74 62.8571 74H8.44477C7.93101 74 7.51453 73.591 7.51453 73.0864C7.51453 65.4872 12.3953 58.7145 19.6927 56.1876L20.8215 55.7967L28.1812 54.0921V53.9017H17.5145V30.6347C17.5145 28.0239 18.085 23.5858 20.2729 19.7653C22.493 15.8886 26.3886 12.6528 32.8892 12.6528C38.9355 12.6529 42.4913 14.1164 44.6669 15.8363C45.7483 16.6912 46.4567 17.5847 46.9504 18.3306C47.1869 18.6879 47.3746 19.0124 47.5219 19.2669L47.5369 19.293C47.5795 19.3665 47.6165 19.43 47.6489 19.4848C48.9295 19.6545 50.4624 20.2123 51.7165 21.4137C53.1559 22.7926 54.1368 24.9317 54.0412 28.0364C53.8642 33.7904 53.9675 45.7542 54.0416 52.9837L54.0511 53.9065H43.375ZM28.6986 55.8496L22.5768 57.2675L28.9864 67.0701L34.4309 64.2219L28.6986 55.8496ZM34.8479 66.074V72.1728H9.40126C9.77259 65.7241 14.052 60.0782 20.3113 57.9108L20.6987 57.7767L28.3476 69.4745L34.8479 66.074ZM36.7083 72.1728V66.074L43.2086 69.4745L50.8575 57.7767L51.4847 57.9938C57.681 60.1394 61.8935 65.7702 62.167 72.1728H36.7083ZM48.9794 57.2675L42.8576 55.8496L37.1253 64.2219L42.5698 67.0701L48.9794 57.2675ZM36.7797 23.5685L37.5543 25.9837C37.8005 26.7515 38.0525 27.9496 37.985 29.2272C37.9465 29.9543 37.8023 30.7347 37.4752 31.4797C41.9916 31.3284 46.5318 30.6523 49.2109 26.4314C49.4827 26.0032 50.0564 25.8724 50.4924 26.1394C50.9284 26.4063 51.0615 26.9698 50.7897 27.3979C47.153 33.1277 40.6325 33.2741 35.7339 33.3459L33.4445 33.3794L35.0613 31.7872C35.7734 31.086 36.0739 30.1366 36.127 29.1324C36.1338 29.0032 36.1365 28.8745 36.1354 28.747C34.2019 30.9684 30.0705 33.9878 21.3782 36.5428C20.886 36.6875 20.3676 36.4129 20.2203 35.9295C20.073 35.4462 20.3525 34.937 20.8447 34.7924C32.618 31.3317 35.2882 27.1586 35.8057 25.9131L36.7797 23.5685Z" fill="#2DC0C5"/>
</svg>
