<svg width="193" height="100" viewBox="0 0 193 100" fill="none" xmlns="http://www.w3.org/2000/svg">
<path d="M93.3709 5.51476V3.95726C93.1953 1.77679 91.4245 0.0572532 89.2332 0H89.01C86.7964 0.0582235 85.0123 1.80105 84.8635 4.00676V13.1974C89.266 13.1614 92.8758 9.81844 93.3709 5.51476ZM181.751 45.5435C184.303 45.5435 188.198 45.2688 190.529 44.9426C191.949 44.58 193 43.2962 193 41.7503C193 39.9268 191.532 38.45 189.721 38.45C189.721 38.45 189.75 38.4421 189.76 38.4362H180.925C177.481 38.4362 176.291 37.2438 176.291 33.3009V4.28624C176.197 2.06984 174.397 0.297912 172.176 0.297912C169.893 0.297912 168.042 2.15913 168.042 4.45412C168.042 4.45412 168.034 4.4415 168.034 4.43471V33.3009C168.034 43.4553 174.037 45.5435 181.751 45.5435ZM93.3709 41.4912V13.2236C89.0238 13.2411 85.4454 16.4899 84.8635 20.7082V41.325C84.8723 41.3047 84.874 41.2903 84.874 41.2903C84.874 43.6541 86.7811 45.5706 89.1366 45.5706C91.4139 45.5706 93.264 43.7618 93.3709 41.4912ZM136.394 45.5338C138.611 45.5338 140.411 43.7726 140.513 41.5668V28.1064H155.363V41.5009C155.422 43.7306 157.234 45.5259 159.465 45.5259C161.671 45.5259 163.466 43.7647 163.556 41.5618V13.1168C163.556 3.08294 158.148 0.393979 149.955 0.393979H145.858C137.663 0.393979 132.255 3.08294 132.255 13.1168V41.4115C132.277 43.69 134.117 45.5338 136.394 45.5338ZM140.512 13.1168C140.512 8.93441 141.702 7.61856 145.857 7.61856H149.955C154.171 7.61856 155.362 8.93441 155.362 13.1168V21.1187H140.512V13.1168ZM188.615 99.5197H188.807C191.04 99.4674 192.831 97.6585 192.875 95.4129V71.3947C192.875 58.675 186.703 54.675 175.655 54.675C172.207 54.675 165.732 55.2068 162.528 55.6871C160.684 55.985 160.032 56.5206 160.032 58.7312V95.4138C160.054 97.6806 161.894 99.5168 164.152 99.5168C166.43 99.5168 168.284 97.6556 168.284 95.3606V95.3779V62.3129C170.244 62.075 173.51 61.8365 176.482 61.8365C182.183 61.8365 184.56 64.5844 184.56 71.3947V95.51C184.649 97.7109 186.419 99.4721 188.615 99.5197ZM137.227 61.7762C141.661 61.7762 145.117 61.9226 147.719 62.1003C149.553 62.08 151.029 60.5835 151.029 58.7388C151.029 57.2 150.001 55.9171 148.597 55.5153C146.124 55.1476 141.868 54.675 137.229 54.675C130.159 54.675 121.132 58.9126 121.132 73.0638V81.6635C121.132 95.7585 130.637 99.9991 137.05 99.9991C143.169 99.9991 147.029 99.5818 149.997 98.985C150.771 98.8074 151.123 98.33 151.123 97.5518V80.5697C151.107 80.5824 151.094 80.5912 151.094 80.5912C151.094 78.3126 149.255 76.4582 146.985 76.4582C144.899 76.4582 143.192 78.0294 142.931 80.0653V92.7094C141.086 92.8347 139.249 92.8909 137.05 92.8909C133.544 92.8909 129.447 90.1447 129.447 81.6635V73.0638C129.447 64.5844 133.249 61.7762 137.227 61.7762ZM113.409 95.4547V59.32C113.409 57.0224 111.556 55.1544 109.271 55.1544C107.075 55.1544 105.295 56.8768 105.159 59.0476V95.2859C105.18 97.5624 107.018 99.4109 109.296 99.4109C111.508 99.4109 113.3 97.6535 113.409 95.4547ZM89.7755 75.3344L82.649 71.3297C78.789 69.1812 77.7796 67.9888 77.7796 66.0129C77.7796 63.3268 79.6188 61.7762 84.0155 61.7762C87.1661 61.7762 90.3542 61.9403 93.5553 62.1994C95.3666 62.1091 96.8121 60.6156 96.8121 58.7768C96.8121 57.1765 95.7169 55.845 94.2482 55.4588C94.0089 55.4182 93.7502 55.3853 93.4936 55.3482C93.4569 55.3465 93.427 55.3406 93.395 55.3406L93.3961 55.3376C90.834 54.9824 87.2028 54.675 84.3714 54.675C73.3259 54.675 69.5241 59.4482 69.5241 66.0138C69.5241 70.1982 71.0063 73.6615 76.5328 76.9482L84.3714 81.6644C88.2903 83.9932 89.4184 85.1888 89.4184 87.5179C89.4184 90.9821 87.8156 92.8918 82.5312 92.8918C80.8464 92.8918 76.9583 92.7171 74.1733 92.5C72.3147 92.5388 70.8172 94.0562 70.8172 95.9341C70.8172 97.4953 71.8719 98.8035 73.2942 99.2168C73.5027 99.2585 73.7179 99.3003 73.939 99.3362C74.0391 99.3468 74.1339 99.3694 74.2341 99.3694C74.2341 99.3694 74.1985 99.3762 74.1868 99.3809C76.4864 99.7671 79.1035 100 82.4123 100C94.2905 100 98.0339 93.5518 98.0339 87.5188C98.0356 82.7968 96.3074 78.9782 89.7755 75.3344ZM65.2219 45.5435C71.3381 45.5435 75.198 45.1271 78.1654 44.5303C78.9364 44.3479 79.2964 43.8715 79.2964 43.0971V25.5166C79.0457 23.4661 77.325 21.8726 75.2271 21.8726C72.9506 21.8726 71.1046 23.7291 71.1046 26.0192L71.1008 26.0152V38.2618C69.2557 38.3771 67.4173 38.4362 65.2219 38.4362C61.7161 38.4362 57.6189 35.6871 57.6189 27.2108V18.6082C57.6189 10.129 61.4201 7.32356 65.4007 7.32356C70.0479 7.32356 73.6136 7.48271 76.2577 7.67C77.7922 7.53124 79.0744 6.33182 79.2609 4.72873C79.474 2.89566 78.1654 1.23143 76.3464 1.01794C76.3464 1.01794 76.3843 1.00921 76.4092 1.0063C73.8964 0.646282 69.8259 0.214457 65.3996 0.214457C58.3292 0.214457 49.3044 4.45312 49.3044 18.6073V27.2088C49.3056 41.3056 58.8069 45.5435 65.2219 45.5435ZM129.42 3.74282C129.42 1.85151 127.952 0.319259 126.104 0.199901H100.862C100.862 0.203782 100.874 0.211545 100.874 0.211545C98.9253 0.211545 97.3515 1.79523 97.3515 3.75347C97.3515 5.70785 98.9253 7.29153 100.874 7.29153L100.854 7.29735H109.176V41.4988C109.29 43.7376 111.115 45.5174 113.369 45.5174C115.695 45.5174 117.589 43.6241 117.589 41.2776C117.589 41.2776 117.591 41.2921 117.601 41.3088V7.29832H125.966C127.882 7.24688 129.42 5.67874 129.42 3.74282ZM49.9885 61.7762H60.1664C61.9043 61.6879 63.2852 60.2547 63.2852 58.4856C63.2852 56.935 62.2152 55.6424 60.7812 55.2882C60.6306 55.2629 60.4723 55.2406 60.3149 55.2162C60.2089 55.2038 60.1085 55.1862 60.0005 55.1862C60.0005 55.1862 60.0266 55.1785 60.0363 55.1765C58.2587 54.9194 55.6502 54.6738 50.8166 54.6738C43.0937 54.6738 37.0982 56.7562 37.0982 66.9124V87.7576C37.0982 97.905 43.0928 99.9971 50.8166 99.9971C56.4523 99.9971 59.0673 99.6585 60.8555 99.3674C62.2517 98.9791 63.2755 97.705 63.2755 96.1747C63.2755 94.4882 62.0338 93.1121 60.4221 92.89H49.9885C46.5405 92.89 45.2988 91.6944 45.2988 87.7576V80.0497H59.2411H59.2344C61.0754 80.0497 62.5682 78.5447 62.5682 76.695C62.5682 74.9153 61.1931 73.48 59.4552 73.3597H45.2988V66.9115C45.2988 62.9718 46.5405 61.7762 49.9885 61.7762ZM1.54399 44.8303C3.32729 45.1253 9.02946 45.5435 13.2475 45.5435C25.1255 45.5435 31.8912 39.0932 31.8912 27.2681V18.4918C31.8912 6.66662 25.1255 0.216398 13.2475 0.216398C9.02946 0.215427 3.32729 0.631727 1.54399 0.930606C0.532677 1.11013 0 1.5895 0 2.786V42.9738C0 44.1712 0.532677 44.6497 1.54399 44.8303ZM8.25553 7.38273C9.50037 7.32162 11.0482 7.20129 13.2484 7.20129C19.1861 7.20129 23.6944 9.53218 23.6944 18.4908V27.2681C23.6944 36.2276 19.1861 38.5594 13.2484 38.5594C11.0482 38.5594 9.50037 38.4362 8.25553 38.3771V7.38273ZM31.8912 72.9444C31.8912 61.1241 25.1255 54.6738 13.2475 54.6738C9.02946 54.6738 3.32635 55.0874 1.54399 55.3871C0.532677 55.5668 0 56.0421 0 57.2376V97.4324C0 98.6279 0.532677 99.1015 1.54399 99.2877C3.32729 99.5818 9.02946 99.9982 13.2475 99.9982C25.1255 99.9982 31.8912 93.5497 31.8912 81.7235V72.9444ZM23.6935 81.7235C23.6935 90.6794 19.185 93.0103 13.2475 93.0103C11.0473 93.0103 9.4994 92.8909 8.25456 92.8347V61.8365C9.4994 61.7753 11.0473 61.6559 13.2475 61.6559C19.185 61.6559 23.6935 63.9859 23.6935 72.9444V81.7235ZM44.0424 41.4232C44.0424 41.4232 44.0703 41.4988 44.0964 41.6191V3.54679C43.6815 1.63123 41.9976 0.196019 39.9702 0.196019C37.9445 0.196019 36.2605 1.62444 35.8448 3.53224V41.8638C36.0667 43.9444 37.7938 45.5688 39.9191 45.5688C42.1973 45.5697 44.0424 43.7112 44.0424 41.4232Z" fill="black"/>
</svg>
