<svg width="58" height="45" viewBox="0 0 58 45" fill="none" xmlns="http://www.w3.org/2000/svg">
<path fill-rule="evenodd" clip-rule="evenodd" d="M56.0492 20.0753L52.8179 19.6626C52.5843 19.6397 52.3633 19.5454 52.1845 19.3925C52.0056 19.2396 51.8776 19.0352 51.8175 18.807C51.0958 16.2976 49.8086 13.9896 48.0559 12.0624C47.8642 11.8422 47.7576 11.5599 47.7558 11.2672L47.8358 5.38834C47.8425 5.01149 47.7548 4.63901 47.5808 4.30525C47.4068 3.97149 47.152 3.6872 46.84 3.47859C46.5281 3.26998 46.1689 3.14377 45.7957 3.1116C45.4225 3.07943 45.0473 3.14233 44.7046 3.29451L39.2523 5.74066C38.9854 5.84565 38.6889 5.84565 38.422 5.74066C36.9349 5.2292 35.4047 4.85519 33.8501 4.62328C33.2349 3.13258 32.1581 1.8814 30.7798 1.05565C29.4015 0.229903 27.7952 -0.126335 26.1996 0.0398732C24.604 0.206082 23.1042 0.885866 21.9233 1.97821C20.7423 3.07055 19.943 4.51716 19.6443 6.10306C12.6415 8.85121 7.63942 14.4079 6.79907 20.9813L6.25885 20.8404C6.51403 20.0756 6.5997 19.2638 6.50983 18.4621C6.41996 17.6604 6.15673 16.8882 5.73864 16.1997C5.53324 15.8376 5.24419 15.5305 4.89593 15.3044C4.54766 15.0784 4.15043 14.9401 3.73782 14.9012C3.29629 14.9311 2.87271 15.0885 2.51783 15.3545C2.16296 15.6206 1.89185 15.9839 1.737 16.4011C1.54991 16.7705 1.45237 17.1793 1.45237 17.594C1.45237 18.0086 1.54991 18.4174 1.737 18.7868C2.11683 19.4869 2.65909 20.0844 3.31765 20.5283C3.81076 20.8811 4.33286 21.1909 4.87829 21.4545C4.79159 21.6357 4.69155 21.8169 4.57817 21.998C4.38273 22.2355 4.13061 22.4191 3.84542 22.5318C3.56022 22.6445 3.25127 22.6825 2.9475 22.6423C2.2124 22.6489 1.50045 22.3839 0.946682 21.8974C0.841699 21.7923 0.699623 21.7333 0.55152 21.7333C0.403418 21.7333 0.261342 21.7923 0.156359 21.8974C0.0558208 22.0071 0 22.1508 0 22.3C0 22.4493 0.0558208 22.593 0.156359 22.7027C0.903104 23.3879 1.87688 23.7683 2.88748 23.7698C3.38442 23.8186 3.88545 23.7366 4.34143 23.5319C4.79742 23.3272 5.1927 23.0068 5.48854 22.602C5.6386 22.3604 5.75865 22.1289 5.8787 21.8974C6.17882 22.0081 6.46894 22.1088 6.71904 22.1792C6.71904 22.441 6.71904 22.7128 6.71904 22.9745C6.71904 28.9037 10.1204 34.1986 15.4226 37.6112C15.5667 37.7001 15.6891 37.8205 15.7809 37.9633C15.8726 38.1062 15.9314 38.2679 15.9528 38.4366L16.5931 43.9933C16.6205 44.2701 16.7494 44.5266 16.9548 44.7128C17.1602 44.8989 17.4271 45.0014 17.7035 45H22.4255C22.7012 44.9991 22.967 44.8959 23.1719 44.7102C23.3768 44.5245 23.5064 44.2692 23.5359 43.9933L23.746 42.2317C23.7641 42.0752 23.8138 41.924 23.8919 41.7875C23.9701 41.651 24.0752 41.5319 24.2007 41.4377C24.3262 41.3434 24.4695 41.276 24.6218 41.2394C24.7741 41.2028 24.9323 41.198 25.0865 41.2251C26.5622 41.4609 28.0542 41.5787 29.5484 41.5774C30.6979 41.593 31.8473 41.5359 32.9898 41.4062C33.2933 41.3691 33.5991 41.454 33.8408 41.6425C34.0824 41.831 34.2404 42.1079 34.2803 42.4129L34.4404 43.9933C34.4699 44.2692 34.5995 44.5245 34.8044 44.7102C35.0093 44.8959 35.2751 44.9991 35.5508 45H40.2728C40.5492 45.0014 40.8161 44.8989 41.0215 44.7128C41.2268 44.5266 41.3558 44.2701 41.3832 43.9933L41.9835 39.1514C42.0036 38.9707 42.0669 38.7976 42.168 38.6468C42.269 38.4961 42.4048 38.3722 42.5637 38.2856C45.9461 36.4323 48.7251 33.636 50.567 30.2324C50.6524 30.0664 50.7759 29.9231 50.9272 29.8146C51.0786 29.7061 51.2534 29.6353 51.4373 29.6083L55.9992 29.0345C56.5484 28.9727 57.0558 28.7098 57.4248 28.2958C57.7938 27.8819 57.9985 27.3458 58 26.7897V22.3202C58 21.7718 57.8023 21.242 57.4435 20.8291C57.0848 20.4163 56.5893 20.1485 56.0492 20.0753ZM5.22843 20.3975C4.77248 20.1695 4.33437 19.907 3.9179 19.6123C3.41182 19.2734 2.99341 18.8178 2.6974 18.2835C2.58443 18.0714 2.52532 17.8346 2.52532 17.594C2.52532 17.3533 2.58443 17.1165 2.6974 16.9044C3.05754 16.1796 3.4477 16.0286 3.69781 16.0286C3.93145 16.0617 4.15394 16.1502 4.34699 16.2867C4.54004 16.4232 4.69813 16.6038 4.80826 16.8138C5.12551 17.3475 5.32696 17.9428 5.39937 18.5604C5.47179 19.178 5.41353 19.8041 5.22843 20.3975ZM20.6447 6.98891C20.6842 6.56512 20.768 6.14672 20.8948 5.74066C21.2511 4.53244 21.9548 3.45739 22.9174 2.65104C23.8799 1.8447 25.0582 1.34316 26.3036 1.20966C27.549 1.07616 28.8058 1.31667 29.9156 1.90088C31.0254 2.48508 31.9384 3.38682 32.5396 4.49242C32.7548 4.88715 32.9227 5.30616 33.0398 5.74066C33.2333 6.35949 33.3312 7.00456 33.3299 7.6533C33.3331 8.74607 33.0592 9.82161 32.534 10.7781C32.0088 11.7346 31.2498 12.5405 30.3287 13.1194C29.3291 13.0611 28.327 13.0611 27.3275 13.1194C26.2333 13.1875 25.1461 13.3423 24.0761 13.5825C23.0664 12.9458 22.2273 12.0695 21.6326 11.0305C21.0378 9.99144 20.7055 8.82145 20.6647 7.6231C20.6472 7.41219 20.6405 7.20051 20.6447 6.98891ZM56.8795 26.7998C56.8811 27.079 56.7797 27.3489 56.5949 27.5572C56.4101 27.7654 56.155 27.8973 55.8791 27.9272L51.3273 28.501C50.9626 28.5486 50.6147 28.6842 50.3134 28.8963C50.012 29.1084 49.7661 29.3907 49.5966 29.719C47.8391 32.9338 45.1998 35.5721 41.9935 37.3193C41.68 37.4916 41.4121 37.7368 41.212 38.0345C41.0119 38.3322 40.8853 38.6737 40.843 39.0306L40.2427 43.8725H35.5508L35.3507 42.272C35.3186 41.9715 35.2272 41.6804 35.082 41.4159C34.9367 41.1513 34.7406 40.9185 34.5049 40.7311C34.2693 40.5436 33.9989 40.4053 33.7096 40.3242C33.4202 40.2431 33.1177 40.2208 32.8197 40.2587C31.7343 40.3923 30.6419 40.4596 29.5484 40.46C28.1111 40.4593 26.6761 40.3449 25.2566 40.1177C24.9526 40.0681 24.6416 40.0815 24.3429 40.1572C24.0442 40.2328 23.764 40.3691 23.5195 40.5576C23.275 40.7461 23.0713 40.983 22.921 41.2535C22.7708 41.5241 22.677 41.8227 22.6456 42.131L22.4255 43.8927H17.7035L16.9832 38.3058C16.9446 37.9743 16.8352 37.6551 16.6625 37.3702C16.4898 37.0852 16.258 36.8412 15.9828 36.6549C10.9308 33.4034 7.79948 28.4406 7.79948 22.9745C7.79948 16.3407 12.4814 10.3813 19.5243 7.43183C19.5194 7.48877 19.5194 7.54602 19.5243 7.60296C19.5586 8.82168 19.8544 10.0185 20.3914 11.1114C20.9284 12.2043 21.694 13.1675 22.6355 13.9348C22.0308 14.1135 21.4572 14.3852 20.9349 14.7401C20.8753 14.7847 20.8251 14.8408 20.7873 14.9051C20.7495 14.9694 20.7247 15.0406 20.7145 15.1146C20.7042 15.1886 20.7087 15.2639 20.7277 15.3361C20.7466 15.4083 20.7796 15.4761 20.8248 15.5354C20.8682 15.595 20.9231 15.6452 20.9861 15.6832C21.0491 15.7211 21.119 15.746 21.1918 15.7563C21.2645 15.7666 21.3385 15.7622 21.4095 15.7433C21.4805 15.7243 21.547 15.6913 21.6051 15.6461C22.3357 15.1932 23.1428 14.8793 23.9861 14.72C25.0889 14.4685 26.2093 14.3036 27.3375 14.2267C28.559 14.1189 29.7875 14.1189 31.009 14.2267C31.7701 14.2554 32.5152 14.4549 33.1899 14.8106C33.2489 14.8532 33.3157 14.8836 33.3864 14.9C33.4572 14.9165 33.5305 14.9187 33.6021 14.9066C33.6737 14.8944 33.7422 14.8681 33.8037 14.8292C33.8651 14.7902 33.9183 14.7394 33.9602 14.6797C34.0462 14.5582 34.0808 14.4073 34.0564 14.2601C34.032 14.1129 33.9507 13.9814 33.8301 13.8945C33.268 13.5528 32.6409 13.3333 31.9894 13.2503C32.9923 12.339 33.7338 11.1737 34.1368 9.87588C34.5397 8.57804 34.5893 7.1952 34.2803 5.87153C35.5787 6.10459 36.8566 6.4412 38.1019 6.87818C38.6335 7.03218 39.2026 6.98565 39.7025 6.74731L45.1848 4.28102C45.3533 4.20654 45.5375 4.17501 45.7211 4.1892C45.9046 4.2034 46.0819 4.26288 46.2372 4.3624C46.3925 4.46192 46.521 4.5984 46.6114 4.75978C46.7017 4.92117 46.7512 5.10247 46.7554 5.28767L46.6754 11.1665C46.6529 11.7638 46.8649 12.346 47.2656 12.7872C48.8939 14.5902 50.0945 16.7413 50.777 19.0788C50.8809 19.5308 51.1179 19.9407 51.457 20.255C51.7962 20.5693 52.2216 20.7733 52.6778 20.8404L55.9091 21.2431C56.185 21.273 56.4401 21.4048 56.6249 21.6131C56.8097 21.8214 56.9112 22.0913 56.9096 22.3705L56.8795 26.7998Z" fill="url(#paint0_linear_1279_2461)"/>
<path d="M26.7872 11.2269C26.7586 11.2273 26.7302 11.2212 26.7042 11.209C26.6782 11.1968 26.6553 11.1788 26.6372 11.1564C26.6173 11.1369 26.6017 11.1133 26.5913 11.0873C26.581 11.0613 26.5762 11.0334 26.5772 11.0054V10.3713C26.1892 10.3476 25.8107 10.2412 25.4667 10.0592C25.1872 9.91426 24.9494 9.69931 24.7764 9.43507C24.6253 9.20776 24.5388 8.9432 24.5263 8.67001C24.5262 8.61862 24.5439 8.5688 24.5763 8.52908C24.622 8.51508 24.6707 8.51508 24.7164 8.52908H25.5167C25.5721 8.51199 25.6314 8.51199 25.6868 8.52908C25.7277 8.56234 25.7617 8.60339 25.7868 8.64988C25.8345 8.77421 25.9021 8.88983 25.9869 8.99214C26.1042 9.11423 26.248 9.20727 26.4071 9.26394C26.6218 9.34237 26.849 9.37992 27.0774 9.37467C27.4257 9.40876 27.7758 9.33125 28.0778 9.1532C28.1737 9.08954 28.2523 9.0028 28.3064 8.90084C28.3606 8.79889 28.3886 8.68495 28.3879 8.56935C28.3904 8.49084 28.3765 8.41268 28.3473 8.33987C28.318 8.26706 28.2739 8.20122 28.2178 8.14656C28.0653 8.01792 27.8883 7.92201 27.6976 7.86469C27.3907 7.74994 27.0765 7.65578 26.7572 7.58283C26.3741 7.49252 26.0018 7.36089 25.6468 7.19024C25.3697 7.06001 25.1316 6.85863 24.9565 6.60638C24.7899 6.34849 24.6997 6.04822 24.6964 5.74066C24.6921 5.51841 24.7344 5.29773 24.8206 5.09305C24.9067 4.88836 25.0349 4.70428 25.1966 4.55282C25.5783 4.20574 26.0641 3.99673 26.5772 3.95889V3.30457C26.5762 3.27659 26.581 3.2487 26.5913 3.2227C26.6017 3.1967 26.6173 3.17316 26.6372 3.15357C26.6778 3.11502 26.7314 3.09343 26.7872 3.09318H27.3375C27.3932 3.09318 27.4466 3.11545 27.486 3.15509C27.5254 3.19474 27.5476 3.24851 27.5476 3.30457V3.94883C27.9033 3.99483 28.2447 4.11851 28.548 4.31122C28.798 4.474 29.0125 4.68636 29.1782 4.93534C29.306 5.13464 29.3817 5.36316 29.3983 5.59973C29.3976 5.65284 29.376 5.70349 29.3383 5.74066C29.2966 5.758 29.2499 5.758 29.2082 5.74066H28.3779C28.3283 5.75019 28.2774 5.75019 28.2278 5.74066C28.1732 5.70867 28.1308 5.659 28.1078 5.59973C28.0869 5.50007 28.046 5.40578 27.9875 5.32267C27.929 5.23956 27.8542 5.16941 27.7676 5.11654C27.5309 4.98105 27.2587 4.92136 26.9873 4.94541C26.7157 4.93357 26.446 4.9962 26.207 5.12661C26.1149 5.1847 26.0401 5.2669 25.9908 5.36442C25.9414 5.46193 25.9194 5.5711 25.9269 5.68026C25.9197 5.83689 25.9695 5.99079 26.0669 6.11312C26.1974 6.24067 26.3546 6.33701 26.5271 6.39499C26.8137 6.50693 27.1079 6.59777 27.4075 6.66678C27.8298 6.76001 28.242 6.89488 28.638 7.06944C28.9205 7.19055 29.1632 7.38944 29.3383 7.64323C29.5029 7.90432 29.5832 8.2102 29.5684 8.51902C29.5774 8.84576 29.4904 9.16792 29.3183 9.44513C29.1376 9.71642 28.8892 9.93513 28.598 10.0793C28.2537 10.2403 27.8852 10.3424 27.5075 10.3813V11.0054C27.5085 11.0334 27.5037 11.0613 27.4934 11.0873C27.483 11.1133 27.4674 11.1369 27.4475 11.1564C27.4299 11.1794 27.4071 11.1978 27.381 11.2101C27.3549 11.2223 27.3262 11.2281 27.2975 11.2269H26.7872Z" fill="url(#paint1_linear_1279_2461)"/>
<path fill-rule="evenodd" clip-rule="evenodd" d="M41.2632 18.3439C41.4117 18.3439 41.5542 18.4033 41.6593 18.509C41.7644 18.6147 41.8234 18.7581 41.8234 18.9076C41.8234 19.1284 41.8666 19.347 41.9506 19.551C42.0345 19.7549 42.1576 19.9403 42.3127 20.0964C42.4679 20.2525 42.652 20.3763 42.8547 20.4608C43.0574 20.5453 43.2747 20.5887 43.4941 20.5887C43.7135 20.5887 43.9307 20.5453 44.1334 20.4608C44.3361 20.3763 44.5203 20.2525 44.6754 20.0964C44.8306 19.9403 44.9536 19.7549 45.0376 19.551C45.1215 19.347 45.1648 19.1284 45.1648 18.9076C45.1648 18.7581 45.2238 18.6147 45.3288 18.509C45.4339 18.4033 45.5764 18.3439 45.725 18.3439C45.8736 18.3439 46.0161 18.4033 46.1211 18.509C46.2262 18.6147 46.2852 18.7581 46.2852 18.9076C46.2852 19.2765 46.213 19.6417 46.0728 19.9824C45.9325 20.3232 45.7269 20.6328 45.4677 20.8936C45.2085 21.1544 44.9008 21.3613 44.5622 21.5024C44.2236 21.6435 43.8606 21.7162 43.4941 21.7162C43.1275 21.7162 42.7646 21.6435 42.4259 21.5024C42.0873 21.3613 41.7796 21.1544 41.5204 20.8936C41.2613 20.6328 41.0557 20.3232 40.9154 19.9824C40.7751 19.6417 40.7029 19.2765 40.7029 18.9076C40.7029 18.7581 40.762 18.6147 40.867 18.509C40.9721 18.4033 41.1146 18.3439 41.2632 18.3439Z" fill="url(#paint2_linear_1279_2461)"/>
<defs>
<linearGradient id="paint0_linear_1279_2461" x1="6.90912" y1="8.11636" x2="52.1783" y2="36.682" gradientUnits="userSpaceOnUse">
<stop stop-color="#43CCF8"/>
<stop offset="1" stop-color="#6A30F4"/>
</linearGradient>
<linearGradient id="paint1_linear_1279_2461" x1="-104.686" y1="-18.6568" x2="210.247" y2="394.487" gradientUnits="userSpaceOnUse">
<stop stop-color="#43CCF8"/>
<stop offset="1" stop-color="#6A30F4"/>
</linearGradient>
<linearGradient id="paint2_linear_1279_2461" x1="14.582" y1="1.05959" x2="67.873" y2="34.6938" gradientUnits="userSpaceOnUse">
<stop stop-color="#43CCF8"/>
<stop offset="1" stop-color="#6A30F4"/>
</linearGradient>
</defs>
</svg>
