<svg width="45" height="45" viewBox="0 0 45 45" fill="none" xmlns="http://www.w3.org/2000/svg">
<path fill-rule="evenodd" clip-rule="evenodd" d="M9.0251 12.1552C8.53266 12.0534 8.02257 12 7.5 12C3.35786 12 0 15.3579 0 19.5C0 23.4741 3.09098 26.7263 7 26.9836V27H38V26.9836C41.909 26.7263 45 23.4741 45 19.5C45 15.3579 41.6421 12 37.5 12C37.3205 12 37.1425 12.0063 36.9661 12.0187C36.6284 12.0425 36.2969 12.0886 35.973 12.1556C35.9514 11.8188 35.917 11.4856 35.8703 11.1563C34.9749 4.84976 29.5538 0 23 0C16.3605 0 10.8836 4.97737 10.097 11.4043C10.0555 11.7427 10.0271 12.0852 10.0122 12.4311C9.69261 12.3175 9.36301 12.225 9.0251 12.1552ZM37.7179 26L37.9343 25.9858C41.3212 25.7628 44 22.9438 44 19.5C44 15.9101 41.0899 13 37.5 13C37.0452 13 36.6023 13.0466 36.1756 13.1348L35.0487 13.3679L34.9751 12.2195C34.5735 5.95637 29.3652 1 23 1C16.5488 1 11.2861 6.0911 11.0113 12.4741L10.9531 13.8268L9.67734 13.3734C8.99794 13.1319 8.26546 13 7.5 13C3.91015 13 1 15.9101 1 19.5C1 22.9438 3.67882 25.7628 7.06568 25.9858L7.28209 26H37.7179Z" fill="url(#paint0_linear_733_9233)"/>
<path fill-rule="evenodd" clip-rule="evenodd" d="M3 37C3.55228 37 4 36.5523 4 36C4 35.4477 3.55228 35 3 35C2.44772 35 2 35.4477 2 36C2 36.5523 2.44772 37 3 37ZM3 38C4.10457 38 5 37.1046 5 36C5 34.8954 4.10457 34 3 34C1.89543 34 1 34.8954 1 36C1 37.1046 1.89543 38 3 38Z" fill="url(#paint1_linear_733_9233)"/>
<path fill-rule="evenodd" clip-rule="evenodd" d="M12 44C12.5523 44 13 43.5523 13 43C13 42.4477 12.5523 42 12 42C11.4477 42 11 42.4477 11 43C11 43.5523 11.4477 44 12 44ZM12 45C13.1046 45 14 44.1046 14 43C14 41.8954 13.1046 41 12 41C10.8954 41 10 41.8954 10 43C10 44.1046 10.8954 45 12 45Z" fill="url(#paint2_linear_733_9233)"/>
<path fill-rule="evenodd" clip-rule="evenodd" d="M32 44C32.5523 44 33 43.5523 33 43C33 42.4477 32.5523 42 32 42C31.4477 42 31 42.4477 31 43C31 43.5523 31.4477 44 32 44ZM32 45C33.1046 45 34 44.1046 34 43C34 41.8954 33.1046 41 32 41C30.8954 41 30 41.8954 30 43C30 44.1046 30.8954 45 32 45Z" fill="url(#paint3_linear_733_9233)"/>
<path d="M25 22C25 23.1046 24.1046 24 23 24C21.8954 24 21 23.1046 21 22C21 20.8954 21.8954 20 23 20C24.1046 20 25 20.8954 25 22Z" fill="url(#paint4_linear_733_9233)"/>
<path fill-rule="evenodd" clip-rule="evenodd" d="M23 23C23.5523 23 24 22.5523 24 22C24 21.4477 23.5523 21 23 21C22.4477 21 22 21.4477 22 22C22 22.5523 22.4477 23 23 23ZM23 24C24.1046 24 25 23.1046 25 22C25 20.8954 24.1046 20 23 20C21.8954 20 21 20.8954 21 22C21 23.1046 21.8954 24 23 24Z" fill="url(#paint5_linear_733_9233)"/>
<path fill-rule="evenodd" clip-rule="evenodd" d="M41 37C41.5523 37 42 36.5523 42 36C42 35.4477 41.5523 35 41 35C40.4477 35 40 35.4477 40 36C40 36.5523 40.4477 37 41 37ZM41 38C42.1046 38 43 37.1046 43 36C43 34.8954 42.1046 34 41 34C39.8954 34 39 34.8954 39 36C39 37.1046 39.8954 38 41 38Z" fill="url(#paint6_linear_733_9233)"/>
<path fill-rule="evenodd" clip-rule="evenodd" d="M13 29.5C13.2761 29.5 13.5 29.7239 13.5 30V36C13.5 36.2761 13.2761 36.5 13 36.5H5C4.72386 36.5 4.5 36.2761 4.5 36C4.5 35.7239 4.72386 35.5 5 35.5H12.5V30C12.5 29.7239 12.7239 29.5 13 29.5ZM19 29.5C19.2761 29.5 19.5 29.7239 19.5 30V43C19.5 43.2761 19.2761 43.5 19 43.5H14C13.7239 43.5 13.5 43.2761 13.5 43C13.5 42.7239 13.7239 42.5 14 42.5H18.5V30C18.5 29.7239 18.7239 29.5 19 29.5Z" fill="url(#paint7_linear_733_9233)"/>
<path fill-rule="evenodd" clip-rule="evenodd" d="M31.5 29.5C31.2239 29.5 31 29.7239 31 30V36C31 36.2761 31.2239 36.5 31.5 36.5H39.5C39.7761 36.5 40 36.2761 40 36C40 35.7239 39.7761 35.5 39.5 35.5H32V30C32 29.7239 31.7761 29.5 31.5 29.5ZM25.5 29.5C25.2239 29.5 25 29.7239 25 30V43C25 43.2761 25.2239 43.5 25.5 43.5H30.5C30.7761 43.5 31 43.2761 31 43C31 42.7239 30.7761 42.5 30.5 42.5H26V30C26 29.7239 25.7761 29.5 25.5 29.5Z" fill="url(#paint8_linear_733_9233)"/>
<path fill-rule="evenodd" clip-rule="evenodd" d="M23 17.5C21.4917 17.5 20.1275 18.5533 19.4632 20.1882C19.3593 20.444 19.0676 20.5672 18.8118 20.4632C18.556 20.3593 18.4328 20.0676 18.5368 19.8118C19.3159 17.8944 20.9916 16.5 23 16.5C25.0084 16.5 26.6841 17.8944 27.4632 19.8118C27.5672 20.0676 27.444 20.3593 27.1882 20.4632C26.9324 20.5672 26.6407 20.444 26.5368 20.1882C25.8725 18.5533 24.5083 17.5 23 17.5Z" fill="url(#paint9_linear_733_9233)"/>
<path fill-rule="evenodd" clip-rule="evenodd" d="M23 14.5C20.1587 14.5 17.6592 16.3852 16.4599 19.1962C16.3515 19.4502 16.0578 19.5683 15.8038 19.4599C15.5498 19.3515 15.4317 19.0578 15.5401 18.8038C16.8668 15.6943 19.6872 13.5 23 13.5C26.3128 13.5 29.1332 15.6943 30.4599 18.8038C30.5683 19.0578 30.4502 19.3515 30.1962 19.4599C29.9422 19.5683 29.6485 19.4502 29.5401 19.1962C28.3408 16.3852 25.8413 14.5 23 14.5Z" fill="url(#paint10_linear_733_9233)"/>
<path fill-rule="evenodd" clip-rule="evenodd" d="M23 10.5C18.8341 10.5 15.1964 13.2075 13.4584 17.1996C13.3482 17.4528 13.0536 17.5687 12.8004 17.4584C12.5472 17.3482 12.4313 17.0536 12.5416 16.8004C14.4121 12.5038 18.3743 9.5 23 9.5C27.6257 9.5 31.5879 12.5038 33.4584 16.8004C33.5687 17.0536 33.4528 17.3482 33.1996 17.4584C32.9464 17.5687 32.6518 17.4528 32.5416 17.1996C30.8036 13.2075 27.1659 10.5 23 10.5Z" fill="url(#paint11_linear_733_9233)"/>
<defs>
<linearGradient id="paint0_linear_733_9233" x1="4.12424" y1="15.9625" x2="50.6282" y2="38.8741" gradientUnits="userSpaceOnUse">
<stop offset="0.0037645" stop-color="#43CCF8"/>
<stop offset="1" stop-color="#6A30F4"/>
</linearGradient>
<linearGradient id="paint1_linear_733_9233" x1="4.12424" y1="15.9625" x2="50.6282" y2="38.8741" gradientUnits="userSpaceOnUse">
<stop offset="0.0037645" stop-color="#43CCF8"/>
<stop offset="1" stop-color="#6A30F4"/>
</linearGradient>
<linearGradient id="paint2_linear_733_9233" x1="4.12424" y1="15.9625" x2="50.6282" y2="38.8741" gradientUnits="userSpaceOnUse">
<stop offset="0.0037645" stop-color="#43CCF8"/>
<stop offset="1" stop-color="#6A30F4"/>
</linearGradient>
<linearGradient id="paint3_linear_733_9233" x1="4.12424" y1="15.9625" x2="50.6282" y2="38.8741" gradientUnits="userSpaceOnUse">
<stop offset="0.0037645" stop-color="#43CCF8"/>
<stop offset="1" stop-color="#6A30F4"/>
</linearGradient>
<linearGradient id="paint4_linear_733_9233" x1="4.12424" y1="15.9625" x2="50.6282" y2="38.8741" gradientUnits="userSpaceOnUse">
<stop offset="0.0037645" stop-color="#43CCF8"/>
<stop offset="1" stop-color="#6A30F4"/>
</linearGradient>
<linearGradient id="paint5_linear_733_9233" x1="4.12424" y1="15.9625" x2="50.6282" y2="38.8741" gradientUnits="userSpaceOnUse">
<stop offset="0.0037645" stop-color="#43CCF8"/>
<stop offset="1" stop-color="#6A30F4"/>
</linearGradient>
<linearGradient id="paint6_linear_733_9233" x1="4.12424" y1="15.9625" x2="50.6282" y2="38.8741" gradientUnits="userSpaceOnUse">
<stop offset="0.0037645" stop-color="#43CCF8"/>
<stop offset="1" stop-color="#6A30F4"/>
</linearGradient>
<linearGradient id="paint7_linear_733_9233" x1="4.12424" y1="15.9625" x2="50.6282" y2="38.8741" gradientUnits="userSpaceOnUse">
<stop offset="0.0037645" stop-color="#43CCF8"/>
<stop offset="1" stop-color="#6A30F4"/>
</linearGradient>
<linearGradient id="paint8_linear_733_9233" x1="4.12424" y1="15.9625" x2="50.6282" y2="38.8741" gradientUnits="userSpaceOnUse">
<stop offset="0.0037645" stop-color="#43CCF8"/>
<stop offset="1" stop-color="#6A30F4"/>
</linearGradient>
<linearGradient id="paint9_linear_733_9233" x1="4.12424" y1="15.9625" x2="50.6282" y2="38.8741" gradientUnits="userSpaceOnUse">
<stop offset="0.0037645" stop-color="#43CCF8"/>
<stop offset="1" stop-color="#6A30F4"/>
</linearGradient>
<linearGradient id="paint10_linear_733_9233" x1="4.12424" y1="15.9625" x2="50.6282" y2="38.8741" gradientUnits="userSpaceOnUse">
<stop offset="0.0037645" stop-color="#43CCF8"/>
<stop offset="1" stop-color="#6A30F4"/>
</linearGradient>
<linearGradient id="paint11_linear_733_9233" x1="4.12424" y1="15.9625" x2="50.6282" y2="38.8741" gradientUnits="userSpaceOnUse">
<stop offset="0.0037645" stop-color="#43CCF8"/>
<stop offset="1" stop-color="#6A30F4"/>
</linearGradient>
</defs>
</svg>
