<svg width="47" height="45" viewBox="0 0 47 45" fill="none" xmlns="http://www.w3.org/2000/svg">
<path fill-rule="evenodd" clip-rule="evenodd" d="M39.6067 39.7629H29.0449V43.9526H39.6067V39.7629ZM29.0449 38.7155C28.4616 38.7155 27.9888 39.1844 27.9888 39.7629V43.9526C27.9888 44.5311 28.4616 45 29.0449 45H39.6067C40.1901 45 40.6629 44.5311 40.6629 43.9526V39.7629C40.6629 39.1844 40.1901 38.7155 39.6067 38.7155H29.0449Z" fill="url(#paint0_linear_733_9243)"/>
<path fill-rule="evenodd" clip-rule="evenodd" d="M41.9073 16.2985C42.4135 15.6901 43.216 15.1484 44.3596 15.1484C45.3766 15.1484 46.0632 15.5804 46.478 16.1517C46.8734 16.6963 47 17.334 47 17.767V29.135C47 29.6854 46.8251 30.2219 46.5001 30.6681L40.0349 39.5458C39.9356 39.6821 39.7763 39.7629 39.6067 39.7629H29.573C29.373 39.7629 29.1901 39.6508 29.1007 39.4734C28.8893 39.0542 28.5169 37.9617 28.5169 36.6206C28.5169 34.9455 29.0782 33.2285 30.2558 32.0606C30.7152 31.605 31.4543 31.0583 32.1646 30.5726C32.8231 30.1224 33.4847 29.706 33.9358 29.4342C34.2955 28.8147 34.8462 27.9007 35.4134 27.0279C36.0073 26.1141 36.6522 25.1935 37.121 24.7286C37.6492 24.2048 38.1211 23.7933 38.6258 23.5774C39.1732 23.3432 39.7068 23.358 40.3018 23.5547C40.6539 23.6711 40.9476 23.8144 41.191 23.9778V19.0564C41.191 18.2191 41.2216 17.1225 41.9073 16.2985ZM42.2472 26.095V19.0564C42.2472 18.181 42.3084 17.4622 42.7219 16.9651C43.0708 16.5459 43.5934 16.1958 44.3596 16.1958C45.0324 16.1958 45.4019 16.4621 45.6209 16.7637C45.8592 17.092 45.9438 17.5016 45.9438 17.767V29.135C45.9438 29.4652 45.8389 29.7871 45.6439 30.0549L39.3367 38.7155H29.925C29.7702 38.2863 29.573 37.5248 29.573 36.6206C29.573 35.1534 30.0679 33.7282 31.0026 32.8012C31.3882 32.4189 32.0573 31.9182 32.7641 31.435C33.4623 30.9576 34.1658 30.5183 34.5975 30.2614C34.6751 30.2153 34.7395 30.1501 34.7844 30.0722C35.1327 29.4676 35.7087 28.5069 36.3012 27.5954C36.9043 26.6674 37.4916 25.8424 37.8678 25.4693C38.3957 24.9457 38.7431 24.6679 39.0441 24.5391C39.3023 24.4286 39.5608 24.4138 39.9678 24.5484C40.6501 24.7739 40.9234 25.0846 41.0487 25.3332C41.1699 25.5735 41.1881 25.82 41.1906 26.0566C41.0594 26.3968 40.7436 26.9689 40.3034 27.6811C39.8394 28.432 39.267 29.2917 38.708 30.107C38.1495 30.9215 37.6071 31.6876 37.2041 32.2504C37.0027 32.5317 36.8362 32.762 36.7202 32.9218C36.6623 33.0017 36.6169 33.064 36.5861 33.1062L36.5399 33.1694L36.5392 33.1703C36.3677 33.4042 36.4198 33.7318 36.6557 33.9019C36.8916 34.072 37.2218 34.0203 37.3934 33.7864L36.9663 33.4783C37.3934 33.7864 37.3933 33.7864 37.3934 33.7864L37.4417 33.7203C37.473 33.6774 37.5189 33.6144 37.5775 33.5337C37.6946 33.3723 37.8623 33.1402 38.0652 32.8569C38.4709 32.2904 39.0176 31.5181 39.5814 30.696C40.1445 29.8747 40.7274 28.9996 41.2039 28.2285C41.6698 27.4747 42.066 26.7706 42.2201 26.312C42.238 26.2586 42.2472 26.2027 42.2472 26.1464L42.2472 26.13C42.2472 26.1188 42.2472 26.1071 42.2472 26.095Z" fill="url(#paint1_linear_733_9243)"/>
<path fill-rule="evenodd" clip-rule="evenodd" d="M7.39326 39.7629H17.9551V43.9526H7.39326V39.7629ZM17.9551 38.7155C18.5384 38.7155 19.0112 39.1844 19.0112 39.7629V43.9526C19.0112 44.5311 18.5384 45 17.9551 45H7.39326C6.80995 45 6.33708 44.5311 6.33708 43.9526V39.7629C6.33708 39.1844 6.80995 38.7155 7.39326 38.7155H17.9551Z" fill="url(#paint2_linear_733_9243)"/>
<path fill-rule="evenodd" clip-rule="evenodd" d="M5.0927 16.2985C4.58647 15.6901 3.78395 15.1484 2.64045 15.1484C1.62339 15.1484 0.936758 15.5804 0.521998 16.1517C0.126626 16.6963 0 17.334 0 17.767V29.135C0 29.6854 0.174915 30.2219 0.499893 30.6681L6.96515 39.5458C7.06443 39.6821 7.22369 39.7629 7.39326 39.7629H17.427C17.627 39.7629 17.8099 39.6508 17.8993 39.4734C18.1107 39.0542 18.4831 37.9617 18.4831 36.6206C18.4831 34.9455 17.9218 33.2285 16.7442 32.0606C16.2848 31.605 15.5457 31.0583 14.8354 30.5726C14.1769 30.1224 13.5153 29.706 13.0642 29.4342C12.7045 28.8147 12.1538 27.9007 11.5866 27.0279C10.9927 26.1141 10.3478 25.1935 9.87903 24.7286C9.35079 24.2048 8.87895 23.7933 8.37424 23.5774C7.82679 23.3432 7.29316 23.358 6.69817 23.5547C6.34607 23.6711 6.05236 23.8144 5.80899 23.9778V19.0564C5.80899 18.2191 5.77835 17.1225 5.0927 16.2985ZM4.75281 26.095V19.0564C4.75281 18.181 4.69162 17.4622 4.27805 16.9651C3.92924 16.5459 3.40657 16.1958 2.64045 16.1958C1.96762 16.1958 1.59807 16.4621 1.37912 16.7637C1.14079 17.092 1.05618 17.5016 1.05618 17.767V29.135C1.05618 29.4652 1.16113 29.7871 1.35612 30.0549L7.66328 38.7155H17.075C17.2298 38.2863 17.427 37.5248 17.427 36.6206C17.427 35.1534 16.9321 33.7282 15.9974 32.8012C15.6118 32.4189 14.9427 31.9182 14.2359 31.435C13.5377 30.9576 12.8342 30.5183 12.4025 30.2614C12.3249 30.2153 12.2605 30.1501 12.2156 30.0722C11.8673 29.4676 11.2913 28.5069 10.6988 27.5954C10.0957 26.6674 9.50841 25.8424 9.1322 25.4693C8.60426 24.9457 8.25687 24.6679 7.9559 24.5391C7.69766 24.4286 7.43916 24.4138 7.03217 24.5484C6.34985 24.7739 6.07658 25.0846 5.95127 25.3332C5.83007 25.5735 5.81193 25.82 5.80938 26.0566C5.94065 26.3968 6.25638 26.9689 6.69656 27.6811C7.16064 28.432 7.73299 29.2917 8.29203 30.107C8.8505 30.9215 9.39291 31.6876 9.79591 32.2504C9.99734 32.5317 10.1638 32.762 10.2798 32.9218C10.3378 33.0017 10.3831 33.064 10.4139 33.1062L10.4601 33.1694L10.4608 33.1703C10.6323 33.4042 10.5802 33.7318 10.3443 33.9019C10.1084 34.072 9.77817 34.0203 9.60662 33.7864L10.0337 33.4783C9.60662 33.7864 9.60667 33.7864 9.60662 33.7864L9.55833 33.7203C9.527 33.6774 9.48109 33.6144 9.42253 33.5337C9.30542 33.3723 9.13767 33.1402 8.93478 32.8569C8.52914 32.2904 7.98237 31.5181 7.41865 30.696C6.85549 29.8747 6.27264 28.9996 5.79606 28.2285C5.33017 27.4747 4.93405 26.7706 4.77991 26.312C4.76196 26.2586 4.75281 26.2027 4.75281 26.1464L4.7528 26.13C4.7528 26.1188 4.75279 26.1071 4.75281 26.095Z" fill="url(#paint3_linear_733_9243)"/>
<path fill-rule="evenodd" clip-rule="evenodd" d="M33.949 20.5615C34.8972 19.3038 35.382 18.1803 35.382 17.2433V6.13751C34.8682 5.65975 34.0104 5.12535 32.9021 4.57451C31.7713 4.0125 30.4586 3.47132 29.1544 2.98424C26.5591 2.01505 24.0622 1.28408 23.236 1.04927C22.4097 1.28408 19.9128 2.01505 17.3175 2.98424C16.0133 3.47132 14.7006 4.0125 13.5698 4.57451C12.4615 5.12536 11.6037 5.65975 11.0899 6.13752L11.0899 17.2433C11.0899 18.1803 11.5747 19.3038 12.5229 20.5615C13.456 21.7992 14.7485 23.0492 16.1525 24.217C18.9345 26.5311 22.0221 28.4148 23.236 29.1256C24.4498 28.4148 27.5374 26.5311 30.3194 24.217C31.7234 23.0492 33.0159 21.7992 33.949 20.5615ZM23.7424 30.0454C26.1633 28.6304 36.4382 22.3255 36.4382 17.2433V6.10042C36.4382 5.856 36.3556 5.61593 36.1796 5.44485C33.6722 3.00799 25.167 0.508064 23.5152 0.0390469C23.3318 -0.0130156 23.1401 -0.0130157 22.9567 0.0390468C21.3049 0.508064 12.7997 3.008 10.2923 5.44486C10.1163 5.61594 10.0337 5.85533 10.0337 6.09974L10.0337 17.2433C10.0337 22.3255 20.3086 28.6304 22.7295 30.0454C23.046 30.2304 23.4259 30.2304 23.7424 30.0454Z" fill="url(#paint4_linear_733_9243)"/>
<path fill-rule="evenodd" clip-rule="evenodd" d="M28.9386 10.6256C29.1449 10.8301 29.1449 11.1617 28.9386 11.3663L22.5906 17.6617C22.3843 17.8662 22.05 17.8662 21.8437 17.6617L18.1096 13.9585C17.9033 13.754 17.9033 13.4224 18.1096 13.2179C18.3158 13.0133 18.6502 13.0133 18.8564 13.2179L22.2171 16.5507L28.1918 10.6256C28.398 10.4211 28.7324 10.4211 28.9386 10.6256Z" fill="url(#paint5_linear_733_9243)"/>
<defs>
<linearGradient id="paint0_linear_733_9243" x1="4.30754" y1="15.9625" x2="52.0313" y2="40.5201" gradientUnits="userSpaceOnUse">
<stop offset="0.0037645" stop-color="#43CCF8"/>
<stop offset="1" stop-color="#6A30F4"/>
</linearGradient>
<linearGradient id="paint1_linear_733_9243" x1="4.30754" y1="15.9625" x2="52.0313" y2="40.5201" gradientUnits="userSpaceOnUse">
<stop offset="0.0037645" stop-color="#43CCF8"/>
<stop offset="1" stop-color="#6A30F4"/>
</linearGradient>
<linearGradient id="paint2_linear_733_9243" x1="4.30754" y1="15.9625" x2="52.0313" y2="40.5201" gradientUnits="userSpaceOnUse">
<stop offset="0.0037645" stop-color="#43CCF8"/>
<stop offset="1" stop-color="#6A30F4"/>
</linearGradient>
<linearGradient id="paint3_linear_733_9243" x1="4.30754" y1="15.9625" x2="52.0313" y2="40.5201" gradientUnits="userSpaceOnUse">
<stop offset="0.0037645" stop-color="#43CCF8"/>
<stop offset="1" stop-color="#6A30F4"/>
</linearGradient>
<linearGradient id="paint4_linear_733_9243" x1="4.30754" y1="15.9625" x2="52.0313" y2="40.5201" gradientUnits="userSpaceOnUse">
<stop offset="0.0037645" stop-color="#43CCF8"/>
<stop offset="1" stop-color="#6A30F4"/>
</linearGradient>
<linearGradient id="paint5_linear_733_9243" x1="4.30754" y1="15.9625" x2="52.0313" y2="40.5201" gradientUnits="userSpaceOnUse">
<stop offset="0.0037645" stop-color="#43CCF8"/>
<stop offset="1" stop-color="#6A30F4"/>
</linearGradient>
</defs>
</svg>
