<svg width="80" height="46" viewBox="0 0 80 46" fill="none" xmlns="http://www.w3.org/2000/svg">
<path fill-rule="evenodd" clip-rule="evenodd" d="M79.9861 24.5161L74.517 0.731554C74.4933 0.612761 74.4461 0.499905 74.3782 0.399604C74.3102 0.299304 74.2229 0.213581 74.1214 0.147463C74.0199 0.0813445 73.9062 0.0361635 73.787 0.0145702C73.6678 -0.00702305 73.5455 -0.00459381 73.4272 0.0217155L64.9888 2.02126C64.7509 2.07832 64.5451 2.2268 64.416 2.43452C64.2869 2.64224 64.2448 2.89248 64.2989 3.13101L64.7088 4.9106C63.789 5.10056 62.5692 5.3405 61.3894 5.55046C60.311 5.76845 59.2184 5.90878 58.12 5.97036C56.8002 5.94965 55.485 5.80911 54.1907 5.55046C52.7035 5.32344 51.2762 4.80351 49.9914 4.0208C48.8095 3.30336 47.4719 2.88152 46.0921 2.79108C44.9213 2.68848 43.7437 2.68848 42.5728 2.79108C40.9931 1.92128 36.8838 1.02149 31.6547 3.25098C27.8619 4.66598 23.834 5.34462 19.7869 5.25052L19.8369 5.13055C19.9368 4.90999 19.9467 4.65914 19.8646 4.43136C19.7824 4.20358 19.6147 4.01683 19.3969 3.91083L11.5283 0.231668C11.4203 0.179692 11.3029 0.149845 11.1831 0.143882C11.0633 0.137918 10.9435 0.155959 10.8308 0.196942C10.7181 0.237926 10.6147 0.301026 10.5268 0.382533C10.4388 0.46404 10.368 0.562311 10.3186 0.671567L0.0903902 22.7965C0.0382217 22.9053 0.00822094 23.0234 0.00213458 23.144C-0.00395179 23.2645 0.0139978 23.385 0.0549384 23.4985C0.095879 23.612 0.158993 23.7162 0.240605 23.8051C0.322217 23.894 0.420697 23.9658 0.530311 24.0162L8.3889 27.7154C8.61069 27.8147 8.86252 27.8231 9.0905 27.7391C9.31847 27.655 9.50447 27.485 9.60868 27.2655L10.9384 24.3962L10.9984 24.4462C13.0321 25.6425 15.0043 26.9405 16.9074 28.3353C17.9972 29.1151 19.007 29.8949 19.7969 30.5648C20.1868 30.8947 20.5167 31.1946 20.7967 31.4546C20.9171 31.5717 21.0275 31.6988 21.1266 31.8345L19.6269 33.6141C19.1937 34.1552 18.9898 34.8445 19.059 35.5341C19.1281 36.2238 19.4648 36.8589 19.9968 37.3032C20.2858 37.5494 20.6258 37.7283 20.9924 37.8269C21.359 37.9254 21.743 37.9412 22.1164 37.8731C22.0028 38.3468 22.0251 38.8429 22.1807 39.3044C22.3364 39.766 22.619 40.1743 22.9963 40.4825C23.3697 40.7963 23.825 40.9969 24.3085 41.0607C24.7921 41.1244 25.2838 41.0487 25.7258 40.8424C25.6921 41.2468 25.7532 41.6534 25.9042 42.03C26.0552 42.4066 26.292 42.7428 26.5956 43.0119C26.9676 43.3243 27.4205 43.5249 27.9019 43.5904C28.3832 43.6558 28.8732 43.5835 29.3152 43.3818C29.3113 43.918 29.4733 44.4422 29.779 44.8827C30.0847 45.3232 30.5192 45.6583 31.0228 45.8423C31.5265 46.0262 32.0747 46.0499 32.5923 45.9101C33.11 45.7703 33.5717 45.4739 33.9143 45.0615L36.9138 41.3923L39.6433 44.5016C40.2008 45.1381 40.9864 45.5295 41.8302 45.5912C42.6741 45.653 43.5083 45.3801 44.1525 44.8315C44.5268 44.5138 44.8253 44.1163 45.026 43.6683C45.2266 43.2202 45.3245 42.7329 45.3123 42.2421C45.9277 42.6506 46.6616 42.8428 47.3983 42.7885C48.1349 42.7342 48.8327 42.4365 49.3816 41.9422C49.7563 41.6069 50.0521 41.1927 50.2474 40.7294C50.4428 40.266 50.5329 39.7651 50.5114 39.2628C51.1126 39.6718 51.8341 39.8665 52.5595 39.8158C53.2849 39.765 53.9722 39.4716 54.5106 38.9828C54.8897 38.6481 55.1862 38.2303 55.377 37.7621C55.5677 37.2938 55.6477 36.7877 55.6104 36.2835C56.2452 36.6849 56.9934 36.8688 57.7419 36.8075C58.4905 36.7462 59.1987 36.4429 59.7597 35.9435C60.4218 35.3032 60.8323 34.4466 60.9167 33.5294C61.0011 32.6122 60.7538 31.6951 60.2196 30.9447L60.4896 30.8547L60.7495 30.7747C61.1725 30.6654 61.5869 30.5251 61.9893 30.3548C63.1651 29.7238 64.1888 28.8434 64.9888 27.7754C65.2294 27.516 65.5015 27.2876 65.7986 27.0955C66.1785 26.8356 66.6385 26.5557 67.1284 26.2857C67.8782 25.8658 68.6681 25.4559 69.298 25.156L69.6979 26.8956C69.7527 27.1327 69.8992 27.3384 70.1053 27.4676C70.3115 27.5969 70.5604 27.6393 70.7977 27.5854L79.2462 25.5859C79.4862 25.5421 79.6989 25.4048 79.8377 25.2042C79.9764 25.0036 80.0298 24.7561 79.9861 24.5161ZM8.77883 26.8756L0.910243 23.1764L11.1384 1.02149L18.997 4.76064L8.77883 26.8756ZM20.5467 36.6034C20.2045 36.3106 19.9907 35.8952 19.9515 35.4466C19.9122 34.9979 20.0505 34.5517 20.3368 34.2039L24.1261 29.615C24.2663 29.442 24.4397 29.2988 24.6361 29.1938C24.8324 29.0889 25.0478 29.0242 25.2695 29.0037C25.4913 28.9832 25.7148 29.0073 25.9271 29.0745C26.1394 29.1417 26.3361 29.2507 26.5057 29.395C26.8473 29.686 27.0608 30.0997 27.1 30.5468C27.1393 30.9938 27.0012 31.4383 26.7156 31.7845L22.9263 36.3834C22.7845 36.5541 22.6105 36.6952 22.4141 36.7986C22.2178 36.9021 22.003 36.9658 21.7821 36.9862C21.5611 37.0067 21.3383 36.9834 21.1263 36.9177C20.9144 36.852 20.7174 36.7452 20.5467 36.6034ZM23.5462 39.7727C23.2024 39.4813 22.9868 39.0666 22.9457 38.6179C22.9045 38.1692 23.0412 37.7222 23.3262 37.3732L28.8352 30.7047C28.977 30.534 29.1511 30.3929 29.3474 30.2895C29.5437 30.1861 29.7585 30.1223 29.9795 30.1019C30.2004 30.0815 30.4233 30.1048 30.6352 30.1705C30.8472 30.2362 31.0441 30.343 31.2148 30.4848C31.5586 30.7762 31.7742 31.1908 31.8153 31.6395C31.8565 32.0883 31.7198 32.5352 31.4348 32.8842L25.9258 39.5527C25.7838 39.7263 25.6086 39.8699 25.4105 39.9751C25.2125 40.0803 24.9954 40.1451 24.7721 40.1656C24.5487 40.186 24.3235 40.1618 24.1096 40.0944C23.8957 40.0269 23.6974 39.9176 23.5262 39.7727H23.5462ZM27.1955 42.3121C26.8547 42.0179 26.6429 41.6018 26.6055 41.1532C26.5681 40.7046 26.7082 40.2592 26.9956 39.9126L31.8647 34.014C32.0057 33.8421 32.1794 33.7 32.3758 33.5958C32.5721 33.4916 32.7872 33.4275 33.0085 33.407C33.2299 33.3865 33.4531 33.4102 33.6652 33.4766C33.8773 33.5431 34.0741 33.651 34.2443 33.794C34.5859 34.085 34.7994 34.4987 34.8386 34.9458C34.8779 35.3928 34.7399 35.8373 34.4542 36.1835L29.5551 42.1221C29.2645 42.4624 28.8507 42.6736 28.4046 42.7092C27.9585 42.7448 27.5165 42.602 27.1755 42.3121H27.1955ZM36.5539 40.4525L33.2345 44.4516C33.0927 44.6223 32.9186 44.7634 32.7223 44.8668C32.526 44.9702 32.3112 45.034 32.0902 45.0544C31.8693 45.0748 31.6464 45.0515 31.4345 44.9858C31.2225 44.9202 31.0256 44.8134 30.8549 44.6715C30.5111 44.3802 30.2955 43.9655 30.2544 43.5168C30.2132 43.0681 30.3499 42.6211 30.6349 42.2721L33.9643 38.273C34.2429 37.9259 34.6479 37.7036 35.0903 37.6548C35.5327 37.6061 35.9764 37.7349 36.3239 38.0131C36.4992 38.1585 36.6439 38.3374 36.7494 38.5392C36.855 38.7411 36.9195 38.9619 36.939 39.1889C36.9586 39.4158 36.9328 39.6444 36.8632 39.8613C36.7937 40.0783 36.6817 40.2792 36.5339 40.4525H36.5539ZM59.1798 35.2637C58.9311 35.4865 58.641 35.6581 58.3259 35.7687C58.0108 35.8793 57.677 35.9266 57.3437 35.9081C57.0103 35.8895 56.6838 35.8054 56.383 35.6605C56.0821 35.5156 55.8128 35.3128 55.5904 35.0637L48.4717 27.0656C48.431 27.0209 48.3819 26.9847 48.3272 26.9591C48.2725 26.9334 48.2133 26.9188 48.153 26.916C48.0926 26.9132 48.0323 26.9223 47.9755 26.9428C47.9187 26.9634 47.8665 26.9949 47.8218 27.0356C47.7772 27.0763 47.741 27.1254 47.7153 27.18C47.6897 27.2347 47.675 27.2939 47.6722 27.3543C47.6695 27.4146 47.6786 27.4749 47.6991 27.5317C47.7196 27.5886 47.7511 27.6408 47.7918 27.6854L48.6817 28.6852L54.1507 34.9038C54.5647 35.378 54.7758 35.9959 54.7384 36.6243C54.7009 37.2527 54.4181 37.8412 53.9507 38.263C53.7204 38.4687 53.4518 38.6269 53.1602 38.7286C52.8687 38.8304 52.5599 38.8737 52.2517 38.8561C51.9434 38.8384 51.6416 38.7602 51.3636 38.6258C51.0855 38.4915 50.8367 38.3036 50.6313 38.073L46.2621 33.1542L44.5524 31.2446L44.3725 31.0347C44.3351 30.9815 44.2869 30.9368 44.231 30.9036C44.1751 30.8704 44.1128 30.8494 44.0483 30.8421C43.9837 30.8347 43.9183 30.8411 43.8563 30.8608C43.7944 30.8806 43.7374 30.9132 43.689 30.9567C43.6406 31.0001 43.602 31.0532 43.5756 31.1126C43.5493 31.1721 43.5358 31.2364 43.5362 31.3014C43.5365 31.3664 43.5506 31.4306 43.5776 31.4897C43.6046 31.5489 43.6437 31.6016 43.6926 31.6445L45.1323 33.2641L45.3023 33.4641L48.9916 37.7531C49.4257 38.2479 49.6472 38.8939 49.6079 39.5509C49.5686 40.2079 49.2717 40.8229 48.7817 41.2623C48.538 41.4749 48.2547 41.6372 47.948 41.7398C47.6414 41.8424 47.3174 41.8832 46.9949 41.86C46.6724 41.8368 46.3576 41.7499 46.0688 41.6044C45.78 41.459 45.5229 41.2577 45.3123 41.0124L42.0629 37.2732L39.8333 34.7138C39.7914 34.6715 39.7416 34.6379 39.6867 34.615C39.6318 34.592 39.5728 34.5802 39.5133 34.5802C39.4538 34.5802 39.3949 34.592 39.34 34.615C39.285 34.6379 39.2352 34.6715 39.1934 34.7138C39.1026 34.7946 39.0467 34.9075 39.0374 35.0287C39.0281 35.1498 39.0661 35.2699 39.1434 35.3637L41.373 37.9331L43.8625 40.8424C44.2706 41.3198 44.4725 41.9397 44.4237 42.5658C44.375 43.192 44.0796 43.7731 43.6026 44.1817C43.1371 44.5743 42.5363 44.7691 41.929 44.7242C41.3216 44.6794 40.756 44.3985 40.3532 43.9417L37.5037 40.6925C37.8022 40.1567 37.9056 39.5339 37.7962 38.9304C37.6868 38.327 37.3714 37.7801 36.9038 37.3832C36.4164 36.9778 35.7977 36.7645 35.1641 36.7833C35.3926 36.5151 35.5654 36.2039 35.6721 35.868C35.7789 35.5322 35.8176 35.1784 35.786 34.8274C35.7543 34.4764 35.6529 34.1352 35.4878 33.8239C35.3226 33.5125 35.097 33.2373 34.8242 33.0142C34.5218 32.7574 34.164 32.5742 33.7789 32.4788C33.3938 32.3834 32.9919 32.3784 32.6046 32.4643C32.7691 31.8919 32.732 31.2803 32.4995 30.732C32.2671 30.1836 31.8534 29.7317 31.3276 29.4519C30.8018 29.172 30.1959 29.0812 29.6112 29.1946C29.0264 29.308 28.4984 29.6188 28.1154 30.0749L27.9754 30.2348C27.8968 29.7431 27.6776 29.2846 27.3441 28.9147C27.0107 28.5448 26.5772 28.2793 26.0962 28.1503C25.6152 28.0214 25.1071 28.0344 24.6333 28.1878C24.1595 28.3413 23.7403 28.6286 23.4262 29.0151L21.6865 31.1146C21.6023 31.0065 21.5122 30.903 21.4166 30.8047C21.1003 30.4706 20.7666 30.1536 20.4167 29.8549C19.6069 29.1651 18.5671 28.3653 17.4773 27.5754C15.2977 26.0058 12.8581 24.4062 11.4783 23.6363L11.3484 23.5863L19.3869 6.12033C19.4498 6.16859 19.5277 6.19335 19.6069 6.19031C23.8324 6.28864 28.0376 5.57594 31.9947 4.09079C34.8523 2.77123 38.0697 2.44739 41.133 3.171C40.3832 3.43094 39.5533 3.74087 38.8934 3.98081L37.7936 4.38072C37.6037 4.45071 37.2637 4.55068 36.7938 4.67066L35.2641 5.13055C34.2385 5.42672 33.236 5.79763 32.2646 6.2403C32.0041 6.38594 31.7679 6.57148 31.5647 6.79017C31.3052 7.06258 31.0615 7.34966 30.8349 7.64998C30.325 8.30983 29.7551 9.13964 29.1752 9.99944L28.9052 10.3994C27.9818 11.8673 26.9455 13.2612 25.8058 14.5684C25.6618 14.7313 25.5572 14.9251 25.5 15.1349C25.4428 15.3446 25.4345 15.5647 25.4758 15.7781C25.5497 16.264 25.7614 16.7186 26.0857 17.0878C26.5987 17.6019 27.2421 17.9665 27.9466 18.1427C28.6512 18.3188 29.3904 18.2998 30.085 18.0876C31.39 17.7332 32.6613 17.2648 33.8843 16.6879C35.3424 16.0601 36.6636 15.1533 37.7736 14.0185C38.0359 13.6818 38.4133 13.4539 38.8334 13.3787C39.6633 13.2987 40.6731 13.2287 41.503 13.1987C41.9229 13.1987 42.2928 13.1987 42.5628 13.1987H42.9927C43.2507 13.3653 43.4948 13.5525 43.7226 13.7586C44.0725 14.0585 44.5024 14.4684 44.9823 14.9483C45.9822 15.9481 47.112 17.1878 48.2618 18.5675C49.4116 19.9472 51.2612 22.0667 53.0209 24.0662C54.4506 25.7059 55.8804 27.3355 57.0202 28.6852L57.2601 28.9751L59.3698 31.5745C59.6011 31.8291 59.7795 32.1272 59.8943 32.4515C60.0092 32.7758 60.0583 33.1197 60.0387 33.4632C60.0192 33.8066 59.9314 34.1427 59.7805 34.4519C59.6296 34.761 59.4186 35.037 59.1598 35.2637H59.1798ZM66.7284 25.4859C66.2385 25.7659 65.7286 26.0558 65.3387 26.3457C64.9711 26.5821 64.6352 26.8643 64.3389 27.1855C63.6011 28.1615 62.655 28.9608 61.5694 29.525C61.2243 29.6926 60.8666 29.833 60.4996 29.9449L60.2796 30.0049C60.0496 30.0749 59.8197 30.1449 59.5997 30.2348L56.9302 27.2355L56.8702 27.1655L53.6908 23.5164C51.9311 21.5168 50.1814 19.5173 48.9316 18.0276C47.6819 16.538 46.5921 15.3382 45.6022 14.3584C45.1123 13.8586 44.6624 13.4387 44.2925 13.1087C44.0067 12.8435 43.6914 12.612 43.3526 12.4189C43.2424 12.3679 43.1238 12.3374 43.0027 12.3289H42.5928C42.2928 12.3289 41.9029 12.3289 41.473 12.3289C40.6231 12.3289 39.5933 12.4289 38.7435 12.5189C38.0954 12.6148 37.5068 12.9501 37.0938 13.4587C36.0799 14.482 34.8782 15.3001 33.5544 15.8681C32.3843 16.4239 31.1662 16.8723 29.915 17.2078C29.3813 17.3783 28.8118 17.4033 28.2653 17.2802C27.7187 17.1572 27.2148 16.8906 26.8056 16.508C26.5974 16.2753 26.4619 15.9869 26.4157 15.6781C26.3952 15.6024 26.3908 15.5233 26.4029 15.4458C26.4149 15.3683 26.4431 15.2942 26.4857 15.2283C27.6595 13.8914 28.726 12.464 29.6751 10.9592L29.965 10.5293C30.5449 9.66952 31.0948 8.8697 31.5847 8.23984C31.7925 7.96691 32.0161 7.70651 32.2546 7.46002C32.3794 7.2862 32.5353 7.13705 32.7145 7.02012C33.6453 6.61711 34.6044 6.28295 35.584 6.02035L37.0738 5.57045C37.5237 5.43048 37.8936 5.33051 38.0736 5.26052L39.3034 4.82062C40.3032 4.44071 41.6929 3.93083 42.5528 3.67088C43.6936 3.5675 44.8414 3.5675 45.9822 3.67088C47.201 3.72743 48.3895 4.06991 49.4515 4.67066C50.8308 5.55853 52.3744 6.1603 53.9907 6.44025C55.341 6.71072 56.7131 6.85796 58.09 6.88015C59.2424 6.81837 60.3887 6.67134 61.5194 6.44025C62.7292 6.2303 63.9889 6.02035 64.8888 5.7904L69.118 24.2462C68.4481 24.5661 67.5483 25.016 66.7085 25.4859H66.7284ZM70.6377 26.6856L70.1178 24.4262V24.3562L65.1687 2.91106L73.6272 0.911513L79.0762 24.7161L70.6377 26.6856Z" fill="#0071B2"/>
<path fill-rule="evenodd" clip-rule="evenodd" d="M22.0465 31.6245C21.9512 31.4414 21.83 31.273 21.6865 31.1246L21.0966 31.8345C21.1506 31.8935 21.1945 31.9611 21.2266 32.0344C21.2804 32.1424 21.3745 32.225 21.4886 32.2642C21.6027 32.3035 21.7276 32.2964 21.8365 32.2444C21.9452 32.1886 22.0279 32.0927 22.0671 31.977C22.1063 31.8613 22.0989 31.7349 22.0465 31.6245Z" fill="#0071B2"/>
<path fill-rule="evenodd" clip-rule="evenodd" d="M45.8022 32.7143L44.5224 31.2846L44.5324 31.2746L45.8022 32.7143Z" fill="#0071B2"/>
</svg>
