<svg width="106" height="90" viewBox="0 0 106 90" fill="none" xmlns="http://www.w3.org/2000/svg">
<path fill-rule="evenodd" clip-rule="evenodd" d="M91.8479 48.9402C92.101 50.719 93.0199 52.336 94.4194 53.4651C95.819 54.5943 97.5952 55.1517 99.39 55.0251C101.185 54.8984 102.865 54.0971 104.091 52.7826C105.318 51.4681 106 49.7381 106 47.9414C106 46.1447 105.318 44.4147 104.091 43.1002C102.865 41.7857 101.185 40.9844 99.39 40.8577C97.5952 40.7311 95.819 41.2885 94.4194 42.4177C93.0199 43.5468 92.101 45.1638 91.8479 46.9426H79.5455V12.9841H91.7879C91.9697 14.7743 92.8242 16.429 94.1793 17.6149C95.5345 18.8008 97.2894 19.4297 99.0904 19.3747C100.891 19.3198 102.605 18.5852 103.885 17.3189C105.165 16.0526 105.917 14.3488 105.989 12.551C106.061 10.7531 105.448 8.99482 104.273 7.63049C103.098 6.26615 101.449 5.39722 99.6582 5.19881C97.8674 5.0004 96.0678 5.48728 94.6221 6.56131C93.1765 7.63534 92.1923 9.21666 91.8679 10.9866H78.5453C78.2801 10.9866 78.0257 11.0918 77.8381 11.2791C77.6505 11.4664 77.5451 11.7205 77.5451 11.9853V46.9426H67.2631V48.9402H77.5451V82.8987C77.5451 83.1636 77.6505 83.4176 77.8381 83.6049C78.0257 83.7922 78.2801 83.8975 78.5453 83.8975H91.8379C92.091 85.6763 93.0099 87.2933 94.4094 88.4224C95.809 89.5516 97.5852 90.109 99.38 89.9823C101.175 89.8557 102.855 89.0543 104.081 87.7398C105.308 86.4253 105.99 84.6954 105.99 82.8987C105.99 81.1019 105.308 79.372 104.081 78.0575C102.855 76.743 101.175 75.9417 99.38 75.815C97.5852 75.6884 95.809 76.2458 94.4094 77.3749C93.0099 78.5041 92.091 80.121 91.8379 81.8999H79.5455V48.9402H91.8479ZM98.8493 42.6579C99.8601 42.6579 100.848 42.9572 101.689 43.518C102.529 44.0788 103.184 44.8759 103.571 45.8085C103.958 46.7411 104.059 47.7673 103.862 48.7573C103.665 49.7473 103.178 50.6567 102.463 51.3705C101.749 52.0843 100.838 52.5704 99.8464 52.7673C98.8549 52.9642 97.8273 52.8632 96.8934 52.4769C95.9595 52.0906 95.1612 51.4364 94.5996 50.5971C94.038 49.7578 93.7383 48.771 93.7383 47.7616C93.7383 47.0905 93.8708 46.4261 94.1283 45.8062C94.3858 45.1863 94.7631 44.6232 95.2388 44.1492C95.7144 43.6751 96.2791 43.2994 96.9003 43.0435C97.5216 42.7876 98.1872 42.6565 98.8593 42.6579H98.8493ZM98.8493 7.15126C99.8601 7.15126 100.848 7.45059 101.689 8.0114C102.529 8.57221 103.184 9.3693 103.571 10.3019C103.958 11.2345 104.059 12.2607 103.862 13.2507C103.665 14.2407 103.178 15.1502 102.463 15.8639C101.749 16.5777 100.838 17.0638 99.8464 17.2607C98.8549 17.4576 97.8273 17.3566 96.8934 16.9703C95.9595 16.584 95.1612 15.9298 94.5996 15.0905C94.038 14.2512 93.7383 13.2645 93.7383 12.255C93.7383 11.5839 93.8708 10.9195 94.1283 10.2996C94.3858 9.67972 94.7631 9.11664 95.2388 8.64258C95.7144 8.16852 96.2791 7.79279 96.9003 7.53689C97.5216 7.28099 98.1872 7.14995 98.8593 7.15126H98.8493ZM98.8493 77.685C99.8601 77.685 100.848 77.9844 101.689 78.5452C102.529 79.106 103.184 79.9031 103.571 80.8357C103.958 81.7683 104.059 82.7945 103.862 83.7845C103.665 84.7745 103.178 85.6839 102.463 86.3977C101.749 87.1115 100.838 87.5976 99.8464 87.7945C98.8549 87.9914 97.8273 87.8904 96.8934 87.5041C95.9595 87.1178 95.1612 86.4636 94.5996 85.6243C94.038 84.785 93.7383 83.7982 93.7383 82.7888C93.7383 82.1177 93.8708 81.4532 94.1283 80.8334C94.3858 80.2135 94.7631 79.6504 95.2388 79.1764C95.7144 78.7023 96.2791 78.3266 96.9003 78.0707C97.5216 77.8148 98.1872 77.6837 98.8593 77.685H98.8493Z" fill="url(#paint0_linear_1_5119)"/>
<path fill-rule="evenodd" clip-rule="evenodd" d="M67.3331 37.1046V17.978C67.5946 17.2022 67.7297 16.3895 67.7332 15.571C67.7332 6.99145 52.5402 0 33.8666 0C15.193 0 1.16652e-05 6.99145 1.16652e-05 15.6009C-0.00140883 16.4085 0.126913 17.2111 0.380086 17.978V75.248C0.380086 75.4178 0.380086 75.5976 0.380086 75.7674C0.650138 80.4117 4.70093 83.5579 10.382 85.5255C16.3832 87.5929 24.6148 88.5218 33.8266 88.5218C43.0384 88.5218 51.28 87.523 57.2612 85.5255C62.9623 83.5279 67.0131 80.4117 67.2631 75.7674C67.2631 75.5976 67.2631 75.4178 67.2631 75.248V37.7938C67.2631 37.5608 67.2631 37.331 67.2631 37.1046H67.3331ZM65.3327 75.248C65.3327 78.8037 62.3322 81.6502 56.641 83.6378C50.9499 85.6253 42.9684 86.5542 33.8566 86.5542C24.7448 86.5542 16.7433 85.5554 11.0722 83.6378C5.40106 81.7201 2.38048 78.8037 2.38048 75.248V62.3638C4.16082 64.4512 6.99137 66.0293 10.432 67.1879C16.4332 69.1854 24.6448 70.0843 33.8566 70.0843C43.0684 70.0843 51.31 69.1954 57.2812 67.1879C60.7218 66.0293 63.5524 64.4512 65.3327 62.3638V75.248ZM65.3327 57.0203C65.3327 60.566 62.3922 63.3626 56.6511 65.2902C50.9099 67.2178 42.9784 68.0868 33.8566 68.0868C24.7348 68.0868 16.7433 67.1979 11.0622 65.2902C5.38106 63.3825 2.38048 60.566 2.38048 57.0203V42.508C4.54403 44.9184 7.3031 46.7196 10.382 47.7317C16.3832 49.9889 24.6148 51.1275 33.8466 51.1275C43.0784 51.1275 51.32 49.9889 57.3112 47.7317C60.3796 46.7384 63.1369 44.9659 65.3127 42.5879L65.3327 57.0203ZM65.3327 37.7738C64.9827 41.0598 62.0221 43.8464 56.641 45.8639C50.9699 48.0013 42.9884 49.1299 33.8866 49.1299C24.7848 49.1299 16.7933 48.0013 11.1222 45.8639C5.45107 43.7266 2.41048 40.6903 2.41048 37.1046V21.3439C7.41146 27.1069 19.6038 31.1819 33.8966 31.1819C48.1894 31.1819 60.3418 27.1268 65.3327 21.3739V37.7738ZM56.9811 24.7897C51.17 27.4664 42.9784 29.1743 33.8666 29.1743C24.7548 29.1743 16.5332 27.4764 10.7521 24.7997C4.75094 22.053 2.0004 18.6572 2.0004 15.6009C2.0004 12.5447 4.77094 9.1588 10.7521 6.40217C16.5332 3.73543 24.7348 1.99756 33.8666 1.99756C42.9984 1.99756 51.17 3.70547 56.9811 6.37221C62.9823 9.12884 65.7328 12.5247 65.7328 15.571C65.7328 18.6172 62.9623 22.053 56.9811 24.7997V24.7897Z" fill="url(#paint1_linear_1_5119)"/>
<defs>
<linearGradient id="paint0_linear_1_5119" x1="9.71487" y1="31.9249" x2="111.556" y2="91.0202" gradientUnits="userSpaceOnUse">
<stop offset="0.0037645" stop-color="#43CCF8"/>
<stop offset="1" stop-color="#6A30F4"/>
</linearGradient>
<linearGradient id="paint1_linear_1_5119" x1="9.71487" y1="31.9249" x2="111.556" y2="91.0202" gradientUnits="userSpaceOnUse">
<stop offset="0.0037645" stop-color="#43CCF8"/>
<stop offset="1" stop-color="#6A30F4"/>
</linearGradient>
</defs>
</svg>
