<svg width="120" height="83" viewBox="0 0 120 83" fill="none" xmlns="http://www.w3.org/2000/svg">
<path fill-rule="evenodd" clip-rule="evenodd" d="M31.4628 16.2546C31.0437 16.2546 30.6287 16.3375 30.2416 16.4984C29.8545 16.6594 29.5029 16.8952 29.207 17.1925C28.9111 17.4898 28.6767 17.8426 28.5172 18.2308C28.3577 18.619 28.2763 19.0349 28.2776 19.4546V22.0046C28.2776 23.0655 27.8568 24.0829 27.1078 24.8331C26.3587 25.5832 25.3429 26.0046 24.2836 26.0046H21.7374C20.9222 26.0503 20.1553 26.4069 19.5943 27.001C19.0333 27.5952 18.7207 28.3819 18.7207 29.1996C18.7207 30.0174 19.0333 30.8041 19.5943 31.3983C20.1553 31.9924 20.9222 32.3489 21.7374 32.3946H24.2836C25.3429 32.3946 26.3587 32.8161 27.1078 33.5662C27.8568 34.3164 28.2776 35.3338 28.2776 36.3946V38.9346C28.2776 39.7807 28.6132 40.5921 29.2105 41.1903C29.8079 41.7886 30.618 42.1246 31.4628 42.1246C32.3076 42.1246 33.1178 41.7886 33.7151 41.1903C34.3124 40.5921 34.648 39.7807 34.648 38.9346V36.3846C34.648 35.3238 35.0688 34.3064 35.8178 33.5562C36.5669 32.8061 37.5828 32.3846 38.642 32.3846H41.1882C42.0035 32.3389 42.7703 31.9824 43.3313 31.3883C43.8923 30.7941 44.2049 30.0074 44.2049 29.1896C44.2049 28.3719 43.8923 27.5852 43.3313 26.991C42.7703 26.3969 42.0035 26.0403 41.1882 25.9946H38.642C37.5828 25.9946 36.5669 25.5732 35.8178 24.8231C35.0688 24.0729 34.648 23.0555 34.648 21.9946V19.4546C34.6493 19.0349 34.5679 18.619 34.4084 18.2308C34.249 17.8426 34.0145 17.4898 33.7186 17.1925C33.4227 16.8952 33.0711 16.6594 32.684 16.4984C32.2969 16.3375 31.8819 16.2546 31.4628 16.2546ZM26.2806 19.4546C26.2806 18.0782 26.8266 16.7581 27.7984 15.7848C28.7703 14.8114 30.0884 14.2646 31.4628 14.2646C32.8372 14.2646 34.1553 14.8114 35.1272 15.7848C36.0991 16.7581 36.645 18.0782 36.645 19.4546V22.0046C36.645 22.5351 36.8554 23.0438 37.2299 23.4189C37.6045 23.7939 38.1124 24.0046 38.642 24.0046H41.1882C42.5246 24.0634 43.7868 24.6364 44.7116 25.6042C45.6365 26.572 46.1528 27.86 46.1528 29.1996C46.1528 30.5393 45.6365 31.8273 44.7116 32.7951C43.7868 33.7629 42.5246 34.3359 41.1882 34.3946H38.642C38.1124 34.3946 37.6045 34.6054 37.2299 34.9804C36.8554 35.3555 36.645 35.8642 36.645 36.3946V38.9346C36.645 40.3111 36.0991 41.6312 35.1272 42.6045C34.1553 43.5778 32.8372 44.1246 31.4628 44.1246C30.0884 44.1246 28.7703 43.5778 27.7984 42.6045C26.8266 41.6312 26.2806 40.3111 26.2806 38.9346V36.3846C26.2806 35.8542 26.0702 35.3455 25.6957 34.9704C25.3212 34.5954 24.8132 34.3846 24.2836 34.3846H21.7374C20.401 34.3259 19.1389 33.7529 18.214 32.7851C17.2891 31.8173 16.7728 30.5293 16.7728 29.1896C16.7728 27.85 17.2891 26.562 18.214 25.5942C19.1389 24.6264 20.401 24.0534 21.7374 23.9946H24.2836C24.8132 23.9946 25.3212 23.7839 25.6957 23.4089C26.0702 23.0338 26.2806 22.5251 26.2806 21.9946V19.4546Z" fill="url(#paint0_linear_1_5123)"/>
<path fill-rule="evenodd" clip-rule="evenodd" d="M91.0934 22.6446C91.7244 22.6387 92.3396 22.4458 92.8613 22.0901C93.383 21.7345 93.7879 21.2321 94.0248 20.6463C94.2618 20.0605 94.3202 19.4175 94.1927 18.7985C94.0653 18.1795 93.7576 17.6121 93.3086 17.168C92.8596 16.7239 92.2893 16.4228 91.6697 16.3029C91.05 16.183 90.4088 16.2495 89.8269 16.4941C89.245 16.7387 88.7484 17.1504 88.3998 17.6773C88.0512 18.2041 87.8663 18.8226 87.8682 19.4546C87.8682 19.8769 87.9519 20.2951 88.1144 20.6847C88.277 21.0744 88.5152 21.4278 88.8152 21.7246C89.1152 22.0213 89.4711 22.2555 89.8622 22.4134C90.2532 22.5713 90.6717 22.6499 91.0934 22.6446ZM91.0934 40.8246C91.724 40.8187 92.3388 40.626 92.8603 40.2708C93.3818 39.9156 93.7867 39.4138 94.0239 38.8286C94.2612 38.2434 94.3202 37.6009 94.1935 36.9822C94.0669 36.3634 93.7602 35.796 93.3122 35.3515C92.8642 34.907 92.2948 34.6052 91.6758 34.4841C91.0568 34.3631 90.4159 34.4282 89.8338 34.6712C89.2517 34.9143 88.7545 35.3244 88.4047 35.85C88.0549 36.3755 87.8682 36.993 87.8682 37.6246C87.8668 38.0478 87.9496 38.467 88.1115 38.8578C88.2735 39.2486 88.5115 39.6033 88.8116 39.9011C89.1118 40.1989 89.4681 40.4339 89.8598 40.5925C90.2516 40.751 90.6709 40.8299 91.0934 40.8246ZM82.017 31.7346C82.6513 31.7466 83.2749 31.5691 83.8082 31.2248C84.3414 30.8805 84.7603 30.3849 85.0113 29.8014C85.2624 29.2178 85.3343 28.5726 85.2178 27.9479C85.1014 27.3233 84.8019 26.7475 84.3575 26.294C83.9131 25.8404 83.344 25.5296 82.7226 25.4012C82.1012 25.2728 81.4557 25.3326 80.8684 25.5729C80.281 25.8133 79.7784 26.2233 79.4246 26.7507C79.0708 27.2782 78.8818 27.8992 78.8817 28.5346C78.8815 29.373 79.2099 30.178 79.7963 30.7764C80.3826 31.3749 81.18 31.7189 82.017 31.7346ZM99.5207 31.7346C100.153 31.7366 100.772 31.5506 101.299 31.2002C101.825 30.8498 102.236 30.3507 102.48 29.7662C102.723 29.1816 102.788 28.5379 102.666 27.9165C102.544 27.2951 102.24 26.724 101.794 26.2755C101.347 25.8269 100.778 25.5212 100.158 25.3969C99.5377 25.2726 98.8947 25.3354 98.3103 25.5773C97.7258 25.8192 97.2262 26.2293 96.8747 26.7558C96.5231 27.2822 96.3355 27.9013 96.3355 28.5346C96.3342 28.9544 96.4156 29.3703 96.5751 29.7585C96.7346 30.1467 96.969 30.4995 97.2649 30.7968C97.5608 31.0941 97.9124 31.3299 98.2995 31.4909C98.6866 31.6518 99.1016 31.7346 99.5207 31.7346ZM96.2756 19.4546C96.2736 20.4807 95.968 21.4831 95.3974 22.3353C94.8268 23.1875 94.0167 23.8512 93.0696 24.2424C92.1225 24.6337 91.0808 24.7351 90.0762 24.5337C89.0717 24.3323 88.1492 23.8372 87.4255 23.111C86.7017 22.3848 86.2091 21.46 86.01 20.4535C85.8108 19.447 85.914 18.404 86.3066 17.4562C86.6991 16.5084 87.3633 15.6985 88.2153 15.1286C89.0673 14.5588 90.0688 14.2546 91.0934 14.2546C91.7747 14.2546 92.4494 14.3892 93.0788 14.6507C93.7082 14.9121 94.2799 15.2953 94.7613 15.7783C95.2426 16.2613 95.6241 16.8346 95.884 17.4654C96.1438 18.0963 96.2769 18.7722 96.2756 19.4546ZM96.2756 37.6246C96.2756 38.6511 95.9717 39.6546 95.4022 40.5081C94.8328 41.3615 94.0234 42.0268 93.0765 42.4196C92.1296 42.8124 91.0876 42.9152 90.0824 42.7149C89.0771 42.5147 88.1537 42.0204 87.429 41.2945C86.7042 40.5687 86.2107 39.6439 86.0107 38.6372C85.8108 37.6304 85.9134 36.5869 86.3056 35.6385C86.6978 34.6902 87.3621 33.8796 88.2143 33.3093C89.0665 32.739 90.0684 32.4346 91.0934 32.4346C92.4678 32.4346 93.7859 32.9814 94.7578 33.9548C95.7296 34.9281 96.2756 36.2482 96.2756 37.6246ZM82.017 33.7346C83.0464 33.7465 84.0561 33.4517 84.9178 32.8876C85.7794 32.3235 86.4543 31.5156 86.8565 30.5665C87.2586 29.6175 87.37 28.5701 87.1765 27.5575C86.983 26.5448 86.4933 25.6127 85.7696 24.8794C85.0459 24.1462 84.1209 23.6449 83.1121 23.4394C82.1033 23.2338 81.0562 23.3332 80.104 23.725C79.1517 24.1167 78.3373 24.7831 77.7641 25.6395C77.1908 26.4959 76.8847 27.5036 76.8847 28.5346C76.8846 29.9034 77.4234 31.2171 78.3842 32.1905C79.345 33.164 80.6503 33.7188 82.017 33.7346ZM104.703 28.5346C104.703 29.5611 104.399 30.5646 103.83 31.4181C103.26 32.2715 102.451 32.9368 101.504 33.3296C100.557 33.7224 99.515 33.8252 98.5097 33.6249C97.5045 33.4247 96.5811 32.9304 95.8563 32.2045C95.1316 31.4787 94.638 30.5539 94.4381 29.5472C94.2381 28.5404 94.3407 27.4969 94.733 26.5485C95.1252 25.6002 95.7894 24.7896 96.6416 24.2193C97.4938 23.649 98.4958 23.3446 99.5207 23.3446C100.895 23.3446 102.213 23.8914 103.185 24.8648C104.157 25.8381 104.703 27.1582 104.703 28.5346Z" fill="url(#paint1_linear_1_5123)"/>
<path fill-rule="evenodd" clip-rule="evenodd" d="M109.835 13.8346C106.36 6.39464 102.137 2.22464 97.2641 0.684641C92.3914 -0.855359 87.1892 0.324641 81.8772 3.00464C62.8258 13.4246 44.2536 7.30464 37.4438 3.00464L37.314 2.94464C37.2351 2.86157 37.1442 2.79079 37.0444 2.73464C32.1418 0.214641 27.1593 -0.825359 22.4563 0.814641C17.7534 2.45464 13.5996 6.67464 10.1448 14.1046C3.2651 28.8646 0 47.7546 0 62.5646C0 70.5046 4.0639 77.4546 9.79531 80.4546C12.7197 82.0178 16.1266 82.4143 19.331 81.5646C22.686 80.6646 26.011 78.4046 29.0065 74.5646C30.1078 73.036 31.0418 71.3933 31.7923 69.6646L31.8822 69.4746C32.5668 67.9702 33.3576 66.5165 34.2486 65.1246C35.7254 66.8159 37.6838 68.0137 39.8606 68.557C42.0373 69.1003 44.328 68.9631 46.4245 68.1637C48.5211 67.3643 50.3229 65.9412 51.5878 64.0857C52.8527 62.2302 53.5199 60.0312 53.4998 57.7846C53.4998 57.4646 53.4998 57.1446 53.4998 56.7846H66.0909C66.0909 57.0946 66.0909 57.4146 66.0909 57.7846C66.077 59.938 66.6945 62.0481 67.8669 63.8532C69.0393 65.6584 70.7149 67.0792 72.686 67.9395C74.6571 68.7999 76.837 69.0619 78.9554 68.693C81.0738 68.3242 83.0376 67.3407 84.6031 65.8646C86.3205 67.8646 87.4488 69.4546 88.5971 71.0646C89.326 72.0646 90.0749 73.0646 90.9935 74.2946C93.989 78.1646 97.324 80.4246 100.669 81.2946C103.873 82.1443 107.28 81.7478 110.205 80.1846C115.936 77.1846 120 70.1846 120 62.2946C119.96 47.4846 116.705 28.5946 109.835 13.8346ZM42.4963 66.8346C40.7189 66.8346 38.9814 66.3068 37.5036 65.3179C36.0258 64.3289 34.874 62.9233 34.1938 61.2788C33.5136 59.6343 33.3357 57.8247 33.6824 56.0788C34.0292 54.333 34.885 52.7294 36.1418 51.4707C37.3986 50.212 38.9999 49.3548 40.7431 49.0076C42.4863 48.6603 44.2932 48.8385 45.9352 49.5197C47.5773 50.2009 48.9808 51.3545 49.9683 52.8345C50.9557 54.3146 51.4828 56.0546 51.4828 57.8346C51.4696 60.2147 50.5156 62.4925 48.8296 64.1698C47.1435 65.8471 44.8627 66.7873 42.4863 66.7846L42.4963 66.8346ZM77.0844 66.8346C75.307 66.8346 73.5696 66.3068 72.0917 65.3179C70.6139 64.3289 69.4621 62.9233 68.7819 61.2788C68.1017 59.6343 67.9238 57.8247 68.2705 56.0788C68.6173 54.333 69.4732 52.7294 70.7299 51.4707C71.9867 50.212 73.588 49.3548 75.3312 49.0076C77.0744 48.6603 78.8813 48.8385 80.5234 49.5197C82.1654 50.2009 83.5689 51.3545 84.5564 52.8345C85.5438 54.3146 86.0709 56.0546 86.0709 57.8346C86.0577 60.2147 85.1037 62.4925 83.4177 64.1698C81.7316 65.8471 79.4509 66.7873 77.0744 66.7846L77.0844 66.8346ZM109.236 78.4046C106.761 79.7475 103.866 80.0875 101.148 79.3546C98.3026 78.5946 95.327 76.6446 92.5312 73.0446C91.7024 72.0046 90.9835 71.0046 90.2546 70.0046C89.0165 68.3046 87.7683 66.5546 85.9111 64.3846C86.8423 63.0844 87.4791 61.5965 87.777 60.0245C88.0749 58.4524 88.0268 56.8343 87.636 55.2828C87.2452 53.7313 86.5212 52.2839 85.5144 51.0415C84.5076 49.7992 83.2423 48.7917 81.8067 48.0894C80.3712 47.3872 78.7999 47.007 77.2025 46.9755C75.6052 46.944 74.0202 47.2618 72.5581 47.9069C71.096 48.5519 69.7921 49.5087 68.7372 50.7104C67.6823 51.9121 66.9018 53.3298 66.4503 54.8646H53.1003C52.6494 53.3903 51.8939 52.0274 50.883 50.8643C49.872 49.7013 48.6282 48.7641 47.2323 48.1135C45.8363 47.463 44.3194 47.1137 42.7799 47.0882C41.2405 47.0628 39.7129 47.3617 38.2962 47.9658C36.8796 48.5698 35.6056 49.4653 34.5568 50.5943C33.5081 51.7233 32.7081 53.0605 32.2088 54.5191C31.7094 55.9778 31.5218 57.5253 31.6582 59.0612C31.7946 60.5971 32.2519 62.0872 33.0005 63.4346C31.8729 65.0757 30.897 66.8162 30.0849 68.6346L30.0349 68.7446C29.333 70.3763 28.4594 71.9284 27.4289 73.3746C24.6331 76.9746 21.6575 78.9246 18.8218 79.6846C16.0944 80.405 13.1949 80.047 10.7239 78.6846C5.74139 76.0746 1.997 69.8746 1.997 62.5646C1.997 48.0046 5.22217 29.3946 11.982 15.0046C15.2971 7.77464 19.1313 4.09464 23.1153 2.70464C27.0993 1.31464 31.4928 2.12464 36.0959 4.51464H36.2356C36.2791 4.5742 36.3333 4.62508 36.3954 4.66464C43.6345 9.23464 62.9256 15.5646 82.7659 4.66464C87.8682 2.22464 92.5312 1.28464 96.665 2.59464C100.799 3.90464 104.653 7.51464 108.018 14.6846C114.748 29.1246 118.003 47.6846 118.003 62.2946C117.963 69.6046 114.219 75.8046 109.236 78.4046Z" fill="url(#paint2_linear_1_5123)"/>
<path fill-rule="evenodd" clip-rule="evenodd" d="M45.3819 10.7246C45.6296 10.6341 45.903 10.6453 46.1424 10.7558C46.3818 10.8663 46.5679 11.0672 46.66 11.3146L50.654 22.3146C50.9331 23.0877 51.4432 23.7559 52.115 24.2283C52.7868 24.7007 53.5876 24.9543 54.4084 24.9546H67.5087C68.3296 24.9543 69.1303 24.7007 69.8021 24.2283C70.4739 23.7559 70.984 23.0877 71.2631 22.3146L75.2571 11.3146C75.3485 11.0653 75.535 10.8626 75.7756 10.751C76.0162 10.6394 76.2913 10.6281 76.5402 10.7196C76.7891 10.8111 76.9916 10.9979 77.103 11.2389C77.2144 11.4799 77.2257 11.7553 77.1343 12.0046L73.1403 23.0046C72.7283 24.1717 71.9659 25.1826 70.9577 25.8988C69.9495 26.6149 68.7448 27.0012 67.5087 27.0046H54.4084C53.1724 27.0012 51.9677 26.6149 50.9594 25.8988C49.9512 25.1826 49.1888 24.1717 48.7768 23.0046L44.7828 12.0046C44.6929 11.7553 44.7055 11.4805 44.8178 11.2404C44.9302 11.0004 45.1331 10.8149 45.3819 10.7246Z" fill="url(#paint3_linear_1_5123)"/>
<defs>
<linearGradient id="paint0_linear_1_5123" x1="10.998" y1="29.088" x2="112.4" y2="102.197" gradientUnits="userSpaceOnUse">
<stop offset="0.0037645" stop-color="#43CCF8"/>
<stop offset="1" stop-color="#6A30F4"/>
</linearGradient>
<linearGradient id="paint1_linear_1_5123" x1="10.998" y1="29.088" x2="112.4" y2="102.197" gradientUnits="userSpaceOnUse">
<stop offset="0.0037645" stop-color="#43CCF8"/>
<stop offset="1" stop-color="#6A30F4"/>
</linearGradient>
<linearGradient id="paint2_linear_1_5123" x1="10.998" y1="29.088" x2="112.4" y2="102.197" gradientUnits="userSpaceOnUse">
<stop offset="0.0037645" stop-color="#43CCF8"/>
<stop offset="1" stop-color="#6A30F4"/>
</linearGradient>
<linearGradient id="paint3_linear_1_5123" x1="10.998" y1="29.088" x2="112.4" y2="102.197" gradientUnits="userSpaceOnUse">
<stop offset="0.0037645" stop-color="#43CCF8"/>
<stop offset="1" stop-color="#6A30F4"/>
</linearGradient>
</defs>
</svg>
