<svg width="30" height="18" viewBox="0 0 30 18" fill="none" xmlns="http://www.w3.org/2000/svg">
<path fill-rule="evenodd" clip-rule="evenodd" d="M26.7031 12.4463C26.7031 12.4463 29.1286 14.8418 29.7286 15.9503C29.7403 15.9663 29.7494 15.984 29.7556 16.0028C30.0001 16.4123 30.0601 16.7333 29.9401 16.9703C29.7376 17.3618 29.0521 17.5583 28.8196 17.5748H24.5326C24.2341 17.5748 23.6131 17.4968 22.8571 16.9748C22.2796 16.5713 21.7051 15.9068 21.1486 15.2573C20.3176 14.2928 19.5991 13.4558 18.8716 13.4558C18.7798 13.4556 18.6885 13.4708 18.6016 13.5008C18.0511 13.6748 17.3521 14.4593 17.3521 16.5488C17.3521 17.2028 16.8361 17.5748 16.4746 17.5748H14.5111C13.8421 17.5748 10.3591 17.3408 7.27064 14.0843C3.48614 10.0973 0.0871351 2.09933 0.0541351 2.02883C-0.157365 1.51133 0.286635 1.22933 0.766635 1.22933H5.09564C5.67614 1.22933 5.86514 1.58033 5.99714 1.89533C6.15014 2.25683 6.71714 3.70283 7.64714 5.32733C9.15314 7.97033 10.0786 9.04583 10.8181 9.04583C10.9571 9.04624 11.0937 9.01002 11.2141 8.94083C12.1801 8.40983 12.0001 4.95983 11.9551 4.24883C11.9551 4.11083 11.9536 2.70833 11.4586 2.03033C11.1046 1.54433 10.5016 1.35533 10.1371 1.28633C10.2346 1.14533 10.4416 0.929328 10.7071 0.801828C11.3686 0.471828 12.5641 0.423828 13.7506 0.423828H14.4091C15.6961 0.441828 16.0291 0.524328 16.4971 0.642828C17.4391 0.867828 17.4571 1.47833 17.3746 3.55733C17.3506 4.15133 17.3251 4.82033 17.3251 5.60783C17.3251 5.77583 17.3176 5.96333 17.3176 6.15383C17.2891 7.22033 17.2516 8.42183 18.0046 8.91533C18.1023 8.97617 18.2151 9.00839 18.3301 9.00833C18.5911 9.00833 19.3726 9.00833 21.4921 5.37083C22.4221 3.76433 23.1421 1.86983 23.1916 1.72733C23.2336 1.64783 23.3596 1.42433 23.5126 1.33433C23.6215 1.27642 23.7434 1.24749 23.8666 1.25033H28.9591C29.5141 1.25033 29.8906 1.33433 29.9641 1.54433C30.0871 1.88483 29.9401 2.92433 27.6151 6.06833C27.2236 6.59183 26.8801 7.04483 26.5786 7.44083C24.4711 10.2068 24.4711 10.3463 26.7031 12.4463Z" fill="#2DC0C5"/>
</svg>
