<svg width="98" height="84" viewBox="0 0 98 84" fill="none" xmlns="http://www.w3.org/2000/svg">
<path fill-rule="evenodd" clip-rule="evenodd" d="M88 2H10C5.58172 2 2 5.58172 2 10V74C2 78.4183 5.58172 82 10 82H88C92.4183 82 96 78.4183 96 74V10C96 5.58172 92.4183 2 88 2ZM10 0C4.47715 0 0 4.47715 0 10V74C0 79.5229 4.47715 84 10 84H88C93.5229 84 98 79.5228 98 74V10C98 4.47715 93.5229 0 88 0H10Z" fill="url(#paint0_linear_1_9606)"/>
<path fill-rule="evenodd" clip-rule="evenodd" d="M35.7384 33.9393C36.3242 34.5251 36.3242 35.4749 35.7384 36.0607L23.0105 48.7886C22.8152 48.9838 22.8152 49.3004 23.0105 49.4957L35.7384 62.2236C36.3242 62.8094 36.3242 63.7591 35.7384 64.3449C35.1526 64.9307 34.2029 64.9307 33.6171 64.3449L20.8892 51.617C19.5223 50.2502 19.5223 48.0341 20.8892 46.6673L33.6171 33.9393C34.2029 33.3536 35.1526 33.3536 35.7384 33.9393Z" fill="url(#paint1_linear_1_9606)"/>
<path fill-rule="evenodd" clip-rule="evenodd" d="M61.4037 64.0607C60.8179 63.4749 60.8179 62.5251 61.4037 61.9393L74.1316 49.2114C74.3269 49.0162 74.3269 48.6996 74.1316 48.5043L61.4037 35.7764C60.8179 35.1906 60.8179 34.2409 61.4037 33.6551C61.9895 33.0693 62.9392 33.0693 63.525 33.6551L76.2529 46.383C77.6198 47.7498 77.6198 49.9659 76.2529 51.3327L63.525 64.0607C62.9392 64.6464 61.9895 64.6464 61.4037 64.0607Z" fill="url(#paint2_linear_1_9606)"/>
<path d="M43.4489 68.3882C42.6487 68.1738 42.1738 67.3513 42.3882 66.5511L51.9645 30.8119C52.1789 30.0117 53.0015 29.5368 53.8017 29.7512C54.6018 29.9656 55.0767 30.7881 54.8623 31.5883L45.286 67.3276C45.0716 68.1278 44.2491 68.6026 43.4489 68.3882Z" fill="url(#paint3_linear_1_9606)"/>
<path fill-rule="evenodd" clip-rule="evenodd" d="M97 16H1V14H97V16Z" fill="url(#paint4_linear_1_9606)"/>
<path fill-rule="evenodd" clip-rule="evenodd" d="M15 10C16.1046 10 17 9.10457 17 8C17 6.89543 16.1046 6 15 6C13.8954 6 13 6.89543 13 8C13 9.10457 13.8954 10 15 10ZM15 12C17.2091 12 19 10.2091 19 8C19 5.79086 17.2091 4 15 4C12.7909 4 11 5.79086 11 8C11 10.2091 12.7909 12 15 12Z" fill="url(#paint5_linear_1_9606)"/>
<path fill-rule="evenodd" clip-rule="evenodd" d="M28 10C29.1046 10 30 9.10457 30 8C30 6.89543 29.1046 6 28 6C26.8954 6 26 6.89543 26 8C26 9.10457 26.8954 10 28 10ZM28 12C30.2091 12 32 10.2091 32 8C32 5.79086 30.2091 4 28 4C25.7909 4 24 5.79086 24 8C24 10.2091 25.7909 12 28 12Z" fill="url(#paint6_linear_1_9606)"/>
<path fill-rule="evenodd" clip-rule="evenodd" d="M41 10C42.1046 10 43 9.10457 43 8C43 6.89543 42.1046 6 41 6C39.8954 6 39 6.89543 39 8C39 9.10457 39.8954 10 41 10ZM41 12C43.2091 12 45 10.2091 45 8C45 5.79086 43.2091 4 41 4C38.7909 4 37 5.79086 37 8C37 10.2091 38.7909 12 41 12Z" fill="url(#paint7_linear_1_9606)"/>
<defs>
<linearGradient id="paint0_linear_1_9606" x1="8.98167" y1="29.7966" x2="103.584" y2="84.1737" gradientUnits="userSpaceOnUse">
<stop offset="0.0037645" stop-color="#43CCF8"/>
<stop offset="1" stop-color="#6A30F4"/>
</linearGradient>
<linearGradient id="paint1_linear_1_9606" x1="8.98167" y1="29.7966" x2="103.584" y2="84.1737" gradientUnits="userSpaceOnUse">
<stop offset="0.0037645" stop-color="#43CCF8"/>
<stop offset="1" stop-color="#6A30F4"/>
</linearGradient>
<linearGradient id="paint2_linear_1_9606" x1="8.98167" y1="29.7966" x2="103.584" y2="84.1737" gradientUnits="userSpaceOnUse">
<stop offset="0.0037645" stop-color="#43CCF8"/>
<stop offset="1" stop-color="#6A30F4"/>
</linearGradient>
<linearGradient id="paint3_linear_1_9606" x1="8.98167" y1="29.7966" x2="103.584" y2="84.1737" gradientUnits="userSpaceOnUse">
<stop offset="0.0037645" stop-color="#43CCF8"/>
<stop offset="1" stop-color="#6A30F4"/>
</linearGradient>
<linearGradient id="paint4_linear_1_9606" x1="8.98167" y1="29.7966" x2="103.584" y2="84.1737" gradientUnits="userSpaceOnUse">
<stop offset="0.0037645" stop-color="#43CCF8"/>
<stop offset="1" stop-color="#6A30F4"/>
</linearGradient>
<linearGradient id="paint5_linear_1_9606" x1="8.98167" y1="29.7966" x2="103.584" y2="84.1737" gradientUnits="userSpaceOnUse">
<stop offset="0.0037645" stop-color="#43CCF8"/>
<stop offset="1" stop-color="#6A30F4"/>
</linearGradient>
<linearGradient id="paint6_linear_1_9606" x1="8.98167" y1="29.7966" x2="103.584" y2="84.1737" gradientUnits="userSpaceOnUse">
<stop offset="0.0037645" stop-color="#43CCF8"/>
<stop offset="1" stop-color="#6A30F4"/>
</linearGradient>
<linearGradient id="paint7_linear_1_9606" x1="8.98167" y1="29.7966" x2="103.584" y2="84.1737" gradientUnits="userSpaceOnUse">
<stop offset="0.0037645" stop-color="#43CCF8"/>
<stop offset="1" stop-color="#6A30F4"/>
</linearGradient>
</defs>
</svg>
